<?xml version="1.0" encoding="utf-8" ?>
<svg baseProfile="full" height="200mm" version="1.1" viewBox="0,0,200,200" width="200mm" xmlns="http://www.w3.org/2000/svg" xmlns:ev="http://www.w3.org/2001/xml-events" xmlns:xlink="http://www.w3.org/1999/xlink"><defs /><rect fill="#1a1a1a" height="200" width="200" x="0" y="0" /><text alignment-baseline="middle" fill="#e1ed5e" style="dominant-baseline: central; font-size:9.0px; font-family:Arial;" text-anchor="middle" x="100.0" y="100.0">2020</text><line stroke="#e1ed5e" stroke-width="0.3" x1="100.0" x2="100.0" y1="15.0" y2="10.0" /><path d="M 100.0 14.0 a86.0,86.0 0 0,1 42.35913384403234,11.155469271406648" fill="none" id="id61" stroke="none" /><text fill="#e1ed5e" style="font-size:6.75px; font-family:Arial;" text-anchor="middle"><textPath startOffset="22.145653131862478" xlink:href="#id61">January</textPath></text><path d="M 100.36049292484886 79.00309439819443 l 0.24815228775521042 -14.453626691988035 a35.45575678092528,35.45575678092528 0 0,0 0.6084658420662619,0.015671921714695402 l -0.4962314438922137 14.447237052923295" fill="#ffae10" stroke="none" /><path d="M 101.44090949804482 79.04949213459386 l 4.322728494134444 -62.8515235962184 a84.0,84.0 0 0,0 1.437724020899066,0.1112889320197854 l -5.401021509808744 62.76805689720356" fill="#4dd2ff" stroke="none" /><path d="M 103.58742460773223 79.30868818359171 l 3.6127830515656543 -20.837572581695284 a42.148442790784834,42.148442790784834 0 0,0 0.7118375568000892,0.12972051540560847 l -3.969955341916797 20.77248389235831" fill="#faff18" stroke="none" /><path d="M 105.3480935250658 79.69241777938227 l 3.1803199528109958 -12.07619287637378 a33.487948966488794,33.487948966488794 0 0,0 0.5546538807187922,0.1511733816261584 l -3.3871552344644806 12.019819000603478" fill="#ff940d" stroke="none" /><path d="M 107.06938296918511 80.22567764915836 l 9.47277144245218 -26.49702765791575 a49.13940073109749,49.13940073109749 0 0,0 0.7918717280294584,0.29078626709874644 l -9.926232322135762 26.330510541808284" fill="#a8ff21" stroke="none" /><path d="M 109.06512990194946 81.05736502329252 l 4.393116513055499 -9.179923886039456 a31.17695805487861,31.17695805487861 0 0,0 0.48077801548851806,0.23517261946902643 l -4.550054777806085 9.103157516473207" fill="#ff750a" stroke="none" /><line stroke="#e1ed5e" stroke-width="0.3" x1="143.13028292997686" x2="145.6673583964461" y1="26.7553504044142" y2="22.446841604673864" /><path d="M 143.63769802327073 25.89364864446614 a86.0,86.0 0 0,1 29.32050498858742,28.57503671076993" fill="none" id="id62" stroke="none" /><text fill="#e1ed5e" style="font-size:6.75px; font-family:Arial;" text-anchor="middle"><textPath startOffset="20.669276256404974" xlink:href="#id62">February</textPath></text><path d="M 110.65571695917076 81.90426304109057 l 6.281441814671322 -10.667261455660205 a33.3792963545799,33.3792963545799 0 0,0 0.4912593863029759,0.29498714644630464 l -6.463633957531731 10.557860308677979" fill="#ff930d" stroke="none" /><path d="M 112.16784306229584 82.88440491214696 l 5.874137101368963 -8.262709471418516 a31.13794133415402,31.13794133415402 0 0,0 0.4329938174968724,0.31345413233669583 l -6.015111929239803 8.160654567708747" fill="#ff740a" stroke="none" /><path d="M 113.31354834802062 83.75963576809568 l 9.824906942553275 -11.98478896239207 a36.49722436124954,36.49722436124954 0 0,0 0.4811127826212236,0.40136139463168846 l -10.02919405933639 11.81436538384851" fill="#ffbc11" stroke="none" /><path d="M 113.59037401385872 83.9905735841838 l 5.033599345502169 -5.929567372196034 a28.777974774480285,28.777974774480285 0 0,0 0.373867716635476,0.32293802911374075 l -5.134646541900506 5.842285210617573" fill="#ff5307" stroke="none" /><path d="M 115.8921839302757 86.27271002978787 l 5.817796328221415 -5.025273904172919 a28.68766101806186,28.68766101806186 0 0,0 0.3187136797989964,0.37544391340907146 l -5.903204571527524 4.924663208314295" fill="#ff5207" stroke="none" /><path d="M 116.35404254752997 86.82634096563983 l 5.914570116259478 -4.764359015207923 a28.594817738823142,28.594817738823142 0 0,0 0.30464860180290276,0.3849135562933371 l -5.99548514870394 4.662125514999908" fill="#ff5107" stroke="none" /><path d="M 117.01052211995028 87.68569379921539 l 12.556394238953807 -9.089861107490623 a36.50124547375155,36.50124547375155 0 0,0 0.3630742411580149,0.5107093892216593 l -12.710583578641783 8.872974491559459" fill="#ffbc11" stroke="none" /><path d="M 117.42321728460499 88.27688183743584 l 10.516144415092377 -7.075731283087884 a33.6749858599348,33.6749858599348 0 0,0 0.31859031952662953,0.48238634968171734 l -10.636059173539731 6.894165055067108" fill="#ff970d" stroke="none" /><path d="M 117.62189284568427 88.57770195909679 l 6.177049429702619 -4.003888811339258 a28.36118640373664,28.36118640373664 0 0,0 0.2613041816011138,0.41081357494789805 l -6.244871302929623 3.8972615617126882" fill="#ff4d07" stroke="none" /><path d="M 117.81537515405839 88.88188828441811 l 8.735494040510748 -5.4515943556245405 a31.29702564579093,31.29702564579093 0 0,0 0.2805287068475573,0.45822256008469764 l -8.827790711813709 5.300834679415288" fill="#ff760a" stroke="none" /><line stroke="#e1ed5e" stroke-width="0.3" x1="172.87174338648825" x2="177.1583165268699" y1="56.24261187166439" y2="53.66864786411523" /><path d="M 173.72905801456457 55.72781907015455 a86.0,86.0 0 0,1 12.242430191666344,42.057860355516425" fill="none" id="id63" stroke="none" /><text fill="#e1ed5e" style="font-size:6.75px; font-family:Arial;" text-anchor="middle"><textPath startOffset="22.145653131862474" xlink:href="#id63">March</textPath></text><path d="M 118.18653347947321 89.5 l 12.809136518008575 -7.395358416758919 a35.790716833517834,35.790716833517834 0 0,0 0.3026303405524074,0.5347188142769406 l -12.934200223582359 7.17438283238286" fill="#ffb310" stroke="none" /><path d="M 118.36410011445183 89.81374322990088 l 13.67467524935435 -7.5851118470010865 a36.63747629596351,36.63747629596351 0 0,0 0.30034818679561043,0.5526068347826303 l -13.8028687857653 7.349250178743853" fill="#ffbe11" stroke="none" /><path d="M 118.8641267826498 90.77261029715802 l 8.044596113120441 -3.9350150787792293 a29.95543802912244,29.95543802912244 0 0,0 0.22198511877275742,0.46386352105877016 l -8.110960489853111 3.7963390556553556" fill="#ff6409" stroke="none" /><path d="M 119.0197475246899 91.09779779509293 l 16.364551375591525 -7.659436338415916 a39.06835650375044,39.06835650375044 0 0,0 0.2790885908639883,0.6098589385092378 l -16.493624431310565 7.377388417691995" fill="#ffdd14" stroke="none" /><path d="M 119.31412917781788 91.75594674310238 l 9.24207784318148 -3.944893463334999 a31.04879033996079,31.04879033996079 0 0,0 0.2050316561218029,0.49200133553869746 l -9.308435343839767 3.7856596183550235" fill="#ff730a" stroke="none" /><path d="M 119.4528033332814 92.08871423366111 l 21.099683626781463 -8.581057644541149 a43.77786643760139,43.77786643760139 0 0,0 0.27713750339860754,0.6985675481809821 l -21.243879805146193 8.2175890791466" fill="#e6ff1a" stroke="none" /><path d="M 119.58574465831526 92.42381321644754 l 14.958791647545668 -5.786381960715238 a37.03894210195837,37.03894210195837 0 0,0 0.22429604473059864,0.5949719066210778 l -15.055918376090707 5.528741773900002" fill="#ffc312" stroke="none" /><path d="M 119.83427380445688 93.10060997987247 l 14.737927212771677 -5.126616125784956 a36.60412418016834,36.60412418016834 0 0,0 0.20134809397071177,0.5952498626127305 l -14.823760728314754 4.872864588698064" fill="#ffbd11" stroke="none" /><path d="M 120.05942366710727 93.78553927170692 l 8.147670317727059 -2.5241690916385 a29.529710499750486,29.529710499750486 0 0,0 0.14585382106007835,0.48549993392457275 l -8.189800458790764 2.383931554123204" fill="#ff5e08" stroke="none" /><path d="M 120.16314734710363 94.1308016681162 l 15.491407155547586 -4.509322848792913 a37.13436358254012,37.13436358254012 0 0,0 0.17290733652149992,0.6135871387640923 l -15.566532984143668 4.2427277861258075" fill="#ffc412" stroke="none" /><path d="M 120.26092885502905 94.47779374421319 l 9.702955020469176 -2.644583537953305 a31.056896052881406,31.056896052881406 0 0,0 0.13577855958136023,0.5155733065572352 l -9.746923060855266 2.4776297270232712" fill="#ff730a" stroke="none" /><path d="M 120.35273937422433 94.82641323984039 l 15.76814362611723 -4.008200448913001 a37.26960430534584,37.26960430534584 0 0,0 0.15229509196194327,0.6214159460322816 l -15.834626244595464 3.7369286782726245" fill="#ffc612" stroke="none" /><path d="M 120.51834098615036 95.52812308129327 l 13.232878850217482 -2.8840443551587818 a34.543514850549556,34.543514850549556 0 0,0 0.12130085053580976,0.58046848121606 l -13.280437411577658 2.6564594226573175" fill="#ffa20f" stroke="none" /><path d="M 120.592083275326 95.88100663000786 l 19.09097399857548 -3.8187294736248467 a40.469154655685905,40.469154655685905 0 0,0 0.13041417827414653,0.6823820885165941 l -19.15371446913178 3.4904448200749383" fill="#ffef16" stroke="none" /><path d="M 120.65975698304385 96.23510406497455 l 14.918978591346134 -2.718734876668205 a36.16467742942976,36.16467742942976 0 0,0 0.106057536182186,0.6117116850053734 l -14.963450945020554 2.462230158742239" fill="#ffb811" stroke="none" /><path d="M 120.7213421655516 96.59031103205396 l 12.064823633605693 -1.9852621377059794 a33.22706976611401,33.22706976611401 0 0,0 0.08778039291627462,0.5636130919275387 l -12.097125518660233 1.7778608638469993" fill="#ff910d" stroke="none" /><path d="M 120.77682067341334 96.94652285012252 l 12.97587026242063 -1.9070060799425907 a34.11525376255107,34.11525376255107 0 0,0 0.08017975439487203,0.5801407613013336 l -13.006694533370714 1.6839770104411713" fill="#ff9d0e" stroke="none" /><path d="M 120.82617615685814 97.30363454192243 l 16.12360517129637 -2.087523495245569 a37.25817942031202,37.25817942031202 0 0,0 0.0766771802051914,0.6349970476596019 l -16.15706443776122 1.810432770662554" fill="#ffc612" stroke="none" /><path d="M 120.9064616781168 98.02013634271609 l 12.153542589222834 -1.1509531191899909 a33.20791917366045,33.20791917366045 0 0,0 0.04887316568590845,0.5679802679823348 l -12.171509377606483 0.942151803831994" fill="#ff900d" stroke="none" /><path d="M 120.98066250479742 99.09900007780936 l 9.143084077411363 -0.39264337055354936 a30.151511091784396,30.151511091784396 0 0,0 0.017768304156135103,0.5173047885854938 l -9.148477068564345 0.23563231740393561" fill="#ff6709" stroke="none" /><path d="M 120.99303781780057 99.45929381324524 l 14.326287773657016 -0.3689943542080956 a35.33103897863208,35.33103897863208 0 0,0 0.010411835781402923,0.6064372362792886 l -14.330511041037086 0.12301020195974065" fill="#ffad10" stroke="none" /><line stroke="#e1ed5e" stroke-width="0.3" x1="184.99686870605535" x2="189.99668451229388" y1="99.2704041080226" y2="99.22748670261217" /><path d="M 185.99683186730306 99.26182062694052 a86.0,86.0 0 0,1 -10.086455211305974,41.156179273409016" fill="none" id="id64" stroke="none" /><text fill="#e1ed5e" style="font-size:6.75px; font-family:Arial;" text-anchor="middle"><textPath startOffset="21.40746469413373" xlink:href="#id64">April</textPath></text><path d="M 120.99922638620191 99.81974689727618 l 14.847835334345852 -0.12745080883107704 a35.848382330224425,35.848382330224425 0 0,0 0.0,0.615407823109806 l -14.847835334345852 -0.12745080883107524" fill="#ffb410" stroke="none" /><path d="M 120.96210409425399 101.26102812881392 l 14.870088358313922 0.8945475899493426 a35.89697093958189,35.89697093958189 0 0,0 -0.042283279391332945,0.6147896024457649 l -14.852541117757522 -1.149680616549451" fill="#ffb410" stroke="none" /><path d="M 120.9064616781168 101.97986365728391 l 17.598987765891582 1.6666424390285233 a38.6777280045704,38.6777280045704 0 0,0 -0.0682709924463947,0.6604599214671316 l -17.56778438096352 -1.968506882778586" fill="#ffd814" stroke="none" /><path d="M 120.86939407059847 102.33845913500097 l 15.015517613054039 1.682520067915293 a36.10948850778456,36.10948850778456 0 0,0 -0.07431317902557617,0.6154197266665526 l -14.984422347768799 -1.940033471505254" fill="#ffb711" stroke="none" /><path d="M 120.82617615685814 102.69636545807757 l 12.453862458481638 1.6124018302630587 a33.55780752348968,33.55780752348968 0 0,0 -0.07886961017471605,0.570661210371872 l -12.424348331751712 -1.8259513488350159" fill="#ff950d" stroke="none" /><path d="M 120.77682067341334 103.0534771498775 l 23.188983597334072 3.4079820323015206 a44.43807376492187,44.43807376492187 0 0,0 -0.11739800117749835,0.7537793832031966 l -23.127064104018306 -3.8055495974361677" fill="#dfff1b" stroke="none" /><path d="M 120.7213421655516 103.40968896794604 l 11.797774775014606 1.941319349648821 a32.95642967023567,32.95642967023567 0 0,0 -0.09664893981170512,0.5574454013776361 l -11.762711017710668 -2.143557783947045" fill="#ff8d0d" stroke="none" /><path d="M 120.592083275326 104.11899336999214 l 31.111031441360648 6.223077603523949 a52.727322171983126,52.727322171983126 0 0,0 -0.18515397328872754,0.886028788679378 l -30.999619757247554 -6.756222843488736" fill="#80ff26" stroke="none" /><path d="M 120.51834098615036 104.47187691870673 l 12.096390517246238 2.6363520125846853 a33.38034795472179,33.38034795472179 0 0,0 -0.12682805734345914,0.55882782200234 l -12.049351598345115 -2.8436141685260425" fill="#ff930d" stroke="none" /><path d="M 120.43855184770803 104.8234425847677 l 17.113734663005076 4.038794782185644 a38.58384990291806,38.58384990291806 0 0,0 -0.1576655046044465,0.6433290622715286 l -17.041881631884333 -4.331979669065271" fill="#ffd714" stroke="none" /><path d="M 120.26092885502905 105.52220625578681 l 20.30952260328291 5.535450697960193 a42.05036633417118,42.05036633417118 0 0,0 -0.19579753471293265,0.694816376901576 l -20.211506576495395 -5.883274998764778" fill="#fcff18" stroke="none" /><path d="M 120.16314734710363 105.8691983318838 l 28.263687591067903 8.227147538363315 a50.43674562283479,50.43674562283479 0 0,0 -0.249118326811488,0.8292338886107157 l -28.118292944252783 -8.711119030564754" fill="#99ff23" stroke="none" /><path d="M 119.94978838288452 106.5578916946017 l 21.02237057073887 6.910470763938701 a43.12904585816386,43.12904585816386 0 0,0 -0.2372396928710446,0.7013569972423859 l -20.90064545629546 -7.270329435655247" fill="#eeff19" stroke="none" /><path d="M 119.83427380445688 106.89939002012753 l 18.84480002787911 6.555199677360123 a40.95237156081489,40.95237156081489 0 0,0 -0.2366653737579881,0.6619951713427018 l -18.72949448407718 -6.877729805083746" fill="#fff517" stroke="none" /><path d="M 119.71291397450082 107.23885506374661 l 15.480150089233343 5.684525535187491 a37.49087254651462,37.49087254651462 0 0,0 -0.2270327916638203,0.6022314530065415 l -15.380286613755082 -5.9494252683881905" fill="#ffc912" stroke="none" /><path d="M 119.58574465831526 107.57618678355244 l 21.985148302973435 8.504327658367183 a44.57266074978819,44.57266074978819 0 0,0 -0.2821689800172505,0.711250156063758 l -21.835920647990058 -8.880478831644506" fill="#ddff1b" stroke="none" /><path d="M 119.4528033332814 107.91128576633889 l 26.327846389070096 10.707305925406278 a49.42185595042505,49.42185595042505 0 0,0 -0.32635876835069816,0.783142237303695 l -26.14016177618291 -11.15768067215125" fill="#a4ff21" stroke="none" /><path d="M 119.16976305983485 108.57439118712176 l 10.167502199889034 4.547794408603439 a32.13824649429492,32.13824649429492 0 0,0 -0.22958267840294144,0.5016795853871441 l -10.087935056631036 -4.7216629762052715" fill="#ff820c" stroke="none" /><path d="M 118.8641267826498 109.22738970284198 l 13.40725921886103 6.558162330272117 a35.925283679445904,35.925283679445904 0 0,0 -0.2757352543498203,0.5516552164238951 l -13.292704051299477 -6.787349402859758" fill="#ffb510" stroke="none" /><path d="M 118.70294669586154 109.54985784667822 l 22.090119302885768 11.279372314385139 a45.80317742996337,45.80317742996337 0 0,0 -0.36357238537541026,0.6971979877732777 l -21.893238848535407 -11.65691654526292" fill="#ceff1d" stroke="none" /><line stroke="#e1ed5e" stroke-width="0.3" x1="174.33088141563837" x2="178.70328620479359" y1="141.23008692659167" y2="143.65538615756765" /><path d="M 175.20536237346943 141.71514677278685 a86.0,86.0 0 0,1 -30.301960400862466,31.631185727798858" fill="none" id="id65" stroke="none" /><text fill="#e1ed5e" style="font-size:6.75px; font-family:Arial;" text-anchor="middle"><textPath startOffset="22.145653131862474" xlink:href="#id65">May</textPath></text><path d="M 118.18653347947321 110.5 l 11.782290773571349 6.802508749791859 a34.605017499583724,34.605017499583724 0 0,0 -0.30143654581397117,0.5119051551155696 l -11.663780517627613 -7.003765073200978" fill="#ffa30f" stroke="none" /><path d="M 117.62189284568427 111.42229804090321 l 22.055999021618142 14.296432092792557 a47.284121888042016,47.284121888042016 0 0,0 -0.44734283077369025,0.6773340618567365 l -21.807331751923726 -14.672946032988353" fill="#bdff1f" stroke="none" /><path d="M 117.21940702142032 112.02048342749411 l 11.830147219481466 8.258361534732048 a35.42750562200365,35.42750562200365 0 0,0 -0.3523938581514999,0.4956860929819881 l -11.686638262800006 -8.46022485442354" fill="#ffae10" stroke="none" /><path d="M 117.01052211995028 112.31430620078461 l 14.279792208139165 10.337468332519228 a38.6288319815429,38.6288319815429 0 0,0 -0.39345853079465043,0.5338020629217315 l -14.100231657760686 -10.581076704709835" fill="#ffd814" stroke="none" /><path d="M 116.79662413953412 112.60449989151573 l 8.502007509097366 6.380064936611489 a31.629645350627996,31.629645350627996 0 0,0 -0.3296231115223598,0.4314872340268019 l -8.391232420220703 -6.5250730838791675" fill="#ff7b0b" stroke="none" /><path d="M 116.35404254752997 113.17365903436017 l 22.551396860100837 18.1658089808736 a49.957937016841406,49.957937016841406 0 0,0 -0.5437164480702578,0.6632456595878945 l -22.23623359279195 -18.55025692215999" fill="#9eff22" stroke="none" /><path d="M 116.1254893667686 113.45245675266167 l 11.402436023962144 9.51231767287943 a35.84923347484051,35.84923347484051 0 0,0 -0.39827719351347746,0.46916953250511795 l -11.237464266941553 -9.706653987834105" fill="#ffb410" stroke="none" /><path d="M 115.89218393027572 113.72728997021213 l 24.620506892004897 21.266607459550947 a53.533643393537844,53.533643393537844 0 0,0 -0.6066864206499318,0.6902977788094584 l -24.25180940739638 -21.6861175161717" fill="#77ff27" stroke="none" /><path d="M 115.6541949942343 113.99807769240083 l 9.092501174784365 8.130570617636726 a33.19753074117187,33.19753074117187 0 0,0 -0.3835141563895556,0.42154923966379104 l -8.95158931755293 -8.28545743285819" fill="#ff900d" stroke="none" /><path d="M 114.39649973595853 115.28858382429668 l 7.728292289218624 8.207178595451682 a32.27316646755632,32.27316646755632 0 0,0 -0.4065961444163705,0.37633932114381435 l -7.586266373488287 -8.338635662727876" fill="#ff840c" stroke="none" /><path d="M 113.31354834802062 116.24036423190432 l 17.083060761022534 20.838556461621746 a47.945804875137526,47.945804875137526 0 0,0 -0.6409879896853447,0.5163345513314714 l -16.72282200098194 -21.12873930674662" fill="#b5ff1f" stroke="none" /><path d="M 112.7482090630111 116.68781488649013 l 13.283701250742071 17.38879134976012 a42.88211103903046,42.88211103903046 0 0,0 -0.5888061213000507,0.4418510904570446 l -12.983242140531255 -17.614261467481178" fill="#f1ff19" stroke="none" /><path d="M 112.45986205192187 116.90419585922612 l 11.81278940380639 16.026317538157137 a40.90941604699956,40.90941604699956 0 0,0 -0.5688726828683712,0.4118199521863605 l -11.53593571056405 -16.226738261716577" fill="#fff417" stroke="none" /><path d="M 112.16784306229584 117.11559508785304 l 6.556235669813559 9.22216652947981 a32.31514832671642,32.31514832671642 0 0,0 -0.4548817368964514,0.31754278024973187 l -6.396958841743349 -9.333354125534665" fill="#ff840c" stroke="none" /><path d="M 111.5731344415666 117.5232005979908 l 11.362433863014163 17.204173067227288 a41.61767383141172,41.61767383141172 0 0,0 -0.5995211564782624,0.38860237042008944 l -11.06542707427889 -17.39668927935127" fill="#fffd17" stroke="none" /><line stroke="#e1ed5e" stroke-width="0.3" x1="143.1302829299769" x2="145.66735839644613" y1="173.24464959558577" y2="177.55315839532614" /><path d="M 143.63769802327073 174.10635135553383 a86.0,86.0 0 0,1 -40.68552437913181,11.842963189579606" fill="none" id="id66" stroke="none" /><text fill="#e1ed5e" style="font-size:6.75px; font-family:Arial;" text-anchor="middle"><textPath startOffset="21.407464694133747" xlink:href="#id66">June</textPath></text><path d="M 110.65571695917076 118.09573695890943 l 5.3520852136880475 9.089010770431013 a31.54774539508748,31.54774539508748 0 0,0 -0.46902113020803515,0.2707894757812327 l -5.195271615619613 -9.179547143488417" fill="#ff7a0b" stroke="none" /><path d="M 110.34350942703117 118.27599006163325 l 5.053591715837093 8.929212336078496 a31.260098545976724,31.260098545976724 0 0,0 -0.4692822735920183,0.2603029664765511 l -4.89956525408898 -9.014648217988192" fill="#ff760a" stroke="none" /><path d="M 110.02825361518725 118.45085714620011 l 3.5438947691269522 6.520367218007006 a28.421211410026384,28.421211410026384 0 0,0 -0.43066415902691463,0.2293044074266081 l -3.431441794313484 -6.5802420931561825" fill="#ff4e07" stroke="none" /><path d="M 109.3889696526874 118.78422872680471 l 9.964336077160668 19.93534699843916 a43.2869031811686,43.2869031811686 0 0,0 -0.6675247588765035,0.3265198096587374 l -9.620651069022095 -20.10346055819512" fill="#ecff1a" stroke="none" /><path d="M 109.06512990194946 118.94263497670748 l 6.242659777209215 13.04475795962041 a35.46155286679359,35.46155286679359 0 0,0 -0.5513617730785881,0.2580651496887688 l -6.0178092902591205 -13.149999340879713" fill="#ffaf10" stroke="none" /><path d="M 105.69591212413111 120.21278271476187 l 2.7203227555097893 9.653465779114255 a31.029434552489704,31.029434552489704 0 0,0 -0.513934021706454,0.1400750029791766 l -2.55420733286864 -9.698741276237573" fill="#ff730a" stroke="none" /><path d="M 105.3480935250658 120.30758222061773 l 4.609352362116134 17.5024616975673 a39.099234643292405,39.099234643292405 0 0,0 -0.6505269344430732,0.16536140286963782 l -4.308220134447663 -17.579008332272206" fill="#ffde14" stroke="none" /><path d="M 104.9986988182912 120.39639698878246 l 3.449224192806581 14.07401175729275 a35.4905125677685,35.4905125677685 0 0,0 -0.5929752241581279,0.13994053831349257 l -3.207116814908574 -14.131148439252467" fill="#ffaf10" stroke="none" /><path d="M 104.64783097203109 120.47920084513623 l 4.391028214914314 19.347680513991147 a40.83970438428069,40.83970438428069 0 0,0 -0.6850132751575195,0.14929545503958103 l -4.058252523137659 -19.420207427164446" fill="#fff317" stroke="none" /><path d="M 104.29559338865022 120.5559693870025 l 3.052385476917338 14.606769483030572 a35.92229110525891,35.92229110525891 0 0,0 -0.6046979120709051,0.12095651796691342 l -2.8011910793154744 -14.657015397660347" fill="#ffb510" stroke="none" /><path d="M 103.58742460773223 120.69131181640829 l 3.4168967393292613 19.707752387477512 a41.001767109267234,41.001767109267234 0 0,0 -0.6945357607307122,0.11428559512638134 l -3.0780834755454767 -19.763503981099564" fill="#fff617" stroke="none" /><path d="M 103.2317021107853 120.74984581791261 l 2.566957561391008 16.481708955236968 a37.680407705062876,37.680407705062876 0 0,0 -0.6399835923267931,0.09405554902666273 l -2.2836488634565293 -16.523345577562512" fill="#ffcb13" stroke="none" /><path d="M 102.875027216393 120.80226474461374 l 2.319373122791562 16.78182852209093 a37.94134765086864,37.94134765086864 0 0,0 -0.6459463453589462,0.08363068670307686 l -2.0309489555418403 -16.8191708049944" fill="#ffcf13" stroke="none" /><path d="M 101.08105385017728 120.97215588758144 l 1.1340103440870402 21.99949772198968 a43.02870580584174,43.02870580584174 0 0,0 -0.7379919707595104,0.03169255060842423 l -0.7561926127267002 -22.015722841023937" fill="#f0ff19" stroke="none" /><path d="M 100.72087961077811 120.9876233191556 l 0.44367056146986855 12.916984310149969 a33.92460162773985,33.92460162773985 0 0,0 -0.5821892739091149,0.01499513052837149 l -0.22186797349000983 -12.922697158028386" fill="#ff9a0e" stroke="none" /><line stroke="#e1ed5e" stroke-width="0.3" x1="101.45913802915013" x2="101.54496967792366" y1="184.9874750549273" y2="189.98673829345242" /><path d="M 101.47630435890484 185.9873277026323 a86.0,86.0 0 0,1 -42.54439059252881,-10.42667462771756" fill="none" id="id67" stroke="none" /><text fill="#e1ed5e" style="font-size:6.75px; font-family:Arial;" text-anchor="middle"><textPath startOffset="22.145653131862474" xlink:href="#id67">July</textPath></text><path d="M 100.36049292484886 120.99690560180557 l 0.14239118347272867 8.29357258303972 a29.29479484009574,29.29479484009574 0 0,0 -0.5028841083215799,0.004316655250453972 l -1.0158193950507229e-15 -8.29479484009574" fill="#ff5b08" stroke="none" /><path d="M 99.63950707515114 120.99690560180557 l -0.2748741905004729 16.010043561135284 a37.01240302546912,37.01240302546912 0 0,0 -0.6351798697441328,-0.016359980306493518 l 0.5496673743153495 -16.002965863478742" fill="#ffc312" stroke="none" /><path d="M 98.91894614982273 120.97215588758144 l -1.0608282915199914 20.579785452931723 a41.60710862670427,41.60710862670427 0 0,0 -0.7129787157503974,-0.042891029057207306 l 1.4139513594028352 -20.558542446049824" fill="#fffd17" stroke="none" /><path d="M 98.55909050195518 120.95050786540614 l -1.1474439895422144 16.68358377860411 a37.7229960057054,37.7229960057054 0 0,0 -0.6456578273533544,-0.04997799926263791 l 1.433670811670805 -16.661428012346416" fill="#ffcc13" stroke="none" /><path d="M 98.19965949673042 120.92268563240118 l -1.9093888317532395 22.18999250655014 a43.27198987858012,43.27198987858012 0 0,0 -0.7395398124105527,-0.07003518913192369 l 2.2900282075488074 -22.153945561913034" fill="#edff1a" stroke="none" /><path d="M 97.48249496171623 120.84855314841334 l -1.7133006339070271 14.188587026452112 a35.29165493808717,35.29165493808717 0 0,0 -0.6008356829782591,-0.07779020831097291 l 1.9566141387760803 -14.157085221940742" fill="#ffac0f" stroke="none" /><path d="M 97.12497278360702 120.80226474461374 l -1.5214549938319042 11.00849042341026 a32.11313127343376,32.11313127343376 0 0,0 -0.5454260812170731,-0.08015885116026147 l 1.7102061806566622 -10.980750498951116" fill="#ff820b" stroke="none" /><path d="M 96.76829788921471 120.74984581791261 l -1.838542269711797 11.804760252783552 a32.947075052213215,32.947075052213215 0 0,0 -0.5580959906986382,-0.0918344828890274 l 2.0409157634634987 -11.771459771398856" fill="#ff8d0d" stroke="none" /><path d="M 96.41257539226777 120.69131181640829 l -2.0941757396651757 12.078649160842225 a33.25884731854169,33.25884731854169 0 0,0 -0.5617027593340618,-0.10236095405405916 l 2.3012132325502948 -12.0409200328568" fill="#ff910d" stroke="none" /><path d="M 96.05791012581884 120.62667999033965 l -3.669223239885613 19.19892645724077 a40.546405712934956,40.546405712934956 0 0,0 -0.6825379485052451,-0.13652670529114433 l 3.998257673921816 -19.133110355286764" fill="#fff016" stroke="none" /><path d="M 95.35216902796893 120.47920084513623 l -3.404561915377122 15.00112798298286 a36.38261624683746,36.38261624683746 0 0,0 -0.6078804858969534,-0.14345813949893138 l 3.661574555013963 -14.9404736998377" fill="#ffbb11" stroke="none" /><path d="M 95.00130118170881 120.39639698878247 l -4.140394071086628 16.894220722974683 a38.394181696776556,38.394181696776556 0 0,0 -0.6387963740855608,-0.1623795402987618 l 4.4297957383975675 -16.82065595084066" fill="#ffd513" stroke="none" /><path d="M 94.30408787586889 120.21278271476187 l -3.2309819627782588 11.465615154467306 a32.91216081633172,32.91216081633172 0 0,0 -0.5424864255933156,-0.15790989220833693 l 3.4273284007531815 -11.408461567956454" fill="#ff8c0c" stroke="none" /><path d="M 93.61358852112213 120.00534299687104 l -4.076649110268033 12.770045274804424 a34.404966403867036,34.404966403867036 0 0,0 -0.5610913669198924,-0.18444187699722642 l 4.295263214835669 -12.698182476405176" fill="#ffa00e" stroke="none" /><path d="M 93.27111125876986 119.89276391827306 l -3.6068551151391346 10.663026251755424 a32.256532888382225,32.256532888382225 0 0,0 -0.5230077743968604,-0.18192925310489538 l 3.7893686615810167 -10.599538566081938" fill="#ff840c" stroke="none" /><path d="M 92.25597844496254 119.51999308798841 l -7.450624652155983 18.780441231684726 a41.20437528269751,41.20437528269751 0 0,0 -0.655238919290081,-0.2664799641942661 l 7.7719180326365045 -18.64977401091117" fill="#fff817" stroke="none" /><path d="M 90.93487009805054 118.94263497670748 l -7.307993660528919 15.2708960401904 a37.92947244342344,37.92947244342344 0 0,0 -0.5849081381761645,-0.28610788050254754 l 7.5690620479671535 -15.143194409590631" fill="#ffcf13" stroke="none" /><path d="M 90.28995756902619 118.62028667847754 l -3.7388057393580594 7.169652985234417 a29.085950301933444,29.085950301933444 0 0,0 -0.44073688997864047,-0.23466756930957455 l 3.861331445123262 -7.10441494820227" fill="#ff5808" stroke="none" /><path d="M 89.97174638481275 118.45085714620012 l -4.79347844255782 8.819460433577467 a31.037943908924028,31.037943908924028 0 0,0 -0.4659472478558664,-0.2584530839191912 l 4.944169878569789 -8.735874434225128" fill="#ff730a" stroke="none" /><line stroke="#e1ed5e" stroke-width="0.3" x1="58.13341422392154" x2="55.67067388415222" y1="173.97424548756322" y2="178.32567169271397" /><path d="M 57.64086615596768 174.84453072859336 a86.0,86.0 0 0,1 -31.369924170532247,-30.572349798747897" fill="none" id="id68" stroke="none" /><text fill="#e1ed5e" style="font-size:6.75px; font-family:Arial;" text-anchor="middle"><textPath startOffset="22.145653131862474" xlink:href="#id68">August</textPath></text><path d="M 89.03521579738668 117.91015095944536 l -7.813530432748742 12.762814752286417 a35.9646482826918,35.9646482826918 0 0,0 -0.5237752162051721,-0.3268744731595224 l 8.031469777743627 -12.626804482285346" fill="#ffb510" stroke="none" /><path d="M 88.4268655584334 117.5232005979908 l -8.325987468924868 12.606606216403602 a36.10789818698021,36.10789818698021 0 0,0 -0.5142860179400561,-0.34603458472581194 l 8.54116977496193 -12.461821957620668" fill="#ffb711" stroke="none" /><path d="M 87.83215693770417 117.11559508785305 l -10.689988443921896 15.036807490305806 a39.4494290543556,39.4494290543556 0 0,0 -0.5485705911322528,-0.3971228034220836 l 10.946540045428103 -14.851083915510657" fill="#ffe215" stroke="none" /><path d="M 87.54013794807813 116.9041958592261 l -25.375773696918507 34.42711057831849 a63.768631419405864,63.768631419405864 0 0,0 -0.8755949652874608,-0.6570627855511212 l 25.963021651116737 -33.986428765503355" fill="#33ff57" stroke="none" /><path d="M 86.96720088162412 116.46651593811092 l -11.520536049973447 14.555820952921248 a39.563261418518,39.563261418518 0 0,0 -0.5289216745467771,-0.4260618606140561 l 11.768708494875487 -14.355910798513781" fill="#ffe315" stroke="none" /><path d="M 86.40962598614128 116.0094264158162 l -10.307730453298593 12.142480555566188 a36.927621954961204,36.927621954961204 0 0,0 -0.4797434777558502,-0.414390989895769 l 10.514653410817305 -11.963745433205697" fill="#ffc212" stroke="none" /><path d="M 86.13680546590413 115.77377054828092 l -10.192432106065784 11.597116737747541 a36.43952035737201,36.43952035737201 0 0,0 -0.466313025038457,-0.4169799824181898 l 10.39001015792761 -11.42044122544597" fill="#ffbb11" stroke="none" /><path d="M 85.08716467003676 114.78537596483092 l -12.311551652780782 12.206325347873872 a38.33691675579131,38.33691675579131 0 0,0 -0.459336869473323,-0.47132009344921205 l 12.519275323404914 -11.993182562356923" fill="#ffd413" stroke="none" /><path d="M 84.83555147118756 114.52719865689866 l -12.240840928128442 11.726448710122897 a37.951335816946326,37.951335816946326 0 0,0 -0.4466405356702229,-0.47431677103200537 l 12.440337297534919 -11.5145904791464" fill="#ffcf13" stroke="none" /><path d="M 84.58840730492382 114.26474011684316 l -12.261726067053381 11.349270590723533 a37.70795825602035,37.70795825602035 0 0,0 -0.4356208271175693,-0.4788235985390669 l 12.454744595012832 -11.137109416626792" fill="#ffcc13" stroke="none" /><path d="M 84.1078160697243 113.72728997021213 l -7.610822081266112 6.574046844637842 a31.056972937627933,31.056972937627933 0 0,0 -0.34503622035052806,-0.40645179999168574 l 7.7225528651237525 -6.442428262196603" fill="#ff730a" stroke="none" /><path d="M 83.8745106332314 113.45245675266167 l -15.71977866506587 13.113998455700136 a41.47164860910732,41.47164860910732 0 0,0 -0.4513560571918728,-0.550581000305757 l 15.942581541496374 -12.842215173695884" fill="#fffb17" stroke="none" /><path d="M 83.4222238831116 112.89097897827486 l -4.004362206580289 3.113816272005111 a26.072550488392636,26.072550488392636 0 0,0 -0.2717107676054779,-0.3556781168283821 l 4.0572249515400625 -3.044617241935858" fill="#ff2d04" stroke="none" /><path d="M 83.20337586046588 112.60449989151573 l -6.654395769261267 4.993582642260804 a29.319666499268504,29.319666499268504 0 0,0 -0.29863892622234084,-0.40516105868706254 l 6.739136715067438 -4.878615274304861" fill="#ff5b08" stroke="none" /><path d="M 82.98947788004972 112.3143062007846 l -14.043936863190236 10.16672725142175 a38.337661480778635,38.337661480778635 0 0,0 -0.38134088766686514,-0.5364037151311716 l 14.216392849387061 -9.924146309581074" fill="#ffd413" stroke="none" /><path d="M 82.576782715395 111.72311816256416 l -8.671600572087815 5.834639866138198 a31.451778740930315,31.451778740930315 0 0,0 -0.29755713277597573,-0.4505394241571234 l 8.770482143784518 -5.684920563642013" fill="#ff790b" stroke="none" /><path d="M 81.99639281039703 110.81064883170644 l -14.412131189924896 8.654070685386774 a37.81078418347213,37.81078418347213 0 0,0 -0.3293612603698347,-0.559327425357143 l 14.558566160424501 -8.405392091736072" fill="#ffcd13" stroke="none" /><line stroke="#e1ed5e" stroke-width="0.3" x1="26.387840678322732" x2="22.057713659400548" y1="142.50000000000003" y2="145.00000000000006" /><path d="M 25.521815274538298 143.00000000000003 a86.0,86.0 0 0,1 -11.493303480769221,-40.785679425670985" fill="none" id="id69" stroke="none" /><text fill="#e1ed5e" style="font-size:6.75px; font-family:Arial;" text-anchor="middle"><textPath startOffset="21.40746469413373" xlink:href="#id69">September</textPath></text><path d="M 81.81346652052679 110.50000000000001 l -8.398712609583374 4.8489989859892715 a30.697997971978534,30.697997971978534 0 0,0 -0.2595685809745134,-0.4586328112009124 l 8.480714555579267 -4.7041094046892376" fill="#ff6e0a" stroke="none" /><path d="M 81.63589988554817 110.18625677009913 l -9.508458537642777 5.27418166687346 a31.873259677633747,31.873259677633747 0 0,0 -0.26129189887727855,-0.48074766401427776 l 9.597595786135386 -5.110179169384595" fill="#ff7e0b" stroke="none" /><path d="M 81.4637452351635 109.86951160357371 l -12.788087587947839 6.808936348684324 a35.48781551364664,35.48781551364664 0 0,0 -0.2816920236109767,-0.5401815977595931 l 12.903087680533766 -6.588408507820229" fill="#ffaf10" stroke="none" /><path d="M 81.29705330413844 109.54985784667822 l -9.277219194197588 4.737014223361153 a31.416626120271093,31.416626120271093 0 0,0 -0.24113021545998597,-0.48242195764767526 l 9.35716932286931 -4.577060409549725" fill="#ff780b" stroke="none" /><path d="M 81.1358732173502 109.22738970284198 l -14.602877562282316 7.142999175238703 a37.25627479825772,37.25627479825772 0 0,0 -0.2760880537978237,-0.5769178468581108 l 14.723344874040052 -6.891268826315488" fill="#ffc612" stroke="none" /><path d="M 80.68587082218212 108.24405325689762 l -14.306826324499333 6.106733421448667 a36.5556251099088,36.5556251099088 0 0,0 -0.24139621140749745,-0.5792630301728399 l 14.409548380443317 -5.8602378818345455" fill="#ffbd11" stroke="none" /><path d="M 80.41425534168474 107.57618678355246 l -7.6328380347861895 2.952545723891712 a29.183993078989616,29.183993078989616 0 0,0 -0.1767289734961592,-0.46879459886370184 l 7.682397692096784 -2.8210828448338656" fill="#ff5908" stroke="none" /><path d="M 80.28708602549918 107.23885506374661 l -10.098147597057917 3.708179671558393 a31.757470955969413,31.757470955969413 0 0,0 -0.18352767976432663,-0.513359583966656 l 10.160315446866187 -3.5342851312108157" fill="#ff7d0b" stroke="none" /><path d="M 80.16572619554312 106.89939002012753 l -6.776652449190812 2.3572714957335004 a28.17493883748994,28.17493883748994 0 0,0 -0.15498172295414217,-0.45817592546646313 l 6.816119593717322 -2.2405938957928755" fill="#ff4b07" stroke="none" /><path d="M 79.94057633289273 106.21446072829308 l -13.783777392953409 4.2702494706517 a35.430091813987,35.430091813987 0 0,0 -0.17499711931219084,-0.5825084954618021 l 13.85505083226923 -4.033003371599174" fill="#ffae10" stroke="none" /><path d="M 79.83685265289637 105.86919833188381 l -12.157968435010835 3.539007419301125 a33.662573592306906,33.662573592306906 0 0,0 -0.156741771738398,-0.5562212522648936 l 12.216928698823807 -3.329778243133236" fill="#ff970d" stroke="none" /><path d="M 79.64726062577567 105.17358676015961 l -6.984943766339863 1.7755453909934678 a28.207079911754015,28.207079911754015 0 0,0 -0.1152628236657229,-0.470311654091169 l 7.0143941165218795 -1.6553779122941992" fill="#ff4b07" stroke="none" /><path d="M 79.48165901384964 104.47187691870673 l -34.72027964420543 7.567123348655102 a56.53532291038857,56.53532291038857 0 0,0 -0.1985259109855083,-0.9500183512544397 l 34.8450632660153 -6.969988546115252" fill="#57ff2a" stroke="none" /><path d="M 79.407916724674 104.11899336999214 l -7.194953618383079 1.4391922301048328 a28.3374813012285,28.3374813012285 0 0,0 -0.09131916319234197,-0.4778204496276869 l 7.218599073857578 -1.3154692154438314" fill="#ff4d07" stroke="none" /><path d="M 79.2786578344484 103.40968896794605 l -15.393776128238478 2.533040003882813 a36.60078956808262,36.60078956808262 0 0,0 -0.09669319960945179,-0.6208397045138633 l 15.434990819986197 -2.2684121174375" fill="#ffbd11" stroke="none" /><path d="M 79.22317932658666 103.0534771498775 l -9.959267750064104 1.4636693930388822 a31.0662476727719,31.0662476727719 0 0,0 -0.07301379393834098,-0.5282914411570822 l 9.982926060557658 -1.2924896436817146" fill="#ff730a" stroke="none" /><path d="M 79.17382384314188 102.69636545807758 l -5.7365289662599235 0.7427085239933096 a26.78440839951256,26.78440839951256 0 0,0 -0.055122202466482695,-0.45649091076436005 l 5.748433254986067 -0.6441239363055502" fill="#ff3705" stroke="none" /><path d="M 79.0935383218832 101.97986365728391 l -16.3051027093604 1.5441101789277998 a37.378053932243,37.378053932243 0 0,0 -0.05501048750733788,-0.6393052505961456 l 16.32920681956548 -1.2639838809559922" fill="#ffc812" stroke="none" /><path d="M 79.03789590574601 101.26102812881392 l -15.1329689026206 0.9103618307048582 a36.16032672703614,36.16032672703614 0 0,0 -0.03195610422784784,-0.6199398848783949 l 15.14636659630502 -0.6504501524497326" fill="#ffb811" stroke="none" /><line stroke="#e1ed5e" stroke-width="0.3" x1="15.003131293944662" x2="10.003315487706104" y1="100.72959589197737" y2="100.7725132973878" /><path d="M 14.003168132696942 100.73817937305945 a86.0,86.0 0 0,1 10.791469493833604,-42.45332614584628" fill="none" id="id70" stroke="none" /><text fill="#e1ed5e" style="font-size:6.75px; font-family:Arial;" text-anchor="middle"><textPath startOffset="22.145653131862435" xlink:href="#id70">October</textPath></text><path d="M 79.06263194458094 98.37931529534042 l -14.36421654417934 -1.1118812061740626 a35.40718559416511,35.40718559416511 0 0,0 0.05210989700877623,-0.6055959922422434 l 14.343013024472821 1.3582982457919868" fill="#ffae10" stroke="none" /><path d="M 79.17382384314186 97.30363454192245 l -20.37091618639214 -2.637422940278595 a41.54094024232876,41.54094024232876 0 0,0 0.09763205659101695,-0.7064169261379972 l 20.322639613245915 2.986728174616659" fill="#fffc17" stroke="none" /><path d="M 79.22317932658666 96.9465228501225 l -14.882140444730826 -2.1871621507232106 a36.04200061462069,36.04200061462069 0 0,0 0.0952169721167048,-0.6113612650362777 l 14.842401980475854 2.4423115976909386" fill="#ffb610" stroke="none" /><path d="M 79.407916724674 95.88100663000787 l -19.01628037031354 -3.8037886560553913 a40.39298139178986,40.39298139178986 0 0,0 0.14184147211711134,-0.6787627912712972 l 18.948181187372064 4.129667898612098" fill="#ffee16" stroke="none" /><path d="M 79.48165901384962 95.52812308129327 l -24.372980004960148 -5.31197755207649 a45.94512497134363,45.94512497134363 0 0,0 0.17456771128995568,-0.7691775458479014 l 24.278201432112528 5.729589431863399" fill="#cdff1d" stroke="none" /><path d="M 79.73907114497095 94.47779374421319 l -44.61495672106006 -12.160004848225032 a67.24240565899355,67.24240565899355 0 0,0 0.31309827723185935,-1.111075330541426 l 44.39963995175362 12.92408810266947" fill="#38ff7f" stroke="none" /><path d="M 79.94057633289273 93.78553927170692 l -15.75874041092537 -4.88209806205182 a37.49765985909585,37.49765985909585 0 0,0 0.19576507601617657,-0.6132313123676572 l 15.672610619131936 5.151898408110869" fill="#ffc912" stroke="none" /><path d="M 80.05021161711548 93.44210830539832 l -14.347157610546974 -4.716195677346998 a36.102431366137786,36.102431366137786 0 0,0 0.198588435212954,-0.5870914218546457 l 14.264083753761655 4.961788773675805" fill="#ffb711" stroke="none" /><path d="M 80.28708602549916 92.7611449362534 l -15.053780352684559 -5.5279566620905465 a37.03666448376416,37.03666448376416 0 0,0 0.22428225219973594,-0.5949353202943142 l 14.956667416670387 5.785560262579006" fill="#ffc312" stroke="none" /><path d="M 80.68587082218212 91.75594674310238 l -14.706151064412074 -6.277181407600597 a36.98980567590598,36.98980567590598 0 0,0 0.2542892690655678,-0.5818636117319844 l 14.596227913329528 6.528707089108449" fill="#ffc312" stroke="none" /><path d="M 80.83023694016515 91.42560881287825 l -21.71048353111382 -9.710823137265097 a44.7832962635125,44.7832962635125 0 0,0 0.31991381688218157,-0.6990694251392351 l 21.54058524937659 10.082081544619003" fill="#daff1b" stroke="none" /><path d="M 81.29705330413844 90.45014215332179 l -13.189091603375498 -6.734444148681844 a35.80894578671774,35.80894578671774 0 0,0 0.2842410629123652,-0.5450697167234331 l 13.071542471488192 6.959860108509763" fill="#ffb310" stroke="none" /><path d="M 81.63589988554816 89.8137432299009 l -19.848069651376324 -11.009389656976698 a43.696971813548856,43.696971813548856 0 0,0 0.3694821068422837,-0.6528394796986274 l 19.65615417951267 11.34848590677443" fill="#e7ff1a" stroke="none" /><line stroke="#e1ed5e" stroke-width="0.3" x1="26.387840678322718" x2="22.05771365940052" y1="57.49999999999999" y2="54.99999999999999" /><path d="M 25.521815274538284 56.99999999999999 a86.0,86.0 0 0,1 29.574782752854787,-30.34633250058573" fill="none" id="id71" stroke="none" /><text fill="#e1ed5e" style="font-size:6.75px; font-family:Arial;" text-anchor="middle"><textPath startOffset="21.40746469413373" xlink:href="#id71">November</textPath></text><path d="M 81.81346652052679 89.5 l -6.941524606349778 -4.007691100062456 a29.01538220012491,29.01538220012491 0 0,0 0.2527464864302519,-0.42921878961829846 l 6.871704409789746 4.126261057974328" fill="#ff5708" stroke="none" /><path d="M 81.99639281039701 89.18935116829357 l -33.998450429034335 -20.415092627810992 a60.6569116116927,60.6569116116927 0 0,0 0.5436939972627726,-0.8880832843385585 l 33.642988467316165 20.995713028274093" fill="#30ff31" stroke="none" /><path d="M 83.64595745247003 86.82634096563983 l -1.5738965546656658 -1.2678196541473006 a23.021018812438577,23.021018812438577 0 0,0 0.2505489082833417,-0.3056289294230451 l 1.5519008271436943 1.2946508652688384" fill="#ff0000" stroke="none" /><path d="M 83.8745106332314 86.54754324733833 l -11.47289728623547 -9.57109896390947 a35.94099419441217,35.94099419441217 0 0,0 0.39929663516740926,-0.4703704322101 l 11.306906087560948 9.766636178569128" fill="#ffb510" stroke="none" /><path d="M 84.58840730492382 85.73525988315684 l -18.204990469595547 -16.85026739393098 a45.806313495661506,45.806313495661506 0 0,0 0.5390839599285825,-0.5724884840664455 l 17.91305067593069 17.160297337941937" fill="#ceff1d" stroke="none" /><path d="M 84.83555147118756 85.47280134310135 l -17.083440469420243 -16.365549526647026 a44.65745441887952,44.65745441887952 0 0,0 0.5350669027998337,-0.5490257790940168 l 16.799986765469605 16.656397997808774" fill="#dcff1b" stroke="none" /><path d="M 85.08716467003674 85.21462403516908 l -12.836904130109954 -12.72718766007015 a39.076709141330895,39.076709141330895 0 0,0 0.4763787273767389,-0.4723071387880815 l 12.61653348260324 12.945674809086906" fill="#ffdd14" stroke="none" /><path d="M 85.60350026404147 84.71141617570332 l -11.848278406042759 -12.582461077809224 a38.28294037372354,38.28294037372354 0 0,0 0.48231077568811087,-0.4464196534951276 l 11.630537859040695 12.783998477436716" fill="#ffd313" stroke="none" /><path d="M 86.13680546590413 84.22622945171909 l -10.531388542956668 -11.982786941554439 a36.952972372865396,36.952972372865396 0 0,0 0.48007281652734385,-0.41467546488262735 l 10.324136246666477 12.161806538901777" fill="#ffc212" stroke="none" /><path d="M 86.68645165197937 83.75963576809568 l -5.4932557552473416 -6.700878830509897 a29.664735188898373,29.664735188898373 0 0,0 0.39658816913804085,-0.31946335605411263 l 5.377416815754055 6.7941904803574085" fill="#ff6008" stroke="none" /><path d="M 86.96720088162412 83.53348406188908 l -10.214887084024772 -12.906176136631691 a37.459444116042846,37.459444116042846 0 0,0 0.5076469178532187,-0.3947493137975958 l 9.99183022153631 13.079626502050091" fill="#ffc912" stroke="none" /><path d="M 87.25179093698888 83.31218511350988 l -10.070605984971671 -13.182746505122958 a37.58921066003078,37.58921066003078 0 0,0 0.5161303115725696,-0.3873138079521832 l 9.842822684488349 13.353679340339143" fill="#ffca12" stroke="none" /><path d="M 87.83215693770416 82.88440491214696 l -5.7787375183205825 -8.128518010643868 a30.973294959791758,30.973294959791758 0 0,0 0.4359932396493959,-0.3043571422166652 l 5.638349187497421 8.226519968665661" fill="#ff720a" stroke="none" /><path d="M 88.12776184653039 82.6780497279521 l -4.6426633011497795 -6.773784504051234 a29.212093462398464,29.212093462398464 0 0,0 0.4160688374790977,-0.27994968241818435 l 4.525698175573693 6.852483860526528" fill="#ff5908" stroke="none" /><path d="M 88.4268655584334 82.4767994020092 l -4.089129313093638 -6.191462959862117 a28.419918606194155,28.419918606194155 0 0,0 0.4094016051647433,-0.26536917421791834 l 3.9822420756718686 6.2607459757839425" fill="#ff4e07" stroke="none" /><path d="M 88.72937992617638 82.28071324371311 l -23.29183811265018 -36.618638184566606 a64.39855280027322,64.39855280027322 0 0,0 0.9378755952549599,-0.5853037364182103 l 22.65979838860552 37.01307771782635" fill="#34ff5e" stroke="none" /><line stroke="#e1ed5e" stroke-width="0.3" x1="56.869717070023135" x2="54.33264160355391" y1="26.7553504044142" y2="22.446841604673864" /><path d="M 56.362301976729285 25.89364864446614 a86.0,86.0 0 0,1 42.16139366436587,-11.88097634709845" fill="none" id="id72" stroke="none" /><text fill="#e1ed5e" style="font-size:6.75px; font-family:Arial;" text-anchor="middle"><textPath startOffset="22.145653131862474" xlink:href="#id72">December</textPath></text><path d="M 89.34428304082924 81.90426304109057 l -9.747484541254478 -16.553359754715537 a40.210080011572856,40.210080011572856 0 0,0 0.5978042784547157,-0.3451424610885383 l 9.461887794939361 16.718249113080248" fill="#ffec16" stroke="none" /><path d="M 90.28995756902619 81.37971332152246 l -6.9790551352778785 -13.383258444808057 a36.09366811553026,36.09366811553026 0 0,0 0.55184258573339,-0.2817747563095693 l 6.748285327830906 13.50109115279046" fill="#ffb711" stroke="none" /><path d="M 90.93487009805054 81.0573650232925 l -19.18250052180363 -40.08404835399932 a65.43758835394594,65.43758835394594 0 0,0 1.0174338635520366,-0.47621042138978925 l 18.49157794438007 40.40743500695965" fill="#36ff6a" stroke="none" /><path d="M 91.92203290615298 80.6158196554323 l -2.864378588845122 -6.873465872816492 a28.446421812186532,28.446421812186532 0 0,0 0.4523597932987918,-0.18397078984836862 l 2.745964334355889 6.921623919244152" fill="#ff4f07" stroke="none" /><path d="M 92.25597844496254 80.48000691201159 l -2.68494897188229 -6.7678253476258945 a28.280962224704872,28.280962224704872 0 0,0 0.4528020925389753,-0.1751535766909031 l 2.5683746168497854 6.812918812454838" fill="#ff4c07" stroke="none" /><path d="M 93.27111125876988 80.10723608172694 l -10.079760410787639 -29.799020598443853 a52.457641338240265,52.457641338240265 0 0,0 0.8555023521417222,-0.2812206155848546 l 9.566735320998156 29.967662135430736" fill="#83ff25" stroke="none" /><path d="M 94.6519064749342 79.69241777938228 l -4.062264838489092 -15.425081259873167 a36.95102277259095,36.95102277259095 0 0,0 0.6147853222215139,-0.1562760248094087 l 3.7968742230421997 15.492542516517839" fill="#ffc212" stroke="none" /><path d="M 95.35216902796891 79.52079915486377 l -7.413589072274843 -32.66564135142737 a54.49634947024279,54.49634947024279 0 0,0 0.9140791638323005,-0.19921929932695626 l 6.851747491823424 32.78809210888804" fill="#6dff28" stroke="none" /><path d="M 95.70440661134978 79.44403061299748 l -5.696828663605377 -27.261387430542563 a48.85026214348116,48.85026214348116 0 0,0 0.8223209214501748,-0.1644872147306049 l 5.228011256624225 27.355164041936032" fill="#abff21" stroke="none" /><path d="M 96.41257539226777 79.30868818359171 l -1.2642885639015022 -7.292080464972283 a28.400869076023607,28.400869076023607 0 0,0 0.4810870506278993,-0.07916269110572817 l 1.1389240102205302 7.31270915457368" fill="#ff4e07" stroke="none" /><path d="M 97.12497278360702 79.19773525538626 l -2.065575262993682 -14.945473637855951 a36.08753735461618,36.08753735461618 0 0,0 0.6143854741723671,-0.07954450005732448 l 1.8087119669305205 14.97872973411367" fill="#ffb710" stroke="none" /><path d="M 98.1996594967304 79.07731436759882 l -2.614382542355541 -30.383088064286977 a51.49536089965146,51.49536089965146 0 0,0 0.8813823491702238,-0.06822456807732889 l 2.0924311984101 30.42349039935936" fill="#8dff24" stroke="none" /><path d="M 99.27912038922189 79.0123766808444 l -0.3163183409018797 -9.20926336177417 a30.21469418696611,30.21469418696611 0 0,0 0.5185225478288893,-0.013355301505969936 l 0.1581824790022465 9.213336380630185" fill="#ff6709" stroke="none" /></svg>