<?xml version="1.0" encoding="utf-8" ?>
<svg baseProfile="full" height="200mm" version="1.1" viewBox="0,0,200,200" width="200mm" xmlns="http://www.w3.org/2000/svg" xmlns:ev="http://www.w3.org/2001/xml-events" xmlns:xlink="http://www.w3.org/1999/xlink"><defs /><rect fill="#1a1a1a" height="200" width="200" x="0" y="0" /><text alignment-baseline="middle" fill="#e1ed5e" style="dominant-baseline: central; font-size:9.0px; font-family:Arial;" text-anchor="middle" x="100.0" y="100.0">2021</text><line stroke="#e1ed5e" stroke-width="0.3" x1="100.0" x2="100.0" y1="15.0" y2="10.0" /><path d="M 100.0 14.0 a86.0,86.0 0 0,1 42.46469731375804,11.215312516191453" fill="none" id="id73" stroke="none" /><text fill="#e1ed5e" style="font-size:6.75px; font-family:Arial;" text-anchor="middle"><textPath startOffset="22.20632615414155" xlink:href="#id73">January</textPath></text><path d="M 100.36148047927253 79.00311137660856 l 1.084441437817585 -62.990665870174325 a84.0,84.0 0 0,0 1.4454934592205289,0.03733283143056143 l -2.1685615322329816 62.9626662466014" fill="#4dd2ff" stroke="none" /><path d="M 101.44485096284872 79.0497635885617 l 0.5712164255044804 -8.282597627108073 a29.302271475767483,29.302271475767483 0 0,0 0.5028964816111728,0.03903444580081095 l -0.7137030964779945 8.271537919118797" fill="#ff5d08" stroke="none" /><path d="M 103.2404852339499 79.25152402106235 l 2.7316660363306724 -17.49056176633174 a38.702591624841496,38.702591624841496 0 0,0 0.6573373371102447,0.10846629290683361 l -3.032332579579792 17.440949210485282" fill="#ffda14" stroke="none" /><path d="M 103.59715602781102 79.31037775812273 l 2.4828867175262244 -14.280722842665323 a35.49495675609594,35.49495675609594 0 0,0 0.6010561808909175,0.10983917520339266 l -2.7283380195200424 14.235868186111192" fill="#ffb110" stroke="none" /><path d="M 104.307194497241 79.44645832069477 l 2.206096983491538 -10.527294815181348 a31.755965787706586,31.755965787706586 0 0,0 0.5340404937838202,0.11672056732096592 l -2.3869802014288863 10.487760749764512" fill="#ff7f0b" stroke="none" /><path d="M 104.66035177308747 79.52364482259891 l 1.4982163799213761 -6.582767186165876 a27.751109253176615,27.751109253176615 0 0,0 0.464865852180127,0.11001872799772948 l -1.6113059190640266 6.556002546027278" fill="#ff4706" stroke="none" /><path d="M 105.36241919743992 79.69619591428918 l 4.411032523219123 -16.701555187982503 a38.274233806977435,38.274233806977435 0 0,0 0.6355383865161065,0.17371664863648742 l -4.6978687989589405 16.62315199851972" fill="#ffd513" stroke="none" /><path d="M 105.71112130821622 79.79150937346287 l 3.7424286802091746 -13.242379354766735 a34.76104586875592,34.76104586875592 0 0,0 0.5744010932677598,0.16768343023993207 l -3.9698199912003616 13.175997595608099" fill="#ffa70f" stroke="none" /><path d="M 106.40334571778207 80.00007090966166 l 4.219557916789207 -13.179182078832133 a34.83819024584315,34.83819024584315 0 0,0 0.5695499596849815,0.1877716670226281 l -4.445790698716607 13.104596687550268" fill="#ffa80f" stroke="none" /><path d="M 106.74666289553966 80.11325718540242 l 3.2088044075081985 -9.458404693178087 a30.987884914514048,30.987884914514048 0 0,0 0.5036534655876119,0.17571480464848357 l -3.371139877159084 9.401769035357395" fill="#ff740a" stroke="none" /><path d="M 107.4271985657038 80.35727306442388 l 2.3544052495931576 -6.226700283333942 a27.65695279371747,27.65695279371747 0 0,0 0.4438504141091561,0.17220706504444208 l -2.4612388287019806 6.185250514398954" fill="#ff4606" stroke="none" /><path d="M 107.76421540070413 80.48803036053334 l 2.506130261730638 -6.298065555342804 a27.778371384643773,27.778371384643773 0 0,0 0.4427556656668872,0.18061115295822286 l -2.614169796985913 6.253993516201001" fill="#ff4706" stroke="none" /><path d="M 108.43124777332544 80.76684994638697 l 3.148888300149399 -7.183164675867749 a28.84304483523153,28.84304483523153 0 0,0 0.4529977116439876,0.2032468686483063 l -3.272068130260167 7.127897476702911" fill="#ff5608" stroke="none" /><path d="M 108.76106565485865 80.91482961587045 l 5.688246933807292 -12.391319297842449 a34.63454975864809,34.63454975864809 0 0,0 0.5396752058503764,0.2533847454012182 l -5.900700350957266 12.291569569801228" fill="#ffa50f" stroke="none" /><path d="M 109.08828744355905 81.06846463323043 l 5.947757355107247 -12.389592585011968 a34.743282794798915,34.743282794798915 0 0,0 0.5369139783473502,0.2634613573832381 l -6.160142600465028 12.285376067493898" fill="#ffa70f" stroke="none" /><path d="M 110.05341064243156 81.56283822128135 l 13.252944083791995 -24.30485362707582 a48.68332416314374,48.68332416314374 0 0,0 0.7322804460492587,0.40751327540319565 l -13.66934861891329 24.073124954112444" fill="#acff21" stroke="none" /><line stroke="#e1ed5e" stroke-width="0.3" x1="143.23703022742887" x2="145.7803849466894" y1="26.81831364943548" y2="22.513508569990506" /><path d="M 143.74570117128098 25.957352633546492 a86.0,86.0 0 0,1 28.547481713284135,27.462654790039103" fill="none" id="id74" stroke="none" /><text fill="#e1ed5e" style="font-size:6.75px; font-family:Arial;" text-anchor="middle"><textPath startOffset="19.985693538727396" xlink:href="#id74">February</textPath></text><path d="M 112.19680574252982 82.90503203632743 l 3.0995106957407366 -4.344255140670806 a26.336620586125264,26.336620586125264 0 0,0 0.36677466865836,0.2664773949753719 l -3.1738306807528853 4.290258510878759" fill="#ff3304" stroke="none" /><path d="M 112.48926042617603 83.11751280151076 l 4.846976773775451 -6.551951079756068 a29.14992311601989,29.14992311601989 0 0,0 0.40081678178086505,0.3018868902340164 l -4.959039709314699 6.467547600016204" fill="#ff5b08" stroke="none" /><path d="M 113.89432698308785 84.25364557470407 l 9.388687998417963 -10.640141763725534 a35.19014020662988,35.19014020662988 0 0,0 0.45075052669238164,0.4046882734023103 l -9.570449512706334 10.476954481553927" fill="#ffad10" stroke="none" /><path d="M 114.68862486808459 84.99185889309783 l 5.518768235921719 -5.638815965745569 a28.89006009719607,28.89006009719607 0 0,0 0.3524094822817236,0.3508961239694412 l -5.615013518370765 5.542983991126009" fill="#ff5708" stroke="none" /><path d="M 114.94478906791727 85.2469230424477 l 11.763352298116873 -11.61245173446289 a37.529533949111865,37.529533949111865 0 0,0 0.4498821362647067,0.46364308717700625 l -11.96149869808469 11.40824445173577" fill="#ffcb12" stroke="none" /><path d="M 115.4437574822437 85.77008943001954 l 1.3663101000938311 -1.258920994942459 a22.857871190671013,22.857871190671013 0 0,0 0.2641241812569443,0.29165251783295104 l -1.3877779219668112 1.2352156898399589" fill="#ff0000" stroke="none" /><path d="M 115.9244219780498 86.31012108654704 l 5.920772958071791 -5.089959621879847 a28.807896091355303,28.807896091355303 0 0,0 0.3200274478990073,0.3788115564591623 l -6.007511019457915 4.987289115791578" fill="#ff5607" stroke="none" /><path d="M 116.82858285166822 87.43820079747576 l 8.65606362157295 -6.461371944203566 a31.801701940993354,31.801701940993354 0 0,0 0.32367679478515504,0.44149478433165323 l -8.766003028871731 6.311414716200419" fill="#ff7f0b" stroke="none" /><path d="M 117.04232023915458 87.72973835380427 l 7.9061413120174615 -5.692324821321624 a30.742157477531528,30.742157477531528 0 0,0 0.3055000145505965,0.43210810523781495 l -8.00295394637194 5.555390215752016" fill="#ff710a" stroke="none" /><path d="M 117.65298651832404 88.62581576622439 l 5.097842550352822 -3.2846453659444843 a27.06439558803747,27.06439558803747 0 0,0 0.2489568738995976,0.3937899873865766 l -5.153627020498375 3.1964077308437018" fill="#ff3d05" stroke="none" /><line stroke="#e1ed5e" stroke-width="0.3" x1="172.23445277983987" x2="176.4835382374775" y1="55.19839476539836" y2="52.563006222186495" /><path d="M 173.08426987136738 54.67131705675599 a86.0,86.0 0 0,1 12.851231095245387,41.99856678651699" fill="none" id="id75" stroke="none" /><text fill="#e1ed5e" style="font-size:6.75px; font-family:Arial;" text-anchor="middle"><textPath startOffset="22.20632615414155" xlink:href="#id75">March</textPath></text><path d="M 118.21658344932153 89.55222093294921 l 8.138656952863236 -4.667773733894039 a30.382209154949606,30.382209154949606 0 0,0 0.25628458059306714,0.4559016718730805 l -8.217799174748738 4.526988552086165" fill="#ff6c09" stroke="none" /><path d="M 118.56541770881063 90.18545643968196 l 11.938785808578102 -6.311397632598876 a34.50438249828109,34.50438249828109 0 0,0 0.27306204218330926,0.5274689515957609 l -12.045657283921527 6.10495595874277" fill="#ffa40f" stroke="none" /><path d="M 118.89224826269711 90.83032412892265 l 14.18239260093803 -6.883666857361172 a36.764679802973305,36.764679802973305 0 0,0 0.2714315409277375,0.5717040488670465 l -14.298782335707525 6.638520392853585" fill="#ffc112" stroke="none" /><path d="M 119.04729006885535 91.15688171328212 l 10.58828514865584 -4.915841449601483 a32.673785998846554,32.673785998846554 0 0,0 0.232447044012529,0.5121662494583163 l -10.671334509631716 4.732853191301103" fill="#ff8b0c" stroke="none" /><path d="M 119.196687751892 91.48605970444005 l 8.040852430962323 -3.5662057125388187 a29.79619980449837,29.79619980449837 0 0,0 0.20390432015667218,0.4706392839628861 l -8.101047460961675 3.42726728398933" fill="#ff6409" stroke="none" /><path d="M 119.34039704204932 91.81776055985345 l 11.076717346730376 -4.686168197308591 a33.02721245978569,33.02721245978569 0 0,0 0.21700186009773295,0.5254872166598054 l -11.155740893714308 4.4948064101954825" fill="#ff900d" stroke="none" /><path d="M 119.85752413597 93.16781622104841 l 19.14154410132222 -6.585843543115593 a41.242827019891784,41.242827019891784 0 0,0 0.22519115040969312,0.6732928768543451 l -19.252072545503687 6.255377563338934" fill="#fffa17" stroke="none" /><path d="M 120.45610955862082 95.25157060432595 l 8.303891809982467 -1.9275631984675492 a29.524677065788495,29.524677065788495 0 0,0 0.11065513366808409,0.49604526694274753 l -8.335841330652588 1.7843397619748378" fill="#ff6008" stroke="none" /><path d="M 120.53481517161879 95.60439243477599 l 8.209077594660087 -1.7572051794491177 a29.39504169125044,29.39504169125044 0 0,0 0.10165183924888702,0.49569046909348646 l -8.238108729823972 1.6156390541922194" fill="#ff5e08" stroke="none" /><path d="M 120.67395015179393 96.31383870115 l 7.1669092881295855 -1.2778585348373508 a28.279938954368696,28.279938954368696 0 0,0 0.08132251760838362,0.4799701023284546 l -7.187843667258192 1.1543026441930584" fill="#ff4e07" stroke="none" /><path d="M 120.83666639777658 97.38593545837742 l 6.622985018221469 -0.8308867630417939 a27.67490100035829,27.67490100035829 0 0,0 0.05523073007550667,0.47318316644849717 l -6.636306101300564 0.716759858268444" fill="#ff4606" stroke="none" /><path d="M 120.87857604477298 97.74499172005257 l 6.6736923699988715 -0.7207977938676071 a27.712504697132477,27.712504697132477 0 0,0 0.04714144392030052,0.4747079069060397 l -6.685110939601401 0.6058143562571324" fill="#ff4606" stroke="none" /><path d="M 120.94382443527127 98.46500227214037 l 6.366320029349831 -0.4665951440760678 a27.383395784735285,27.383395784735285 0 0,0 0.030407838380581257,0.47039580091975697 l -6.373408458734828 0.3569402789032755" fill="#ff4206" stroke="none" /><path d="M 120.96714384426684 98.82574320788733 l 7.032341861821755 -0.39384358961988086 a28.04336175661987,28.04336175661987 0 0,0 0.02284384441231057,0.4821974506318456 l -7.038079314467562 0.2727350323650355" fill="#ff4b07" stroke="none" /><path d="M 120.98425023603335 99.18683210126433 l 8.326715117601324 -0.3226714016173644 a29.332964747502064,29.332964747502064 0 0,0 0.015208870604409268,0.5047083727525057 l -8.331035682661378 0.17929288143985958" fill="#ff5d08" stroke="none" /><line stroke="#e1ed5e" stroke-width="0.3" x1="184.98032266829074" x2="189.97916517819016" y1="98.17113171792111" y2="98.06355123074" /><path d="M 185.9800911702706 98.14961562048488 a86.0,86.0 0 0,1 -9.607161424134198,41.387399972396054" fill="none" id="id76" stroke="none" /><text fill="#e1ed5e" style="font-size:6.75px; font-family:Arial;" text-anchor="middle"><textPath startOffset="21.466115282336823" xlink:href="#id76">April</textPath></text><path d="M 120.99824983174949 100.27111621757518 l 13.116144508449477 0.16934742260870064 a34.11723771668691,34.11723771668691 0 0,0 -0.01263627315814715,0.5871579603771551 l -13.111286172606322 -0.3950951987759706" fill="#ff9e0e" stroke="none" /><path d="M 120.9764740272857 100.99374915477107 l 7.960570543757927 0.3771277402991883 a28.969498648889374,28.969498648889374 0 0,0 -0.02788472765013542,0.4979005440936626 l -7.952899465220263 -0.5141000007282742" fill="#ff5808" stroke="none" /><path d="M 120.92983693683757 101.71520430193887 l 2.338384522025835 0.19163107691043488 a23.34622348519655,23.34622348519655 0 0,0 -0.03627047460048394,0.40024166484643875 l -2.3347394511482755 -0.23185413030544416" fill="#ff0701" stroke="none" /><path d="M 120.81339534386255 102.79330883721812 l 57.03098424875179 7.6539723416276395 a78.54230145716954,78.54230145716954 0 0,0 -0.1913662566379169,1.3384151532156103 l -56.890783941097276 -8.63453296682366" fill="#46fff8" stroke="none" /><path d="M 120.64145759157962 103.86396538481128 l 7.321192249069324 1.3704862314322475 a28.44836146131336,28.44836146131336 0 0,0 -0.09424544826648117,0.4805555102766768 l -7.296516867827179 -1.4963054687768693" fill="#ff5107" stroke="none" /><path d="M 120.5718875245553 104.21870165774334 l 8.115715512447794 1.6642995177408713 a29.284608087516165,29.284608087516165 0 0,0 -0.10551657245332662,0.4929382982262122 l -8.085864901270025 -1.8037516353832526" fill="#ff5d08" stroke="none" /><path d="M 120.02730092923936 106.31721596034902 l 6.244471636265453 1.9696950689431274 a27.54775722524458,27.54775722524458 0 0,0 -0.14653799758014238,0.4509975827230346 l -6.2096413876690635 -2.076891551643957" fill="#ff4406" stroke="none" /><path d="M 119.9155931802556 106.66101706037122 l 6.733241041336315 2.252015947604191 a28.099866952908297,28.099866952908297 0 0,0 -0.1573715239493959,0.4573953125744257 l -6.693478686443688 -2.3675839632679176" fill="#ff4c07" stroke="none" /><path d="M 119.67450827220406 107.3425965602758 l 7.3991056911753805 2.761372596737085 a28.897591002780178,28.897591002780178 0 0,0 -0.17793446774412802,0.46453074751586504 l -7.350476943837745 -2.888326911086094" fill="#ff5708" stroke="none" /><path d="M 119.26925614724726 108.34839909993367 l 6.055261876723431 2.6234402830709267 a27.599138982817337,27.599138982817337 0 0,0 -0.19261427960345473,0.4342943518210238 l -6.009206512388704 -2.7272829713846383" fill="#ff4506" stroke="none" /><path d="M 118.64920377521936 109.65438752849418 l 7.443866222737956 3.853567696014685 a29.382191141329752,29.382191141329752 0 0,0 -0.23638321410402038,0.44714795774467553 l -7.376430500409042 -3.981130668845495" fill="#ff5e08" stroke="none" /><line stroke="#e1ed5e" stroke-width="0.3" x1="174.80103733775053" x2="179.2010983576182" y1="140.37084112569926" y2="142.7455964860345" /><path d="M 175.68104954172406 140.8457921977663 a86.0,86.0 0 0,1 -30.038265399797805,32.042727171017184" fill="none" id="id77" stroke="none" /><text fill="#e1ed5e" style="font-size:6.75px; font-family:Arial;" text-anchor="middle"><textPath startOffset="22.206326154141568" xlink:href="#id77">May</textPath></text><path d="M 118.30583269289576 110.29060199501025 l 6.146919879542934 3.4554836721599247 a28.051594955333435,28.051594955333435 0 0,0 -0.24023920749803324,0.41887730809588425 l -6.086528675892521 -3.560780826114124" fill="#ff4b07" stroke="none" /><path d="M 118.12598468904814 110.60418214915192 l 26.632180552180785 15.580532503432073 a51.854919122474776,51.854919122474776 0 0,0 -0.45735822431447765,0.7665586911469756 l -26.36004145216808 -16.036653288465153" fill="#88ff25" stroke="none" /><path d="M 117.35343817320211 111.8261652097733 l 6.04369971782782 4.118710691675198 a28.313691546749265,28.313691546749265 0 0,0 -0.2779313662065708,0.4003808621213674 l -5.971907444459113 -4.222132815983586" fill="#ff4f07" stroke="none" /><path d="M 117.14729908036423 112.12312394758627 l 6.211094002078679 4.3912374820320705 a28.606619178469572,28.606619178469572 0 0,0 -0.28772838296706693,0.399629558505721 l -6.134585826736009 -4.497500645988922" fill="#ff5307" stroke="none" /><path d="M 116.498646956653 112.99209946851258 l 5.154105383130014 4.058675234687586 a27.560308450147456,27.560308450147456 0 0,0 -0.29670914661055187,0.3701902815135594 l -5.0834783244646085 -4.146793349779395" fill="#ff4406" stroke="none" /><path d="M 116.27256486870786 113.27417163493432 l 5.08635820833257 4.149142584399779 a27.564024985414953,27.564024985414953 0 0,0 -0.30307826800793464,0.365077298015616 l -5.014183940431091 -4.236081139529165" fill="#ff4406" stroke="none" /><path d="M 116.0416608686014 113.55231037782055 l 5.052012725885897 4.268039640952353 a27.613546322454674,27.613546322454674 0 0,0 -0.30987328705717715,0.3604526390642284 l -4.9777969292579405 -4.35436937917811" fill="#ff4506" stroke="none" /><path d="M 115.07121518719521 114.62390073753431 l 4.897369230603317 4.752015057435203 a27.82391914422724,27.82391914422724 0 0,0 -0.33648310068444126,0.3408556045031346 l -4.8148455048633405 -4.835611155919003" fill="#ff4806" stroke="none" /><path d="M 114.81725581225074 114.88116024355365 l 9.463819713756232 9.50463563975657 a34.412754460550296,34.412754460550296 0 0,0 -0.4233588930363461,0.4143457820714735 l -9.298810868344091 -9.666131524750615" fill="#ffa20f" stroke="none" /><path d="M 114.55890576462653 115.13401014063108 l 4.967263784337203 5.163480119913885 a28.164861230472916,28.164861230472916 0 0,0 -0.35228094164766,0.3331036185955771 l -4.8776470082987355 -5.248218375255383" fill="#ff4d07" stroke="none" /><path d="M 113.20401910651253 116.32954008644616 l 4.245972363274356 5.251035715165968 a27.752899924598186,27.752899924598186 0 0,0 -0.3740595418582242,0.2971755229072299 l -4.15495532869878 -5.323345152078324" fill="#ff4706" stroke="none" /><path d="M 112.63410532772338 116.77436683061366 l 7.928158761760875 10.526257294158958 a34.177928288411664,34.177928288411664 0 0,0 -0.4729818876461402,0.34990069308067245 l -7.74579190369617 -10.661167935979398" fill="#ff9f0e" stroke="none" /><path d="M 112.34349029814194 116.9893568818739 l 7.956246386002275 10.950833680507642 a34.53597483940166,34.53597483940166 0 0,0 -0.4839520762540198,0.34528695668266884 l -7.766566981899371 -11.08616489903453" fill="#ffa40f" stroke="none" /><path d="M 111.1453310114006 117.79835938074945 l 3.5150420383827585 5.613290567465746 a27.623031898337643,27.623031898337643 0 0,0 -0.40516516122006274,0.24888553411109915 l -3.417897677230387 -5.672964568405223" fill="#ff4506" stroke="none" /><line stroke="#e1ed5e" stroke-width="0.3" x1="143.8653032363475" x2="146.44561519142675" y1="172.8068346515853" y2="177.08958963109032" /><path d="M 144.38136562736335 173.6633856474863 a86.0,86.0 0 0,1 -40.68145358897372,12.25698825130547" fill="none" id="id78" stroke="none" /><text fill="#e1ed5e" style="font-size:6.75px; font-family:Arial;" text-anchor="middle"><textPath startOffset="21.466115282336833" xlink:href="#id78">June</textPath></text><path d="M 110.8373102113329 117.98757091392108 l 6.789628344678014 11.269301971383117 a34.156603664360894,34.156603664360894 0 0,0 -0.5062205941380384,0.2990840498761537 l -6.594639879511593 -11.38450459355302" fill="#ff9f0e" stroke="none" /><path d="M 110.5260780823613 118.17145234162733 l 3.294288273634478 5.687018649827644 a27.572253521684406,27.572253521684406 0 0,0 -0.41273199491918117,0.2343599983585035 l -3.195907511794098 -5.742881813980777" fill="#ff4406" stroke="none" /><path d="M 110.21172684928248 118.3499491758327 l 1.903480468693921 3.420456733052732 a24.91442999137614,24.91442999137614 0 0,0 -0.3765367492646841,0.20531785790878007 l -1.8443209075605884 -3.4527152427212826" fill="#ff1e03" stroke="none" /><path d="M 109.89434966115114 118.52300852407294 l 3.9778953852393673 7.446936145582579 a29.442778550470987,29.442778550470987 0 0,0 -0.4490852297435055,0.23494016712306917 l -3.8491192529693663 -7.5143057316503645" fill="#ff5f08" stroke="none" /><path d="M 108.92500713936063 119.00905698771935 l 5.615783148238709 11.960857871447152 a34.21359683768962,34.21359683768962 0 0,0 -0.5352505495757929,0.2457072749286105 l -5.409064602895497 -12.055752216709836" fill="#ffa00e" stroke="none" /><path d="M 108.59647513512805 119.15986991738527 l 5.520978350195049 12.305186177318229 a34.48698664645984,34.48698664645984 0 0,0 -0.5437108700950942,0.23834686726010143 l -5.308346805442201 -12.398397597872783" fill="#ffa30f" stroke="none" /><path d="M 108.2653958097858 119.30500536409082 l 1.0440343809856194 2.4384905198804923 a23.65259190306897,23.65259190306897 0 0,0 -0.37565783126346486,0.15702500393488053 l -1.0019050902246935 -2.456100566835346" fill="#ff0c01" stroke="none" /><path d="M 106.2309692047433 120.05430185196036 l 2.0045182660618446 6.4515187051110585 a27.755752147716304,27.755752147716304 0 0,0 -0.45747430578850035,0.13783325561512189 l -1.8931689858330987 -6.485067329831907" fill="#ff4706" stroke="none" /><path d="M 105.88484417918355 120.15858648285463 l 0.8262991776928769 2.8304952394753937 a23.94863928478015,23.94863928478015 0 0,0 -0.39671357968955334,0.11211522028510872 l -0.7774544298987177 -2.8442992530990217" fill="#ff1001" stroke="none" /><path d="M 105.53697534728816 120.25689768951611 l 2.105988535062959 7.70471089616793 a28.98734985482328,28.98734985482328 0 0,0 -0.482445514848928,0.1274182453506518 l -1.9730525774025334 -7.739820490822166" fill="#ff5808" stroke="none" /><path d="M 105.18746579009965 120.34920634021253 l 1.902539505549517 7.4632143199327565 a28.701897464613896,28.701897464613896 0 0,0 -0.47979556317094596,0.1179220760593629 l -1.7737906576353597 -7.494857654306149" fill="#ff5407" stroke="none" /><path d="M 104.48393922423573 120.51570834832081 l 1.4941837809124516 6.836452756162423 a27.99783334028345,27.99783334028345 0 0,0 -0.47170821415569153,0.098851042609384 l -1.376284105327382 -6.861159779498348" fill="#ff4a06" stroke="none" /><path d="M 104.13013068566511 120.58985236759428 l 1.3293681484523594 6.62727066090607 a27.759285175743514,27.759285175743514 0 0,0 -0.46930691589183543,0.08994378739054404 l -1.2150936179888194 -6.649171646645081" fill="#ff4706" stroke="none" /><path d="M 103.06178313531738 120.77559828337769 l 1.1763969495320667 7.9823910986222515 a29.068610626014376,29.068610626014376 0 0,0 -0.49564944567135416,0.06869249680201492 l -1.0388189126738823 -8.001458160916869" fill="#ff5908" stroke="none" /><path d="M 102.70371172650421 120.8252237178851 l 1.7942541154314526 13.820165439348981 a34.93615157070698,34.93615157070698 0 0,0 -0.5970298448974849,0.07229199975600346 l -1.5560968474825874 -13.849002967830335" fill="#ffa90f" stroke="none" /><path d="M 102.34483914955558 120.86867818915974 l 0.7387581505247443 6.574824591205605 a27.616198456068915,27.616198456068915 0 0,0 -0.4728516557368126,0.04901300749089515 l -0.625473898182329 -6.586566967152258" fill="#ff4506" stroke="none" /><path d="M 101.62511606390274 120.93702456842531 l 1.0552659640542974 13.595416294494424 a34.63630926884162,34.63630926884162 0 0,0 -0.5948163310248661,0.041022016731525134 l -0.8210868722505009 -13.611566655742234" fill="#ffa50f" stroke="none" /><path d="M 101.26447882468166 120.96189622390904 l 0.3947453722884555 6.5438909432604415 a27.555786191314446,27.555786191314446 0 0,0 -0.47371274282436165,0.024485537864256012 l -0.28204456105061426 -6.549716287886899" fill="#ff4406" stroke="none" /><path d="M 100.90346689309514 120.98055641714683 l 0.45400674845601013 10.54306945007626 a31.552840165413997,31.552840165413997 0 0,0 -0.5428285237441274,0.018696111924166224 l -0.27245787303723046 -10.549322360426519" fill="#ff7c0b" stroke="none" /><line stroke="#e1ed5e" stroke-width="0.3" x1="102.19456741930631" x2="102.32365962044197" y1="184.97166512339345" y2="189.96999836594603" /><path d="M 102.22038585953345 185.97133177190398 a86.0,86.0 0 0,1 -42.740103519485714,-10.115201625700543" fill="none" id="id79" stroke="none" /><text fill="#e1ed5e" style="font-size:6.75px; font-family:Arial;" text-anchor="middle"><textPath startOffset="22.20632615414155" xlink:href="#id79">July</textPath></text><path d="M 100.54218724476979 120.99299961872073 l 0.169130827283772 6.548592625393961 a27.550776336443022,27.550776336443022 0 0,0 -0.4741886258448434,0.00816358722525272 l -0.05638251154626064 -6.550533689898373" fill="#ff4406" stroke="none" /><path d="M 100.18074693466247 120.99922214144158 l 0.034882891643912256 4.052702702451293 a25.052852823701528,25.052852823701528 0 0,0 -0.4312596526127326,0.0 l 0.03488289164390947 -4.052702702451293" fill="#ff2003" stroke="none" /><path d="M 99.09653310690486 120.98055641714683 l -0.5652381434475774 13.126115465170066 a34.13828000020493,34.13828000020493 0 0,0 -0.5868726859007211,-0.03033461436237535 l 0.7910988977617873 -13.114441044045488" fill="#ff9f0e" stroke="none" /><path d="M 98.37488393609728 120.93702456842531 l -0.6444053508234406 8.302133590270609 a29.327105163672993,29.327105163672993 0 0,0 -0.5029677889946763,-0.04339817721254331 l 0.7872174575596587 -8.2898111607794" fill="#ff5d08" stroke="none" /><path d="M 98.01472825383883 120.90594882070398 l -1.2391451009933596 13.04884538496327 a34.10754921646274,34.10754921646274 0 0,0 -0.5839982337100209,-0.060533804748751883 l 1.4635759313089738 -13.025582211758758" fill="#ff9e0e" stroke="none" /><path d="M 97.65516085044442 120.86867818915974 l -0.4809750417951505 4.280597825289219 a25.307534646720864,25.307534646720864 0 0,0 -0.43248477023261733,-0.052367882730389385 l 0.5545872350791571 -4.271684413833481" fill="#ff2403" stroke="none" /><path d="M 96.58105272829116 120.7198165907248 l -2.1337928612981147 12.931406428680324 a34.10627117828109,34.10627117828109 0 0,0 -0.5784277885427614,-0.10056708536700965 l 2.356069621312926 -12.892760764792309" fill="#ff9e0e" stroke="none" /><path d="M 96.22490169976321 120.6578951692458 l -1.350607125752404 7.390721565284659 a28.513115523116685,28.513115523116685 0 0,0 -0.48205140096023563,-0.09238629828603062 l 1.4776261412843346 -7.36637806865016" fill="#ff5207" stroke="none" /><path d="M 95.86986931433489 120.58985236759428 l -1.6164531318972926 8.058469302295444 a29.21899313928772,29.21899313928772 0 0,0 -0.4922823457674363,-0.10316255192716235 l 1.7549269390941156 -8.029450769641741" fill="#ff5c08" stroke="none" /><path d="M 95.51606077576429 120.51570834832081 l -2.384619186683754 10.910529627919443 a32.16808244181642,32.16808244181642 0 0,0 -0.5399333758766444,-0.12288707847737029 l 2.5720727119532607 -10.867865815864386" fill="#ff840c" stroke="none" /><path d="M 94.11515582081647 120.15858648285463 l -1.8889806673323413 6.470720207266824 a27.74080618044211,27.74080618044211 0 0,0 -0.4572279642025577,-0.13775903491604818 l 2.000083605975145 -6.437245803245051" fill="#ff4706" stroke="none" /><path d="M 93.76903079525671 120.05430185196036 l -2.6402860623874136 8.497729956735114 a29.89845632167909,29.89845632167909 0 0,0 -0.49016192029928324,-0.15693436807656128 l 2.786169327777637 -8.451022741998846" fill="#ff6509" stroke="none" /><path d="M 93.42475214034765 119.94407469862007 l -2.1745123911076183 6.595741862059368 a27.94494887310216,27.94494887310216 0 0,0 -0.45554294337069684,-0.15454489968603558 l 2.2877250674155407 -6.55733397547521" fill="#ff4a06" stroke="none" /><path d="M 93.08242187328487 119.8279376855182 l -2.1459020394848385 6.150824918595673 a27.51441039099339,27.51441039099339 0 0,0 -0.44583884080291647,-0.15986194612575427 l 2.2514604409174814 -6.112975431429961" fill="#ff4406" stroke="none" /><path d="M 92.7421414339146 119.70592522655815 l -2.9218986240357983 7.933292620758283 a29.454266578226648,29.454266578226648 0 0,0 -0.4742554597982644,-0.17932283446914218 l 3.058024304594346 -7.881821536182507" fill="#ff5f08" stroke="none" /><path d="M 91.7346041902142 119.30500536409082 l -3.665909713465463 8.562252590364148 a30.31402509382909,30.31402509382909 0 0,0 -0.4779212845939607,-0.20950664635409857 l 3.812751672717167 -8.497881390715598" fill="#ff6b09" stroke="none" /><path d="M 91.40352486487194 119.15986991738527 l -5.369748981892078 11.968125349615367 a34.117554212300284,34.117554212300284 0 0,0 -0.5337480221371778,-0.2450175382758594 l 5.574964999796675 -11.873920741005433" fill="#ff9e0e" stroke="none" /><path d="M 91.07499286063937 119.00905698771935 l -2.8133294654188066 5.992010908039139 a27.619593446961353,27.619593446961353 0 0,0 -0.42861312473086827,-0.20576034664751497 l 2.916055258149917 -5.942696284892062" fill="#ff4506" stroke="none" /><path d="M 90.7491055286396 118.85261126421891 l -3.3625698155506236 6.852658602649685 a28.633204156114317,28.633204156114317 0 0,0 -0.44060514445571825,-0.22092856624285465 l 3.4800288676891022 -6.793762195497528" fill="#ff5307" stroke="none" /><line stroke="#e1ed5e" stroke-width="0.3" x1="58.666819895761336" x2="56.23545636021788" y1="174.27360380694188" y2="178.64263932499728" /><path d="M 58.180547188652646 175.14741091055294 a86.0,86.0 0 0,1 -31.652253787137756,-30.449443065178592" fill="none" id="id80" stroke="none" /><text fill="#e1ed5e" style="font-size:6.75px; font-family:Arial;" text-anchor="middle"><textPath startOffset="22.20632615414155" xlink:href="#id80">August</textPath></text><path d="M 88.8546689885994 117.79835938074946 l -6.559202164385361 10.474613742140408 a33.35882947856771,33.35882947856771 0 0,0 -0.48404963831110104,-0.3089433811861219 l 6.738533604743386 -10.360155932130482" fill="#ff940d" stroke="none" /><path d="M 86.51685102203217 116.09983520530335 l -8.552343682431086 10.212104318601863 a34.32027240999319,34.32027240999319 0 0,0 -0.44965199015567,-0.3832031810022651 l 8.726861149163812 -10.063376747376646" fill="#ffa10e" stroke="none" /><path d="M 86.24171649860922 115.8653595955263 l -8.59372953001827 9.909856069374543 a34.11706653756195,34.11706653756195 0 0,0 -0.4403662753048064,-0.38857203744761165 l 8.763038158229666 -9.760460890154643" fill="#ff9e0e" stroke="none" /><path d="M 85.44109423537348 115.13401014063109 l -4.576406353744073 4.757183079891173 a27.60108218174808,27.60108218174808 0 0,0 -0.33955909029210635,-0.3323300375657475 l 4.657615396411973 -4.677702939402856" fill="#ff4506" stroke="none" /><path d="M 85.18274418774928 114.88116024355367 l -9.396149852455464 9.436673929272837 a34.31684823436899,34.31684823436899 0 0,0 -0.4150040632221179,-0.42039692499591746 l 9.557194540733114 -9.273536510296255" fill="#ffa10e" stroke="none" /><path d="M 84.9287848128048 114.62390073753433 l -6.0034007923559 5.825219544979917 a29.36504655222405,29.36504655222405 0 0,0 -0.34887555872532533,-0.36579462853740013 l 6.1027829024601825 -5.721017799860017" fill="#ff5e08" stroke="none" /><path d="M 84.67929136418377 114.36230785411682 l -6.899299709573919 6.467707777894195 a30.456827183720755,30.456827183720755 0 0,0 -0.3552623437955107,-0.385567109024975 l 7.009608461365159 -6.347989414067876" fill="#ff6d0a" stroke="none" /><path d="M 84.43433777217949 114.09645910891817 l -7.455175430445176 6.7515004544587685 a31.05795203236078,31.05795203236078 0 0,0 -0.35545256757258664,-0.3993547277946017 l 7.570286847666101 -6.622171556923303" fill="#ff750a" stroke="none" /><path d="M 83.72743513129214 113.27417163493432 l -10.20629213123906 8.325674200683332 a34.17137995671359,34.17137995671359 0 0,0 -0.3678827108847849,-0.45899024638145897 l 10.348092754178706 -8.148756120723615" fill="#ff9f0e" stroke="none" /><path d="M 83.50135304334701 112.99209946851258 l -10.47099305388753 8.24553574893932 a34.32781134776439,34.32781134776439 0 0,0 -0.3615751357118911,-0.4673846037264115 l 10.61137500681749 -8.064073151099656" fill="#ffa10e" stroke="none" /><path d="M 83.28015986056508 112.70617746262583 l -6.399871634548562 4.8635575489029526 a29.038193140886214,29.038193140886214 0 0,0 -0.2990086715356526,-0.4005709788207567 l 6.4826415727793 -4.752673690572888" fill="#ff5908" stroke="none" /><path d="M 82.85270091963577 112.12312394758628 l -6.4530793333795256 4.562320878379741 a28.902974419811166,28.902974419811166 0 0,0 -0.28371585367694874,-0.40871384774991365 l 6.5306560942186085 -4.450565768442814" fill="#ff5708" stroke="none" /><path d="M 82.24976979558568 111.22182372390057 l -12.474275269138117 7.886326911910554 a35.758106099759395,35.758106099759395 0 0,0 -0.3244373157385295,-0.5230962560607719 l 12.608177224544601 -7.670434324484518" fill="#ffb410" stroke="none" /><path d="M 82.05923443525364 110.91462005526583 l -6.064386900060118 3.6893898782308345 a28.098477734501454,28.098477734501454 0 0,0 -0.2478274019141471,-0.4153729806136362 l 6.126995177672497 -3.584454803731087" fill="#ff4c07" stroke="none" /><line stroke="#e1ed5e" stroke-width="0.3" x1="26.63291911575756" x2="22.317208475507996" y1="142.92168965132927" y2="145.44649492493687" /><path d="M 25.769776987707644 143.4266507060508 a86.0,86.0 0 0,1 -11.730757126820373,-40.83630448921669" fill="none" id="id81" stroke="none" /><text fill="#e1ed5e" style="font-size:6.75px; font-family:Arial;" text-anchor="middle"><textPath startOffset="21.46611528233685" xlink:href="#id81">September</textPath></text><path d="M 81.87401531095188 110.60418214915194 l -11.323535910553463 6.62456906082037 a34.118970262912114,34.118970262912114 0 0,0 -0.29220136643434025,-0.5094777121047535 l 11.435889273140182 -6.42867150285731" fill="#ff9e0e" stroke="none" /><path d="M 81.69416730710424 110.29060199501025 l -11.603762917428602 6.523041471588341 a34.31155076931131,34.31155076931131 0 0,0 -0.2849878039271361,-0.5173356444311349 l 11.714327130807254 -6.322335308759383" fill="#ffa10e" stroke="none" /><path d="M 81.02952815118164 109.00673069616217 l -12.125239159275571 5.7567763524531 a34.422440115038434,34.422440115038434 0 0,0 -0.24952233980094504,-0.5374489213817811 l 12.222536115916341 -5.5472073637924915" fill="#ffa20f" stroke="none" /><path d="M 80.87730276802145 108.67885076344099 l -7.28260249666946 3.3052147127216487 a28.997546087500083,28.997546087500083 0 0,0 -0.2023737571447015,-0.4562993972497201 l 7.338417338545441 -3.1793669789792327" fill="#ff5808" stroke="none" /><path d="M 80.73074385275274 108.34839909993369 l -12.411350764925182 5.3772137732293706 a34.5261249355836,34.5261249355836 0 0,0 -0.2315700390670851,-0.5473631676708872 l 12.502071785184572 -5.162776079892324" fill="#ffa40f" stroke="none" /><path d="M 80.58989483394504 108.01547362559985 l -17.448940958684545 7.205603723032858 a39.87819550680213,39.87819550680213 0 0,0 -0.2565447600524644,-0.6367230553675691 l 17.570388332994398 -6.904181299822484" fill="#ffe915" stroke="none" /><path d="M 80.45479744820244 107.68017299344265 l -6.117156088956463 2.4037006967091217 a27.572471046419075,27.572471046419075 0 0,0 -0.1697751539068729,-0.4432293537831514 l 6.157625522456845 -2.298047776092812" fill="#ff4406" stroke="none" /><path d="M 79.23777060512086 103.15116336523772 l -14.453854602424343 2.1937170736041454 a35.61938122722866,35.61938122722866 0 0,0 -0.08678568774727106,-0.6069788979723852 l 14.489474341188213 -1.9445927036513595" fill="#ffb210" stroke="none" /><path d="M 79.18660465613746 102.79330883721812 l -16.0540604843117 2.1545715287287677 a37.19799482980369,37.19799482980369 0 0,0 -0.07970731554212918,-0.6353457295980643 l 16.088769309100677 -1.877908044843295" fill="#ffc712" stroke="none" /><path d="M 79.07016306316243 101.71520430193888 l -15.165991515228116 1.242856022652715 a36.2168324474253,36.2168324474253 0 0,0 -0.04557015940657802,-0.6217686194425043 l 15.18513823329903 -0.98161426671345" fill="#ffba11" stroke="none" /><path d="M 79.04373962182676 101.35467743843564 l -11.045107471679742 0.7139898830692886 a32.06816066987108,32.06816066987108 0 0,0 -0.03086735940300155,-0.5511574376598091 l 11.055761181970276 -0.5237607290740419" fill="#ff830c" stroke="none" /><path d="M 79.0235259727143 100.99374915477108 l -13.312825543445216 0.6306879370767817 a34.32775642125041,34.32775642125041 0 0,0 -0.02288168447147618,-0.5904746037293821 l 13.321709360767894 -0.40143608633340283" fill="#ffa10e" stroke="none" /><path d="M 79.0095281055655 100.63252640178507 l -14.798861342810905 0.4459485505024 a35.80557891990172,35.80557891990172 0 0,0 -0.013261597541238764,-0.6162143272944172 l 14.80434500303715 -0.191144407417854" fill="#ffb510" stroke="none" /><line stroke="#e1ed5e" stroke-width="0.3" x1="15.007084014347285" x2="10.007500721073583" y1="101.09737516637583" y2="101.16192664675087" /><path d="M 14.007167355692545 101.11028546245083 a86.0,86.0 0 0,1 10.666146001902534,-42.60595125391555" fill="none" id="id82" stroke="none" /><text fill="#e1ed5e" style="font-size:6.75px; font-family:Arial;" text-anchor="middle"><textPath startOffset="22.20632615414155" xlink:href="#id82">October</textPath></text><path d="M 79.00486145842228 99.54816195383935 l -26.585611259146635 -0.5721510540895273 a47.59176720060478,47.59176720060478 0 0,0 0.024675890603618782,-0.8188726774465958 l 26.571823674087373 1.0296938789611174" fill="#b8ff1f" stroke="none" /><path d="M 79.05617556472873 98.46500227214037 l -15.779174698741933 -1.1564744244742025 a36.821497630372434,36.821497630372434 0 0,0 0.05177017733694815,-0.6317272925614265 l 15.756930037585489 1.4279156342434074" fill="#ffc212" stroke="none" /><path d="M 79.08570108090925 98.10471618934814 l -17.69902750869623 -1.6039112968254414 a38.77155328612753,38.77155328612753 0 0,0 0.0659538726259575,-0.6641464966484346 l 17.668796510388045 1.9083333241783063" fill="#ffdb14" stroke="none" /><path d="M 79.16333360222342 97.38593545837743 l -11.63931966629805 -1.4602111608182464 a32.73055748583377,32.73055748583377 0 0,0 0.07494362652316447,-0.5584170667224998 l 11.612460040717052 1.6603465696054056" fill="#ff8c0c" stroke="none" /><path d="M 79.3925641242962 95.95851677861259 l -13.170736716295652 -2.5830147803578725 a34.42163443867868,34.42163443867868 0 0,0 0.11903444422350078,-0.5804542242562055 l 13.124322976157156 2.80934466077748" fill="#ffa20f" stroke="none" /><path d="M 79.46518482838121 95.60439243477599 l -12.792701495118283 -2.738358977260839 a34.08250058022344,34.08250058022344 0 0,0 0.1277373381271379,-0.5726214400490005 l 12.743669769989108 2.9581585868597986" fill="#ff9e0e" stroke="none" /><path d="M 79.81627453868168 94.20196356495316 l -12.865022271881292 -3.6956441967569673 a34.38531225205543,34.38531225205543 0 0,0 0.16831463454685092,-0.5674732740050756 l 12.799501740222734 3.9165468575085822" fill="#ffa20f" stroke="none" /><path d="M 79.91906864156998 93.8553929516997 l -12.801546291180127 -3.917172474020046 a34.38745037848686,34.38745037848686 0 0,0 0.17806888837397378,-0.5645270378572989 l 12.73222191903795 4.136949678303759" fill="#ffa20f" stroke="none" /><path d="M 80.02781315780177 93.51064311812611 l -12.688843811689646 -4.12285527684099 a34.341839937251166,34.341839937251166 0 0,0 0.18751087162199262,-0.5606336393155281 l 12.61599564629588 4.34066201907884" fill="#ffa10e" stroke="none" /><path d="M 80.14247586403 93.16781622104843 l -12.97160079472022 -4.46301159851989 a34.7179043481907,34.7179043481907 0 0,0 0.1992922099959098,-0.5634259146360605 l 12.8928555039145 4.685635139582562" fill="#ffa60f" stroke="none" /><path d="M 80.2630227832202 92.82701384747504 l -6.360496555665764 -2.311587697339247 a27.767522007140148,27.767522007140148 0 0,0 0.1671279700182186,-0.44781986884985475 l 6.319763997145918 2.4207307032184433" fill="#ff4706" stroke="none" /><path d="M 80.52162464483688 92.15188598940014 l -20.51118443398382 -8.264247453660282 a43.11349074344054,43.11349074344054 0 0,0 0.28327270120130327,-0.68596731494806 l 20.365890045896318 8.616089339061652" fill="#edff1a" stroke="none" /><path d="M 80.65960295795068 91.81776055985345 l -13.890259242883781 -5.876478479934087 a36.08218489343128,36.08218489343128 0 0,0 0.24692119896953132,-0.5699281711588401 l 13.78704733407157 6.114705795679526" fill="#ffb811" stroke="none" /><path d="M 80.803312248108 91.48605970444005 l -12.20097048486242 -5.41126342203329 a34.34711401746158,34.34711401746158 0 0,0 0.2443513930097308,-0.5383959044923976 l 12.106016774889337 5.620481335367758" fill="#ffa10e" stroke="none" /><path d="M 81.10775173730289 90.83032412892265 l -12.073735508387086 -5.860194066136053 a34.42076613384137,34.42076613384137 0 0,0 0.2633024488511374,-0.5308016699506761 l 11.971073046582536 6.06715532458569" fill="#ffa20f" stroke="none" /><path d="M 81.26839172434947 90.50648371742162 l -12.69142144414228 -6.4322408602602925 a35.22834849015291,35.22834849015291 0 0,0 0.27879139068626446,-0.5385362292884767 l 12.578820620295902 6.649749811809105" fill="#ffad10" stroke="none" /><line stroke="#e1ed5e" stroke-width="0.3" x1="26.266209847984243" x2="21.928928074336255" y1="57.711370442889674" y2="55.22380399835377" /><path d="M 25.398753493254645 57.213857153982495 a86.0,86.0 0 0,1 29.58750427330803,-30.492523968695096" fill="none" id="id83" stroke="none" /><text fill="#e1ed5e" style="font-size:6.75px; font-family:Arial;" text-anchor="middle"><textPath startOffset="21.46611528233685" xlink:href="#id83">November</textPath></text><path d="M 81.78341655067845 89.55222093294921 l -6.908673469129958 -3.962339823637643 a28.964289420974414,28.964289420974414 0 0,0 0.2517690866495425,-0.43035498123259003 l 6.839444708010091 4.080674217224125" fill="#ff5808" stroke="none" /><path d="M 81.96595687620814 89.24020034530311 l -12.229934868346911 -7.296846750898528 a35.24132295083943,35.24132295083943 0 0,0 0.3152994204740994,-0.518269344858875 l 12.102519649586595 7.506283868964477" fill="#ffad10" stroke="none" /><path d="M 83.39014120810768 87.1503855733568 l -10.936918220999523 -8.46094984408724 a34.82764811661735,34.82764811661735 0 0,0 0.3709076849424066,-0.47101509361172095 l 10.789656455463145 8.647957331652009" fill="#ffa80f" stroke="none" /><path d="M 84.07557802195018 86.31012108654704 l -10.397157376243355 -8.93820985911333 a34.711034862180256,34.711034862180256 0 0,0 0.3934051771824775,-0.44973012448078886 l 10.241760335483034 9.115855539797062" fill="#ffa60f" stroke="none" /><path d="M 84.80347519578584 85.50635884689758 l -9.275175643195464 -8.84617168309374 a33.81731784184569,33.81731784184569 0 0,0 0.4053822574525094,-0.4177820504112568 l 9.121529122039837 9.00451792905512" fill="#ff9a0e" stroke="none" /><path d="M 85.05521093208273 85.24692304244772 l -11.621269188791107 -11.472191270650024 a37.32988273407755,37.32988273407755 0 0,0 0.45536093049633364,-0.45340546594755526 l 11.422072458127461 11.670532587247687" fill="#ffc912" stroke="none" /><path d="M 85.31137513191541 84.99185889309783 l -12.151295975688729 -12.415618635010457 a38.37243736436566,38.37243736436566 0 0,0 0.4760315674690396,-0.45794199074589453 l 11.935781164607263 12.622943712518666" fill="#ffd614" stroke="none" /><path d="M 85.57189188830299 84.74124197986013 l -9.2481865768147 -9.78061988503656 a34.46066418476994,34.46066418476994 0 0,0 0.4345196283485734,-0.403838638890168 l 9.07845906467127 9.938363110001376" fill="#ffa30f" stroke="none" /><path d="M 85.83668400450813 84.49514656593479 l -6.801511234341174 -7.44574468663795 a31.084625377745397,31.084625377745397 0 0,0 0.3981629848242352,-0.35747465908386405 l 6.672337261920967 7.561718354491093" fill="#ff750a" stroke="none" /><path d="M 86.93701828274178 83.55741782278169 l -8.371325395169096 -10.537119986966712 a34.45771104205824,34.45771104205824 0 0,0 0.46758694622429436,-0.36495902826930343 l 8.188705893785375 10.679657404459237" fill="#ffa30f" stroke="none" /><path d="M 87.22198572758235 83.33499621200491 l -5.7748482732609725 -7.53151986664532 a30.490661941132366,30.490661941132366 0 0,0 0.4192521861883165,-0.31577205462769115 l 5.644349933314266 7.629808510778865" fill="#ff6d0a" stroke="none" /><path d="M 87.51073957382395 83.11751280151077 l -7.835887790373185 -10.592242518420898 a34.175611524038004,34.175611524038004 0 0,0 0.4759436979370756,-0.34579333748742375 l 7.652398776082328 10.72555509072499" fill="#ff9f0e" stroke="none" /><path d="M 87.80319425747018 82.90503203632743 l -4.812137621566253 -6.744662513612829 a29.285357017740843,29.285357017740843 0 0,0 0.41288010852991375,-0.2892489014547045 l 4.695326373452679 6.826496257831476" fill="#ff5d08" stroke="none" /><path d="M 88.70189139769569 82.29822771554957 l -6.28759241272869 -9.851341762183178 a32.686862404595075,32.686862404595075 0 0,0 0.4768870766577013,-0.2986266436533494 l 6.1170861836987465 9.95811274715946" fill="#ff8b0c" stroke="none" /><path d="M 89.00827224532344 82.1063720568725 l -8.721312632896927 -14.197579025950631 a37.662309090844545,37.662309090844545 0 0,0 0.555318074683874,-0.3345729265006913 l 8.475632491995404 14.345598561909942" fill="#ffcd13" stroke="none" /><line stroke="#e1ed5e" stroke-width="0.3" x1="56.762969772571076" x2="54.21961505331055" y1="26.818313649435495" y2="22.513508569990535" /><path d="M 56.25429882871897 25.957352633546506 a86.0,86.0 0 0,1 42.265352541879196,-11.944610805530505" fill="none" id="id84" stroke="none" /><text fill="#e1ed5e" style="font-size:6.75px; font-family:Arial;" text-anchor="middle"><textPath startOffset="22.20632615414155" xlink:href="#id84">December</textPath></text><path d="M 89.3179101791058 81.91981866633112 l -6.925088757505216 -11.721195251751293 a34.614083605920825,34.614083605920825 0 0,0 0.5155904026024108,-0.2986632402450561 l 6.7223016224374845 11.838662649386396" fill="#ffa50f" stroke="none" /><path d="M 89.63071344664047 81.73862282372117 l -7.301409077542851 -12.858530275655033 a35.78689877450854,35.78689877450854 0 0,0 0.5382961547468753,-0.29956122731575724 l 7.078988833723931 12.982306900530975" fill="#ffb410" stroke="none" /><path d="M 89.94658935756843 81.56283822128135 l -6.545657918690195 -12.004220088820801 a34.67285403744809,34.67285403744809 0 0,0 0.5264576790876844,-0.2812154597846246 l 6.338055193074205 12.115114275107175" fill="#ffa60f" stroke="none" /><path d="M 90.91171255644093 81.06846463323043 l -5.7721208157102275 -12.023729447656168 a34.337445352899834,34.337445352899834 0 0,0 0.5350457279894205,-0.2512111434709789 l 5.564296876421198 12.121305573767154" fill="#ffa10e" stroke="none" /><path d="M 91.23893434514133 80.91482961587045 l -5.676481912655999 -12.365690288531109 a34.60634937139949,34.60634937139949 0 0,0 0.5435139446320787,-0.24385886390520112 l 5.462785849557146 12.461569482952838" fill="#ffa50f" stroke="none" /><path d="M 93.25333710446033 80.11325718540243 l -4.600753151066093 -13.561370426435417 a35.320534117135495,35.320534117135495 0 0,0 0.5774355280945549,-0.19037141494729692 l 4.36663480072913 13.638555565641948" fill="#ffae10" stroke="none" /><path d="M 93.59665428221793 80.00007090966166 l -4.485132613918062 -14.008666436675739 a35.709151909558784,35.709151909558784 0 0,0 0.5870153127273479,-0.18238851510850912 l 4.243331928479986 14.083795086666774" fill="#ffb310" stroke="none" /><path d="M 93.94186890950719 79.89281104454417 l -5.0145799831046665 -16.64359944451613 a38.38261818243879,38.38261818243879 0 0,0 0.6342449513663397,-0.18515349344555163 l 4.727344814014905 16.72745126688038" fill="#ffd614" stroke="none" /><path d="M 94.28887869178378 79.79150937346287 l -3.81182882770878 -13.48794798385683 a35.01623272591388,35.01623272591388 0 0,0 0.5814397268075969,-0.15892944134944342 l 3.5790912116774605 13.551563966032571" fill="#ffaa0f" stroke="none" /><path d="M 95.692805502759 79.44645832069477 l -2.917157248644155 -13.920409940507989 a35.222785216866306,35.222785216866306 0 0,0 0.594482772999133,-0.119247651660062 l 2.677108066177886 13.968561548245262" fill="#ffad10" stroke="none" /><path d="M 96.40284397218896 79.31037775812273 l -2.382588671815765 -13.703842479037954 a34.909422255052505,34.909422255052505 0 0,0 0.5929129213782109,-0.09783571230135207 l 2.1463465442986682 13.742824454278933" fill="#ffa90f" stroke="none" /><path d="M 96.75951476605007 79.25152402106235 l -2.473364407481184 -15.83668441322569 a37.028665094021406,37.028665094021406 0 0,0 0.6305999643305228,-0.09293404260052958 l 2.2003954627220126 15.876912939987188" fill="#ffc512" stroke="none" /><path d="M 97.11714578562143 79.19881850522333 l -1.9464442205423882 -14.044532428667765 a35.178770618201824,35.178770618201824 0 0,0 0.6005271969440894,-0.07796566540930058 l 1.704402295090441 14.075956417241201" fill="#ffac10" stroke="none" /><path d="M 98.19473922651362 79.07773832637324 l -1.24902307048303 -14.475685674250247 a35.52947123505507,35.52947123505507 0 0,0 0.6097699999944092,-0.047329887732535235 l 0.9996628811262868 14.495040824171245" fill="#ffb110" stroke="none" /><path d="M 98.55514903715128 79.0497635885617 l -0.9175189391199399 -13.303959495334812 a34.33556070276586,34.33556070276586 0 0,0 0.5899796845680375,-0.03558918573777341 l 0.6883772057122793 13.317781950452892" fill="#ffa10e" stroke="none" /><path d="M 98.91598698831166 79.02799685794201 l -0.893104778012187 -17.278571390473004 a38.30163765197331,38.30163765197331 0 0,0 0.658713693929162,-0.02836559730165604 l 0.5955502516937009 17.291384714298854" fill="#ffd513" stroke="none" /><path d="M 99.27714615592234 79.0124445844662 l -0.2260636605073415 -6.563600154039588 a27.56749204496743,27.56749204496743 0 0,0 0.47438844569182315,-0.012252053969977528 l 0.11304857962063936 6.566519000151925" fill="#ff4406" stroke="none" /><path d="M 99.63851952072746 79.00311137660856 l -0.2800009491887473 -16.264083627396612 a37.266493683965734,37.266493683965734 0 0,0 0.641481428461279,-0.005521433177680848 l 3.984141884683855e-15 16.266493683965734" fill="#ffc812" stroke="none" /></svg>