<?xml version="1.0" encoding="utf-8" ?>
<svg baseProfile="full" height="200mm" version="1.1" viewBox="0,0,200,200" width="200mm" xmlns="http://www.w3.org/2000/svg" xmlns:ev="http://www.w3.org/2001/xml-events" xmlns:xlink="http://www.w3.org/1999/xlink"><defs /><rect fill="#1a1a1a" height="200" width="200" x="0" y="0" /><text alignment-baseline="middle" fill="#e1ed5e" style="dominant-baseline: central; font-size:9.0px; font-family:Arial;" text-anchor="middle" x="100.0" y="100.0">2024</text><line stroke="#e1ed5e" stroke-width="0.3" x1="100.0" x2="100.0" y1="15.0" y2="10.0" /><path d="M 100.0 14.0 a86.0,86.0 0 0,1 42.35913384403234,11.155469271406648" fill="none" id="id109" stroke="none" /><text fill="#e1ed5e" style="font-size:6.75px; font-family:Arial;" text-anchor="middle"><textPath startOffset="22.145653131862478" xlink:href="#id109">January</textPath></text><path d="M 100.36049292484886 79.00309439819443 l 0.08074868608019616 -4.703206144216497 a25.703899274569928,25.703899274569928 0 0,0 0.4411115750010348,0.011361469441548987 l -0.16147357515197236 4.701126957424903" fill="#ff3204" stroke="none" /><path d="M 100.72087961077811 79.0123766808444 l 0.14508491173086205 -4.223988903519592 a25.22647984600289,25.22647984600289 0 0,0 0.4326632472024964,0.018580421470247854 l -0.21757391953419467 4.220875913623513" fill="#ff2b04" stroke="none" /><path d="M 102.15924093988457 79.11130261209362 l 2.695614176147572 -26.077621890175603 a47.216572987971055,47.216572987971055 0 0,0 0.8055239500493157,0.09026063876520003 l -3.142874027797684 26.027505490903433" fill="#b8ff1f" stroke="none" /><path d="M 104.9986988182912 79.60360301121754 l 1.4617658887421696 -5.964503654900709 a27.14101484795584,27.14101484795584 0 0,0 0.4515679487793689,0.11478680673698838 l -1.563939130746933 5.938531616328453" fill="#ff4606" stroke="none" /><path d="M 106.72888874123014 80.10723608172694 l 20.186666223690402 -59.67829175481916 a84.0,84.0 0 0,0 1.3619769118199267,0.4737662697256382 l -21.208148907555344 59.32296705252493" fill="#4dd2ff" stroke="none" /><path d="M 108.73861861582097 80.90454125486305 l 2.851911226851249 -6.231940718700738 a27.85350149684382,27.85350149684382 0 0,0 0.43307059985316354,0.20269890774778365 l -2.958470540575918 6.182065579382421" fill="#ff5007" stroke="none" /><line stroke="#e1ed5e" stroke-width="0.3" x1="143.13028292997686" x2="145.6673583964461" y1="26.7553504044142" y2="22.446841604673864" /><path d="M 143.63769802327073 25.89364864446614 a86.0,86.0 0 0,1 29.32050498858742,28.57503671076993" fill="none" id="id110" stroke="none" /><text fill="#e1ed5e" style="font-size:6.75px; font-family:Arial;" text-anchor="middle"><textPath startOffset="20.669276256404974" xlink:href="#id110">February</textPath></text><path d="M 111.27062007382361 82.28071324371311 l 4.100214533402046 -6.446218274040191 a28.639730967546637,28.639730967546637 0 0,0 0.4125681002846085,0.2674216580981057 l -4.210268265943663 6.37488277423819" fill="#ff5b08" stroke="none" /><path d="M 111.8722381534696 82.67804972795209 l 1.5686371958647725 -2.2886885480572534 a23.774656361111933,23.774656361111933 0 0,0 0.334662148857222,0.23362017107462235 l -1.6076944358957552 2.2614235611775046" fill="#ff1602" stroke="none" /><path d="M 112.45986205192187 83.09580414077388 l 4.393556754629975 -5.960703544662056 a28.404952917034752,28.404952917034752 0 0,0 0.3900230130360657,0.2926805401289446 l -4.495232756576807 5.884403977269097" fill="#ff5808" stroke="none" /><path d="M 115.6541949942343 86.00192230759917 l 6.057543608792913 -5.416692847650121 a29.126155055019062,29.126155055019062 0 0,0 0.33008107869148173,0.37557167540302694 l -6.149635751442985 5.311908894435796" fill="#ff6209" stroke="none" /><path d="M 115.8921839302757 86.27271002978787 l 3.7420344786857473 -3.2322802575668175 a25.944740408062806,25.944740408062806 0 0,0 0.2882404278856075,0.33954649927900116 l -3.796969470078467 3.1675669758382643" fill="#ff3505" stroke="none" /><path d="M 116.1254893667686 86.54754324733833 l 5.970986732876176 -4.981209498067448 a28.775932781848148,28.775932781848148 0 0,0 0.31318242698413534,0.3820316381703208 l -6.055615979098938 4.877975578198632" fill="#ff5d08" stroke="none" /><path d="M 116.35404254752997 86.82634096563983 l 4.318373981472859 -3.4785763978196336 a26.54516434376201,26.54516434376201 0 0,0 0.2828116365636326,0.3573232640708918 l -4.377452048678051 3.403933189834064" fill="#ff3e05" stroke="none" /><path d="M 116.57777611688842 87.10902102172516 l 7.018414165216626 -5.457561305371015 a29.89061937079731,29.89061937079731 0 0,0 0.311500140235907,0.4077636828576389 l -7.111066282806839 5.336276709272494" fill="#ff6c0a" stroke="none" /><path d="M 117.21940702142032 87.97951657250589 l 5.818736523812444 -4.061929999472941 a28.0962645141065,28.0962645141065 0 0,0 0.27268128881553766,0.3978501495609176 l -5.887607549443308 3.9614451148419745" fill="#ff5407" stroke="none" /><path d="M 117.42321728460499 88.27688183743584 l 4.085648071797522 -2.7490063593855156 a25.924383832574875,25.924383832574875 0 0,0 0.2452638811224436,0.37136077611905305 l -4.1322363918406895 2.678465704927404" fill="#ff3505" stroke="none" /><path d="M 117.62189284568427 88.57770195909679 l 3.6099234498700445 -2.33990876634797 a25.301943787261024,25.301943787261024 0 0,0 0.2331180233481541,0.366500252577797 l -3.6495591648440886 2.277594839091501" fill="#ff2c04" stroke="none" /><line stroke="#e1ed5e" stroke-width="0.3" x1="172.87174338648825" x2="177.1583165268699" y1="56.24261187166439" y2="53.66864786411523" /><path d="M 173.72905801456457 55.72781907015455 a86.0,86.0 0 0,1 12.242430191666344,42.057860355516425" fill="none" id="id111" stroke="none" /><text fill="#e1ed5e" style="font-size:6.75px; font-family:Arial;" text-anchor="middle"><textPath startOffset="22.145653131862474" xlink:href="#id111">March</textPath></text><path d="M 118.00360718960297 89.18935116829356 l 9.109381021385946 -5.469921569566666 a31.625481851191367,31.625481851191367 0 0,0 0.2754824790665144,0.4678294756774253 l -9.201937210582228 5.312740925595684" fill="#ff840c" stroke="none" /><path d="M 118.53625476483649 90.13048839642627 l 6.258660189188485 -3.3323840303057866 a28.090529648000203,28.090529648000203 0 0,0 0.22297450621627257,0.4275830159603687 l -6.314942764379702 3.2244547712409193" fill="#ff5407" stroke="none" /><path d="M 118.8641267826498 90.77261029715802 l 5.601873023313462 -2.7401568091396156 a27.236139888424674,27.236139888424674 0 0,0 0.2018337285592518,0.4217548658915072 l -5.6480860098326255 2.6435894411830048" fill="#ff4806" stroke="none" /><path d="M 119.58574465831526 92.42381321644754 l 7.192429752180398 -2.7821863391323207 a28.711783617666168,28.711783617666168 0 0,0 0.17386942329173108,0.46120930221145406 l -7.239129859286569 2.658308756726709" fill="#ff5c08" stroke="none" /><path d="M 119.71291397450082 92.76114493625339 l 7.432036468704443 -2.729146735739912 a28.917285391935334,28.917285391935334 0 0,0 0.16711413514076365,0.46744797842470504 l -7.477790773889151 2.6011638009342906" fill="#ff5f08" stroke="none" /><path d="M 119.94978838288452 93.4421083053983 l 4.30039681750254 -1.4136258506474348 a25.52678150937337,25.52678150937337 0 0,0 0.13326837838438121,0.4174612971672824 l -4.324029911664179 1.3395955197887652" fill="#ff3004" stroke="none" /><path d="M 120.05942366710727 93.78553927170692 l 8.647082253255734 -2.6788881858701514 a30.05253961090284,30.05253961090284 0 0,0 0.14843619055617144,0.4940958021069058 l -8.691794763815533 2.5300547801725224" fill="#ff6f0a" stroke="none" /><path d="M 120.35273937422433 94.82641323984039 l 7.572219505130056 -1.924828587270025 a28.813032274619374,28.813032274619374 0 0,0 0.11773893181195337,0.4804150203017594 l -7.604145963458301 1.7945577423601706" fill="#ff5e08" stroke="none" /><path d="M 120.43855184770803 95.1765574152323 l 4.173575542464755 -0.9849524639646599 a25.288223893983385,25.288223893983385 0 0,0 0.09608217129703661,0.4233557750851095 l -4.189868575319458 0.9131623549405241" fill="#ff2c04" stroke="none" /><path d="M 120.65975698304385 96.23510406497455 l 4.886002039061882 -0.8903923328085503 a25.96646901047828,25.96646901047828 0 0,0 0.07614998729012126,0.4392128906177814 l -4.900566843844238 0.8063864092701762" fill="#ff3605" stroke="none" /><path d="M 120.82617615685814 97.30363454192243 l 2.6668997197180913 -0.3452835619099772 a23.68915876310003,23.68915876310003 0 0,0 0.04875219142879952,0.40373808141326867 l -2.6724339974065545 0.2994518035732956" fill="#ff1502" stroke="none" /><path d="M 120.86939407059847 97.66154086499901 l 9.721294083878856 -1.0892912787776796 a30.782132393056187,30.782132393056187 0 0,0 0.05433428581539048,0.5256349271732398 l -9.738560762175913 0.9222518293215085" fill="#ff790b" stroke="none" /><path d="M 120.93736805541906 98.37931529534042 l 1.2359021090011109 -0.09566663962790636 a22.239599180772192,22.239599180772192 0 0,0 0.026196170905187877,0.3808865756922191 l -1.237362241071365 0.07443663978135308" fill="#ff0000" stroke="none" /><path d="M 120.96210409425399 98.7389718711861 l 11.732421894771928 -0.7057933670158189 a32.753632110707194,32.753632110707194 0 0,0 0.02894549292851849,0.5615348299626781 l -11.74280897715702 0.50428674367641" fill="#ff930d" stroke="none" /><path d="M 120.99303781780057 99.45929381324524 l 7.276205800684188 -0.1874092509467512 a28.27861889930024,28.27861889930024 0 0,0 0.008333531778741672,0.4853864473518199 l -7.278350764061596 0.06247588762586492" fill="#ff5608" stroke="none" /><line stroke="#e1ed5e" stroke-width="0.3" x1="184.99686870605535" x2="189.99668451229388" y1="99.2704041080226" y2="99.22748670261217" /><path d="M 185.99683186730306 99.26182062694052 a86.0,86.0 0 0,1 -10.086455211305974,41.156179273409016" fill="none" id="id112" stroke="none" /><text fill="#e1ed5e" style="font-size:6.75px; font-family:Arial;" text-anchor="middle"><textPath startOffset="21.40746469413373" xlink:href="#id112">April</textPath></text><path d="M 120.99922638620191 99.81974689727618 l 7.6977451784282955 -0.06607588426689898 a28.698028764203062,28.698028764203062 0 0,0 0.0,0.4926579739814508 l -7.6977451784282955 -0.06607588426689803" fill="#ff5c08" stroke="none" /><path d="M 120.99303781780057 100.54070618675476 l 10.784071587733568 0.27775943036454837 a31.787648043504145,31.787648043504145 0 0,0 -0.018732480674879332,0.5453757359197832 l -10.777714420061843 -0.4628414308484422" fill="#ff860c" stroke="none" /><path d="M 120.86939407059847 102.33845913500097 l 7.883039611820795 0.8833110309516664 a28.932373661076277,28.932373661076277 0 0,0 -0.05954270615178923,0.49309902261494426 l -7.866714819409342 -1.0185037304900193" fill="#ff5f08" stroke="none" /><path d="M 120.82617615685814 102.69636545807757 l 7.676040662065363 0.9938171433922216 a28.740108058688918,28.740108058688918 0 0,0 -0.06754675845200432,0.48873469577860806 l -7.657849387058149 -1.1254401473709148" fill="#ff5d08" stroke="none" /><path d="M 120.7213421655516 103.40968896794604 l 8.646561920940442 1.4227884736880456 a29.762839727709096,29.762839727709096 0 0,0 -0.08728332936096875,0.5034270491119134 l -8.620863774087239 -1.571008555720547" fill="#ff6b09" stroke="none" /><path d="M 120.65975698304385 103.76489593502545 l 8.357355130756263 1.52298850297089 a29.494991392683076,29.494991392683076 0 0,0 -0.09504930603088874,0.49733813316731157 l -8.329979532443215 -1.666229201171516" fill="#ff6709" stroke="none" /><path d="M 120.43855184770803 104.8234425847677 l 6.995317376521249 1.6508758535973218 a28.187479132648026,28.187479132648026 0 0,0 -0.11518272884013439,0.46998483987035444 l -6.9659471211648185 -1.7707165180757758" fill="#ff5507" stroke="none" /><path d="M 120.35273937422433 105.17358676015961 l 9.34441604338507 2.375314017173794 a30.641588451705175,30.641588451705175 0 0,0 -0.13396286403423013,0.5086788148214093 l -9.30226369854611 -2.5353733363680067" fill="#ff770a" stroke="none" /><path d="M 120.16314734710363 105.8691983318838 l 7.6096560410158185 2.215059969224255 a28.925487728198707,28.925487728198707 0 0,0 -0.14286943013612474,0.475565867159286 l -7.570510290876064 -2.3453634399742644" fill="#ff5f08" stroke="none" /><path d="M 119.71291397450082 107.23885506374661 l 6.903299663901677 2.5349872572484706 a28.354026559921927,28.354026559921927 0 0,0 -0.17170296041583144,0.45546250204185523 l -6.858766019671405 -2.653118039484485" fill="#ff5708" stroke="none" /><path d="M 119.58574465831526 107.57618678355244 l 3.3523463312628112 1.2967595775339054 a24.59441390586242,24.59441390586242 0 0,0 -0.15569590347985357,0.39245538486109854 l -3.3295917528168335 -1.354115979608568" fill="#ff2203" stroke="none" /><path d="M 119.4528033332814 107.91128576633889 l 8.326827066178291 3.3864480773686734 a29.98910894197825,29.98910894197825 0 0,0 -0.19803401693486494,0.47520954889115424 l -8.267467204706941 -3.528890135701105" fill="#ff6e0a" stroke="none" /><line stroke="#e1ed5e" stroke-width="0.3" x1="174.33088141563837" x2="178.70328620479359" y1="141.23008692659167" y2="143.65538615756765" /><path d="M 175.20536237346943 141.71514677278685 a86.0,86.0 0 0,1 -30.301960400862466,31.631185727798858" fill="none" id="id113" stroke="none" /><text fill="#e1ed5e" style="font-size:6.75px; font-family:Arial;" text-anchor="middle"><textPath startOffset="22.145653131862474" xlink:href="#id113">May</textPath></text><path d="M 117.423217284605 111.72311816256416 l 3.1599915713221263 2.1261833551285996 a24.808700879624546,24.808700879624546 0 0,0 -0.24077465978791773,0.3512974242684564 l -3.1230271747188882 -2.1801155144671" fill="#ff2503" stroke="none" /><path d="M 116.57777611688842 112.89097897827486 l 5.438405946335138 4.2289373577744955 a27.889134228124323,27.889134228124323 0 0,0 -0.2971302641511834,0.375414382275101 l -5.365009251542393 -4.321671683964279" fill="#ff5107" stroke="none" /><path d="M 116.35404254752997 113.17365903436017 l 4.971103075313313 4.004368751549308 a27.383324751551815,27.383324751551815 0 0,0 -0.29802599865660884,0.3635432600115157 l -4.901630257418077 -4.089114293259316" fill="#ff4a06" stroke="none" /><path d="M 115.89218393027572 113.72728997021213 l 4.730219841527805 4.085851238092011 a27.25053278441137,27.25053278441137 0 0,0 -0.30882501447255933,0.35138617624378254 l -4.65938376309666 -4.166449692147086" fill="#ff4806" stroke="none" /><path d="M 115.16444852881244 114.52719865689866 l 2.6867878557643614 2.5738819882221127 a24.72071195756633,24.72071195756633 0 0,0 -0.29619321016536937,0.30392032682730336 l -2.642207844448185 -2.619625007117153" fill="#ff2403" stroke="none" /><path d="M 114.91283532996324 114.78537596483092 l 1.229940349256591 1.219428101746428 a22.731980992406765,22.731980992406765 0 0,0 -0.2771224193099139,0.2747538658559495 l -1.2088260098167123 -1.2403619778310393" fill="#ff0701" stroke="none" /><path d="M 113.59037401385872 116.0094264158162 l 3.494677249428531 4.116721012585857 a26.400014904899734,26.400014904899734 0 0,0 -0.3480096049611793,0.2903219898491248 l -3.423493310305457 -4.1761051863468515" fill="#ff3c05" stroke="none" /><path d="M 112.45986205192187 116.90419585922612 l 15.523135645074085 21.06011480706496 a47.16287782225278,47.16287782225278 0 0,0 -0.6558312347385836,0.4747712376880976 l -15.159323399961533 -21.323486816126135" fill="#b9ff1f" stroke="none" /><path d="M 111.5731344415666 117.5232005979908 l 3.7387603517080508 5.660959696060207 a27.784157548872386,27.784157548872386 0 0,0 -0.4002431835318458,0.2594327959643867 l -3.641031535919195 -5.724306333728489" fill="#ff4f07" stroke="none" /><line stroke="#e1ed5e" stroke-width="0.3" x1="143.1302829299769" x2="145.66735839644613" y1="173.24464959558577" y2="177.55315839532614" /><path d="M 143.63769802327073 174.10635135553383 a86.0,86.0 0 0,1 -40.68552437913181,11.842963189579606" fill="none" id="id114" stroke="none" /><text fill="#e1ed5e" style="font-size:6.75px; font-family:Arial;" text-anchor="middle"><textPath startOffset="21.407464694133747" xlink:href="#id114">June</textPath></text><path d="M 109.71004243097381 118.62028667847754 l 3.0589569830782817 5.865953353649359 a27.615635008940075,27.615635008940075 0 0,0 -0.42222041221257384,0.21558875091528423 l -2.9578093491521256 -5.91760005623748" fill="#ff4d07" stroke="none" /><path d="M 109.06512990194946 118.94263497670748 l 3.4579775780212536 7.225843173412124 a29.01064407503194,29.01064407503194 0 0,0 -0.45106203373117365,0.21111980724344542 l -3.3334268304185737 -7.284139212226103" fill="#ff6008" stroke="none" /><path d="M 107.06938296918513 119.77432235084164 l 2.5568072728462807 7.1518449944814 a28.59513991020365,28.59513991020365 0 0,0 -0.463641908904256,0.16127872342309407 l -2.433659591897003 -7.194682150473085" fill="#ff5b08" stroke="none" /><path d="M 106.72888874123015 119.89276391827305 l 3.0103214586630536 8.899480493468205 a30.394827743929547,30.394827743929547 0 0,0 -0.49569225692427077,0.16294389055028244 l -2.8571064640910486 -8.949845305420506" fill="#ff730a" stroke="none" /><path d="M 105.69591212413111 120.21278271476187 l 1.9967640557311417 7.085811211895588 a28.3617788084732,28.3617788084732 0 0,0 -0.4697501986744381,0.12803250553506682 l -1.8748324561220084 -7.1190442115747965" fill="#ff5708" stroke="none" /><path d="M 104.9986988182912 120.39639698878246 l 1.4706348802587468 6.000692166839115 a27.17827430859119,27.17827430859119 0 0,0 -0.45409440817724606,0.10716504389486069 l -1.3674083183416217 -6.0250533543802005" fill="#ff4706" stroke="none" /><path d="M 104.64783097203109 120.47920084513623 l 2.7285852469086236 12.022650055644851 a33.32839372384515,33.32839372384515 0 0,0 -0.5590244220596751,0.12183677090118626 l -2.5217984082298126 -12.067718284679756" fill="#ff9b0e" stroke="none" /><path d="M 104.29559338865022 120.5559693870025 l 0.789928720269474 3.7800948839051287 a24.86174891913396,24.86174891913396 0 0,0 -0.4185102675600354,0.08371377457563875 l -0.7249219671784799 -3.793098055143629" fill="#ff2603" stroke="none" /><path d="M 101.80034050326958 120.92268563240118 l 0.28116002969244513 3.267505731814754 a24.2795799532469,24.2795799532469 0 0,0 -0.41556351566812216,0.0321672443200695 l -0.22502751924908715 -3.2718507431298773" fill="#ff1e03" stroke="none" /><path d="M 101.44090949804482 120.95050786540614 l 0.2728532207857179 3.967225947173805 a24.976597867024303,24.976597867024303 0 0,0 -0.42799856223642474,0.025747330689957097 l -0.20471030641682797 -3.971325255688454" fill="#ff2803" stroke="none" /><line stroke="#e1ed5e" stroke-width="0.3" x1="101.45913802915013" x2="101.54496967792366" y1="184.9874750549273" y2="189.98673829345242" /><path d="M 101.47630435890484 185.9873277026323 a86.0,86.0 0 0,1 -42.54439059252881,-10.42667462771756" fill="none" id="id115" stroke="none" /><text fill="#e1ed5e" style="font-size:6.75px; font-family:Arial;" text-anchor="middle"><textPath startOffset="22.145653131862474" xlink:href="#id115">July</textPath></text><path d="M 100.36049292484886 120.99690560180557 l 0.07634657282550728 4.4468051163851925 a25.44746045989076,25.44746045989076 0 0,0 -0.436839497674359,0.003749741700001893 l -5.446568216539634e-16 -4.44746045989076" fill="#ff2e04" stroke="none" /><path d="M 100.0 121.0 l 7.571710523917786e-16 6.182770843960483 a27.182770843960483,27.182770843960483 0 0,0 -0.46662840795406746,-0.004005443667585202 l 0.10613548310521452 -6.181859798487333" fill="#ff4706" stroke="none" /><path d="M 99.27912038922189 120.98762331915562 l -0.5785422946294368 16.843627663121783 a37.85356057456573,37.85356057456573 0 0,0 -0.6492322565949662,-0.02788082657265943 l 0.8676003118252418 -16.831214268123297" fill="#ffd513" stroke="none" /><path d="M 97.84075906011543 120.88869738790638 l -0.7175618095619368 6.941759587912912 a27.978747819410202,27.978747819410202 0 0,0 -0.4773228981837904,-0.053485026341784286 l 0.8366206093465265 -6.928418801064158" fill="#ff5207" stroke="none" /><path d="M 97.48249496171623 120.84855314841334 l -0.9402783662119877 7.786853727863011 a28.843418539457165,28.843418539457165 0 0,0 -0.49105532477819896,-0.06357694306263562 l 1.0738115128809806 -7.769565188599979" fill="#ff5e08" stroke="none" /><path d="M 97.12497278360702 120.80226474461374 l -1.7276426814707426 12.500361818883189 a33.61918360425238,33.61918360425238 0 0,0 -0.571005655314408,-0.08391816767155807 l 1.9419734423928354 -12.468862577912748" fill="#ff9f0e" stroke="none" /><path d="M 96.76829788921471 120.74984581791261 l -0.9708793140784833 6.233741658210567 a27.308893857390164,27.308893857390164 0 0,0 -0.46258990056236593,-0.07611899210143375 l 1.0777467176939128 -6.216156667613465" fill="#ff4906" stroke="none" /><path d="M 95.35216902796893 120.47920084513623 l -1.4044377843162072 6.188212013859231 a27.34558219696875,27.34558219696875 0 0,0 -0.4568897871513948,-0.10782474572133711 l 1.5104597252074898 -6.163191124491666" fill="#ff4906" stroke="none" /><path d="M 95.00130118170881 120.39639698878247 l -4.972836319260524 20.29086916713792 a41.89134922919209,41.89134922919209 0 0,0 -0.6969816990631823,-0.17717002237612994 l 5.320423311549085 -20.202513912926527" fill="#f7ff19" stroke="none" /><path d="M 94.6519064749342 120.30758222061772 l -5.156524743326181 19.58016435332581 a41.247779718571266,41.247779718571266 0 0,0 -0.6831783312508454,-0.18620329214151138 l 5.491884475511721 -19.488760567040156" fill="#ffff18" stroke="none" /><path d="M 94.30408787586889 120.21278271476187 l -2.956317869224831 10.490929182922521 a31.899514230689064,31.899514230689064 0 0,0 -0.5257951171830224,-0.15305129559183572 l 3.1359729987894602 -10.43863419302817" fill="#ff880c" stroke="none" /><path d="M 92.93061703081489 119.77432235084164 l -2.4935064873668176 6.974781431425265 a28.407101364143404,28.407101364143404 0 0,0 -0.4577748224612956,-0.16810125564977835 l 2.612870461482232 -6.9309493267667674" fill="#ff5808" stroke="none" /><path d="M 92.59220618246901 119.65005319985036 l -5.478912426523401 14.533466145307669 a36.53190650159589,36.53190650159589 0 0,0 -0.584906679515693,-0.22625446886324782 l 5.7275913685326225 -14.437271788306381" fill="#ffc412" stroke="none" /><path d="M 92.25597844496254 119.51999308798841 l -5.338427467417485 13.456324536820414 a35.476583777435636,35.476583777435636 0 0,0 -0.5641546135561052,-0.22943677000038776 l 5.568636542164032 -13.362700510240735" fill="#ffb711" stroke="none" /><path d="M 91.59046798132341 119.24265499422711 l -8.199545269706936 18.76216421842549 a41.475628165923,41.475628165923 0 0,0 -0.6499558732165989,-0.2907169949848304 l 8.52041454577917 -18.618643472530806" fill="#fcff18" stroke="none" /><path d="M 90.28995756902619 118.62028667847754 l -6.152091543377522 11.797446718102375 a34.305186185264816,34.305186185264816 0 0,0 -0.5198235200321712,-0.2767767452409268 l 6.353703879196255 -11.690099505138875" fill="#ffa80f" stroke="none" /><line stroke="#e1ed5e" stroke-width="0.3" x1="58.13341422392154" x2="55.67067388415222" y1="173.97424548756322" y2="178.32567169271397" /><path d="M 57.64086615596768 174.84453072859336 a86.0,86.0 0 0,1 -31.369924170532247,-30.572349798747897" fill="none" id="id116" stroke="none" /><text fill="#e1ed5e" style="font-size:6.75px; font-family:Arial;" text-anchor="middle"><textPath startOffset="22.145653131862474" xlink:href="#id116">August</textPath></text><path d="M 89.65649057296885 118.27599006163327 l -3.025027429088912 5.344933614670209 a27.14158825483863,27.14158825483863 0 0,0 -0.4035146803520157,-0.2329693093232038 l 3.1163345773013273 -5.292217408070833" fill="#ff4606" stroke="none" /><path d="M 89.34428304082925 118.09573695890944 l -9.624697929378886 16.344841244033436 a39.968095463816255,39.968095463816255 0 0,0 -0.5882299566976803,-0.3532151877775311 l 9.903860642633994 -16.177212055719988" fill="#fff016" stroke="none" /><path d="M 88.4268655584334 117.5232005979908 l -12.267292594101848 18.574244514833023 a43.25958281024401,43.25958281024401 0 0,0 -0.616147704472331,-0.4145716733673603 l 12.584336586671185 -18.360923167408544" fill="#e6ff1a" stroke="none" /><path d="M 88.1277618465304 117.32195027204791 l -2.018836622859645 2.9455429664156534 a24.570983712760402,24.570983712760402 0 0,0 -0.3458715904848302,-0.24144523189980227 l 2.0691033045182405 -2.910452918710722" fill="#ff2203" stroke="none" /><path d="M 87.83215693770417 117.11559508785305 l -11.020229035289052 15.501332239226008 a40.019378254325126,40.019378254325126 0 0,0 -0.5564961144424088,-0.4028602710997073 l 11.284706160105415 -15.309871196753235" fill="#fff016" stroke="none" /><path d="M 86.40962598614128 116.0094264158162 l -2.8645585200855903 3.374442733830882 a25.42634830067619,25.42634830067619 0 0,0 -0.3303252176724349,-0.2853270555738086 l 2.922063217520888 -3.324771545792351" fill="#ff2e04" stroke="none" /><path d="M 86.13680546590413 115.77377054828092 l -16.01120010749743 18.21780658686737 a45.253803943275244,45.253803943275244 0 0,0 -0.5791085613731669,-0.5178424465404792 l 16.321573695693967 -17.940268610443507" fill="#cfff1d" stroke="none" /><path d="M 85.86807049272751 115.53346607816431 l -4.604263815884755 5.060892481961496 a27.84192063679783,27.84192063679783 0 0,0 -0.3507687290445703,-0.32466629893059673 l 4.690462316243292 -4.981108436898522" fill="#ff5007" stroke="none" /><path d="M 84.58840730492382 114.26474011684316 l -3.878087416805375 3.5894998165116507 a26.284323130271403,26.284323130271403 0 0,0 -0.3036493915818476,-0.33376387289255605 l 3.9391345092291026 -3.5223983680614204" fill="#ff3a05" stroke="none" /><path d="M 84.3458050057657 113.99807769240083 l -14.16141987866969 12.663228979154797 a39.99745196489484,39.99745196489484 0 0,0 -0.4532833827377441,-0.5157532814726576 l 14.376714325366027 -12.418263419870838" fill="#fff016" stroke="none" /><path d="M 83.8745106332314 113.45245675266167 l -4.462701809800895 3.7229445712258635 a26.811714353236944,26.811714353236944 0 0,0 -0.2918048855760755,-0.35595451359210317 l 4.5259535146156 -3.6457877759352653" fill="#ff4206" stroke="none" /><path d="M 82.98947788004972 112.3143062007846 l -4.696333812568917 3.3997835093636057 a26.797765016764547,26.797765016764547 0 0,0 -0.26655469072114907,-0.3749425540577521 l 4.754003601820027 -3.31866372859635" fill="#ff4206" stroke="none" /><path d="M 82.78059297857968 112.02048342749411 l -15.559181011110146 10.861516732647841 a39.97526441107158,39.97526441107158 0 0,0 -0.38796996002368905,-0.5660597662972886 l 15.74334070794916 -10.592822231280502" fill="#fff016" stroke="none" /><path d="M 82.576782715395 111.72311816256416 l -5.464893311274126 3.677024110264692 a27.58677198717828,27.58677198717828 0 0,0 -0.2609913049008869,-0.3951741002578835 l 5.527209055095739 -3.5826701316677476" fill="#ff4d07" stroke="none" /><path d="M 82.37810715431573 111.42229804090323 l -16.134024332030343 10.45787964627015 a40.22690791163308,40.22690791163308 0 0,0 -0.37062833340454854,-0.5826892998418631 l 16.31117035706078 -10.179376671749615" fill="#fff316" stroke="none" /><line stroke="#e1ed5e" stroke-width="0.3" x1="26.387840678322732" x2="22.057713659400548" y1="142.50000000000003" y2="145.00000000000006" /><path d="M 25.521815274538298 143.00000000000003 a86.0,86.0 0 0,1 -11.493303480769221,-40.785679425670985" fill="none" id="id117" stroke="none" /><text fill="#e1ed5e" style="font-size:6.75px; font-family:Arial;" text-anchor="middle"><textPath startOffset="21.40746469413373" xlink:href="#id117">September</textPath></text><path d="M 81.63589988554817 110.18625677009913 l -15.828245733565371 8.779661091884421 a39.10016054874872,39.10016054874872 0 0,0 -0.3205368794883008,-0.5897517554373237 l 15.976627962669001 -8.50665450297251" fill="#ffe515" stroke="none" /><path d="M 81.4637452351635 109.86951160357371 l -16.764698183544237 8.926257507356855 a39.99297707767205,39.99297707767205 0 0,0 -0.31745269411989263,-0.6087573986815891 l 16.915458946639077 -8.637153865570763" fill="#fff016" stroke="none" /><path d="M 81.29705330413844 109.54985784667822 l -5.771549219425447 2.946994155354977 a27.48039774581367,27.48039774581367 0 0,0 -0.21091870922124925,-0.4219787072844917 l 5.821287841858433 -2.8474835919067325" fill="#ff4b07" stroke="none" /><path d="M 81.1358732173502 109.22738970284198 l -17.091393669151905 8.360257104240988 a40.026550827802126,40.026550827802126 0 0,0 -0.29661721624418413,-0.619815900697947 l 17.232390143356003 -8.065628701477937" fill="#fff016" stroke="none" /><path d="M 80.5471966667186 107.91128576633889 l -9.223258673273081 3.751019007953881 a30.956839064288346,30.956839064288346 0 0,0 -0.19597348590794922,-0.49398120384411376 l 9.286290834147154 -3.592136786896202" fill="#ff7b0b" stroke="none" /><path d="M 80.41425534168474 107.57618678355246 l -5.733054669307952 2.2176687061297993 a27.147029390805052,27.147029390805052 0 0,0 -0.16439376971895656,-0.43607400533430296 l 5.770279122841345 -2.118926420601351" fill="#ff4606" stroke="none" /><path d="M 80.28708602549918 107.23885506374661 l -23.08257919670317 8.476242808066022 a45.589675770806025,45.589675770806025 0 0,0 -0.26346453806175146,-0.7369572035293483 l 23.224683904808863 -8.078750648155753" fill="#cbff1d" stroke="none" /><path d="M 80.16572619554312 106.89939002012753 l -17.997066164780986 6.260313834175428 a40.05481356093186,40.05481356093186 0 0,0 -0.22032928107087946,-0.6513643695384702 l 18.10188086742423 -5.950447790162797" fill="#fff116" stroke="none" /><path d="M 80.05021161711548 106.5578916946017 l -4.059385680636066 1.3344007028699714 a25.273082884753467,25.273082884753467 0 0,0 -0.131943886916902,-0.4133123465099254 l 4.081694283330223 -1.2645193226686542" fill="#ff2c04" stroke="none" /><path d="M 79.48165901384964 104.47187691870673 l -18.93439228501963 4.126662671522558 a40.37886880103038,40.37886880103038 0 0,0 -0.1417919152243112,-0.6785256435994513 l 19.00244191106831 -3.801020576637698" fill="#fff517" stroke="none" /><path d="M 79.34024301695615 103.76489593502545 l -10.923934823368706 1.9907048202328101 a32.10383977309226,32.10383977309226 0 0,0 -0.09414861102980732,-0.5430241694001595 l 10.956498251890746 -1.8028876179120579" fill="#ff8a0c" stroke="none" /><path d="M 79.2786578344484 103.40968896794605 l -7.933126400605601 1.3053929303110072 a29.039810022039795,29.039810022039795 0 0,0 -0.07671834898147392,-0.49258683449124263 l 7.954366241725342 -1.1690179138883146" fill="#ff6108" stroke="none" /><path d="M 79.22317932658666 103.0534771498775 l -7.904416275464723 1.1616769889695604 a28.98932350593797,28.98932350593797 0 0,0 -0.0681324798272814,-0.49297268387335874 l 7.923193271847218 -1.0258159968961158" fill="#ff6008" stroke="none" /><path d="M 79.13060592940153 102.33845913500099 l -6.743713705858568 0.7556471867821728 a27.78591756636319,27.78591756636319 0 0,0 -0.04904559461365386,-0.47447163731033787 l 6.755691692953888 -0.6397710271889036" fill="#ff4f07" stroke="none" /><path d="M 79.06263194458094 101.62068470465958 l -19.146972829426115 1.4820967909169365 a40.204248994127006,40.204248994127006 0 0,0 -0.047356850688003736,-0.6885582156035193 l 19.169593641279185 -1.153195151159074" fill="#fff216" stroke="none" /><path d="M 79.03789590574601 101.26102812881392 l -11.00858607823257 0.6622492017357102 a32.028487722578085,32.028487722578085 0 0,0 -0.02830465829717742,-0.5491028093150088 l 11.018332325986322 -0.47317459904397063" fill="#ff890c" stroke="none" /><path d="M 79.00696218219943 100.54070618675478 l -19.449328748719665 0.5009457170482965 a40.455778971483056,40.455778971483056 0 0,0 -0.011922064542584352,-0.6944004903402584 l 19.455062244860915 -0.1669983107389857" fill="#fff617" stroke="none" /><line stroke="#e1ed5e" stroke-width="0.3" x1="15.003131293944662" x2="10.003315487706104" y1="100.72959589197737" y2="100.7725132973878" /><path d="M 14.003168132696942 100.73817937305945 a86.0,86.0 0 0,1 10.791469493833604,-42.45332614584628" fill="none" id="id118" stroke="none" /><text fill="#e1ed5e" style="font-size:6.75px; font-family:Arial;" text-anchor="middle"><textPath startOffset="22.145653131862435" xlink:href="#id118">October</textPath></text><path d="M 79.13060592940154 97.66154086499901 l -4.783413526033052 -0.5359914628378344 a25.813349333808112,25.813349333808112 0 0,0 0.053123766897979395,-0.43994099744543463 l 4.773507672875405 0.6180261372067053" fill="#ff3404" stroke="none" /><path d="M 79.17382384314186 97.30363454192245 l -9.117210020504697 -1.180405370057914 a30.19330601011697,30.19330601011697 0 0,0 0.07096215309170813,-0.5134467900145694 l 9.09560335085778 1.3367404682725503" fill="#ff710a" stroke="none" /><path d="M 79.22317932658666 96.9465228501225 l -18.773022563079206 -2.758987832236005 a39.97467759969342,39.97467759969342 0 0,0 0.10560645073737203,-0.6780691706900445 l 18.722894620203565 3.0808451848574996" fill="#fff016" stroke="none" /><path d="M 79.2786578344484 96.59031103205396 l -6.7902919046197345 -1.1173399488960598 a27.881606840799854,27.881606840799854 0 0,0 0.08176637361430605,-0.4716067144390939 l 6.770110713513194 1.2337396962557465" fill="#ff5107" stroke="none" /><path d="M 79.34024301695615 96.23510406497455 l -12.549996753949541 -2.2870274709574936 a33.756681119204096,33.756681119204096 0 0,0 0.10878284626597008,-0.5691978189189767 l 12.508887615401411 2.502127854909785" fill="#ffa00e" stroke="none" /><path d="M 79.407916724674 95.88100663000787 l -20.238213183773794 -4.04820944097177 a41.639119955798705,41.639119955798705 0 0,0 0.1462173345142565,-0.6997028769216566 l 20.16573813843517 4.395028769178835" fill="#faff18" stroke="none" /><path d="M 79.56144815229197 95.17655741523228 l -6.4383769466713945 -1.5194394286229258 a27.61523951831554,27.61523951831554 0 0,0 0.11284438137673936,-0.4604435842566627 l 6.411345038778356 1.6297388374877062" fill="#ff4d07" stroke="none" /><path d="M 79.64726062577567 94.8264132398404 l -9.114335051898227 -2.316828328862551 a30.40419039278133,30.40419039278133 0 0,0 0.13292497646062987,-0.5047377866516789 l 9.07322059463287 2.4729466198870145" fill="#ff730a" stroke="none" /><path d="M 79.73907114497095 94.47779374421319 l -18.36152928084747 -5.004516455588888 a40.03131478604878,40.03131478604878 0 0,0 0.18639630114366332,-0.6614547155477654 l 18.272914487629226 5.3189790950396665" fill="#fff016" stroke="none" /><path d="M 80.16572619554312 93.10060997987247 l -3.0096140660131914 -1.0469000002823854 a24.186499087860486,24.186499087860486 0 0,0 0.13977473412071764,-0.3909748079930173 l 2.9911991618485305 1.0984097646563242" fill="#ff1c02" stroke="none" /><path d="M 80.28708602549916 92.7611449362534 l -8.522423087246743 -3.1295518054970457 a30.078865005127355,30.078865005127355 0 0,0 0.18214803306380656,-0.48316929818989335 l 8.4674443703685 3.2753893838810844" fill="#ff6f0a" stroke="none" /><path d="M 80.41425534168474 92.42381321644754 l -7.071191932063629 -2.7352889458261447 a28.58179140818583,28.58179140818583 0 0,0 0.18093815341170782,-0.4560823441474586 l 7.023195103685789 2.8562723071871865" fill="#ff5a08" stroke="none" /><path d="M 80.5471966667186 92.08871423366112 l -3.006669705783245 -1.222786394326479 a24.245807955783068,24.245807955783068 0 0,0 0.16010794960947367,-0.38420079381023675 l 2.985235911637293 1.2742196975779796" fill="#ff1d03" stroke="none" /><path d="M 81.1358732173502 90.77261029715801 l -4.328228809155762 -2.1171536008696106 a25.818288492201464,25.818288492201464 0 0,0 0.19816161809034588,-0.3964559793861189 l 4.291247277853672 2.1911414364194997" fill="#ff3404" stroke="none" /><path d="M 81.29705330413844 90.45014215332179 l -23.822838571104967 -12.164111118851434 a47.748705331224755,47.748705331224755 0 0,0 0.3790154236004017,-0.7268120498106108 l 23.610515078529623 12.571269411766531" fill="#b2ff20" stroke="none" /><path d="M 81.46374523516351 90.13048839642627 l -4.516496002623055 -2.4047797287477453 a26.116805808852444,26.116805808852444 0 0,0 0.21410140824698917,-0.39392247643028516 l 4.474549244760715 2.48195703865265" fill="#ff3805" stroke="none" /><path d="M 81.63589988554816 89.8137432299009 l -15.461309299937382 -8.576127637593448 a38.68055571877265,38.68055571877265 0 0,0 0.327065529432662,-0.5778934516937742 l 15.311810405483351 8.840277859386328" fill="#ffe014" stroke="none" /><line stroke="#e1ed5e" stroke-width="0.3" x1="26.387840678322718" x2="22.05771365940052" y1="57.49999999999999" y2="54.99999999999999" /><path d="M 25.521815274538284 56.99999999999999 a86.0,86.0 0 0,1 29.574782752854787,-30.34633250058573" fill="none" id="id119" stroke="none" /><text fill="#e1ed5e" style="font-size:6.75px; font-family:Arial;" text-anchor="middle"><textPath startOffset="21.40746469413373" xlink:href="#id119">November</textPath></text><path d="M 81.99639281039701 89.18935116829357 l -20.008507262705322 -12.014533720146378 a44.33858143491729,44.33858143491729 0 0,0 0.39742578269784773,-0.6491651483298316 l 19.79931351555208 12.356235984600753" fill="#daff1c" stroke="none" /><path d="M 82.18462484594161 88.88188828441811 l -6.7682326859508555 -4.223877772358465 a28.978102351248538,28.978102351248538 0 0,0 0.2669881016771806,-0.41974964138150617 l 6.694726892647785 4.339441088418643" fill="#ff6008" stroke="none" /><path d="M 82.78059297857968 87.97951657250589 l -6.6184355900200345 -4.620182055445192 a29.071540861861607,29.071540861861607 0 0,0 0.2891717118338974,-0.40675622665998473 l 6.538148779656165 4.733115508814698" fill="#ff6109" stroke="none" /><path d="M 82.98947788004972 87.6856937992154 l -11.327578820889578 -8.20029350835496 a34.984235966495795,34.984235966495795 0 0,0 0.35633606760174197,-0.4834383120250661 l 11.185140733704015 8.39353812964889" fill="#ffb010" stroke="none" /><path d="M 83.8745106332314 86.54754324733833 l -3.9757404075726797 -3.3167040501046547 a26.177551307750296,26.177551307750296 0 0,0 0.29082690638902803,-0.34259336445242045 l 3.9182189376765373 3.384464197006632" fill="#ff3905" stroke="none" /><path d="M 84.10781606972428 86.27271002978789 l -3.899001500532224 -3.367864632508655 a26.15215730389273,26.15215730389273 0 0,0 0.296377337711474,-0.3372230050781753 l 3.840613098862157 3.434299915398131" fill="#ff3805" stroke="none" /><path d="M 84.58840730492382 85.73525988315684 l -3.7213759476744785 -3.444450020250485 a26.070786416911453,26.070786416911453 0 0,0 0.30682108442130074,-0.3258333590990976 l 3.6616990295169063 3.507824839294094" fill="#ff3705" stroke="none" /><path d="M 85.86807049272753 84.46653392183569 l -4.114056887950469 -4.522069196547448 a27.113474780814588,27.113474780814588 0 0,0 0.3469685199022309,-0.3102613900106391 l 4.035823341224846 4.592026116441488" fill="#ff4606" stroke="none" /><path d="M 86.40962598614128 83.9905735841838 l -3.591113725280866 -4.23032293865384 a26.54902964068507,26.54902964068507 0 0,0 0.3499739432208504,-0.2919607106894536 l 3.5179654478981064 4.291345833255176" fill="#ff3e05" stroke="none" /><path d="M 86.96720088162412 83.53348406188908 l -9.602012676778642 -12.131829344103494 a36.47190779055603,36.47190779055603 0 0,0 0.4942639170177425,-0.3843426114015726 l 9.392338815125656 12.294873007125872" fill="#ffc412" stroke="none" /><path d="M 88.12776184653039 82.6780497279521 l -1.962292492871806 -2.863043390921594 a24.47096662125709,24.47096662125709 0 0,0 0.34854080715584146,-0.23451380993645635 l 1.9128553976189753 2.89630687491516" fill="#ff2003" stroke="none" /><path d="M 89.03521579738668 82.08984904055464 l -9.904663256767313 -16.178523065587974 a39.96963264835981,39.96963264835981 0 0,0 0.588252580192407,-0.35322877253608775 l 9.625477920017472 16.346165838659985" fill="#fff016" stroke="none" /><line stroke="#e1ed5e" stroke-width="0.3" x1="56.869717070023135" x2="54.33264160355391" y1="26.7553504044142" y2="22.446841604673864" /><path d="M 56.362301976729285 25.89364864446614 a86.0,86.0 0 0,1 42.16139366436587,-11.88097634709845" fill="none" id="id120" stroke="none" /><text fill="#e1ed5e" style="font-size:6.75px; font-family:Arial;" text-anchor="middle"><textPath startOffset="22.145653131862474" xlink:href="#id120">December</textPath></text><path d="M 90.28995756902619 81.37971332152246 l -1.1456963817860923 -2.197023877805237 a23.477808329730955,23.477808329730955 0 0,0 0.3589564356429865,-0.18328571370517593 l 1.1078127244295235 2.216367543183247" fill="#ff1202" stroke="none" /><path d="M 90.61103034731259 81.2157712731953 l -3.570116034787429 -7.142623595495915 a28.985161258783776,28.985161258783776 0 0,0 0.44697844748303495,-0.21863955703959284 l 3.4469773380423407 7.202856902632722" fill="#ff6008" stroke="none" /><path d="M 90.93487009805054 81.0573650232925 l -7.972812773005532 -16.660112290745737 a39.46957186979864,39.46957186979864 0 0,0 0.613679079721349,-0.28723279578285343 l 7.68564497941266 16.794521318099132" fill="#ffe915" stroke="none" /><path d="M 91.26138138417902 80.90454125486306 l -6.323854173403626 -13.818762642858072 a36.197017226618,36.197017226618 0 0,0 0.5672358678992507,-0.2537173887623749 l 6.085704902648756 13.925283782530293" fill="#ffc011" stroke="none" /><path d="M 93.27111125876988 80.10723608172694 l -2.7159654374517284 -8.029269220394244 a29.476180299580864,29.476180299580864 0 0,0 0.4807105492191168,-0.15801910565307103 l 2.5777321505848505 8.074709247449343" fill="#ff6709" stroke="none" /><path d="M 94.30408787586887 79.78721728523814 l -1.4819424614952044 -5.2588909936090715 a26.46370642895874,26.46370642895874 0 0,0 0.43831282362839974,-0.11946410917046864 l 1.391448236932127 5.28355559692368" fill="#ff3d05" stroke="none" /><path d="M 96.76829788921471 79.25015418208739 l -0.5959833996290486 -3.826640955262149 a24.87277383965589,24.87277383965589 0 0,0 0.4224520944049144,-0.06208590994068281 l 0.5302061996164493 3.836307938501717" fill="#ff2603" stroke="none" /><path d="M 97.12497278360702 79.19773525538626 l -1.107604432365968 -8.014073920069313 a29.09025144077314,29.09025144077314 0 0,0 0.4952576217547467,-0.0641210145391694 l 0.9698689887204273 8.031906530808877" fill="#ff6109" stroke="none" /><path d="M 97.84075906011542 79.11130261209362 l -0.7079307393601966 -6.848587720313625 a27.88507949805677,27.88507949805677 0 0,0 0.4765698669950536,-0.04513166189225442 l 0.5902613089801274 6.859731137711063" fill="#ff5107" stroke="none" /><path d="M 98.5590905019552 79.04949213459386 l -0.7607332844315868 -11.060894997629177 a32.08702454577513,32.08702454577513 0 0,0 0.549842714574324,-0.033077172328882166 l 0.5707462177247791 11.072324147782753" fill="#ff8a0c" stroke="none" /><path d="M 99.27912038922189 79.0123766808444 l -0.25448070541700074 -7.408928075410579 a28.4132972189193,28.4132972189193 0 0,0 0.48760828671663214,-0.012559059800151732 l 0.1272591046296247 7.412204852560775" fill="#ff5808" stroke="none" /></svg>