<?xml version="1.0" encoding="utf-8" ?>
<svg baseProfile="full" height="200mm" version="1.1" viewBox="0,0,200,200" width="200mm" xmlns="http://www.w3.org/2000/svg" xmlns:ev="http://www.w3.org/2001/xml-events" xmlns:xlink="http://www.w3.org/1999/xlink"><defs /><rect fill="#1a1a1a" height="200" width="200" x="0" y="0" /><text alignment-baseline="middle" fill="#e1ed5e" style="dominant-baseline: central; font-size:9.0px; font-family:Arial;" text-anchor="middle" x="100.0" y="100.0">2017</text><line stroke="#e1ed5e" stroke-width="0.3" x1="100.0" x2="100.0" y1="15.0" y2="10.0" /><path d="M 100.0 14.0 a86.0,86.0 0 0,1 42.46469731375804,11.215312516191453" fill="none" id="id25" stroke="none" /><text fill="#e1ed5e" style="font-size:6.75px; font-family:Arial;" text-anchor="middle"><textPath startOffset="22.20632615414155" xlink:href="#id25">January</textPath></text><path d="M 100.36148047927253 79.00311137660856 l 0.41119352819284855 -23.884511638083236 a44.88805091059882,44.88805091059882 0 0,0 0.7724450474812941,0.019949976641569587 l -0.8222652108690104 23.873894869299306" fill="#d3ff1c" stroke="none" /><path d="M 101.80526077348638 79.07773832637324 l 0.28941720433865104 -3.3542314611581863 a24.36669437478227,24.36669437478227 0 0,0 0.4175695733978872,0.039653262486821626 l -0.3471119048267824 3.3487526541561863" fill="#ff2003" stroke="none" /><path d="M 104.66035177308747 79.52364482259891 l 0.8277382623627138 -3.636863369829915 a24.729869408141504,24.729869408141504 0 0,0 0.41425629915687134,0.09804108192620274 l -0.8902182484821086 3.622076375762844" fill="#ff2503" stroke="none" /><path d="M 105.01212808612495 79.60689891045804 l 1.5327880974466832 -6.236533081947586 a27.422132374367635,27.422132374367635 0 0,0 0.4574156773354091,0.11660544093770094 l -1.6399126634671173 6.209224644841018" fill="#ff4b07" stroke="none" /><path d="M 107.08798089147638 80.2323363322302 l 1.6472263885430924 -4.593948224740843 a25.88033964665496,25.88033964665496 0 0,0 0.41805088681686076,0.1539716696912137 l -1.7260596011325298 4.5649132872433045" fill="#ff3505" stroke="none" /><path d="M 107.76421540070413 80.48803036053334 l 2.4516883897341772 -6.161249650748717 a27.631121565708817,27.631121565708817 0 0,0 0.44040867092413866,0.17965375487312726 l -2.5573809302467034 6.11813500969201" fill="#ff4e07" stroke="none" /><path d="M 109.08828744355905 81.06846463323043 l 6.381417683896829 -13.292937236315144 a35.745327125057784,35.745327125057784 0 0,0 0.5523993201044117,0.2710599473313273 l -6.609288271011672 13.181122128848985" fill="#ffbb11" stroke="none" /><path d="M 109.73455568895987 81.39251694778311 l 2.5236988455703755 -4.824019194949793 a26.444282969903135,26.444282969903135 0 0,0 0.4015186007600304,0.2144773310562799 l -2.6063624928587172 4.779863137391759" fill="#ff3d05" stroke="none" /><path d="M 110.36928655335952 81.73862282372117 l 7.471633191102674 -13.15831239916155 a36.1316386335491,36.1316386335491 0 0,0 0.5381949821883876,0.31175727176591284 l -7.69702490575639 13.027750970005588" fill="#ffc011" stroke="none" /><line stroke="#e1ed5e" stroke-width="0.3" x1="143.23703022742887" x2="145.7803849466894" y1="26.81831364943548" y2="22.513508569990506" /><path d="M 143.74570117128098 25.957352633546492 a86.0,86.0 0 0,1 28.547481713284135,27.462654790039103" fill="none" id="id26" stroke="none" /><text fill="#e1ed5e" style="font-size:6.75px; font-family:Arial;" text-anchor="middle"><textPath startOffset="19.985693538727396" xlink:href="#id26">February</textPath></text><path d="M 110.68208982089419 81.91981866633111 l 1.414573547072159 -2.3942642937573515 a23.78092067999749,23.78092067999749 0 0,0 0.35064167346650843,0.2112576849071086 l -1.455577286756305 2.3695599993916283" fill="#ff1702" stroke="none" /><path d="M 110.99172775467656 82.1063720568725 l 9.456838538336187 -15.394954651348787 a39.06755168408952,39.06755168408952 0 0,0 0.5699785523672268,0.3569205172024245 l -9.720436243075678 15.229889792823418" fill="#ffe515" stroke="none" /><path d="M 111.90073688211348 82.69761687909136 l 3.6491446079303125 -5.305461224414136 a27.43926821722382,27.43926821722382 0 0,0 0.3868529938920001,0.2710152443675249 l -3.7399287414059637 5.241861137282676" fill="#ff4b07" stroke="none" /><path d="M 112.77801427241765 83.33499621200491 l 4.1155093259200966 -5.367420715285444 a27.76362492651763,27.76362492651763 0 0,0 0.3767490121343656,0.29405857986468087 l -4.207290893213893 5.295783746197539" fill="#ff5007" stroke="none" /><path d="M 113.06298171725822 83.55741782278167 l 2.7142846860967977 -3.4165131644139795 a25.36347379501626,25.36347379501626 0 0,0 0.3395041087798885,0.2745220450384868 l -2.7726921934411775 3.369285022111363" fill="#ff2e04" stroke="none" /><path d="M 113.34407831869373 83.78471172551755 l 3.5545978932311857 -4.319431298440852 a26.593983636418148,26.593983636418148 0 0,0 0.3509677203364692,0.2939253724904933 l -3.628423150526772 4.257604768556539" fill="#ff3f05" stroke="none" /><path d="M 113.89432698308785 84.25364557470407 l 6.237227000236367 -7.068610598864751 a30.426996152055047,30.426996152055047 0 0,0 0.3897394116838999,0.3499118919473365 l -6.357977399516257 6.960199698148117" fill="#ff740a" stroke="none" /><path d="M 114.94478906791727 85.2469230424477 l 6.005009150198219 -5.927976749693025 a29.438071061496544,29.438071061496544 0 0,0 0.3528864044679062,0.3636804593948693 l -6.1061598183692345 5.823732094748041" fill="#ff6709" stroke="none" /><path d="M 115.19652480421416 85.50635884689758 l 2.0345797445356264 -1.940474489699953 a23.811575355926095,23.811575355926095 0 0,0 0.2803333115879874,0.29904003112716804 l -2.0676803780940767 1.9051650416947303" fill="#ff1802" stroke="none" /><path d="M 116.15771136456269 86.58626213691792 l 2.2056325292635828 -1.8310623269775885 a23.86663637377018,23.86663637377018 0 0,0 0.25969344764145313,0.31835346030953043 l -2.2368244689814447 1.7928246970599573" fill="#ff1802" stroke="none" /><path d="M 116.82858285166822 87.43820079747576 l 5.0036628068734705 -3.7350148857515117 a27.24395529145383,27.24395529145383 0 0,0 0.2772881823233765,0.3782207690663585 l -5.067213601710473 3.6483316730136597" fill="#ff4806" stroke="none" /><path d="M 117.2510076193507 88.02491185347247 l 8.50728599403518 -5.905481112420077 a31.356091065332393,31.356091065332393 0 0,0 0.303968237769757,0.44603588121663046 l -8.607678697473672 5.75816720793304" fill="#ff810b" stroke="none" /><path d="M 117.65298651832404 88.62581576622439 l 25.133748950634335 -16.194194152543893 a50.89911805662166,50.89911805662166 0 0,0 0.4682049992361184,0.7405878691177652 l -25.40878154611641 15.759158635711922" fill="#8fff24" stroke="none" /><line stroke="#e1ed5e" stroke-width="0.3" x1="172.23445277983987" x2="176.4835382374775" y1="55.19839476539836" y2="52.563006222186495" /><path d="M 173.08426987136738 54.67131705675599 a86.0,86.0 0 0,1 12.851231095245387,41.99856678651699" fill="none" id="id27" stroke="none" /><text fill="#e1ed5e" style="font-size:6.75px; font-family:Arial;" text-anchor="middle"><textPath startOffset="22.20632615414155" xlink:href="#id27">March</textPath></text><path d="M 117.84615892207809 88.93136811851018 l 10.01889606909717 -6.2139686714629345 a32.78947348668691,32.78947348668691 0 0,0 0.2933630500314855,0.4822117196314705 l -10.124374917414881 6.040589178624383" fill="#ff940d" stroke="none" /><path d="M 118.03404312379186 89.2402003453031 l 4.72880251134193 -2.821384382825432 a26.5065218629299,26.5065218629299 0 0,0 0.23040519664374337,0.39383716800598617 l -4.776667382456001 2.7395678024655505" fill="#ff3e05" stroke="none" /><path d="M 118.21658344932153 89.55222093294921 l 21.655627886999834 -12.420178369400272 a45.964515815611634,45.964515815611634 0 0,0 0.3877267975442244,0.6897227091124853 l -21.866212325836493 12.045572150352992" fill="#c6ff1e" stroke="none" /><path d="M 118.3937258080291 89.86733742301442 l 15.359143730599365 -8.460984061513678 a38.53543690434881,38.53543690434881 0 0,0 0.31505820997878886,0.5837550140412155 l -15.502510039796618 8.195348064140003" fill="#ffde14" stroke="none" /><path d="M 118.56541770881063 90.18545643968196 l 30.218239004480203 -15.974767046842418 a55.180917932857966,55.180917932857966 0 0,0 0.43669276333365553,0.8435514222457482 l -30.488741200973976 15.452242902336325" fill="#62ff29" stroke="none" /><path d="M 119.61058180528143 92.48833698450437 l 9.733622464375749 -3.7283795350099003 a31.42325382191573,31.42325382191573 0 0,0 0.18913119511613882,0.5067775727970206 l -9.796358247993512 3.560278825183546" fill="#ff820b" stroke="none" /><path d="M 119.97218684219823 93.5106431181261 l 13.440133622207094 -4.3669641338572 a35.13179279246539,35.13179279246539 0 0,0 0.18192332436058428,0.5767466532544748 l -13.513312430335883 4.134967314176307" fill="#ffb310" stroke="none" /><path d="M 120.08093135843002 93.85539295169968 l 11.099192610667876 -3.3962656377151568 a32.60718298686762,32.60718298686762 0 0,0 0.15961076775474384,0.5381281621060394 l -11.156009275534322 3.204708088862587" fill="#ff920d" stroke="none" /><path d="M 120.18372546131832 94.20196356495316 l 13.24695153922044 -3.805358323214298 a34.78268758444851,34.78268758444851 0 0,0 0.16035353873484418,0.5768769963034941 l -13.310491848521647 3.576770023491852" fill="#ffae10" stroke="none" /><path d="M 120.37134235888165 94.90015583598534 l 23.147994022487197 -5.79496236156271 a44.862338863511084,44.862338863511084 0 0,0 0.1810883256766689,0.7507280199494271 l -23.244315148424686 5.395649109953878" fill="#d3ff1c" stroke="none" /><path d="M 120.53481517161879 95.60439243477599 l 12.862731087022192 -2.75334925603325 a34.15411658541713,34.15411658541713 0 0,0 0.11810933303972732,0.5759430535775798 l -12.908219715976916 2.5315305462922586" fill="#ffa60f" stroke="none" /><path d="M 120.67395015179393 96.31383870115 l 31.455676095112324 -5.608540941601454 a52.95176505444168,52.95176505444168 0 0,0 0.15226945337410663,0.898702933293514 l -31.54755741000665 5.066252219992102" fill="#79ff26" stroke="none" /><path d="M 120.78858239683441 97.02765380044208 l 27.230098484791633 -3.893352523988496 a48.50702560015348,48.50702560015348 0 0,0 0.11106723165044495,0.8275798835016552 l -27.293081715499913 3.4240542984221762" fill="#a9ff21" stroke="none" /><path d="M 120.83666639777658 97.38593545837742 l 21.021382999949143 -2.6372381679009065 a42.18616455106455,42.18616455106455 0 0,0 0.08419082211750602,0.7212955494341836 l -21.063664175070237 2.27499888014187" fill="#f3ff19" stroke="none" /><path d="M 120.91429891909075 98.10471618934814 l 6.2902009592104005 -0.5700270465607647 a27.315976483574193,27.315976483574193 0 0,0 0.03840563360247956,0.46864600785293586 l -6.299081076632374 0.4616671215000601" fill="#ff4906" stroke="none" /><path d="M 120.94382443527127 98.46500227214037 l 18.406729287346053 -1.349051016003592 a39.45609985076542,39.45609985076542 0 0,0 0.04381394903764852,0.6777823990995616 l -18.42722382738812 1.0320095526509954" fill="#ffea16" stroke="none" /><path d="M 120.96714384426684 98.82574320788733 l 26.027661922696517 -1.4576691523912877 a47.06844806504636,47.06844806504636 0 0,0 0.03834149106866704,0.8093282773704952 l -26.04889702199868 1.0094297683977926" fill="#baff1f" stroke="none" /><line stroke="#e1ed5e" stroke-width="0.3" x1="184.98032266829074" x2="189.97916517819016" y1="98.17113171792111" y2="98.06355123074" /><path d="M 185.9800911702706 98.14961562048488 a86.0,86.0 0 0,1 -9.607161424134198,41.387399972396054" fill="none" id="id28" stroke="none" /><text fill="#e1ed5e" style="font-size:6.75px; font-family:Arial;" text-anchor="middle"><textPath startOffset="21.466115282336823" xlink:href="#id28">April</textPath></text><path d="M 120.99980553446 99.90962569577887 l 28.943989771353472 -0.12456272191078842 a49.94425780281651,49.94425780281651 0 0,0 -0.0036999246303619964,0.8597321816128491 l -28.94184554943361 -0.3736789379057454" fill="#9aff23" stroke="none" /><path d="M 120.99824983174949 100.27111621757518 l 26.33647427192855 0.3400400198151443 a47.338669372066434,47.338669372066434 0 0,0 -0.017533200140528105,0.8146989151433037 l -26.326719009103016 -0.7933287507485629" fill="#b7ff1f" stroke="none" /><path d="M 120.9904718944345 100.63252640178507 l 6.650907140978138 0.2004182842409064 a27.653926155779914,27.653926155779914 0 0,0 -0.018433142117678304,0.4756774922315334 l -6.646471866009256 -0.31487302348644597" fill="#ff4e07" stroke="none" /><path d="M 120.9764740272857 100.99374915477107 l 4.516178918863544 0.2139515429322262 a25.52124399805082,25.52124399805082 0 0,0 -0.024565593861445148,0.43863518062863627 l -4.51182697411457 -0.2916584398962858" fill="#ff3004" stroke="none" /><path d="M 120.95626037817324 101.35467743843564 l 13.830103263021693 0.8940206183525092 a34.85896926657544,34.85896926657544 0 0,0 -0.04386161568747677,0.5984568978397107 l -13.812665088669878 -1.1319506526889902" fill="#ffaf10" stroke="none" /><path d="M 120.92983693683757 101.71520430193887 l 20.557231964656033 1.6846692503214948 a41.626145944690066,41.626145944690066 0 0,0 -0.06466999127975698,0.7136279649086604 l -20.5251873770992 -2.0382786037787257" fill="#faff18" stroke="none" /><path d="M 120.89721153311464 102.0752229133903 l 11.926127702313062 1.1843385629053869 a32.98478951852989,32.98478951852989 0 0,0 -0.06097112450388367,0.5645168892769343 l -11.903974276308126 -1.3894517740671126" fill="#ff970d" stroke="none" /><path d="M 120.8583938346157 102.4346265915055 l 33.20257455692714 3.8754599977198287 a54.427984495063896,54.427984495063896 0 0,0 -0.11662748366732507,0.9296357956333509 l -33.13094556401297 -4.446413547640574" fill="#69ff28" stroke="none" /><path d="M 120.64145759157962 103.86396538481128 l 30.69448605170375 5.745836071999976 a52.22764970574206,52.22764970574206 0 0,0 -0.1730229090739053,0.8822400857436133 l -30.59103320965418 -6.273339884811535" fill="#81ff25" stroke="none" /><path d="M 120.49622156327973 104.57218783832717 l 9.222735799730666 2.0573587346059865 a30.449422236014918,30.449422236014918 0 0,0 -0.11851993053873809,0.5105807588061141 l -9.185955303261375 -2.2158081507606653" fill="#ff750a" stroke="none" /><path d="M 120.32669344350535 105.2749913415812 l 16.178127329274343 4.198394678510172 a37.71401572808749,37.71401572808749 0 0,0 -0.16847735068230268,0.6269668970016818 l -16.103461902250263 -4.476252508687402" fill="#ffd413" stroke="none" /><path d="M 120.23288151984713 105.62410040840565 l 10.8629439574118 3.0195544558217273 a32.274806452154394,32.274806452154394 0 0,0 -0.15339349176195408,0.5339828681589299 l -10.809357828763744 -3.206094799485239" fill="#ff8d0d" stroke="none" /><path d="M 120.02730092923936 106.31721596034902 l 8.546062576214638 2.6956864080363636 a29.961133341662112,29.961133341662112 0 0,0 -0.15937575059995926,0.49050812384644715 l -8.498394574598432 -2.842393431860606" fill="#ff6e0a" stroke="none" /><path d="M 119.9155931802556 106.66101706037122 l 5.981383211982749 2.0005477747524347 a27.30707036013203,27.30707036013203 0 0,0 -0.15293151687761236,0.44449057370258177 l -5.946060864161906 -2.103211051544317" fill="#ff4906" stroke="none" /><path d="M 119.79798401119884 107.00284435728193 l 1.7465810065913618 0.6177919398068789 a22.852623030590962,22.852623030590962 0 0,0 -0.1343687865081521,0.36972519137293824 l -1.735687959077983 -0.6477649281859482" fill="#ff0a01" stroke="none" /><path d="M 119.67450827220406 107.3425965602758 l 58.98975565812796 22.01518691060821 a83.96395577879979,83.96395577879979 0 0,0 -0.5170009423884118,1.3497263193517557 l -58.60206043614604 -23.027336796793108" fill="#4dd2ff" stroke="none" /><path d="M 119.41010516605496 108.01547362559984 l 2.6434673881280335 1.0916294862085003 a23.859995588677766,23.859995588677766 0 0,0 -0.16003128416290954,0.3782666832839901 l -2.624285122772815 -1.1369706951586538" fill="#ff1802" stroke="none" /><path d="M 118.97047184881838 109.00673069616215 l 16.561206808220053 7.862868721126521 a39.33298326706006,39.33298326706006 0 0,0 -0.2956468245873031,0.609120026346712 l -16.423406727018037 -8.146777703438508" fill="#ffe815" stroke="none" /><path d="M 118.81262510543309 109.33194174019688 l 27.79698153044088 13.788602640068994 a52.02898233860384,52.02898233860384 0 0,0 -0.40488788111625496,0.7988822011656053 l -27.555514979538355 -14.265039052937295" fill="#83ff25" stroke="none" /><path d="M 118.64920377521936 109.65438752849418 l 40.7594407685518 21.100495300887196 a66.89730834926864,66.89730834926864 0 0,0 -0.5381967834340408,1.0180654895037733 l -40.39019147689286 -21.798975805477102" fill="#38ff7e" stroke="none" /><line stroke="#e1ed5e" stroke-width="0.3" x1="174.80103733775053" x2="179.2010983576182" y1="140.37084112569926" y2="142.7455964860345" /><path d="M 175.68104954172406 140.8457921977663 a86.0,86.0 0 0,1 -30.038265399797805,32.042727171017184" fill="none" id="id29" stroke="none" /><text fill="#e1ed5e" style="font-size:6.75px; font-family:Arial;" text-anchor="middle"><textPath startOffset="22.206326154141568" xlink:href="#id29">May</textPath></text><path d="M 118.12598468904814 110.60418214915192 l 5.54282582476842 3.2427002270602823 a27.421683804602694,27.421683804602694 0 0,0 -0.241858107674696,0.4053681001151519 l -5.486186841395497 -3.3376304210615384" fill="#ff4b07" stroke="none" /><path d="M 117.55443506779139 111.5257021239791 l 9.518770745029869 6.24973209163285 a32.38710444817391,32.38710444817391 0 0,0 -0.3099860675629323,0.46338711154462714 l -9.409781572056216 -6.412656117383284" fill="#ff8f0d" stroke="none" /><path d="M 117.35343817320211 111.8261652097733 l 38.17675280488173 26.017010654430912 a67.19901836746985,67.19901836746985 0 0,0 -0.6596354612316753,0.9502540798416731 l -37.723256436487915 -26.670305996459607" fill="#38ff81" stroke="none" /><path d="M 116.93607887273984 112.41649034213515 l 3.6398914171487546 2.6685442933424834 a25.51330678928033,25.51330678928033 0 0,0 -0.26271262583492794,0.35194649418962204 l -3.5934175246187348 -2.7308036670414206" fill="#ff3004" stroke="none" /><path d="M 116.71984013943494 112.70617746262583 l 13.406411346124843 10.188150142599367 a37.83835706087896,37.83835706087896 0 0,0 -0.398551744263571,0.5151818547764515 l -13.229052784643203 -10.417409991489071" fill="#ffd513" stroke="none" /><path d="M 116.498646956653 112.99209946851258 l 2.2059228135544933 1.7370859979523507 a23.807768370724744,23.807768370724744 0 0,0 -0.256309999169898,0.31978613342845424 l -2.175694902329741 -1.7747999649590553" fill="#ff1702" stroke="none" /><path d="M 116.27256486870786 113.27417163493432 l 28.35698225899587 23.131906530515405 a57.59513003902989,57.59513003902989 0 0,0 -0.6332831386982638,0.7628303364487947 l -27.954603120404062 -23.61659812407797" fill="#49ff2c" stroke="none" /><path d="M 116.0416608686014 113.55231037782055 l 4.306914771002893 3.638566244826746 a26.63814501078817,26.63814501078817 0 0,0 -0.2989275429967629,0.34772026587205346 l -4.243644718435352 -3.7121636098603275" fill="#ff4006" stroke="none" /><path d="M 115.56566222782051 114.09645910891815 l 3.3202372011781804 3.0068484882490267 a25.479409883385642,25.479409883385642 0 0,0 -0.29720347490879123,0.3225556736143115 l -3.267987318273667 -3.063555416664673" fill="#ff2f04" stroke="none" /><path d="M 115.32070863581623 114.36230785411682 l 2.5980822338760454 2.435556850549773 a24.561175152424024,24.561175152424024 0 0,0 -0.29180249004588366,0.3059537442021276 l -2.555773192451197 -2.4799177113344077" fill="#ff2203" stroke="none" /><path d="M 115.07121518719521 114.62390073753431 l 13.283898181874632 12.889631393777478 a39.50957990808722,39.50957990808722 0 0,0 -0.47780134370362853,0.48401023858028447 l -13.060056213115466 -13.116382126338426" fill="#ffea16" stroke="none" /><path d="M 114.55890576462653 115.13401014063108 l 12.94654025755147 13.457953139577766 a39.674298041625875,39.674298041625875 0 0,0 -0.4962388757730512,0.46922483071233273 l -12.712965547387613 -13.67881260703602" fill="#ffec16" stroke="none" /><path d="M 114.29624159901734 115.38237550388516 l 2.540723901200139 2.733751303044774 a24.732113895505957,24.732113895505957 0 0,0 -0.3143339210165416,0.2871365840632779 l -2.4932904307167334 -2.7770806536946346" fill="#ff2503" stroke="none" /><path d="M 113.75828350139079 115.86535959552629 l 1.8327429441889873 2.113426856830106 a23.797413051132295,23.797413051132295 0 0,0 -0.3117852332629733,0.26571013982288805 l -1.7960922343489667 -2.1446613868759408" fill="#ff1702" stroke="none" /><path d="M 113.48314897796784 116.09983520530334 l 14.483069438561314 17.29381108291708 a43.55737578118994,43.55737578118994 0 0,0 -0.5789602239397206,0.4764448488910215 l -14.183239086076902 -17.540551050665282" fill="#e3ff1b" stroke="none" /><path d="M 113.20401910651253 116.32954008644616 l 1.8708898311175022 2.3137478254245627 a23.97550966387874,23.97550966387874 0 0,0 -0.32314706517350555,0.256727572278509 l -1.8307852732266456 -2.3456093117081975" fill="#ff1a02" stroke="none" /><path d="M 112.92097659922987 116.55440617244103 l 1.7948671362318551 2.2995908529483096 a23.917133203624523,23.917133203624523 0 0,0 -0.3267208768054403,0.25051563624150847 l -1.755017530932921 -2.330145831017189" fill="#ff1902" stroke="none" /><path d="M 112.34349029814194 116.9893568818739 l 8.488219629934367 11.683032035630173 a35.44102177934664,35.44102177934664 0 0,0 -0.49663448489401024,0.3543355185084679 l -8.285857817191472 -11.827411815982861" fill="#ffb711" stroke="none" /><path d="M 111.7513745106137 117.40417183066458 l 6.294218228399605 9.321944040488843 a32.247925310950606,32.247925310950606 0 0,0 -0.46271980044444416,0.306665452395057 l -6.132823729215196 -9.428907513975217" fill="#ff8d0d" stroke="none" /><path d="M 111.45004920935366 117.60387380957326 l 10.616416442687619 16.32220542897571 a40.47107311244689,40.47107311244689 0 0,0 -0.5872510699072258,0.3748114176375059 l -10.333883570733462 -16.502531275437025" fill="#fff617" stroke="none" /><path d="M 111.1453310114006 117.79835938074945 l 1.7033741190298783 2.7201762513244 a24.209492518709162,24.209492518709162 0 0,0 -0.3550965359450277,0.21812929508437476 l -1.6562983831525417 -2.749094013237153" fill="#ff1d03" stroke="none" /><line stroke="#e1ed5e" stroke-width="0.3" x1="143.8653032363475" x2="146.44561519142675" y1="172.8068346515853" y2="177.08958963109032" /><path d="M 144.38136562736335 173.6633856474863 a86.0,86.0 0 0,1 -40.68145358897372,12.25698825130547" fill="none" id="id30" stroke="none" /><text fill="#e1ed5e" style="font-size:6.75px; font-family:Arial;" text-anchor="middle"><textPath startOffset="21.466115282336833" xlink:href="#id30">June</textPath></text><path d="M 109.89434966115114 118.52300852407294 l 14.02716726080465 26.259971361296355 a50.77158909528839,50.77158909528839 0 0,0 -0.7744096133527353,0.4051345088475027 l -13.573066744925418 -26.497535289088574" fill="#90ff24" stroke="none" /><path d="M 108.2653958097858 119.30500536409082 l 1.1846381036817246 2.7668904759534723 a24.009825633257957,24.009825633257957 0 0,0 -0.3813315286276654,0.15939660989326682 l -1.136835115556598 -2.786872128866712" fill="#ff1a02" stroke="none" /><path d="M 107.59598834532513 119.57807347666477 l 5.663794036205148 14.597991828905831 a36.658222387019364,36.658222387019364 0 0,0 -0.5902493639544576,0.2231818038171764 l -5.411674451490415 -14.693321882829638" fill="#ffc612" stroke="none" /><path d="M 106.91757812671514 119.82793768551818 l 1.1714402418682095 3.3577133055237116 a24.55619331341242,24.55619331341242 0 0,0 -0.4003013435726455,0.1358039497415239 l -1.113469165358337 -3.3773802421633583" fill="#ff2203" stroke="none" /><path d="M 105.88484417918355 120.15858648285463 l 0.8740902530717461 2.9942039965468887 a24.11918119759856,24.11918119759856 0 0,0 -0.3995386375943794,0.11291360986775324 l -0.822420447372761 -3.008806399753161" fill="#ff1c02" stroke="none" /><path d="M 105.53697534728816 120.25689768951611 l 4.218796782358479 15.434371553586756 a37.000564725815345,37.000564725815345 0 0,0 -0.6158119520497262,0.16264153356406766 l -3.9524943874972553 -15.504704436454407" fill="#ffcb12" stroke="none" /><path d="M 104.48393922423573 120.51570834832081 l 2.137725737746885 9.780899243073328 a31.011786121016463,31.011786121016463 0 0,0 -0.5224873679019777,0.10949230799338225 l -1.9690469084155293 -9.816247531793252" fill="#ff7c0b" stroke="none" /><path d="M 104.13013068566511 120.58985236759428 l 0.9054099358450463 4.513720831136461 a25.603633661941636,25.603633661941636 0 0,0 -0.43286281593482606,0.08295918889609426 l -0.8275795053385159 -4.528637218381023" fill="#ff3104" stroke="none" /><path d="M 103.7750983002368 120.6578951692458 l 3.832897556645812 20.974181232494175 a42.32152391489061,42.32152391489061 0 0,0 -0.7177549652932632,0.12479090095082182 l -3.4712936198804987 -21.037050711966003" fill="#f1ff19" stroke="none" /><path d="M 103.41894727170886 120.7198165907248 l 0.6447985489429422 3.907667071269453 a24.960508440668004,24.960508440668004 0 0,0 -0.4245237352906432,0.06630187668082452 l -0.5774389500437819 -3.9181872552973833" fill="#ff2803" stroke="none" /><path d="M 101.98527174616119 120.90594882070398 l 0.3034510463783769 3.1954980759900122 a24.209873905810632,24.209873905810632 0 0,0 -0.41520588828278454,0.035825711136301945 l -0.2484008403540507 -3.2002480394049777" fill="#ff1d03" stroke="none" /><path d="M 100.90346689309514 120.98055641714683 l 0.4939816103539459 11.471376676082132 a32.482007693601716,32.482007693601716 0 0,0 -0.5588137293545555,0.019246674726507554 l -0.29644752932473806 -11.478180149234733" fill="#ff900d" stroke="none" /><line stroke="#e1ed5e" stroke-width="0.3" x1="102.19456741930631" x2="102.32365962044197" y1="184.97166512339345" y2="189.96999836594603" /><path d="M 102.22038585953345 185.97133177190398 a86.0,86.0 0 0,1 -42.740103519485714,-10.115201625700543" fill="none" id="id31" stroke="none" /><text fill="#e1ed5e" style="font-size:6.75px; font-family:Arial;" text-anchor="middle"><textPath startOffset="22.20632615414155" xlink:href="#id31">July</textPath></text><path d="M 100.54218724476979 120.99299961872073 l 0.09113812735238493 3.5287858414520312 a24.529962559729157,24.529962559729157 0 0,0 -0.4221960606909405,0.007268488065203692 l -0.03038237676877644 -3.5298318067963947" fill="#ff2203" stroke="none" /><path d="M 99.81925306533755 120.99922214144158 l -0.03987917682235243 4.633172310636098 a25.63334393379005,25.63334393379005 0 0,0 -0.44118684669128455,-0.0075954316685296905 l 0.1196257134063049 -4.631799401688409" fill="#ff3204" stroke="none" /><path d="M 99.45781275523022 120.99299961872073 l -1.0253627590421697 39.701118418532126 a60.7143572586784,60.7143572586784 0 0,0 -1.0445172208912104,-0.03597528503809006 l 1.708600331608023 -39.67758633506794" fill="#30ff36" stroke="none" /><path d="M 99.09653310690486 120.98055641714683 l -0.43891616690006036 10.192631819077462 a31.202077768809477,31.202077768809477 0 0,0 -0.536396303087164,-0.02772556193270425 l 0.6143005384007133 -10.183566450382555" fill="#ff7f0b" stroke="none" /><path d="M 98.37488393609728 120.93702456842531 l -2.190137430209285 28.216422323953246 a49.30129309284102,49.30129309284102 0 0,0 -0.8455305166703037,-0.07295593078518103 l 2.6755122646211302 -28.174542140889404" fill="#a1ff22" stroke="none" /><path d="M 98.01472825383883 120.90594882070398 l -0.6726303259994839 7.083148791992634 a28.115014291268913,28.115014291268913 0 0,0 -0.4813925088146761,-0.04989830183385261 l 0.7944554314197533 -7.07052112170302" fill="#ff5507" stroke="none" /><path d="M 97.2962882734958 120.8252237178851 l -4.2424299599156585 32.677134975826284 a53.95137876012413,53.95137876012413 0 0,0 -0.9199260095262156,-0.12749336253543841 l 4.804284560628705 -32.59926704779824" fill="#6eff28" stroke="none" /><path d="M 96.93821686468263 120.77559828337769 l -0.5437055265213245 3.689290555285704 a24.729139378045573,24.729139378045573 0 0,0 -0.4205886528411552,-0.06568729773127249 l 0.6071300429709969 -3.6793849502073255" fill="#ff2503" stroke="none" /><path d="M 96.58105272829116 120.7198165907248 l -0.667968532669348 4.0480839233203225 a25.102824077496,25.102824077496 0 0,0 -0.4257331721026852,-0.07401916904836495 l 0.7375506762440831 -4.035986175750951" fill="#ff2a04" stroke="none" /><path d="M 96.22490169976321 120.6578951692458 l -0.901062528325379 4.930747167540956 a26.012402748200238,26.012402748200238 0 0,0 -0.4397735904007298,-0.08428365527026435 l 0.9858037332978039 -4.9145063139222245" fill="#ff3705" stroke="none" /><path d="M 95.51606077576429 120.51570834832081 l -10.371092372863028 47.45164814570363 a69.57178675682125,69.57178675682125 0 0,0 -1.1677453810721892,-0.2657750468794684 l 11.186357903328082 -47.266096365246476" fill="#3bff9c" stroke="none" /><path d="M 95.16358092515715 120.4354850818985 l -6.618965801548062 27.967340050970833 a49.739916802396976,49.739916802396976 0 0,0 -0.8314778290774976,-0.2043570206321738 l 7.09939691536877 -27.84926177202463" fill="#9cff22" stroke="none" /><path d="M 94.11515582081647 120.15858648285463 l -1.1883219896853 4.070607626839919 a25.2405136013055,25.2405136013055 0 0,0 -0.41601778168538994,-0.1253427449759075 l 1.2582147458109358 -4.049549512758286" fill="#ff2c04" stroke="none" /><path d="M 93.76903079525671 120.05430185196036 l -1.7200156491618448 5.535850344458296 a26.79690373126902,26.79690373126902 0 0,0 -0.43931437963470754,-0.1406545912681748 l 1.8150513738874927 -5.5054229065304146" fill="#ff4206" stroke="none" /><path d="M 93.42475214034765 119.94407469862007 l -1.180483774011063 3.5806492883494703 a24.770224299277295,24.770224299277295 0 0,0 -0.40379035712268646,-0.1369876125705523 l 1.2419438640709752 -3.559798688880795" fill="#ff2503" stroke="none" /><path d="M 93.08242187328487 119.8279376855182 l -1.848515444309621 5.298422131141696 a26.611620659633303,26.611620659633303 0 0,0 -0.431210189067384,-0.1546166320758914 l 1.9394451940067317 -5.265817958025846" fill="#ff3f06" stroke="none" /><path d="M 92.40401165467489 119.57807347666478 l -10.692217131214374 27.558364113631256 a50.559887344178314,50.559887344178314 0 0,0 -0.8086666931717852,-0.32178516619158143 l 11.165004900428018 -27.370232103033608" fill="#93ff23" stroke="none" /><path d="M 92.06813273071674 119.44442032107085 l -4.169228006767559 10.22057215857753 a32.03823162563212,32.03823162563212 0 0,0 -0.5088411730656823,-0.212695651609697 l 4.344540639330704 -10.14729146394786" fill="#ff8a0c" stroke="none" /><path d="M 91.40352486487194 119.15986991738527 l -2.9963016365350454 6.678173168287182 a28.31955055742724,28.31955055742724 0 0,0 -0.44304184302845073,-0.20337878030418569 l 3.110811475330916 -6.625607317648922" fill="#ff5708" stroke="none" /><path d="M 91.07499286063937 119.00905698771935 l -8.527183503585182 18.161746498726394 a41.06394513518754,41.06394513518754 0 0,0 -0.6372485486424145,-0.30591802887889 l 8.838544720227839 -18.01227419334794" fill="#fffd18" stroke="none" /><line stroke="#e1ed5e" stroke-width="0.3" x1="58.666819895761336" x2="56.23545636021788" y1="174.27360380694188" y2="178.64263932499728" /><path d="M 58.180547188652646 175.14741091055294 a86.0,86.0 0 0,1 -31.652253787137756,-30.449443065178592" fill="none" id="id32" stroke="none" /><text fill="#e1ed5e" style="font-size:6.75px; font-family:Arial;" text-anchor="middle"><textPath startOffset="22.20632615414155" xlink:href="#id32">August</textPath></text><path d="M 89.4739219176387 118.17145234162733 l -2.1180337951760246 3.656418835757233 a25.22557284400447,25.22557284400447 0 0,0 -0.3738575590841972,-0.22088163567921731 l 2.1806592252886037 -3.6194186277842664" fill="#ff2c04" stroke="none" /><path d="M 89.1626897886671 117.98757091392108 l -2.9653027463724344 4.921755711656321 a26.746015981779507,26.746015981779507 0 0,0 -0.39230139244433243,-0.24098355667358104 l 3.0495833387490756 -4.8699836881543614" fill="#ff4106" stroke="none" /><path d="M 88.54995079064634 117.60387380957326 l -2.959859501431906 4.550634866678874 a26.428539947172737,26.428539947172737 0 0,0 -0.37921846483070376,-0.2513253203389304 l 3.037752665002572 -4.499011525248625" fill="#ff3d05" stroke="none" /><path d="M 87.65650970185807 116.9893568818739 l -29.98680997314878 41.273303099646675 a72.01660828711606,72.01660828711606 0 0,0 -0.9966242260816619,-0.7372787765350106 l 30.69281916964901 -40.7510143743719" fill="#3effb6" stroke="none" /><path d="M 87.07902340077011 116.55440617244103 l -3.4804897297298543 4.45921716694322 a26.656715168780917,26.656715168780917 0 0,0 -0.35928492844242776,-0.28543767645161083 l 3.55673215088964 -4.398645576486478" fill="#ff4006" stroke="none" /><path d="M 86.79598089348748 116.32954008644616 l -3.8912798822760104 4.812384040997551 a27.18878819158112,27.18878819158112 0 0,0 -0.36139061680674867,-0.2973998742840205 l 3.973540627627448 -4.74468904785635" fill="#ff4806" stroke="none" /><path d="M 86.51685102203217 116.09983520530335 l -20.507274435006277 24.487138683480836 a52.940073037748135,52.940073037748135 0 0,0 -0.6936019888198405,-0.5911026622460704 l 20.925741900403175 -24.130511631011814" fill="#79ff26" stroke="none" /><path d="M 86.24171649860922 115.8653595955263 l -22.59038085543136 26.05008943412756 a55.48090002768901,55.48090002768901 0 0,0 -0.7161201057204865,-0.6318927314413519 l 23.035443314058433 -25.657373560913918" fill="#5eff29" stroke="none" /><path d="M 85.97065885151581 115.62618273729859 l -4.502086204935039 5.014520710046819 a27.739005724003714,27.739005724003714 0 0,0 -0.35255014881324237,-0.32204620205754664 l 4.587735903215136 -4.936281741402696" fill="#ff4f07" stroke="none" /><path d="M 85.70375840098266 115.38237550388516 l -17.27235654161542 18.584595980693138 a46.37166743172944,46.37166743172944 0 0,0 -0.5800083492315116,-0.5484340964942083 l 17.589700725237748 -18.284527247453" fill="#c2ff1e" stroke="none" /><path d="M 85.18274418774928 114.88116024355367 l -5.52943990009393 5.55328748136786 a28.836689827948263,28.836689827948263 0 0,0 -0.3487308440082478,-0.35326250382717916 l 5.624211369157711 -5.4572844835600165" fill="#ff5f08" stroke="none" /><path d="M 84.9287848128048 114.62390073753433 l -2.100795364584441 2.0384436490334887 a23.927216027925585,23.927216027925585 0 0,0 -0.2842706496527541,-0.298056639661832 l 2.135572565616153 -2.0019798927891563" fill="#ff1902" stroke="none" /><path d="M 84.67929136418377 114.36230785411682 l -10.206095384521417 9.56764385939045 a34.98943144012941,34.98943144012941 0 0,0 -0.40813271016413677,-0.44294744969394295 l 10.369274502681284 -9.390545154895163" fill="#ffb110" stroke="none" /><path d="M 84.43433777217949 114.09645910891817 l -22.795728874395923 20.64409822291904 a51.75425249217573,51.75425249217573 0 0,0 -0.5923179323599937,-0.6654754761257478 l 23.147705656404256 -20.248648577052432" fill="#86ff25" stroke="none" /><path d="M 84.19399662182784 113.82643327865904 l -5.664691432092038 4.955236074299092 a28.526160613011925,28.526160613011925 0 0,0 -0.32011444864968025,-0.37236542366775843 l 5.749148390312497 -4.856993551469804" fill="#ff5a08" stroke="none" /><path d="M 83.95833913139862 113.55231037782056 l -4.814747675119627 4.067593462957937 a27.30294468918838,27.30294468918838 0 0,0 -0.3002075782580535,-0.36161936728301747 l 4.884051253271217 -3.9841128385611584" fill="#ff4906" stroke="none" /><path d="M 83.72743513129214 113.27417163493432 l -3.481359949456426 2.8398823335426915 a25.492749577491175,25.492749577491175 0 0,0 -0.27445019294960793,-0.3424188143509449 l 3.5297280544608944 -2.779535685613487" fill="#ff3004" stroke="none" /><path d="M 83.28015986056508 112.70617746262583 l -3.57746067836471 2.7186773238134605 a25.493265104160137,25.493265104160137 0 0,0 -0.2625062549490466,-0.3516700266633329 l 3.6237282000088413 -2.6566944176408196" fill="#ff3004" stroke="none" /><path d="M 83.06392112726016 112.41649034213515 l -13.021659117777315 9.546678773131017 a37.146290031364586,37.146290031364586 0 0,0 -0.37362129013813,-0.5189272941603693 l 13.184060200291054 -9.32111787351951" fill="#ffcd13" stroke="none" /><path d="M 82.6465618267979 111.8261652097733 l -5.582849721965965 3.804646807988919 a27.756000914120403,27.756000914120403 0 0,0 -0.265660475712149,-0.39712636590298445 l 5.647513303088844 -3.7079835278801134" fill="#ff5007" stroke="none" /><path d="M 82.24976979558568 111.22182372390057 l -5.7302227889121005 3.6226882296916783 a27.779330587905726,27.779330587905726 0 0,0 -0.25204498873093295,-0.40637677470579864 l 5.791732417310989 -3.5235151236206153" fill="#ff5007" stroke="none" /><path d="M 82.05923443525364 110.91462005526583 l -2.4651743462085434 1.4997376372681552 a23.88553245309135,23.88553245309135 0 0,0 -0.2106694002115735,-0.353094032435858 l 2.490624622118349 -1.457081510946186" fill="#ff1902" stroke="none" /><line stroke="#e1ed5e" stroke-width="0.3" x1="26.63291911575756" x2="22.317208475507996" y1="142.92168965132927" y2="145.44649492493687" /><path d="M 25.769776987707644 143.4266507060508 a86.0,86.0 0 0,1 -11.730757126820373,-40.83630448921669" fill="none" id="id33" stroke="none" /><text fill="#e1ed5e" style="font-size:6.75px; font-family:Arial;" text-anchor="middle"><textPath startOffset="21.46611528233685" xlink:href="#id33">September</textPath></text><path d="M 81.69416730710424 110.29060199501025 l -10.953371897350545 6.157424936081086 a33.565438224158434,33.565438224158434 0 0,0 -0.27879067873290597,-0.5060860621269142 l 11.057738985534968 -5.96796835555635" fill="#ff9e0e" stroke="none" /><path d="M 81.35079622478065 109.6543875284942 l -3.715800796436525 1.9236092489457308 a25.184190256361184,25.184190256361184 0 0,0 -0.19598256533572786,-0.3866921942781877 l 3.7483620315585195 -1.859362842964858" fill="#ff2b04" stroke="none" /><path d="M 81.18737489456691 109.33194174019688 l -5.080250863479395 2.5200419833956613 a26.67093999562329,26.67093999562329 0 0,0 -0.2004724295873037,-0.41303258292209016 l 5.1228765496814175 -2.4322204445082867" fill="#ff4006" stroke="none" /><path d="M 80.87730276802145 108.67885076344099 l -23.073898887779954 10.472106656737035 a46.339096821188576,46.339096821188576 0 0,0 -0.3234003697450283,-0.7291824585708474 l 23.25074034225626 -10.07337586167349" fill="#c2ff1e" stroke="none" /><path d="M 80.73074385275274 108.34839909993369 l -4.265915622389174 1.8482065872290805 a25.64907557331788,25.64907557331788 0 0,0 -0.1720308156107714,-0.4066300310224474 l 4.2970974191922515 -1.7745020305404742" fill="#ff3204" stroke="none" /><path d="M 80.58989483394504 108.01547362559985 l -7.433112135907328 3.0695307300903605 a29.04196337519277,29.04196337519277 0 0,0 -0.18683301565815397,-0.46370422279943946 l 7.484847765822869 -2.9411271394481155" fill="#ff6109" stroke="none" /><path d="M 80.32549172779594 107.34259656027581 l -4.212337508536234 1.5720593609241968 a25.49612699109919,25.49612699109919 0 0,0 -0.14991205341574365,-0.41249358633513084 l 4.238773822957203 -1.4993179775829488" fill="#ff3004" stroke="none" /><path d="M 80.0844068197444 106.66101706037122 l -4.7558919716415 1.5906670353054475 a26.014850951237882,26.014850951237882 0 0,0 -0.13838383047193187,-0.4259016368547177 l 4.7825680531296815 -1.5085664984729266" fill="#ff3705" stroke="none" /><path d="M 79.97269907076064 106.31721596034903 l -4.2020554333566285 1.3254552744606931 a25.406143614272874,25.406143614272874 0 0,0 -0.12796618134544802,-0.4182008847106268 l 4.224248387208206 -1.2529274171980185" fill="#ff2e04" stroke="none" /><path d="M 79.67330655649465 105.27499134158121 l -23.16858641391122 6.012492541875119 a44.936028554983295,44.936028554983295 0 0,0 -0.1878511851257954,-0.7503721058226899 l 23.268648913332076 -5.612792596655038" fill="#d2ff1c" stroke="none" /><path d="M 79.35854240842038 103.8639653848113 l -4.273791912678013 0.8000299368011131 a25.348027738256736,25.348027738256736 0 0,0 -0.0765915495084437,-0.4295660846638076 l 4.286929904525646 -0.7263451014040919" fill="#ff2e04" stroke="none" /><path d="M 79.23777060512086 103.15116336523772 l -8.470521331535283 1.2856035831576946 a29.56752637585798,29.56752637585798 0 0,0 -0.07204050219583392,-0.5038511045685579 l 8.491395884747716 -1.1396070066087363" fill="#ff6909" stroke="none" /><path d="M 79.10278846688536 102.07522291339032 l -4.07724659149196 0.4048959133518216 a25.097301608190666,25.097301608190666 0 0,0 -0.038990933205867946,-0.4302616988646972 l 4.0836121209749034 -0.3346528259385583" fill="#ff2a04" stroke="none" /><path d="M 79.0095281055655 100.63252640178507 l -8.550987306696031 0.2576752566600652 a29.554868815894928,29.554868815894928 0 0,0 -0.010946472238231366,-0.5086395515738649 l 8.55415584161927 -0.11044588929607142" fill="#ff6809" stroke="none" /><line stroke="#e1ed5e" stroke-width="0.3" x1="15.007084014347285" x2="10.007500721073583" y1="101.09737516637583" y2="101.16192664675087" /><path d="M 14.007167355692545 101.11028546245083 a86.0,86.0 0 0,1 10.666146001902534,-42.60595125391555" fill="none" id="id34" stroke="none" /><text fill="#e1ed5e" style="font-size:6.75px; font-family:Arial;" text-anchor="middle"><textPath startOffset="22.20632615414155" xlink:href="#id34">October</textPath></text><path d="M 79.01574976396665 99.18683210126434 l -21.225096605858855 -0.8225010192553859 a42.24102713746954,42.24102713746954 0 0,0 0.034409121849188685,-0.7263221782941103 l 21.20779387577617 1.1877343041725053" fill="#f2ff19" stroke="none" /><path d="M 79.05617556472873 98.46500227214037 l -28.726665803705952 -2.1054114005754903 a49.80371651998197,49.80371651998197 0 0,0 0.07002287799809087,-0.8544564730227885 l 28.686168441888363 2.5995817908060572" fill="#9bff22" stroke="none" /><path d="M 79.08570108090925 98.10471618934814 l -9.983572195124546 -0.9047256533481813 a31.024482145382386,31.024482145382386 0 0,0 0.05277541316444931,-0.5314412083294074 l 9.96651965627787 1.076442392382019" fill="#ff7c0b" stroke="none" /><path d="M 79.16333360222342 97.38593545837743 l -14.863060092808311 -1.864645602463619 a35.97956803600217,35.97956803600217 0 0,0 0.08238293254008852,-0.6138485375112497 l 14.82876116121039 2.1202124820395283" fill="#ffbe11" stroke="none" /><path d="M 79.21141760316559 97.0276538004421 l -10.300419471080057 -1.4727513441887772 a31.40517360749041,31.40517360749041 0 0,0 0.08112121827247254,-0.5344874725141675 l 10.273542359368282 1.6498379290950367" fill="#ff820b" stroke="none" /><path d="M 79.3925641242962 95.95851677861259 l -10.202703451520993 -2.0009308805239825 a31.397061224611157,31.397061224611157 0 0,0 0.10857508058720404,-0.5294506525982335 l 10.166749075018794 2.1762571892856184" fill="#ff810b" stroke="none" /><path d="M 79.46518482838121 95.60439243477599 l -19.16164709717523 -4.101672220498312 a40.59572490317956,40.59572490317956 0 0,0 0.1521481625524474,-0.6820503794660056 l 19.088204547620744 4.430900769514277" fill="#fff817" stroke="none" /><path d="M 79.62865764111835 94.90015583598534 l -4.358594666017761 -1.0911482011937654 a25.493100472903635,25.493100472903635 0 0,0 0.11023176356849773,-0.4247679513957587 l 4.339166570578955 1.1660125781383879" fill="#ff3004" stroke="none" /><path d="M 79.71946130924805 94.55025226153421 l -2.7326489475911835 -0.7343122216446312 a23.82959090852863,23.82959090852863 0 0,0 0.10985807866367361,-0.39521795988529773 l 2.719604098361149 0.7812414849488715" fill="#ff1802" stroke="none" /><path d="M 79.81627453868168 94.20196356495316 l -20.489117612666323 -5.885764284094662 a42.31774288599986,42.31774288599986 0 0,0 0.2071435436297048,-0.6983850525477738 l 20.384768171924915 6.237578723388975" fill="#f1ff19" stroke="none" /><path d="M 79.91906864156998 93.8553929516997 l -3.5220386768964924 -1.0777161323924003 a24.683236145507593,24.683236145507593 0 0,0 0.12781745588944798,-0.4052162644391073 l 3.5029657372388407 1.138182563257922" fill="#ff2403" stroke="none" /><path d="M 80.14247586403 93.16781622104843 l -33.90671359165568 -11.665950750569273 a56.857490619133905,56.857490619133905 0 0,0 0.3263807298581784,-0.9227222742108347 l 33.7008797809877 12.24787065120672" fill="#50ff2b" stroke="none" /><path d="M 80.52162464483688 92.15188598940014 l -4.626583197590267 -1.8641160647204276 a25.98800569235575,25.98800569235575 0 0,0 0.17075148507728977,-0.4134882650009598 l 4.5938100256267775 1.9434789001746986" fill="#ff3705" stroke="none" /><path d="M 80.65960295795068 91.81776055985345 l -16.300655661456812 -6.896232138535628 a38.699417863363635,38.699417863363635 0 0,0 0.26483170812597473,-0.6112680956799218 l 16.17953324348816 7.175799378802149" fill="#ffe015" stroke="none" /><path d="M 80.803312248108 91.48605970444005 l -19.84331610030567 -8.80072701746554 a42.70737178685154,42.70737178685154 0 0,0 0.3038277330257307,-0.6694441358300288 l 19.688886050316587 9.14099316213764" fill="#edff1a" stroke="none" /><path d="M 81.10775173730289 90.83032412892265 l -3.542261779944519 -1.7192973499470408 a24.937461351580563,24.937461351580563 0 0,0 0.19075968897584147,-0.38455989266129015 l 3.512142078015265 1.7800168311072926" fill="#ff2803" stroke="none" /><path d="M 81.26839172434947 90.50648371742162 l -2.5587738271649263 -1.296832638935911 a23.868640512855126,23.868640512855126 0 0,0 0.18889251888232667,-0.3648802231994548 l 2.5360718751224853 1.3406855843957015" fill="#ff1802" stroke="none" /><path d="M 81.6062741919709 89.86733742301443 l -15.587548584031486 -8.586806819497975 a38.796205275701865,38.796205275701865 0 0,0 0.32725958625908924,-0.5821582873489888 l 15.437431356479966 8.853848616781749" fill="#ffe115" stroke="none" /><line stroke="#e1ed5e" stroke-width="0.3" x1="26.266209847984243" x2="21.928928074336255" y1="57.711370442889674" y2="55.22380399835377" /><path d="M 25.398753493254645 57.213857153982495 a86.0,86.0 0 0,1 29.58750427330803,-30.492523968695096" fill="none" id="id35" stroke="none" /><text fill="#e1ed5e" style="font-size:6.75px; font-family:Arial;" text-anchor="middle"><textPath startOffset="21.46611528233685" xlink:href="#id35">November</textPath></text><path d="M 81.78341655067845 89.55222093294921 l -17.13314369172103 -9.826392556712001 a40.75101525086154,40.75101525086154 0 0,0 0.35422398045509607,-0.6054836059880636 l 16.96146003679561 10.119855575053958" fill="#fffa17" stroke="none" /><path d="M 81.96595687620814 89.24020034530311 l -3.471407901435216 -2.0711746823926354 a25.04233068700856,25.04233068700856 0 0,0 0.22405039572291313,-0.36827994048350793 l 3.4352417074260857 2.1306223960832176" fill="#ff2904" stroke="none" /><path d="M 82.34701348167596 88.62581576622439 l -21.32311966859731 -13.73892691175611 a46.36599190033573,46.36599190033573 0 0,0 0.43805565704733457,-0.6671888189542505 l 21.083467376192058 14.103933794688029" fill="#c2ff1e" stroke="none" /><path d="M 82.54541684631803 88.32363383020206 l -3.0047219077964202 -2.0100298543333577 a24.615048237368782,24.615048237368782 0 0,0 0.23862007607200383,-0.3501455174648034 l 2.9696773660556763 2.0614533950685767" fill="#ff2303" stroke="none" /><path d="M 83.17141714833178 87.43820079747576 l -2.340375169246788 -1.7469874435527688 a23.92050013880465,23.92050013880465 0 0,0 0.24914232867757716,-0.3278421004041902 l 2.309956900345102 1.7870143198379858" fill="#ff1902" stroke="none" /><path d="M 83.39014120810768 87.1503855733568 l -11.060262768888286 -8.556370876972412 a34.983593783472045,34.983593783472045 0 0,0 0.37256847599198306,-0.47312412958871136 l 10.911340212302333 8.745487400514172" fill="#ffb110" stroke="none" /><path d="M 83.84228863543731 86.58626213691792 l -4.4656195017391465 -3.707248386920132 a26.803916620406852,26.803916620406852 0 0,0 0.2977652030722376,-0.3524600804577498 l 4.401143685179784 3.7835674170069975" fill="#ff4206" stroke="none" /><path d="M 84.07557802195018 86.31012108654704 l -47.77326593414944 -41.06963674035889 a84.0,84.0 0 0,0 0.9520325456886258,-1.0883377751882275 l 47.05924152488297 41.885890071750055" fill="#4dd2ff" stroke="none" /><path d="M 84.5562425177563 85.77008943001954 l -2.961982648351457 -2.729177031194332 a25.027623179585426,25.027623179585426 0 0,0 0.29464982397158085,-0.3143118883480235 l 2.91456550240942 2.7797583364204055" fill="#ff2904" stroke="none" /><path d="M 85.31137513191541 84.99185889309783 l -2.5597868778505797 -2.6154689776203517 a24.659670317516383,24.659670317516383 0 0,0 0.3059170154622032,-0.2942919264969026 l 2.5143866187759487 2.6591439908795675" fill="#ff2403" stroke="none" /><path d="M 85.83668400450813 84.49514656593479 l -3.1413788299872056 -3.4389276039121084 a25.65773378569884,25.65773378569884 0 0,0 0.3286499272162195,-0.2950651496181064 l 3.0817179151750147 3.4924917622994935" fill="#ff3204" stroke="none" /><path d="M 86.37877921826538 84.01681056812374 l -2.9313174179568553 -3.43961839595088 a25.519247339389707,25.519247339389707 0 0,0 0.33678414583753014,-0.2820470367453992 l 2.871675735160215 3.4895665900900914" fill="#ff3004" stroke="none" /><path d="M 86.65592168130627 83.78471172551755 l -6.944735856733655 -8.439016260067536 a31.929151456425444,31.929151456425444 0 0,0 0.42738933148192965,-0.3455857831226424 l 6.798443126687225 8.557308140454312" fill="#ff890c" stroke="none" /><path d="M 86.93701828274178 83.55741782278169 l -2.917398151702398 -3.6721753035645954 a25.68999823407923,25.68999823407923 0 0,0 0.34861015022497266,-0.27209575181316625 l 2.853755446318 3.7218494446009833" fill="#ff3204" stroke="none" /><path d="M 87.51073957382395 83.11751280151077 l -0.7113230254242017 -0.9615382705564735 a22.196050288342164,22.196050288342164 0 0,0 0.3091113745367933,-0.22458255949117442 l 0.6946663345336267 0.9736400648643158" fill="#ff0000" stroke="none" /><path d="M 87.80319425747018 82.90503203632743 l -11.422192981873893 -16.009275479328835 a40.66630097115898,40.66630097115898 0 0,0 0.5733345421847109,-0.40165748619722735 l 11.144927300105524 16.203517808290005" fill="#fff917" stroke="none" /><path d="M 88.70189139769569 82.29822771554957 l -2.502482054042101 -3.9208657861141587 a25.651408920265276,25.651408920265276 0 0,0 0.3742428765636715,-0.23435085497106464 l 2.4346200251061876 3.9633609824081537" fill="#ff3204" stroke="none" /><path d="M 89.00827224532344 82.1063720568725 l -3.007166078822456 -4.895418825739105 a26.745273997384395,26.745273997384395 0 0,0 0.3943500656663304,-0.23759150215096603 l 2.922453946938476 4.946456937348691" fill="#ff4106" stroke="none" /><line stroke="#e1ed5e" stroke-width="0.3" x1="56.762969772571076" x2="54.21961505331055" y1="26.818313649435495" y2="22.513508569990535" /><path d="M 56.25429882871897 25.957352633546506 a86.0,86.0 0 0,1 42.265352541879196,-11.944610805530505" fill="none" id="id36" stroke="none" /><text fill="#e1ed5e" style="font-size:6.75px; font-family:Arial;" text-anchor="middle"><textPath startOffset="22.20632615414155" xlink:href="#id36">December</textPath></text><path d="M 89.63071344664047 81.73862282372117 l -5.901297329246707 -10.39278988040177 a32.95137614111261,32.95137614111261 0 0,0 0.49564504547160043,-0.27582593118144283 l 5.721528194703061 10.492831209143398" fill="#ff960d" stroke="none" /><path d="M 90.58718382345135 81.22770947309562 l -3.0326990896779904 -6.048212067919961 a27.765953959868952,27.765953959868952 0 0,0 0.4290880885163389,-0.21055166152585827 l 2.9281397341512254 6.099518889580648" fill="#ff5007" stroke="none" /><path d="M 91.23893434514133 80.91482961587045 l -2.8555854871938284 -6.2206285989099745 a27.844748982997746,27.844748982997746 0 0,0 0.437318862923655,-0.19621222625496304 l 2.7480845058033987 6.268861155681466" fill="#ff5107" stroke="none" /><path d="M 91.90106846888425 80.62456947434976 l -6.971024186086765 -16.677088118504447 a39.07540999024279,39.07540999024279 0 0,0 0.6228176202943622,-0.2540629453371978 l 6.682922696204023 16.79461195002522" fill="#ffe515" stroke="none" /><path d="M 92.91201910852362 80.23233633223022 l -2.7315734573487225 -7.6180828102415274 a29.093001869305944,29.093001869305944 0 0,0 0.47285548065783806,-0.16496999244077415 l 2.6000359726275994 7.6639736558545115" fill="#ff6209" stroke="none" /><path d="M 93.25333710446033 80.11325718540243 l -1.0100169922925446 -2.9771678939782773 a24.143829351866085,24.143829351866085 0 0,0 0.3947138739687402,-0.130130958402777 l 0.9586202960813952 2.9941125766402883" fill="#ff1c02" stroke="none" /><path d="M 93.59665428221793 80.00007090966166 l -2.3684361275449586 -7.397469493854179 a28.76737050762762,28.76737050762762 0 0,0 0.4729008137087164,-0.14693258478250287 l 2.2407499411255136 7.437142213519207" fill="#ff5e08" stroke="none" /><path d="M 94.63758080256005 79.69619591428918 l -5.162473635758119 -19.546747361362712 a41.216984603269545,41.216984603269545 0 0,0 0.6875211115110742,-0.17526443962028893 l 4.825243635562045 19.632714797151866" fill="#ffff18" stroke="none" /><path d="M 95.692805502759 79.44645832069477 l -2.128466721568407 -10.156850242726003 a31.377474521191917,31.377474521191917 0 0,0 0.529582426495214,-0.10622925270213639 l 1.953317885606057 10.19198345150535" fill="#ff810b" stroke="none" /><path d="M 96.04723909329186 79.375362276772 l -0.5687913404944177 -2.967828212907587 a24.0218418043226,24.0218418043226 0 0,0 0.4067754355100759,-0.07433561079631747 l 0.5176207838814485 2.9771793050546407" fill="#ff1b02" stroke="none" /><path d="M 96.40284397218896 79.31037775812273 l -0.9149040965571672 -5.262218263251877 a26.341160038418497,26.341160038418497 0 0,0 0.44738678391073267,-0.07382265270315652 l 0.8241881065075488 5.2771871788946605" fill="#ff3c05" stroke="none" /><path d="M 96.75951476605007 79.25152402106235 l -1.3491779989565142 -8.638640599061906 a29.74336277828096,29.74336277828096 0 0,0 0.5065309121846284,-0.07464948942936828 l 1.200278106343237 8.660584572652244" fill="#ff6b09" stroke="none" /><path d="M 98.19473922651362 79.07773832637324 l -1.2558827280292428 -14.555186404715995 a35.60926735680443,35.60926735680443 0 0,0 0.6111394907148524,-0.04743618656988362 l 1.0051530479520563 14.57464785347434" fill="#ffb911" stroke="none" /><path d="M 98.55514903715128 79.0497635885617 l -0.26449676461078353 -3.8351843139109074 a24.84429411728055,24.84429411728055 0 0,0 0.42689353272882485,-0.025751383689870656 l 0.19844118304233574 3.8391689669810845" fill="#ff2603" stroke="none" /><path d="M 99.63851952072746 79.00311137660856 l -0.13773268447717177 -8.00031537411866 a29.001500882817716,29.001500882817716 0 0,0 0.49921316374970554,-0.004296885307614211 l 1.9598024889034872e-15 8.001500882817716" fill="#ff6108" stroke="none" /></svg>