<?xml version="1.0" encoding="utf-8" ?>
<svg baseProfile="full" height="200mm" version="1.1" viewBox="0,0,200,200" width="200mm" xmlns="http://www.w3.org/2000/svg" xmlns:ev="http://www.w3.org/2001/xml-events" xmlns:xlink="http://www.w3.org/1999/xlink"><defs /><rect fill="#1a1a1a" height="200" width="200" x="0" y="0" /><text alignment-baseline="middle" fill="#e1ed5e" style="dominant-baseline: central; font-size:9.0px; font-family:Arial;" text-anchor="middle" x="100.0" y="100.0">2023</text><line stroke="#e1ed5e" stroke-width="0.3" x1="100.0" x2="100.0" y1="15.0" y2="10.0" /><path d="M 100.0 14.0 a86.0,86.0 0 0,1 42.46469731375804,11.215312516191453" fill="none" id="id97" stroke="none" /><text fill="#e1ed5e" style="font-size:6.75px; font-family:Arial;" text-anchor="middle"><textPath startOffset="22.20632615414155" xlink:href="#id97">January</textPath></text><path d="M 100.72285384407766 79.0124445844662 l 0.2485966574315802 -7.217829948209034 a28.22210976511361,28.22210976511361 0 0,0 0.48536541290406426,0.020900855672916205 l -0.372802902724976 7.212481366011923" fill="#ff3e05" stroke="none" /><path d="M 101.08401301168833 79.027996857942 l 0.3806467617554515 -7.364233636934191 a28.374064619772998,28.374064619772998 0 0,0 0.48754473064244497,0.029410029579259214 l -0.5073535412375083 7.356590337974628" fill="#ff4006" stroke="none" /><path d="M 101.44485096284872 79.0497635885617 l 0.7458593839377533 -10.814908128916663 a31.840597034182007,31.840597034182007 0 0,0 0.5464601689371209,0.042415826371142655 l -0.9319097422372155 10.800467040357056" fill="#ff720a" stroke="none" /><path d="M 101.80526077348638 79.07773832637324 l 0.7400156895123052 -8.576490513702858 a29.608357145957612,29.608357145957612 0 0,0 0.5073954173794359,0.04818330872682064 l -0.8875362339819854 8.56248166046086" fill="#ff5207" stroke="none" /><path d="M 103.59715602781102 79.31037775812273 l 1.2590656615867812 -7.241718934221962 a28.35035641737568,28.35035641737568 0 0,0 0.4800726219281179,0.08773020311038854 l -1.3835334046177998 7.218973249760834" fill="#ff4006" stroke="none" /><path d="M 104.307194497241 79.44645832069477 l 3.009106404575725 -14.359182977116166 a35.67108915944421,35.67108915944421 0 0,0 0.599881174953616,0.13111079006322915 l -3.255830303682869 14.305258688957068" fill="#ffa70f" stroke="none" /><path d="M 105.71112130821622 79.79150937346287 l 5.783351183752366 -20.464072093635064 a42.26559186968713,42.26559186968713 0 0,0 0.6984082777376485,0.20388452788758882 l -6.134749679213441 20.36148923682877" fill="#fffd17" stroke="none" /><path d="M 106.0581310904928 79.89281104454417 l 1.9409543194476102 -6.442108081201436 a27.72815429371705,27.72815429371705 0 0,0 0.4558173547583443,0.1416246709286071 l -2.0515570469166726 6.407743275390309" fill="#ff3705" stroke="none" /><path d="M 106.74666289553966 80.11325718540242 l 6.692939443143257 -19.728385342546364 a41.832777697983076,41.832777697983076 0 0,0 0.6799180880162935,0.2372100703672634 l -7.031539535222825 19.610254419006896" fill="#fff717" stroke="none" /><path d="M 109.08828744355905 81.06846463323043 l 8.075775764544387 -16.822403059987362 a39.660423331529074,39.660423331529074 0 0,0 0.612902234933859,0.3007484648768629 l -8.364149266488678 16.680899434975668" fill="#ffdb14" stroke="none" /><path d="M 109.41281617654863 81.2277094730956 l 4.186258696915241 -8.348794134008887 a30.339546314974818,30.339546314974818 0 0,0 0.46483003991230315,0.23810400053978237 l -4.329349224416299 8.275497608156606" fill="#ff5d08" stroke="none" /><path d="M 110.05341064243156 81.56283822128135 l 10.257418672408798 -18.811296406918657 a42.426140817469474,42.426140817469474 0 0,0 0.6381617084702992,0.3551362998406998 l -10.579704469951134 18.631944709517775" fill="#ffff18" stroke="none" /><line stroke="#e1ed5e" stroke-width="0.3" x1="143.23703022742887" x2="145.7803849466894" y1="26.81831364943548" y2="22.513508569990506" /><path d="M 143.74570117128098 25.957352633546492 a86.0,86.0 0 0,1 28.547481713284135,27.462654790039103" fill="none" id="id98" stroke="none" /><text fill="#e1ed5e" style="font-size:6.75px; font-family:Arial;" text-anchor="middle"><textPath startOffset="19.985693538727396" xlink:href="#id98">February</textPath></text><path d="M 110.68208982089419 81.91981866633111 l 6.7540288995211695 -11.431664522922043 a34.27779575608096,34.27779575608096 0 0,0 0.5054145644060354,0.3045066199324769 l -6.949805530144842 11.313711293530952" fill="#ff940d" stroke="none" /><path d="M 110.99172775467656 82.1063720568725 l 7.2532105333038315 -11.807629662306098 a34.8574594093795,34.8574594093795 0 0,0 0.5085551409521486,0.3184571826092972 l -7.455384826628243 11.681028138373858" fill="#ff9c0e" stroke="none" /><path d="M 111.2981086023043 82.29822771554956 l 4.383516122835957 -6.868052604471617 a29.147721164654087,29.147721164654087 0 0,0 0.42060574457788635,0.2735736761834007 l -4.501088893198123 6.791580004128688" fill="#ff4c07" stroke="none" /><path d="M 112.19680574252982 82.90503203632743 l 12.23238701734182 -17.14483845975638 a42.06126249665898,42.06126249665898 0 0,0 0.5857625341533645,0.4255813923746094 l -12.525694867848973 16.931737832565094" fill="#fffa17" stroke="none" /><path d="M 114.16331599549186 84.49514656593476 l 16.569482643823303 -18.138930173734813 a45.56763201718043,45.56763201718043 0 0,0 0.5745690339184237,0.5339992982317372 l -16.879259561536575 17.851026289428432" fill="#d9ff1c" stroke="none" /><path d="M 114.68862486808459 84.99185889309783 l 11.52519592439295 -11.77589926023749 a37.47731605823308,37.47731605823308 0 0,0 0.45715936571112525,0.4551961781099937 l -11.726191090271397 11.575767231477377" fill="#ffbf11" stroke="none" /><path d="M 114.94478906791727 85.2469230424477 l 15.213597017331836 -15.018436632184871 a42.37772141928883,42.37772141928883 0 0,0 0.5079993763842476,0.5235380117698262 l -15.469860657419192 14.75433442486493" fill="#fffe18" stroke="none" /><path d="M 115.9244219780498 86.31012108654704 l 12.878361795892147 -11.071247284982658 a37.983071541718544,37.983071541718544 0 0,0 0.42195464084964074,0.49946120342109285 l -13.067027050228905 10.847927131932458" fill="#ffc512" stroke="none" /><path d="M 116.38621287248628 86.86637796730983 l 10.253560457012634 -8.218274019731373 a34.140606146940286,34.140606146940286 0 0,0 0.36359082146722965,0.46172342003736633 l -10.393505359073828 8.040558205740968" fill="#ff920d" stroke="none" /><path d="M 116.82858285166822 87.43820079747576 l 18.198112795740062 -13.584093254906051 a43.709004797314705,43.709004797314705 0 0,0 0.4448689759527341,0.6068007832457185 l -18.429244384206424 13.26883002798884" fill="#efff19" stroke="none" /><path d="M 117.04232023915458 87.72973835380427 l 29.33052385380863 -21.117617604636116 a57.141851126283974,57.141851126283974 0 0,0 0.567846819576226,0.8031790559269003 l -29.689683293188736 20.609612048377425" fill="#56ff2b" stroke="none" /><path d="M 117.45458315368197 88.32363383020206 l 10.727099707737842 -7.175968799980068 a33.90601396086478,33.90601396086478 0 0,0 0.3203365357827021,0.4878945210235302 l -10.84903287887847 6.990256214978864" fill="#ff8f0d" stroke="none" /><path d="M 117.65298651832404 88.62581576622439 l 16.471481269206794 -10.612915971168432 a40.5944808712278,40.5944808712278 0 0,0 0.3734158785258403,0.5906542438106817 l -16.65172474397859 10.327814079643543" fill="#ffe715" stroke="none" /><line stroke="#e1ed5e" stroke-width="0.3" x1="172.23445277983987" x2="176.4835382374775" y1="55.19839476539836" y2="52.563006222186495" /><path d="M 173.08426987136738 54.67131705675599 a86.0,86.0 0 0,1 12.851231095245387,41.99856678651699" fill="none" id="id99" stroke="none" /><text fill="#e1ed5e" style="font-size:6.75px; font-family:Arial;" text-anchor="middle"><textPath startOffset="22.20632615414155" xlink:href="#id99">March</textPath></text><path d="M 117.84615892207809 88.93136811851018 l 7.513977483577809 -4.6603558275295995 a29.841876161929854,29.841876161929854 0 0,0 0.2669912895393121,0.4388634793698719 l -7.593084571403345 4.530324574952647" fill="#ff5607" stroke="none" /><path d="M 118.21658344932153 89.55222093294921 l 12.516016497122688 -7.178326030525284 a35.42841063862421,35.42841063862421 0 0,0 0.29885105837076914,0.5316226861443841 l -12.63772519678589 6.961819834446106" fill="#ffa30f" stroke="none" /><path d="M 118.56541770881063 90.18545643968196 l 27.12892403227037 -14.341611421590473 a51.68648460343073,51.68648460343073 0 0,0 0.40903838924786057,0.7901319737224746 l -27.371771854678347 13.872506725607654" fill="#91ff24" stroke="none" /><path d="M 118.73160827565052 90.50648371742162 l 15.987644983457066 -8.10282628896484 a38.92374363759423,38.92374363759423 0 0,0 0.29774807970228573,0.6002419598457094 l -16.12475307611276 7.8264247406201815" fill="#ffd213" stroke="none" /><path d="M 119.04729006885535 91.15688171328212 l 31.063729370736723 -14.422011333842482 a55.24835314773328,55.24835314773328 0 0,0 0.3930464738981966,0.8660258049502447 l -31.307378161598265 13.885163520050174" fill="#6aff28" stroke="none" /><path d="M 119.196687751892 91.48605970444005 l 16.128164217324464 -7.15301665568599 a38.643223296708186,38.643223296708186 0 0,0 0.26444715187431983,0.610380486830906 l -16.248902079041464 6.874337024268481" fill="#ffce13" stroke="none" /><path d="M 119.47837535516314 92.15188598940014 l 21.831345222065202 -8.796158980585426 a44.536780727549015,44.536780727549015 0 0,0 0.2803833180803026,0.7135449616439103 l -21.979522090027206 8.419065014045731" fill="#e5ff1a" stroke="none" /><path d="M 119.7369772167798 92.82701384747503 l 24.764814538912642 -9.000247089835367 a47.34958228938039,47.34958228938039 0 0,0 0.2718022033298672,0.7684214300918654 l -24.916069823052318 8.572628033316887" fill="#c3ff1e" stroke="none" /><path d="M 119.85752413597 93.16781622104841 l 16.71954052725037 -5.752528502527923 a38.68147673738717,38.68147673738717 0 0,0 0.2112058477911017,0.6314786021076731 l -16.816083668813242 5.463876797497936" fill="#ffcf13" stroke="none" /><path d="M 119.97218684219823 93.5106431181261 l 9.124858614244545 -2.9648462891085563 a30.59444413439328,30.59444413439328 0 0,0 0.1584275250845352,0.5022585487432524 l -9.174541623097285 2.807337573938885" fill="#ff6008" stroke="none" /><path d="M 120.45610955862082 95.25157060432595 l 20.64560022436185 -4.79241542560961 a42.19452887506092,42.19452887506092 0 0,0 0.15814029810818547,0.7089119482226618 l -20.725034909472072 4.4363253078369835" fill="#fffc17" stroke="none" /><path d="M 120.6074358757038 95.95851677861258 l 30.076369780959546 -5.898508895679899 a51.64931363657972,51.64931363657972 0 0,0 0.16359127176617777,0.8739111151946942 l -30.173446776635583 5.379919703022642" fill="#92ff23" stroke="none" /><path d="M 120.67395015179393 96.31383870115 l 26.43000660651166 -4.712465047363919 a47.84683549401822,47.84683549401822 0 0,0 0.13758958703008956,0.8120615311515378 l -26.507208055061973 4.256817727896543" fill="#bdff1f" stroke="none" /><path d="M 120.87857604477298 97.74499172005257 l 9.466905611326396 -1.0224811545213748 a30.52196248496677,30.52196248496677 0 0,0 0.05192058237058092,0.5228331788935151 l -9.483103319379206 0.8593724449234247" fill="#ff5f08" stroke="none" /><path d="M 120.91429891909075 98.10471618934814 l 9.957169446780727 -0.902332998366714 a30.997971205791956,30.997971205791956 0 0,0 0.04358243335235459,0.531816077154341 l -9.971226363952574 0.7308030040046043" fill="#ff6609" stroke="none" /><path d="M 120.96714384426684 98.82574320788733 l 14.221045484109794 -0.7964441592375134 a35.243330297367365,35.243330297367365 0 0,0 0.02870886739157378,0.6059988159998326 l -14.232647959734864 0.551534236614681" fill="#ffa10e" stroke="none" /><line stroke="#e1ed5e" stroke-width="0.3" x1="184.98032266829074" x2="189.97916517819016" y1="98.17113171792111" y2="98.06355123074" /><path d="M 185.9800911702706 98.14961562048488 a86.0,86.0 0 0,1 -9.607161424134198,41.387399972396054" fill="none" id="id100" stroke="none" /><text fill="#e1ed5e" style="font-size:6.75px; font-family:Arial;" text-anchor="middle"><textPath startOffset="21.466115282336823" xlink:href="#id100">April</textPath></text><path d="M 120.99980553446 99.90962569577887 l 62.99941660337998 -0.27112291266339017 a84.0,84.0 0 0,0 -0.006222810841987947,1.4459620871852612 l -62.994749495248485 -0.8133486527255557" fill="#4dd2ff" stroke="none" /><path d="M 120.95626037817324 101.35467743843564 l 16.644330839582114 1.0759409865762475 a37.679070660683074,37.679070660683074 0 0,0 -0.0474100339611826,0.6468722459529826 l -16.623344246956595 -1.3622863690260005" fill="#ffc112" stroke="none" /><path d="M 120.76222939487914 103.15116336523771 l 12.607437418652328 1.9134792399983245 a33.75181873566039,33.75181873566039 0 0,0 -0.09212357319256428,0.5736535782089155 l -12.572632091098475 -2.1302120479004447" fill="#ff8c0c" stroke="none" /><path d="M 120.70491114924044 103.5080841355445 l 10.914979649748174 1.8493519084952617 a32.07054123500165,32.07054123500165 0 0,0 -0.09690428273660015,0.5434906799702011 l -10.881528924672384 -2.036961339198681" fill="#ff750a" stroke="none" /><path d="M 120.64145759157962 103.86396538481128 l 13.753560041740094 2.5745894970559795 a34.99245957293073,34.99245957293073 0 0,0 -0.11592513132548354,0.5910997471250979 l -13.707204977438947 -2.8109529712490224" fill="#ff9d0e" stroke="none" /><path d="M 120.23288151984713 105.62410040840565 l 8.476941516823382 2.3563213277372808 a29.798340052486804,29.798340052486804 0 0,0 -0.1416235117052399,0.49301002350518774 l -8.435125368232043 -2.5018888267470505" fill="#ff5507" stroke="none" /><path d="M 120.02730092923936 106.31721596034902 l 6.295755266632906 1.9858714758092628 a27.601531632565948,27.601531632565948 0 0,0 -0.1468240460560855,0.45187794940827875 l -6.260638969560573 -2.093948325195337" fill="#ff3505" stroke="none" /><path d="M 119.79798401119884 107.00284435728193 l 27.724720447156834 9.806650112999785 a50.40800078740129,50.40800078740129 0 0,0 -0.2963888165939756,0.8155347293350603 l -27.551807369557633 -10.282432639340977" fill="#a0ff22" stroke="none" /><path d="M 118.97047184881838 109.00673069616215 l 11.44737713797232 5.434943520687505 a33.672058018018795,33.672058018018795 0 0,0 -0.25309641434403163,0.5214535782303672 l -11.352127467013574 -5.631186054883148" fill="#ff8b0c" stroke="none" /><line stroke="#e1ed5e" stroke-width="0.3" x1="174.80103733775053" x2="179.2010983576182" y1="140.37084112569926" y2="142.7455964860345" /><path d="M 175.68104954172406 140.8457921977663 a86.0,86.0 0 0,1 -30.038265399797805,32.042727171017184" fill="none" id="id101" stroke="none" /><text fill="#e1ed5e" style="font-size:6.75px; font-family:Arial;" text-anchor="middle"><textPath startOffset="22.206326154141568" xlink:href="#id101">May</textPath></text><path d="M 117.94076556474637 110.91462005526583 l 12.411622281172109 7.550856231835524 a35.52803488033868,35.52803488033868 0 0,0 -0.322349853705453,0.5197306026010746 l -12.279807787798694 -7.763383165801872" fill="#ffa50f" stroke="none" /><path d="M 117.55443506779139 111.5257021239791 l 5.316603169595208 3.4907181124038966 a27.360140108772324,27.360140108772324 0 0,0 -0.261871580828134,0.39146248213539064 l -5.255728483356353 -3.581717508745094" fill="#ff3204" stroke="none" /><path d="M 116.93607887273984 112.41649034213515 l 12.012158525241494 8.806575089640493 a35.89455327443587,35.89455327443587 0 0,0 -0.36960917774331187,0.4951518942557532 l -11.85878808080309 -9.01203986340556" fill="#ffaa0f" stroke="none" /><path d="M 116.71984013943494 112.70617746262583 l 22.818240587020025 17.340633155920017 a49.6595474795978,49.6595474795978 0 0,0 -0.5230644458344136,0.6761313060378462 l -22.51636932396754 -17.730842456071112" fill="#a8ff21" stroke="none" /><path d="M 116.0416608686014 113.55231037782055 l 11.976169598262898 10.11770345119058 a36.677900413403265,36.677900413403265 0 0,0 -0.4115915221731195,0.478773926570795 l -11.800235566518998 -10.322354476922904" fill="#ffb410" stroke="none" /><path d="M 115.80600337817218 113.82643327865902 l 9.499373999108252 8.30965663142147 a33.6209547858734,33.6209547858734 0 0,0 -0.38478566424561994,0.432310772864774 l -9.354929485214294 -8.471941574027111" fill="#ff8b0c" stroke="none" /><path d="M 115.56566222782051 114.09645910891815 l 18.29668226091258 16.56970513331869 a45.684483181989464,45.684483181989464 0 0,0 -0.532884678775588,0.5783410728086391 l -18.00875117414127 -16.882197460928662" fill="#d7ff1c" stroke="none" /><path d="M 115.32070863581623 114.36230785411682 l 12.167107077390714 11.405982692665381 a37.677377965917586,37.677377965917586 0 0,0 -0.44763137922452356,0.46933971151024256 l -11.968969146787225 -11.61372952075813" fill="#ffc112" stroke="none" /><path d="M 115.07121518719521 114.62390073753431 l 6.128138790972994 5.94625531331828 a29.53885456560737,29.53885456560737 0 0,0 -0.35722233533605174,0.36186433971072096 l -6.024875830581407 -6.050860147009665" fill="#ff5107" stroke="none" /><path d="M 114.81725581225074 114.88116024355365 l 11.112262630680457 11.160188024754786 a36.74903735220339,36.74903735220339 0 0,0 -0.4521007404802601,0.44247572915234207 l -10.918511937824404 -11.3498138568297" fill="#ffb510" stroke="none" /><path d="M 114.55890576462653 115.13401014063108 l 31.789309179049116 33.04504715239685 a66.8534112077314,66.8534112077314 0 0,0 -0.8361902606193808,0.7906700837801188 l -31.21578308403893 -33.58735187292289" fill="#37ff78" stroke="none" /><path d="M 113.48314897796784 116.09983520530334 l 6.559840908697932 7.832914831366179 a31.21695000980543,31.21695000980543 0 0,0 -0.41493253540303776,0.3414612281735124 l -6.424038244750204 -7.944671178396869" fill="#ff6909" stroke="none" /><path d="M 112.92097659922987 116.55440617244103 l 9.264040832368854 11.869125646915371 a36.05651341333915,36.05651341333915 0 0,0 -0.49255132614171426,0.3776673534194423 l -9.058360777733645 -12.026832342162185" fill="#ffac0f" stroke="none" /><path d="M 112.34349029814194 116.9893568818739 l 10.633375935804747 14.635586391614895 a39.09057967060687,39.09057967060687 0 0,0 -0.5477756826478835,0.3908234052228391 l -10.37987292530798 -14.816454058681954" fill="#ffd413" stroke="none" /><path d="M 112.04921762599082 117.19931262002967 l 10.973112535512719 15.663257048818572 a40.124508362161656,40.124508362161656 0 0,0 -0.5690861225505428,0.39142262429457697 l -10.701869528339293 -15.849820462478243" fill="#ffe115" stroke="none" /><path d="M 111.45004920935366 117.60387380957326 l 4.1118298197847025 6.321731195251012 a28.541314856964963,28.541314856964963 0 0,0 -0.414145620496454,0.2643273296226829 l -4.002402397241318 -6.391572953697503" fill="#ff4306" stroke="none" /><line stroke="#e1ed5e" stroke-width="0.3" x1="143.8653032363475" x2="146.44561519142675" y1="172.8068346515853" y2="177.08958963109032" /><path d="M 144.38136562736335 173.6633856474863 a86.0,86.0 0 0,1 -40.68145358897372,12.25698825130547" fill="none" id="id102" stroke="none" /><text fill="#e1ed5e" style="font-size:6.75px; font-family:Arial;" text-anchor="middle"><textPath startOffset="21.466115282336833" xlink:href="#id102">June</textPath></text><path d="M 110.21172684928248 118.3499491758327 l 6.774756938954665 12.173890600802046 a34.932011482273865,34.932011482273865 0 0,0 -0.5279344561912456,0.2878719590401204 l -6.564199670894771 -12.288703211601938" fill="#ff9d0e" stroke="none" /><path d="M 109.2508944713604 118.85261126421891 l 6.6341093103553606 13.519804414553303 a36.05976486368624,36.05976486368624 0 0,0 -0.5595914554269362,0.2686379049216732 l -6.400405186928192 -13.631996595974535" fill="#ffac0f" stroke="none" /><path d="M 108.92500713936063 119.00905698771935 l 4.794655646257346 10.211967452019929 a32.28153367265736,32.28153367265736 0 0,0 -0.5050246170085553,0.23183203177536593 l -4.6181630334813715 -10.292986554129369" fill="#ff780b" stroke="none" /><path d="M 108.59647513512805 119.15986991738527 l 5.81486959905693 12.960212570059335 a35.20492232696682,35.20492232696682 0 0,0 -0.5550296158446837,0.24330867276944576 l -5.5909193085544935 -13.058385796123236" fill="#ffa00e" stroke="none" /><path d="M 107.2578585660854 119.70592522655815 l 7.445887356008284 20.216445132798064 a42.54404540298313,42.54404540298313 0 0,0 -0.6893764982055053,0.2471858854155025 l -7.096791297173044 -20.341618559253526" fill="#feff18" stroke="none" /><path d="M 106.91757812671514 119.82793768551818 l 7.125233778286666 20.423143586193873 a42.630389509611916,42.630389509611916 0 0,0 -0.6949367917054993,0.23576029071504367 l -6.77262725364394 -20.542766863807042" fill="#fdff18" stroke="none" /><path d="M 106.57524785965236 119.94407469862006 l 5.125882727263189 15.547853129039055 a37.371023506666425,37.371023506666425 0 0,0 -0.612668843116665,0.19615721612157286 l -4.857492539055584 -15.633783191820335" fill="#ffbd11" stroke="none" /><path d="M 104.48393922423573 120.51570834832081 l 3.5071504885483296 16.04653251494333 a37.42532527234874,37.42532527234874 0 0,0 -0.6305428400066606,0.13213638277659479 l -3.230416187112291 -16.104524878446465" fill="#ffbe11" stroke="none" /><path d="M 102.70371172650421 120.8252237178851 l 2.136181740853236 16.45384832237611 a37.591937712205706,37.591937712205706 0 0,0 -0.6424150266319648,0.07778751321302096 l -1.8526392911698912 -16.48818136431448" fill="#ffc011" stroke="none" /><path d="M 102.34483914955558 120.86867818915974 l 1.9035369397419737 16.9411619659208 a38.04776881696029,38.04776881696029 0 0,0 -0.6514636875459398,0.06752687488844819 l -1.6116406555904312 -16.971418209265007" fill="#ffc612" stroke="none" /><path d="M 101.62511606390274 120.93702456842531 l 1.2267140140609092 15.804250552508313 a36.851787369213376,36.851787369213376 0 0,0 -0.6328631836759523,0.043645950447913764 l -0.9544880696060266 -15.823024847472512" fill="#ffb610" stroke="none" /><path d="M 100.90346689309514 120.98055641714683 l 0.6495270696318237 15.083496067231602 a36.09747459094983,36.09747459094983 0 0,0 -0.6210134726500728,0.021388959649721262 l -0.38979324530709863 -15.092441825307418" fill="#ffac0f" stroke="none" /><line stroke="#e1ed5e" stroke-width="0.3" x1="102.19456741930631" x2="102.32365962044197" y1="184.97166512339345" y2="189.96999836594603" /><path d="M 102.22038585953345 185.97133177190398 a86.0,86.0 0 0,1 -42.740103519485714,-10.115201625700543" fill="none" id="id103" stroke="none" /><text fill="#e1ed5e" style="font-size:6.75px; font-family:Arial;" text-anchor="middle"><textPath startOffset="22.20632615414155" xlink:href="#id103">July</textPath></text><path d="M 99.45781275523022 120.99299961872073 l -0.4005751602240004 15.50990781685048 a36.51507979180862,36.51507979180862 0 0,0 -0.628197865988427,-0.021636404682702094 l 0.6674933778870704 -15.500714613741685" fill="#ffb210" stroke="none" /><path d="M 98.73552117531835 120.96189622390904 l -1.03083529707597 17.08867092075593 a38.11973408810975,38.11973408810975 0 0,0 -0.65463788863701,-0.04514766158906126 l 1.32483594649191 -17.068394914650582" fill="#ffc712" stroke="none" /><path d="M 97.2962882734958 120.8252237178851 l -0.9115154068337631 7.020908362207643 a28.079831535242384,28.079831535242384 0 0,0 -0.4787897541457471,-0.06635589718242182 l 1.0322337521663412 -7.004177899532617" fill="#ff3c05" stroke="none" /><path d="M 96.93821686468263 120.77559828337769 l -1.746346728243056 11.849760902712665 a32.97775272522784,32.97775272522784 0 0,0 -0.5608795510589463,-0.08759785080484783 l 1.9500621429105194 -11.81794474456071" fill="#ff820b" stroke="none" /><path d="M 96.58105272829116 120.7198165907248 l -1.1880318880322316 7.199819379389539 a28.29717882902801,28.29717882902801 0 0,0 -0.47990806401893615,-0.08343816842565258 l 1.3117889235232176 -7.178302632442881" fill="#ff3f05" stroke="none" /><path d="M 96.22490169976321 120.6578951692458 l -1.4696963999826955 8.042395653526711 a29.17558165245675,29.17558165245675 0 0,0 -0.4932512547776194,-0.09453277692600891 l 1.60791526933201 -8.015905678252233" fill="#ff4c07" stroke="none" /><path d="M 94.81253420990036 120.34920634021253 l -2.4092034034770955 9.450737442252327 a30.75298411983305,30.75298411983305 0 0,0 -0.5118315172356263,-0.13517935566619857 l 2.5715253635242115 -9.407866737282548" fill="#ff6309" stroke="none" /><path d="M 93.76903079525671 120.05430185196036 l -2.107263789789355 6.7822039771873195 a28.10203150288232,28.10203150288232 0 0,0 -0.4607109336202069,-0.14750509217342694 l 2.223696068500502 -6.744926038354186" fill="#ff3c05" stroke="none" /><path d="M 92.40401165467489 119.57807347666478 l -3.74116505471886 9.642564074587389 a31.3428892433001,31.3428892433001 0 0,0 -0.5013055196561361,-0.19947981203801002 l 3.9065916504168543 -9.576737418143312" fill="#ff6b09" stroke="none" /><path d="M 91.7346041902142 119.30500536409082 l -6.315165702269845 14.749966070965602 a37.045024678752036,37.045024678752036 0 0,0 -0.5840400846632606,-0.2560260097604152 l 6.5681264615908495 -14.639075507910736" fill="#ffb911" stroke="none" /><path d="M 90.10565033884886 118.52300852407294 l -3.495221407443007 6.543332117904629 a28.418339968769978,28.418339968769978 0 0,0 -0.42949203955472576,-0.23419330443165376 l 3.6073362588663733 -6.482198161713209" fill="#ff4106" stroke="none" /><line stroke="#e1ed5e" stroke-width="0.3" x1="58.666819895761336" x2="56.23545636021788" y1="174.27360380694188" y2="178.64263932499728" /><path d="M 58.180547188652646 175.14741091055294 a86.0,86.0 0 0,1 -31.652253787137756,-30.449443065178592" fill="none" id="id104" stroke="none" /><text fill="#e1ed5e" style="font-size:6.75px; font-family:Arial;" text-anchor="middle"><textPath startOffset="22.20632615414155" xlink:href="#id104">August</textPath></text><path d="M 89.7882731507175 118.34994917583269 l -8.326370810888529 14.96206111404916 a38.12284216072082,38.12284216072082 0 0,0 -0.5706648781757514,-0.3240384112666455 l 8.582684455985486 -14.816519536987881" fill="#ffc712" stroke="none" /><path d="M 89.4739219176387 118.17145234162733 l -4.1486282703906365 7.161888816391907 a29.276700305329648,29.276700305329648 0 0,0 -0.43389760787103626,-0.25635435479390645 l 4.271293749290055 -7.089415889304251" fill="#ff4d07" stroke="none" /><path d="M 89.1626897886671 117.98757091392108 l -4.45387428841585 7.392459756369421 a29.63049578104023,29.63049578104023 0 0,0 -0.434609953184684,-0.2669729302555188 l 4.580463441532843 -7.314698359285524" fill="#ff5307" stroke="none" /><path d="M 88.8546689885994 117.79835938074946 l -4.500005307893614 7.186212020373692 a29.47889680163841,29.47889680163841 0 0,0 -0.4277503005257127,-0.2730104801005132 l 4.62303741046625 -7.107687111449375" fill="#ff5007" stroke="none" /><path d="M 87.95078237400918 117.19931262002967 l -5.144210263784646 7.342956468737689 a29.965595849680263,29.965595849680263 0 0,0 -0.41990742682312926,-0.299592799804639 l 5.269845018456662 -7.2533194070888305" fill="#ff5708" stroke="none" /><path d="M 87.65650970185807 116.9893568818739 l -4.490846926782427 6.1811205176268675 a28.640285136905494,28.640285136905494 0 0,0 -0.3963474910610735,-0.29320839855671477 l 4.596579388262065 -6.102902170330386" fill="#ff4406" stroke="none" /><path d="M 87.36589467227662 116.77436683061367 l -10.025817621028333 13.311329784699891 a37.66458879202126,37.66458879202126 0 0,0 -0.5145184989303385,-0.3945108447854562 l 10.253464848452158 -13.136779598087069" fill="#ffc112" stroke="none" /><path d="M 85.97065885151581 115.62618273729859 l -8.139997270683839 9.06650451269128 a33.18445976009571,33.18445976009571 0 0,0 -0.42175939336517043,-0.3852672060203825 l 8.294856213515864 -8.925044540084322" fill="#ff850c" stroke="none" /><path d="M 85.44109423537348 115.13401014063109 l -8.425934102640793 8.75877447215047 a33.15370296477744,33.15370296477744 0 0,0 -0.40786955904138206,-0.3991862086847463 l 8.57545361405797 -8.612438160543155" fill="#ff840c" stroke="none" /><path d="M 83.50135304334701 112.99209946851258 l -6.67009557434951 5.2524637562166765 a29.489908743992878,29.489908743992878 0 0,0 -0.310617465477738,-0.40151494578569397 l 6.7595198570453165 -5.13687081631773" fill="#ff5007" stroke="none" /><path d="M 82.24976979558568 111.22182372390057 l -8.107796461951878 5.125807476156659 a30.592198170964927,30.592198170964927 0 0,0 -0.277566452469243,-0.4475255004629181 l 8.194827554089077 -4.9854856443284765" fill="#ff6008" stroke="none" /><path d="M 82.05923443525364 110.91462005526583 l -8.559150330706725 5.207128621040397 a31.018644761627947,31.018644761627947 0 0,0 -0.27358315332268357,-0.45854110144239657 l 8.64751435972764 -5.059025425711889" fill="#ff6609" stroke="none" /><line stroke="#e1ed5e" stroke-width="0.3" x1="26.63291911575756" x2="22.317208475507996" y1="142.92168965132927" y2="145.44649492493687" /><path d="M 25.769776987707644 143.4266507060508 a86.0,86.0 0 0,1 -11.730757126820373,-40.83630448921669" fill="none" id="id105" stroke="none" /><text fill="#e1ed5e" style="font-size:6.75px; font-family:Arial;" text-anchor="middle"><textPath startOffset="21.46611528233685" xlink:href="#id105">September</textPath></text><path d="M 81.02952815118164 109.00673069616217 l -9.51648202353847 4.518200255847524 a31.534588917289156,31.534588917289156 0 0,0 -0.22858880384442365,-0.4923599472662196 l 9.592845444222721 -4.353720241302477" fill="#ff6e0a" stroke="none" /><path d="M 80.0844068197444 106.66101706037122 l -11.263768451531625 3.767307011176877 a32.87708221097175,32.87708221097175 0 0,0 -0.17488689747339844,-0.5382465252215372 l 11.326947600021274 -3.5728615859775363" fill="#ff800b" stroke="none" /><path d="M 79.86692584326677 105.97154293290107 l -13.516980606130435 4.009185551313552 a35.09901888399926,35.09901888399926 0 0,0 -0.16681621536651448,-0.5807091299223124 l 13.583989458383055 -3.775918945886643" fill="#ff9f0e" stroke="none" /><path d="M 79.58551787078972 104.9243191809786 l -7.496657038634108 1.808320770270367 a28.71167237135328,28.71167237135328 0 0,0 -0.11175599289627297,-0.4814418924710703 l 7.526673597460936 -1.6790102204507225" fill="#ff4506" stroke="none" /><path d="M 79.50377843672027 104.57218783832718 l -10.686989507326595 2.383996645570509 a31.94966596457628,31.94966596457628 0 0,0 -0.11511915179250867,-0.5377983520355931 l 10.726442697843545 -2.199684474118752" fill="#ff730a" stroke="none" /><path d="M 79.4281124754447 104.21870165774334 l -7.204942065353118 1.4775261141579181 a28.354880936025644,28.354880936025644 0 0,0 -0.09393576034220484,-0.4789764182227446 l 7.22930775867099 -1.3532859688672185" fill="#ff4006" stroke="none" /><path d="M 79.35854240842038 103.8639653848113 l -22.141128548415058 4.144695398188975 a43.525720262429104,43.525720262429104 0 0,0 -0.13151722859049464,-0.7376184620109497 l 22.20919221934474 -3.7629581854448113" fill="#f2ff19" stroke="none" /><path d="M 79.18660465613746 102.79330883721812 l -35.20639228522246 4.724953573030507 a56.52203884925899,56.52203884925899 0 0,0 -0.12111459250036533,-0.9654024679384071 l 35.28250838696967 -4.118233350804691" fill="#5cff2a" stroke="none" /><path d="M 79.1416061653843 102.43462659150553 l -17.243400934354316 2.0126785780168786 a38.36046516776838,38.36046516776838 0 0,0 -0.07090785576961116,-0.6565186797860313 l 17.27549109162498 -1.7155635763460655" fill="#ffca12" stroke="none" /><line stroke="#e1ed5e" stroke-width="0.3" x1="15.007084014347285" x2="10.007500721073583" y1="101.09737516637583" y2="101.16192664675087" /><path d="M 14.007167355692545 101.11028546245083 a86.0,86.0 0 0,1 10.666146001902534,-42.60595125391555" fill="none" id="id106" stroke="none" /><text fill="#e1ed5e" style="font-size:6.75px; font-family:Arial;" text-anchor="middle"><textPath startOffset="22.20632615414155" xlink:href="#id106">October</textPath></text><path d="M 79.12142395522702 97.74499172005258 l -16.679219529029567 -1.8014532246052604 a37.77622120198711,37.77622120198711 0 0,0 0.07538990930636286,-0.6458947030951709 l 16.645739266719616 2.088291666025293" fill="#ffc312" stroke="none" /><path d="M 79.26566170972629 96.67025291283419 l -12.427263535786807 -1.995706059215732 a33.58648964813807,33.58648964813807 0 0,0 0.09658217085339799,-0.5700334395799873 l 12.391069503413185 2.209325287111547" fill="#ff8a0c" stroke="none" /><path d="M 79.3925641242962 95.95851677861259 l -7.903271387858622 -1.549971520025945 a29.053825820256872,29.053825820256872 0 0,0 0.10047187083000783,-0.48993652402577426 l 7.875420221113619 1.6857837002151217" fill="#ff4a06" stroke="none" /><path d="M 79.46518482838121 95.60439243477599 l -14.42762447517092 -3.088324621442063 a35.75446023966842,35.75446023966842 0 0,0 0.13400365288449415,-0.6007121004053817 l 14.37232643528439 3.3362148913974043" fill="#ffa80f" stroke="none" /><path d="M 79.62865764111835 94.90015583598534 l -9.955199321783097 -2.492224825855086 a31.262415803261874,31.262415803261874 0 0,0 0.13517819188246905,-0.5208967159780484 l 9.91082479803032 2.663217967381998" fill="#ff6a09" stroke="none" /><path d="M 79.71946130924805 94.55025226153421 l -14.24228928740556 -3.8271608569257447 a35.74754096013745,35.74754096013745 0 0,0 0.16480166117439063,-0.5928792593802017 l 14.174300855664809 4.071751419724889" fill="#ffa80f" stroke="none" /><path d="M 80.38941819471856 92.48833698450439 l -2.826216948975262 -1.0825578527031197 a24.026455641030317,24.026455641030317 0 0,0 0.1512596385345541,-0.3849392813929738 l 2.8071637605590167 1.131046138991857" fill="#ff0000" stroke="none" /><path d="M 80.52162464483688 92.15188598940014 l -26.163619481862398 -10.54169379527741 a49.207486461311646,49.207486461311646 0 0,0 0.3233126654524736,-0.7829272643237439 l 25.978285129523723 10.990495630054467" fill="#aeff20" stroke="none" /><path d="M 80.803312248108 91.48605970444005 l -6.7850340312643 -3.0092365616476284 a28.422411433582184,28.422411433582184 0 0,0 0.2022020197376915,-0.44552534759860657 l 6.732229694563257 3.125583918088306" fill="#ff4106" stroke="none" /><path d="M 80.95270993114464 91.15688171328213 l -18.350005557784048 -8.519388801389022 a41.23123054883064,41.23123054883064 0 0,0 0.3044078311627549,-0.6411605261044965 l 18.20063953277954 8.833991743134051" fill="#ffef16" stroke="none" /><path d="M 81.43458229118936 90.18545643968196 l -6.545337070163384 -3.4601696982878396 a28.40366204678498,28.40366204678498 0 0,0 0.23222279647469832,-0.430273573337143 l 6.484806174470215 3.572324254957455" fill="#ff4106" stroke="none" /><path d="M 81.6062741919709 89.86733742301443 l -6.590679822086442 -3.630647509217428 a28.524537318230543,28.524537318230543 0 0,0 0.24061446769492584,-0.4280262895454791 l 6.527207713099085 3.7435573086976914" fill="#ff4306" stroke="none" /><line stroke="#e1ed5e" stroke-width="0.3" x1="26.266209847984243" x2="21.928928074336255" y1="57.711370442889674" y2="55.22380399835377" /><path d="M 25.398753493254645 57.213857153982495 a86.0,86.0 0 0,1 29.58750427330803,-30.492523968695096" fill="none" id="id107" stroke="none" /><text fill="#e1ed5e" style="font-size:6.75px; font-family:Arial;" text-anchor="middle"><textPath startOffset="21.46611528233685" xlink:href="#id107">November</textPath></text><path d="M 81.78341655067845 89.55222093294921 l -20.740685205836275 -11.895430190445328 a44.90977378026304,44.90977378026304 0 0,0 0.3903735583482514,-0.6672749526653073 l 20.5328519730177 12.250684555464527" fill="#e1ff1b" stroke="none" /><path d="M 82.15384107792192 88.93136811851018 l -9.679042739423755 -6.003183178837972 a32.38955998405008,32.38955998405008 0 0,0 0.2979413885073587,-0.47127172583942945 l 9.574273754670433 6.168902552391616" fill="#ff7a0b" stroke="none" /><path d="M 82.95767976084542 87.72973835380427 l -9.58953528525467 -6.904347844911643 a32.816480277590294,32.816480277590294 0 0,0 0.3340051790966678,-0.4555826889252889 l 9.469267493644367 7.0683929775084335" fill="#ff7f0b" stroke="none" /><path d="M 83.17141714833178 87.43820079747576 l -8.466533523133274 -6.319896036195186 a31.56519170704702,31.56519170704702 0 0,0 0.3287650894176008,-0.4326163202629571 l 8.356492493491563 6.46469713233917" fill="#ff6e0a" stroke="none" /><path d="M 83.6137871275137 86.86637796730984 l -17.844383071362035 -14.302351891162992 a43.868740166790246,43.868740166790246 0 0,0 0.4773368228009761,-0.5851585038127489 l 17.595547756484667 14.607394564583823" fill="#eeff19" stroke="none" /><path d="M 84.5562425177563 85.77008943001954 l -20.240284105856297 -18.64944027180413 a48.52218601669149,48.52218601669149 0 0,0 0.5712509520359207,-0.6093706863111319 l 19.91626583184992 18.995080374993314" fill="#b6ff1f" stroke="none" /><path d="M 85.05521093208273 85.24692304244772 l -15.982802603073152 -15.77777483033864 a43.4585876146669,43.4585876146669 0 0,0 0.5301206820080885,-0.5278441753277479 l 15.70884612089775 16.050554856316495" fill="#f3ff19" stroke="none" /><path d="M 85.57189188830299 84.74124197986013 l -26.466276607658653 -27.989983671036697 a59.52146133492343,59.52146133492343 0 0,0 0.7505149384046201,-0.6975218411742784 l 25.98055378545918 28.441410098285623" fill="#3dff2e" stroke="none" /><path d="M 85.83668400450813 84.49514656593479 l -5.507672386337084 -6.029354505695262 a29.166245824769653,29.166245824769653 0 0,0 0.37359045999704343,-0.3354132036743217 l 5.403070938744069 6.123266718138863" fill="#ff4c07" stroke="none" /><path d="M 86.10567301691215 84.25364557470407 l -11.782649788811467 -13.353203783788533 a38.80839373265212,38.80839373265212 0 0,0 0.5047053806164278,-0.43767553262115677 l 11.551050609548266 13.55404430982937" fill="#ffd013" stroke="none" /><path d="M 86.37877921826538 84.01681056812374 l -4.93317401561525 -5.788604124067888 a28.60553374678709,28.60553374678709 0 0,0 0.3775146704373267,-0.3161576797505488 l 4.832801808218813 5.8726629612122485" fill="#ff4406" stroke="none" /><path d="M 86.65592168130627 83.78471172551755 l -4.825331756696006 -5.863585598506885 a28.59377788937735,28.59377788937735 0 0,0 0.38274351366216686,-0.309485303354242 l 4.7236848444693385 5.945776999125262" fill="#ff4406" stroke="none" /><path d="M 88.39885842347998 82.49532879139004 l -18.054642675069395 -27.24219696238119 a53.681912695887426,53.681912695887426 0 0,0 0.7746376031344286,-0.5038458450253965 l 17.58303804615068 27.54894173156612" fill="#7bff26" stroke="none" /><path d="M 88.70189139769569 82.29822771554957 l -4.764935766964271 -7.465657382655311 a29.856672796174145,29.856672796174145 0 0,0 0.43559584374459287,-0.2727700773912258 l 4.635720770847437 7.546571801369467" fill="#ff5607" stroke="none" /><path d="M 89.00827224532344 82.1063720568725 l -3.8834032814474173 -6.321860859570142 a28.41934941717409,28.41934941717409 0 0,0 0.4190337444272591,-0.252463142416859 l 3.774007470802509 6.38777061144562" fill="#ff4106" stroke="none" /><line stroke="#e1ed5e" stroke-width="0.3" x1="56.762969772571076" x2="54.21961505331055" y1="26.818313649435495" y2="22.513508569990535" /><path d="M 56.25429882871897 25.957352633546506 a86.0,86.0 0 0,1 42.265352541879196,-11.944610805530505" fill="none" id="id108" stroke="none" /><text fill="#e1ed5e" style="font-size:6.75px; font-family:Arial;" text-anchor="middle"><textPath startOffset="22.20632615414155" xlink:href="#id108">December</textPath></text><path d="M 89.3179101791058 81.91981866633112 l -1.743535986367054 -2.9510561438674285 a24.427630391395,24.427630391395 0 0,0 0.3638591716456098,-0.2107707177015861 l 1.6924800822561241 2.980631018959062" fill="#ff0601" stroke="none" /><path d="M 90.26544431104013 81.39251694778311 l -7.059638700263702 -13.494412243068405 a36.22949967543699,36.22949967543699 0 0,0 0.5550695981180067,-0.28432820717619917 l 6.826308614556932 13.613932975557109" fill="#ffae10" stroke="none" /><path d="M 90.58718382345135 81.22770947309562 l -4.219777140589729 -8.415641074485073 a30.414325988131274,30.414325988131274 0 0,0 0.47001536560286267,-0.23063449864700256 l 4.074290507976441 8.487030733266906" fill="#ff5e08" stroke="none" /><path d="M 91.56875222667455 80.76684994638697 l -15.151040966624599 -34.562173027515506 a58.737220972883755,58.737220972883755 0 0,0 0.9294920262642392,-0.39795997743695416 l 14.553865182570052 34.817852532915246" fill="#45ff2d" stroke="none" /><path d="M 93.25333710446033 80.11325718540243 l -7.442138604648593 -21.936755802499018 a44.16477243897024,44.16477243897024 0 0,0 0.7220250014311185,-0.23804029101454635 l 7.063430780975065 22.061609817772798" fill="#eaff1a" stroke="none" /><path d="M 93.59665428221793 80.00007090966166 l -13.166445583869455 -41.12349850452808 a64.17982652309894,64.17982652309894 0 0,0 1.0550388044124612,-0.3278056921966915 l 12.456621406746265 41.34404433160729" fill="#34ff58" stroke="none" /><path d="M 95.692805502759 79.44645832069477 l -5.022963383028483 -23.96912591544928 a45.48977660775833,45.48977660775833 0 0,0 0.7677668978869358,-0.15400681694014579 l 4.609630075674411 24.052036688466636" fill="#daff1c" stroke="none" /><path d="M 97.47563105711357 79.15227682838746 l -2.043818033154751 -16.879051173732048 a38.00233985891688,38.00233985891688 0 0,0 0.6500812296125119,-0.07304420068054528 l 1.7529701000325206 16.911731327883192" fill="#ffc612" stroke="none" /><path d="M 98.19473922651362 79.07773832637324 l -3.4178854238229985 -39.611946516511935 a60.759127852574736,60.759127852574736 0 0,0 1.0427707506598185,-0.08093907958730868 l 2.735524483800846 39.66491085828771" fill="#31ff2f" stroke="none" /><path d="M 98.55514903715128 79.0497635885617 l -1.9767829552127072 -28.663212546264663 a49.73129694817767,49.73129694817767 0 0,0 0.8545209190156543,-0.05154703543042729 l 1.4830999873574298 28.6929928510754" fill="#a7ff21" stroke="none" /></svg>