<?xml version="1.0" encoding="utf-8" ?>
<svg baseProfile="full" height="200mm" version="1.1" viewBox="0,0,200,200" width="200mm" xmlns="http://www.w3.org/2000/svg" xmlns:ev="http://www.w3.org/2001/xml-events" xmlns:xlink="http://www.w3.org/1999/xlink"><defs /><rect fill="#1a1a1a" height="200" width="200" x="0" y="0" /><text alignment-baseline="middle" fill="#e1ed5e" style="dominant-baseline: central; font-size:9.0px; font-family:Arial;" text-anchor="middle" x="100.0" y="100.0">2019</text><line stroke="#e1ed5e" stroke-width="0.3" x1="100.0" x2="100.0" y1="15.0" y2="10.0" /><path d="M 100.0 14.0 a86.0,86.0 0 0,1 42.46469731375804,11.215312516191453" fill="none" id="id49" stroke="none" /><text fill="#e1ed5e" style="font-size:6.75px; font-family:Arial;" text-anchor="middle"><textPath startOffset="22.20632615414155" xlink:href="#id49">January</textPath></text><path d="M 100.0 79.0 l 0.0 -26.054106169538088 a47.05410616953809,47.05410616953809 0 0,0 0.8099590880907173,0.00697157358440697 l -0.44847860881818885 26.05024597256224" fill="#c6ff1e" stroke="none" /><path d="M 101.80526077348638 79.07773832637324 l 5.402103314450245 -62.608250726358264 a83.84087665870467,83.84087665870467 0 0,0 1.4367726110568502,0.13643887177053984 l -6.479001052597339 62.505986310072544" fill="#4dd3ff" stroke="none" /><path d="M 103.2404852339499 79.25152402106235 l 2.794902951102553 -17.895460882482684 a39.11239914264672,39.11239914264672 0 0,0 0.6642976405724278,0.10961480261627524 l -3.1025297978138564 17.844699816926784" fill="#ffd513" stroke="none" /><path d="M 103.95276090670814 79.375362276772 l 2.1166036084079503 -11.043972468207413 a32.24496948478069,32.24496948478069 0 0,0 0.5442238243387523,0.10916617937043072 l -2.306393842213828 11.005902332759774" fill="#ff790b" stroke="none" /><path d="M 105.01212808612495 79.60689891045804 l 3.4984800923697152 -14.234444323350253 a35.65806154139303,35.65806154139303 0 0,0 0.5947953335558254,0.1516265741939295 l -3.7429843146105655 14.172114752987456" fill="#ffa80f" stroke="none" /><path d="M 106.40334571778207 80.00007090966166 l 3.4773399426152216 -10.860971020536201 a32.40406000446483,32.40406000446483 0 0,0 0.5297557346962011,0.17465213670407675 l -3.6637784995538403 10.799505159572888" fill="#ff7b0b" stroke="none" /><path d="M 107.08798089147638 80.2323363322302 l 2.414050259404261 -6.732542643051068 a28.152256224117732,28.152256224117732 0 0,0 0.45474966098093933,0.16748813792953932 l -2.529582246157777 6.689991237315204" fill="#ff3f05" stroke="none" /><path d="M 108.09893153111575 80.62456947434976 l 1.3631033227873794 -3.2610121012236037 a24.534437804364476,24.534437804364476 0 0,0 0.38824724647017295,0.16622720914154893 l -1.4190343270478676 3.237065364119264" fill="#ff0901" stroke="none" /><path d="M 108.76106565485865 80.91482961587045 l 5.240588948405828 -11.416137823147638 a33.56152758717089,33.56152758717089 0 0,0 0.5229553851710451,0.24553456540395338 l -5.436322544876472 11.324238275103681" fill="#ff8b0c" stroke="none" /><path d="M 109.08828744355905 81.06846463323043 l 10.53366335653635 -21.942354003915447 a45.339781489199545,45.339781489199545 0 0,0 0.7006696114625621,0.34381553536996623 l -10.909804235009343 21.757783308410648" fill="#dbff1b" stroke="none" /><path d="M 110.05341064243156 81.56283822128135 l 2.5567588694912176 -4.688894006480379 a26.340668770924633,26.340668770924633 0 0,0 0.39620870202226743,0.22048971370933196 l -2.6370916605855204 4.644188895210868" fill="#ff2403" stroke="none" /><path d="M 110.36928655335952 81.73862282372117 l 4.362507803570006 -7.682823695294735 a29.835001656433995,29.835001656433995 0 0,0 0.4444040954778522,0.25742753640032506 l -4.494108631513186 7.60659200150436" fill="#ff5708" stroke="none" /><line stroke="#e1ed5e" stroke-width="0.3" x1="143.23703022742887" x2="145.7803849466894" y1="26.81831364943548" y2="22.513508569990506" /><path d="M 143.74570117128098 25.957352633546492 a86.0,86.0 0 0,1 28.547481713284135,27.462654790039103" fill="none" id="id50" stroke="none" /><text fill="#e1ed5e" style="font-size:6.75px; font-family:Arial;" text-anchor="middle"><textPath startOffset="19.985693538727396" xlink:href="#id50">February</textPath></text><path d="M 111.2981086023043 82.29822771554956 l 25.44376886819151 -39.86506223449247 a68.2927960811994,68.2927960811994 0 0,0 0.9854747197139767,0.6409801704646844 l -26.126210613689764 39.421183139868255" fill="#39ff89" stroke="none" /><path d="M 112.48926042617603 83.11751280151076 l 5.2680206932704285 -7.121101560914871 a29.85788515762028,29.85788515762028 0 0,0 0.41055138951920694,0.30921879496295235 l -5.3898182365480185 7.029366176446072" fill="#ff5708" stroke="none" /><path d="M 113.6212207817346 84.01681056812373 l 5.646865721918204 -6.626052537876403 a29.705840839119052,29.705840839119052 0 0,0 0.3863261595036011,0.33501823860033136 l -5.76008568006857 6.5278693058564" fill="#ff5507" stroke="none" /><path d="M 113.89432698308785 84.25364557470407 l 9.58549349851241 -10.863180213958266 a35.4875936570211,35.4875936570211 0 0,0 0.4545606081141388,0.4081090021220471 l -9.771065094222537 10.696572203066923" fill="#ffa50f" stroke="none" /><path d="M 115.19652480421416 85.50635884689758 l 45.430513422434686 -43.32921950440766 a83.78019443014779,83.78019443014779 0 0,0 0.9863429445143211,1.0521618824348962 l -46.169623688919465 42.54078820509471" fill="#4dd4ff" stroke="none" /><path d="M 115.9244219780498 86.31012108654704 l 24.71832580490342 -21.249806597617475 a53.596777617327476,53.596777617327476 0 0,0 0.5954075890197016,0.7047747841782857 l -25.08044400741024 20.821172863810084" fill="#7bff26" stroke="none" /><path d="M 116.15771136456269 86.58626213691792 l 7.190281256133151 -5.969196116668774 a30.345129577568912,30.345129577568912 0 0,0 0.3301860888862506,0.40476910333192834 l -7.291965837095811 5.844542843728745" fill="#ff5e08" stroke="none" /><path d="M 116.60985879189232 87.15038557335679 l 4.175594241279151 -3.2302969383905356 a26.27924289817952,26.27924289817952 0 0,0 0.2737096521203075,0.36016981830553785 l -4.230579833623572 3.1579423442039642" fill="#ff2303" stroke="none" /><path d="M 117.04232023915458 87.72973835380427 l 2.364000755494836 -1.7020515630895678 a23.912984568341514,23.912984568341514 0 0,0 0.23763514772558889,0.33611806393091376 l -2.392948523024308 1.661106998826861" fill="#ff0000" stroke="none" /><path d="M 117.65298651832404 88.62581576622439 l 12.158958436469511 -7.8342683377494815 a35.4643019412503,35.4643019412503 0 0,0 0.32622497397383526,0.5160095657296511 l -12.292011006689302 7.6238111243056235" fill="#ffa50f" stroke="none" /><line stroke="#e1ed5e" stroke-width="0.3" x1="172.23445277983987" x2="176.4835382374775" y1="55.19839476539836" y2="52.563006222186495" /><path d="M 173.08426987136738 54.67131705675599 a86.0,86.0 0 0,1 12.851231095245387,41.99856678651699" fill="none" id="id51" stroke="none" /><text fill="#e1ed5e" style="font-size:6.75px; font-family:Arial;" text-anchor="middle"><textPath startOffset="22.20632615414155" xlink:href="#id51">March</textPath></text><path d="M 117.84615892207809 88.93136811851018 l 9.69372451780774 -6.012289183161225 a32.4068363821484,32.4068363821484 0 0,0 0.2899396468442337,0.4765845449148885 l -9.795779962938198 5.844536865039255" fill="#ff7b0b" stroke="none" /><path d="M 119.34039704204932 91.81776055985345 l 10.777453732427158 -4.559560323508026 a32.702268980771066,32.702268980771066 0 0,0 0.21486685280764878,0.5203171271596073 l -10.854342272121004 4.373368625895116" fill="#ff7f0b" stroke="none" /><path d="M 119.7369772167798 92.82701384747503 l 10.880660619930817 -3.9543455464261434 a32.57694364790006,32.57694364790006 0 0,0 0.187002390161276,0.5286809389986077 l -10.947116090901902 3.7664669810009213" fill="#ff7d0b" stroke="none" /><path d="M 119.85752413597 93.16781622104841 l 3.6095468523250744 -1.241901421595149 a24.81721726131614,24.81721726131614 0 0,0 0.1355052043922119,0.40514331370475243 l -3.630389350489056 1.1795850049680825" fill="#ff0e01" stroke="none" /><path d="M 119.97218684219823 93.5106431181261 l 10.955377262157839 -3.5596178521372144 a32.51916534343782,32.51916534343782 0 0,0 0.16839432873970767,0.5338560400048546 l -11.015027074665753 3.3705116457059408" fill="#ff7d0b" stroke="none" /><path d="M 120.28053869075195 94.5502522615342 l 11.002985528828424 -2.9567013192528417 a32.393321431385985,32.393321431385985 0 0,0 0.14006820994638974,0.5397399503422374 l -11.052250070645115 2.7668649433617536" fill="#ff7b0b" stroke="none" /><path d="M 120.37134235888165 94.90015583598534 l 11.035068380428951 -2.7625636096041086 a32.37560951588317,32.37560951588317 0 0,0 0.13068522659574208,0.5417746341861719 l -11.080986407285513 2.5722037437585303" fill="#ff7b0b" stroke="none" /><path d="M 120.53481517161879 95.60439243477599 l 16.07225741299027 -3.4403687437328223 a37.43634982112131,37.43634982112131 0 0,0 0.1294597182086814,0.6312915626686457 l -16.12909642711395 3.1632015249007646" fill="#ffbf11" stroke="none" /><path d="M 120.83666639777658 97.38593545837742 l 12.94686061592312 -1.624248745712311 a34.04834793359256,34.04834793359256 0 0,0 0.067950202033707,0.5821558345357367 l -12.972901170960416 1.4011491728517216" fill="#ff920d" stroke="none" /><path d="M 120.87857604477298 97.74499172005257 l 25.76058896207794 -2.782294217825798 a46.91040533815862,46.91040533815862 0 0,0 0.07979878638527378,0.8035628887956643 l -25.80466487414544 2.338455798325699" fill="#c8ff1d" stroke="none" /><path d="M 120.91429891909075 98.10471618934814 l 26.78864131642014 -2.4276251569697864 a47.898413846964374,47.898413846964374 0 0,0 0.06734406633614683,0.8217681855659029 l -26.82645986657578 1.9661430541961147" fill="#bcff1f" stroke="none" /><path d="M 120.94382443527127 98.46500227214037 l 3.418686604906378 -0.25055959512140963 a24.427856212456074,24.427856212456074 0 0,0 0.027125865233504413,0.4196251289701767 l -3.422493061144298 0.1916754018981977" fill="#ff0801" stroke="none" /><line stroke="#e1ed5e" stroke-width="0.3" x1="184.98032266829074" x2="189.97916517819016" y1="98.17113171792111" y2="98.06355123074" /><path d="M 185.9800911702706 98.14961562048488 a86.0,86.0 0 0,1 -9.607161424134198,41.387399972396054" fill="none" id="id52" stroke="none" /><text fill="#e1ed5e" style="font-size:6.75px; font-family:Arial;" text-anchor="middle"><textPath startOffset="21.466115282336823" xlink:href="#id52">April</textPath></text><path d="M 120.9904718944345 100.63252640178507 l 27.325365645292656 0.8234219457286759 a48.33776931919735,48.33776931919735 0 0,0 -0.03222027015234813,0.8314620050801131 l -27.307143242289108 -1.2936611978227952" fill="#b7ff1f" stroke="none" /><path d="M 120.9764740272857 100.99374915477107 l 5.368547237847306 0.2543320327820425 a26.374568282931847,26.374568282931847 0 0,0 -0.025386965179242056,0.4533013172739416 l -5.363373921780535 -0.3467050663914074" fill="#ff2503" stroke="none" /><path d="M 120.95626037817324 101.35467743843564 l 8.57093551813151 0.5540517612957607 a29.588824658249997,29.588824658249997 0 0,0 -0.037230408216593694,0.507979340418376 l -8.560128551250578 -0.7015042382109069" fill="#ff5307" stroke="none" /><path d="M 120.81339534386255 102.79330883721812 l 10.608413483552956 1.4237261457300054 a31.70352431566647,31.70352431566647 0 0,0 -0.07724480512996806,0.5402499871685924 l -10.582334627406388 -1.6061216048790072" fill="#ff710a" stroke="none" /><path d="M 120.41448212921028 104.9243191809786 l 12.873701719156307 3.1053551054880932 a34.242938732962145,34.242938732962145 0 0,0 -0.14314964695435717,0.5718116814700206 l -12.818340757906888 -3.32649462635551" fill="#ff940d" stroke="none" /><path d="M 120.32669344350535 105.2749913415812 l 20.573949585979022 5.339156918453137 a42.255446317738716,42.255446317738716 0 0,0 -0.18876498590970642,0.7024647348684038 l -20.478996523727538 -5.692512586497088" fill="#fffd18" stroke="none" /><path d="M 119.54520255179757 107.68017299344265 l 11.062713428713483 4.3470285193635165 a32.88613837013508,32.88613837013508 0 0,0 -0.21156339623690026,0.5250829992721427 l -10.98624741821919 -4.536810886478473" fill="#ff820b" stroke="none" /><path d="M 119.41010516605496 108.01547362559984 l 10.97652435568212 4.532795712389554 a32.87561888497353,32.87561888497353 0 0,0 -0.22049993631638667,0.521196714823726 l -10.896873438173424 -4.7210669528794424" fill="#ff820b" stroke="none" /><path d="M 119.26925614724726 108.34839909993367 l 12.662140947581959 5.485868540137063 a34.799440822587606,34.799440822587606 0 0,0 -0.24286515709127143,0.5475968147118261 l -12.565834705759414 -5.703013691341577" fill="#ff9c0e" stroke="none" /><path d="M 119.12269723197855 108.67885076344098 l 11.376732020960247 5.163338528440344 a33.49360221217319,33.49360221217319 0 0,0 -0.24278935381725408,0.5229466685674741 l -11.286168050303163 -5.358405264286649" fill="#ff8a0c" stroke="none" /><path d="M 118.81262510543309 109.33194174019688 l 12.234629332703555 6.068948246500709 a34.657169828604836,34.657169828604836 0 0,0 -0.2697009902301802,0.5321456402637184 l -12.128349672687106 -6.278648098467122" fill="#ff9a0e" stroke="none" /><path d="M 118.64920377521936 109.65438752849418 l 10.622763562674766 5.499230814020284 a32.96179941540406,32.96179941540406 0 0,0 -0.26518158741079534,0.501623627090751 l -10.526529467039078 -5.681269456197169" fill="#ff830c" stroke="none" /><line stroke="#e1ed5e" stroke-width="0.3" x1="174.80103733775053" x2="179.2010983576182" y1="140.37084112569926" y2="142.7455964860345" /><path d="M 175.68104954172406 140.8457921977663 a86.0,86.0 0 0,1 -30.038265399797805,32.042727171017184" fill="none" id="id53" stroke="none" /><text fill="#e1ed5e" style="font-size:6.75px; font-family:Arial;" text-anchor="middle"><textPath startOffset="22.206326154141568" xlink:href="#id53">May</textPath></text><path d="M 118.48025628344425 109.97397251340804 l 4.092232146446395 2.208617149087184 a25.650199313110274,25.650199313110274 0 0,0 -0.21304761249891033,0.38674330054776584 l -4.053608124495975 -2.278730968032755" fill="#ff1a02" stroke="none" /><path d="M 118.30583269289576 110.29060199501025 l 20.943395367041994 11.773304703588328 a45.0257468800404,45.0257468800404 0 0,0 -0.38560908086302337,0.672341935570836 l -20.73763429002659 -12.13206648501748" fill="#deff1b" stroke="none" /><path d="M 117.94076556474637 110.91462005526583 l 13.812423973405494 8.403061684736828 a37.167699332267375,37.167699332267375 0 0,0 -0.33722671357078,0.5437168375992862 l -13.66573262016675 -8.639574853701387" fill="#ffbc11" stroke="none" /><path d="M 117.55443506779139 111.5257021239791 l 13.016265653400072 8.546079672078244 a36.57108375551912,36.57108375551912 0 0,0 -0.35003210793446515,0.5232505083819602 l -12.867230440054886 -8.768867094666012" fill="#ffb410" stroke="none" /><path d="M 116.71984013943494 112.70617746262583 l 10.7849523053236 8.195982543767817 a34.5458231970542,34.5458231970542 0 0,0 -0.3638714564180143,0.470352907786222 l -10.642274031687517 -8.38041344566729" fill="#ff990e" stroke="none" /><path d="M 116.498646956653 112.99209946851258 l 10.527304259934596 8.289878827015801 a34.39948603297313,34.39948603297313 0 0,0 -0.37033845840830737,0.4620541690054977 l -10.383047889471435 -8.46986082959955" fill="#ff970d" stroke="none" /><path d="M 116.27256486870786 113.27417163493432 l 11.188285130017094 9.126724540027809 a35.438657312233275,35.438657312233275 0 0,0 -0.3896632253236472,0.4693744568762119 l -11.029525904799904 -9.317960254017791" fill="#ffa50f" stroke="none" /><path d="M 115.80600337817218 113.82643327865902 l 11.612063937178958 10.157749774788043 a36.427893873382025,36.427893873382025 0 0,0 -0.41691056754366124,0.468403442273885 l -11.435494519986959 -10.356127386802795" fill="#ffb210" stroke="none" /><path d="M 115.32070863581623 114.36230785411682 l 7.512528025391087 7.042575041934328 a31.297375420638154,31.297375420638154 0 0,0 -0.3718328631658212,0.3898652704611668 l -7.390188610846302 -7.170847428978002" fill="#ff6c09" stroke="none" /><path d="M 114.81725581225074 114.88116024355365 l 9.210587262801992 9.250311038138891 a34.05385659596445,34.05385659596445 0 0,0 -0.4189435939692995,0.4100244826371001 l -9.049993716456898 -9.407485623698564" fill="#ff920d" stroke="none" /><path d="M 114.55890576462653 115.13401014063108 l 8.485827615329983 8.821033892126824 a33.240094331464405,33.240094331464405 0 0,0 -0.4157610305878544,0.3931280049159045 l -8.332730750351322 -8.96579653378865" fill="#ff870c" stroke="none" /><path d="M 114.29624159901734 115.38237550388516 l 9.195971196786232 9.894620281291349 a34.508123362001996,34.508123362001996 0 0,0 -0.4385825558272081,0.4006347660561243 l -9.024289091492161 -10.051447813934056" fill="#ff980e" stroke="none" /><path d="M 113.75828350139079 115.86535959552629 l 8.054408693805042 9.287938444038648 a33.29387245529631,33.29387245529631 0 0,0 -0.43620446337583446,0.3717429069426208 l -7.893338753852161 -9.425205741204215" fill="#ff870c" stroke="none" /><path d="M 113.20401910651253 116.32954008644616 l 8.638709170374176 10.68357645917053 a34.73921766656492,34.73921766656492 0 0,0 -0.46822263187534413,0.37198437653354444 l -8.45352904578148 -10.8306947497092" fill="#ff9b0e" stroke="none" /><path d="M 112.92097659922987 116.55440617244103 l 10.647082486600102 13.6410840683023 a38.30432142659623,38.30432142659623 0 0,0 -0.5232575900876939,0.4012116072309536 l -10.410696168018914 -13.822335017360626" fill="#ffcb12" stroke="none" /><path d="M 111.7513745106137 117.40417183066458 l 6.5887129709246315 9.758100432024458 a32.77419477733855,32.77419477733855 0 0,0 -0.47027114832555394,0.31167007400824215 l -6.419767123859113 -9.870068527124019" fill="#ff800b" stroke="none" /><path d="M 111.45004920935366 117.60387380957326 l 6.798232388225931 10.451939804129328 a33.46832022661702,33.46832022661702 0 0,0 -0.4856383918081431,0.30995739883720386 l -6.617312194370857 -10.567411631790339" fill="#ff8a0c" stroke="none" /><line stroke="#e1ed5e" stroke-width="0.3" x1="143.8653032363475" x2="146.44561519142675" y1="172.8068346515853" y2="177.08958963109032" /><path d="M 144.38136562736335 173.6633856474863 a86.0,86.0 0 0,1 -40.68145358897372,12.25698825130547" fill="none" id="id54" stroke="none" /><text fill="#e1ed5e" style="font-size:6.75px; font-family:Arial;" text-anchor="middle"><textPath startOffset="21.466115282336833" xlink:href="#id54">June</textPath></text><path d="M 110.8373102113329 117.98757091392108 l 9.934277804295604 16.488734104565356 a40.250148775112805,40.250148775112805 0 0,0 -0.5965304521287008,0.3524407058169872 l -9.648979481138522 -16.657293382676094" fill="#ffe415" stroke="none" /><path d="M 110.5260780823613 118.17145234162733 l 8.205971245202141 14.166189366277667 a37.371282333351985,37.371282333351985 0 0,0 -0.5594146992012002,0.31765026603326 l -7.960907779079741 -14.305342798105555" fill="#ffbe11" stroke="none" /><path d="M 109.89434966115114 118.52300852407294 l 6.740923051260173 12.619543417680775 a35.307093333509115,35.307093333509115 0 0,0 -0.5385325333366232,0.2817347688223447 l -6.5226996153970545 -12.733707605447837" fill="#ffa30f" stroke="none" /><path d="M 109.57404056367764 118.69057910512821 l 4.748537845026073 9.270163588283626 a31.41559141955868,31.41559141955868 0 0,0 -0.48342026690787554,0.24239695746772838 l -4.5882636704354365 -9.350528386660656" fill="#ff6d0a" stroke="none" /><path d="M 109.2508944713604 118.85261126421891 l 4.775941485757021 9.733001336290508 a31.841629586349452,31.841629586349452 0 0,0 -0.49413255773429887,0.23721365609854544 l -4.607696260022489 -9.813769268888613" fill="#ff730a" stroke="none" /><path d="M 108.59647513512805 119.15986991738527 l 8.8235987236692 19.66608419046982 a42.55483151924375,42.55483151924375 0 0,0 -0.6709059480687702,0.29410545152498413 l -8.483772100942677 -19.815054195289257" fill="#fdff18" stroke="none" /><path d="M 108.2653958097858 119.30500536409082 l 8.948947964566491 20.90153846648063 a43.736709962927534,43.736709962927534 0 0,0 -0.6946400495389559,0.2903595970442596 l -8.587836455530075 -21.052483106544862" fill="#eeff19" stroke="none" /><path d="M 106.57524785965236 119.94407469862006 l 4.540354326221775 13.771825454068496 a35.50096526942154,35.50096526942154 0 0,0 -0.5820106938537948,0.1863414448800457 l -4.30262228727704 -13.84793974560825" fill="#ffa50f" stroke="none" /><path d="M 106.2309692047433 120.05430185196036 l 4.358837000894045 14.028866146999984 a35.6904235939882,35.6904235939882 0 0,0 -0.5882547037479818,0.1772363167123506 l -4.1167073227058175 -14.10181783281806" fill="#ffa80f" stroke="none" /><path d="M 105.88484417918355 120.15858648285463 l 4.096445654015721 14.032411305110656 a35.6181200580684,35.6181200580684 0 0,0 -0.5900206580433413,0.16674573152010488 l -3.854293827867774 -14.10084582996928" fill="#ffa70f" stroke="none" /><path d="M 102.34483914955558 120.86867818915974 l 1.023256839786713 9.106815577696524 a30.164122681759906,30.164122681759906 0 0,0 -0.5164778699214502,0.053535042967960675 l -0.8663463732596601 -9.123079989120242" fill="#ff5c08" stroke="none" /><path d="M 101.98527174616119 120.90594882070398 l 1.2963548149354742 13.651293565688887 a34.71270767656137,34.71270767656137 0 0,0 -0.5953323293471612,0.051367778403872626 l -1.0611781678467715 -13.671585596371424" fill="#ff9b0e" stroke="none" /><path d="M 101.26447882468166 120.96189622390904 l 0.8293310833285668 13.748235055159618 a34.77322609912778,34.77322609912778 0 0,0 -0.5977880724543297,0.030898815167208042 l -0.5925549424607575 -13.760473677089028" fill="#ff9c0e" stroke="none" /><path d="M 100.90346689309514 120.98055641714683 l 0.6489830708524347 15.070863178114072 a36.084829994391306,36.084829994391306 0 0,0 -0.6207959376311262,0.0213814673038261 l -0.3894667815466562 -15.07980144384399" fill="#ffad10" stroke="none" /><line stroke="#e1ed5e" stroke-width="0.3" x1="102.19456741930631" x2="102.32365962044197" y1="184.97166512339345" y2="189.96999836594603" /><path d="M 102.22038585953345 185.97133177190398 a86.0,86.0 0 0,1 -42.740103519485714,-10.115201625700543" fill="none" id="id55" stroke="none" /><text fill="#e1ed5e" style="font-size:6.75px; font-family:Arial;" text-anchor="middle"><textPath startOffset="22.20632615414155" xlink:href="#id55">July</textPath></text><path d="M 100.54218724476979 120.99299961872073 l 0.3206101253012302 12.41373400634764 a33.41787352298281,33.41787352298281 0 0,0 -0.5751698366321194,0.009902070346615683 l -0.10688059877644279 -12.417413553973415" fill="#ff890c" stroke="none" /><path d="M 100.18074693466247 120.99922214144158 l 0.1029356645337169 11.959090149202641 a32.95953314087923,32.95953314087923 0 0,0 -0.5673651983923365,0.0 l 0.10293566453370867 -11.959090149202641" fill="#ff830c" stroke="none" /><path d="M 99.81925306533755 120.99922214144158 l -0.2216206044389583 25.747934881581813 a46.748888643172336,46.748888643172336 0 0,0 -0.8046158480172068,-0.013852191512198799 l 0.664796142348833 -25.740305212790453" fill="#caff1d" stroke="none" /><path d="M 99.45781275523022 120.99299961872073 l -0.3349980393467786 12.970821021924365 a33.975146306271895,33.975146306271895 0 0,0 -0.5845013766348791,-0.02013140923770935 l 0.5582197676563007 -12.963132814260561" fill="#ff910d" stroke="none" /><path d="M 98.73552117531835 120.96189622390904 l -0.1782928225052047 2.955649054671097 a23.96102172652195,23.96102172652195 0 0,0 -0.41148746306518813,-0.028378584639040954 l 0.2291430463493229 -2.9521421255157714" fill="#ff0100" stroke="none" /><path d="M 98.37488393609728 120.93702456842531 l -1.3503490503997069 17.397090504583726 a38.44941834510803,38.44941834510803 0 0,0 -0.6594179284058698,-0.056897353548795625 l 1.6496112965471184 -17.371268898756266" fill="#ffcd13" stroke="none" /><path d="M 98.01472825383883 120.90594882070398 l -0.9234246784399193 9.724144366920678 a30.767891113514064,30.767891113514064 0 0,0 -0.5268157483622901,-0.05460660633738363 l 1.0906730234078028 -9.706808392127535" fill="#ff6409" stroke="none" /><path d="M 97.65516085044442 120.86867818915974 l -1.3437525996712183 11.95917450188441 a33.03443084718365,33.03443084718365 0 0,0 -0.5645310155314034,-0.06835684411063811 l 1.5494110382540112 -11.934272129048423" fill="#ff840c" stroke="none" /><path d="M 97.2962882734958 120.8252237178851 l -1.273762264791442 9.811099263152387 a30.89343919264863,30.89343919264863 0 0,0 -0.5267646330855078,-0.07300477825537988 l 1.4424554890637808 -9.787719919404402" fill="#ff6609" stroke="none" /><path d="M 96.22490169976321 120.6578951692458 l -2.7792166403601244 15.208283716898636 a36.460140321088254,36.460140321088254 0 0,0 -0.6164062186307946,-0.1181357188597537 l 3.0405904735626144 -15.158190799690415" fill="#ffb210" stroke="none" /><path d="M 95.86986931433489 120.58985236759428 l -4.873195101961584 24.29423554468336 a45.778174089354096,45.778174089354096 0 0,0 -0.771271851094547,-0.16162751533261063 l 5.2906584144855175 -24.206752048624207" fill="#d5ff1c" stroke="none" /><path d="M 95.51606077576429 120.51570834832081 l -1.839780464416321 8.417687561172729 a29.616394607651742,29.616394607651742 0 0,0 -0.49710392127748165,-0.11313923405133368 l 1.9844045350866653 -8.384771593543709" fill="#ff5407" stroke="none" /><path d="M 95.16358092515715 120.4354850818985 l -3.5694033751541356 15.081920796247502 a36.498547524166405,36.498547524166405 0 0,0 -0.6101283438096401,-0.149954702559555 l 3.828485003706986 -15.018244835373917" fill="#ffb310" stroke="none" /><path d="M 94.81253420990036 120.34920634021253 l -3.6739714495172864 14.412124559348845 a35.87304274605752,35.87304274605752 0 0,0 -0.5970462516751943,-0.15768534153635752 l 3.92150814400397 -14.346747868508904" fill="#ffab0f" stroke="none" /><path d="M 94.46302465271185 120.25689768951611 l -6.898342762965137 25.237429248269773 a47.16323695448971,47.16323695448971 0 0,0 -0.7812676260839829,-0.2207940350027202 l 7.331741557153734 -25.114946419928533" fill="#c5ff1e" stroke="none" /><path d="M 93.42475214034765 119.94407469862007 l -4.91136212872803 14.897168176486728 a36.68588848736446,36.68588848736446 0 0,0 -0.5980328573006966,-0.20288521485290684 l 5.1670647189659515 -14.810419974735698" fill="#ffb510" stroke="none" /><path d="M 93.08242187328487 119.8279376855182 l -5.53883005859234 15.876015455223301 a37.814473085781046,37.814473085781046 0 0,0 -0.6127393102945214,-0.21970651645116573 l 5.811288929516588 -15.778321397732178" fill="#ffc412" stroke="none" /><path d="M 92.7421414339146 119.70592522655815 l -5.916895427847166 16.065055251883795 a38.120036558084735,38.120036558084735 0 0,0 -0.6137866450473873,-0.23208158952144037 l 6.192552293654836 -15.960825412255723" fill="#ffc812" stroke="none" /><path d="M 92.06813273071674 119.44442032107085 l -2.9652073873626703 7.268999445099654 a28.850529140314634,28.850529140314634 0 0,0 -0.4582130893759559,-0.19153310852133212 l 3.089891936236089 -7.216881293558349" fill="#ff4906" stroke="none" /><path d="M 91.7346041902142 119.30500536409082 l -4.435041237075555 10.358668458483232 a32.26816768633375,32.26816768633375 0 0,0 -0.5087296756010564,-0.22301213959645574 l 4.612691587334355 -10.280791765592323" fill="#ff790b" stroke="none" /><path d="M 91.40352486487194 119.15986991738527 l -7.0916277592865935 15.805858009781304 a38.32386595716014,38.32386595716014 0 0,0 -0.5995531663260278,-0.27522545243445495 l 7.362648921380041 -15.681445487012773" fill="#ffcb12" stroke="none" /><path d="M 90.7491055286396 118.85261126421891 l -8.034508639439684 16.37371051494549 a39.23874242113385,39.23874242113385 0 0,0 -0.6038022038491476,-0.3027589597380989 l 8.315164750971592 -16.23298371429809" fill="#ffd714" stroke="none" /><path d="M 90.10565033884886 118.52300852407294 l -8.979303877219083 16.809970129822524 a40.05788534662141,40.05788534662141 0 0,0 -0.6054028101809091,-0.3301138823794442 l 9.267329499268632 -16.65291559568331" fill="#ffe115" stroke="none" /><line stroke="#e1ed5e" stroke-width="0.3" x1="58.666819895761336" x2="56.23545636021788" y1="174.27360380694188" y2="178.64263932499728" /><path d="M 58.180547188652646 175.14741091055294 a86.0,86.0 0 0,1 -31.652253787137756,-30.449443065178592" fill="none" id="id56" stroke="none" /><text fill="#e1ed5e" style="font-size:6.75px; font-family:Arial;" text-anchor="middle"><textPath startOffset="22.20632615414155" xlink:href="#id56">August</textPath></text><path d="M 88.8546689885994 117.79835938074946 l -6.2417213339967414 9.967617771363464 a32.76063302918983,32.76063302918983 0 0,0 -0.475369574307465,-0.30340335365598714 l 6.41237271035113 -9.858699988883673" fill="#ff800b" stroke="none" /><path d="M 88.54995079064634 117.60387380957326 l -9.582515090043142 14.732634186903475 a38.57484297329628,38.57484297329628 0 0,0 -0.5535036276184366,-0.3668320227551865 l 9.83469341640154 -14.56550414305697" fill="#ffce13" stroke="none" /><path d="M 88.24862548938628 117.40417183066458 l -6.927411845756445 10.259724596168105 a33.37945813313101,33.37945813313101 0 0,0 -0.473421038093883,-0.32562330688447017 l 7.102989768473218 -10.138960499918534" fill="#ff890c" stroke="none" /><path d="M 87.65650970185807 116.9893568818739 l -5.035696078821778 6.931041039877879 a29.567237880129888,29.567237880129888 0 0,0 -0.4091754148178711,-0.30269818987964936 l 5.154256464058213 -6.843332901258463" fill="#ff5307" stroke="none" /><path d="M 87.07902340077011 116.55440617244103 l -9.272177433809652 11.879550292767778 a36.069737539932405,36.069737539932405 0 0,0 -0.48615566430139523,-0.386231462069848 l 9.475290590828406 -11.718184916692799" fill="#ffad10" stroke="none" /><path d="M 86.51685102203217 116.09983520530335 l -9.432176499184427 11.262687040864538 a35.69061172627692,35.69061172627692 0 0,0 -0.46760568799916746,-0.3985037118016504 l 9.624647663760651 -11.098658938839936" fill="#ffa80f" stroke="none" /><path d="M 85.97065885151581 115.62618273729859 l -5.310312602927962 5.914740702880239 a28.948809818024568,28.948809818024568 0 0,0 -0.36792620870614756,-0.33609186820685416 l 5.411338361100965 -5.822456068086808" fill="#ff4a06" stroke="none" /><path d="M 85.18274418774928 114.88116024355367 l -13.687356456901334 13.746387814765566 a40.3986315169966,40.3986315169966 0 0,0 -0.48855291469849005,-0.49490152323427133 l 13.921949996655357 -13.50874579755063" fill="#ffe615" stroke="none" /><path d="M 84.9287848128048 114.62390073753433 l -11.677516247721849 11.330926958877141 a37.271271968202626,37.271271968202626 0 0,0 -0.44280657989712685,-0.46428092870476 l 11.870829378997934 -11.12823891358988" fill="#ffbd11" stroke="none" /><path d="M 84.43433777217949 114.09645910891817 l -14.220105651214919 12.877906182403049 a40.18467806283152,40.18467806283152 0 0,0 -0.459906273911053,-0.5167095741720078 l 14.43967077477431 -12.631222438490175" fill="#ffe315" stroke="none" /><path d="M 83.72743513129214 113.27417163493432 l -14.785217439331442 12.060883796316627 a40.080554831465555,40.080554831465555 0 0,0 -0.431499786776065,-0.538362330128421 l 14.990635138162368 -11.804593632609945" fill="#ffe215" stroke="none" /><path d="M 82.85270091963577 112.12312394758628 l -13.18083040410771 9.31883441072618 a37.14233455595517,37.14233455595517 0 0,0 -0.36459462624976796,-0.5252257518649598 l 13.33928593751961 -9.090567396674206" fill="#ffbb11" stroke="none" /><line stroke="#e1ed5e" stroke-width="0.3" x1="26.63291911575756" x2="22.317208475507996" y1="142.92168965132927" y2="145.44649492493687" /><path d="M 25.769776987707644 143.4266507060508 a86.0,86.0 0 0,1 -11.730757126820373,-40.83630448921669" fill="none" id="id57" stroke="none" /><text fill="#e1ed5e" style="font-size:6.75px; font-family:Arial;" text-anchor="middle"><textPath startOffset="21.46611528233685" xlink:href="#id57">September</textPath></text><path d="M 81.87401531095188 110.60418214915194 l -18.686473061594523 10.932082723764848 a42.64935814662725,42.64935814662725 0 0,0 -0.36525723466920285,-0.6368567762696974 l 18.871882292416103 -10.608806101636844" fill="#fcff18" stroke="none" /><path d="M 81.51974371655577 109.97397251340807 l -12.623182422284625 6.812853273273852 a35.344326550571616,35.344326550571616 0 0,0 -0.2843493009142685,-0.537881717497879 l 12.73858423142378 -6.5945565406898465" fill="#ffa30f" stroke="none" /><path d="M 81.18737489456691 109.33194174019688 l -8.3345986440375 4.134350657507102 a30.303676150663303,30.303676150663303 0 0,0 -0.2277779329992577,-0.46929000757367206 l 8.404529833651477 -3.9902716939681446" fill="#ff5e08" stroke="none" /><path d="M 81.02952815118164 109.00673069616217 l -13.307340985910662 6.318010300284862 a35.73100737457569,35.73100737457569 0 0,0 -0.2590079184901792,-0.5578800140016957 l 13.414123521240667 -6.088010219004339" fill="#ffa90f" stroke="none" /><path d="M 80.45479744820244 107.68017299344265 l -10.970284450204092 4.310709093014365 a32.78682967565861,32.78682967565861 0 0,0 -0.20188212528837862,-0.527050524607505 l 11.04286085508598 -4.1212350015737025" fill="#ff800b" stroke="none" /><path d="M 80.0844068197444 106.66101706037122 l -9.456780474354868 3.1629374784735784 a30.971703487011247,30.971703487011247 0 0,0 -0.16475139422505752,-0.5070526537331319 l 9.509824119596175 -2.9996859247626433" fill="#ff6709" stroke="none" /><path d="M 79.67330655649465 105.27499134158121 l -9.400456100506101 2.4395175080936626 a30.711839196045098,30.711839196045098 0 0,0 -0.1283881904096336,-0.5128470003312858 l 9.441055605210792 -2.277342668364985" fill="#ff6309" stroke="none" /><path d="M 79.4281124754447 104.21870165774334 l -17.093898557561037 3.505466287233075 a38.44963213901986,38.44963213901986 0 0,0 -0.12737826118917053,-0.6494990095525754 l 17.15170675172587 -3.2107035506125445" fill="#ffcd13" stroke="none" /><path d="M 79.29508885075956 103.50808413554451 l -31.05067845609196 5.260992993621513 a52.49321641024537,52.49321641024537 0 0,0 -0.14327709869373176,-0.892186630334553 l 31.136637309146984 -4.725727133593747" fill="#88ff25" stroke="none" /><path d="M 79.18660465613746 102.79330883721812 l -11.284839515710907 1.5145074325952679 a32.386014915620684,32.386014915620684 0 0,0 -0.06939627584342839,-0.553156598076967 l 11.309237300801184 -1.3200330802308922" fill="#ff7b0b" stroke="none" /><path d="M 79.10278846688536 102.07522291339032 l -17.422894241878797 1.730201624797071 a38.50859335943764,38.50859335943764 0 0,0 -0.05982659072159946,-0.6601814433434593 l 17.45009542887747 -1.4300387929050455" fill="#ffcd13" stroke="none" /><path d="M 79.04373962182676 101.35467743843564 l -8.827627876568716 0.5706451486806542 a29.846052781488808,29.846052781488808 0 0,0 -0.02872845896748692,-0.5129659335516521 l 8.836142686423736 -0.41860749879356446" fill="#ff5708" stroke="none" /><line stroke="#e1ed5e" stroke-width="0.3" x1="15.007084014347285" x2="10.007500721073583" y1="101.09737516637583" y2="101.16192664675087" /><path d="M 14.007167355692545 101.11028546245083 a86.0,86.0 0 0,1 10.666146001902534,-42.60595125391555" fill="none" id="id58" stroke="none" /><text fill="#e1ed5e" style="font-size:6.75px; font-family:Arial;" text-anchor="middle"><textPath startOffset="22.20632615414155" xlink:href="#id58">October</textPath></text><path d="M 79.00175016825051 100.2711162175752 l -13.282139547967107 0.1714906463350167 a34.2832465916075,34.2832465916075 0 0,0 -0.0025397399832000176,-0.5901461285367744 l 13.28312358523981 0.05716496040543309" fill="#ff950d" stroke="none" /><path d="M 79.3925641242962 95.95851677861259 l -35.43797577190919 -6.95001480756582 a57.11305626273975,57.11305626273975 0 0,0 0.19750430277365186,-0.9631011225497804 l 35.31309217322054 7.558991586279003" fill="#56ff2b" stroke="none" /><path d="M 79.62865764111835 94.90015583598534 l -13.296875594796479 -3.328793567311803 a34.70721588059627,34.70721588059627 0 0,0 0.1500734529774887,-0.5782942331365655 l 13.237605809948683 3.557184225997232" fill="#ff9b0e" stroke="none" /><path d="M 79.71946130924805 94.55025226153421 l -12.759144208381393 -3.428612935517996 a34.21178063668459,34.21178063668459 0 0,0 0.15772156991012767,-0.5674084040794254 l 12.698235867904906 3.647732643016364" fill="#ff940d" stroke="none" /><path d="M 80.02781315780177 93.51064311812611 l -20.1653125377794 -6.552107224216895 a42.20306437343334,42.20306437343334 0 0,0 0.23043417010390313,-0.6889688383958879 l 20.049541073903725 6.8982491655351055" fill="#fffd17" stroke="none" /><path d="M 80.2630227832202 92.82701384747504 l -14.077953010103688 -5.116333716569309 a35.978839462855305,35.978839462855305 0 0,0 0.2165504866257846,-0.5802476420287985 l 13.987797934976276 5.357904495627449" fill="#ffac0f" stroke="none" /><path d="M 80.52162464483688 92.15188598940014 l -11.01620681979107 -4.438586150520555 a32.876778170531104,32.876778170531104 0 0,0 0.21601344726602353,-0.5230936965876145 l 10.938171685638846 4.6275544175614804" fill="#ff820b" stroke="none" /><path d="M 80.803312248108 91.48605970444005 l -20.099947348596068 -8.91454577381345 a42.98811064575011,42.98811064575011 0 0,0 0.3058249585046735,-0.6738447574306098 l 19.94352007312804 9.25921254008613" fill="#f7ff18" stroke="none" /><path d="M 81.6062741919709 89.86733742301443 l -10.291735314425512 -5.669470250948256 a32.750008881212835,32.750008881212835 0 0,0 0.2762578009958041,-0.4914318022977343 l 10.192619872137278 5.845785563180775" fill="#ff800b" stroke="none" /><line stroke="#e1ed5e" stroke-width="0.3" x1="26.266209847984243" x2="21.928928074336255" y1="57.711370442889674" y2="55.22380399835377" /><path d="M 25.398753493254645 57.213857153982495 a86.0,86.0 0 0,1 29.58750427330803,-30.492523968695096" fill="none" id="id59" stroke="none" /><text fill="#e1ed5e" style="font-size:6.75px; font-family:Arial;" text-anchor="middle"><textPath startOffset="21.46611528233685" xlink:href="#id59">November</textPath></text><path d="M 81.78341655067845 89.55222093294921 l -28.385548930757956 -16.279998099015877 a53.72274020011794,53.72274020011794 0 0,0 0.46697935640360416,-0.7982190936761905 l 28.101109899884026 16.766196605045963" fill="#7aff26" stroke="none" /><path d="M 82.15384107792192 88.93136811851018 l -17.404734987834335 -10.794849772232773 a41.48056594925586,41.48056594925586 0 0,0 0.38156669683312505,-0.6035468809495592 l 17.21634069475525 11.092844300896548" fill="#fff417" stroke="none" /><path d="M 82.54541684631803 88.32363383020206 l -13.224003723299514 -8.846290303498005 a36.91009511623366,36.91009511623366 0 0,0 0.35780915883356595,-0.5250407892570615 l 13.069770098797207 9.072609116025482" fill="#ffb811" stroke="none" /><path d="M 83.6137871275137 86.86637796730984 l -11.120710379549083 -8.91329851482949 a35.251915301469914,35.251915301469914 0 0,0 0.3835769430276746,-0.470219977503657 l 10.965634944445016 9.10340266194123" fill="#ffa20f" stroke="none" /><path d="M 84.07557802195018 86.31012108654704 l -18.215773339102427 -15.659703797786216 a45.021671910505205,45.021671910505205 0 0,0 0.510263058572814,-0.5833188838373041 l 17.94351841695177 15.970938237826463" fill="#deff1b" stroke="none" /><path d="M 86.93701828274178 83.55741782278169 l -9.57520883082226 -12.052467152795389 a36.393069499715395,36.393069499715395 0 0,0 0.49384952501139695,-0.38545738758275894 l 9.366326750651439 12.215502929601369" fill="#ffb110" stroke="none" /><path d="M 87.80319425747018 82.90503203632743 l -8.726438315559163 -12.230922307901462 a36.02485228470419,36.02485228470419 0 0,0 0.5078969982190162,-0.3558143048113172 l 8.514610177756486 12.379321455476722" fill="#ffad10" stroke="none" /><line stroke="#e1ed5e" stroke-width="0.3" x1="56.762969772571076" x2="54.21961505331055" y1="26.818313649435495" y2="22.513508569990535" /><path d="M 56.25429882871897 25.957352633546506 a86.0,86.0 0 0,1 42.265352541879196,-11.944610805530505" fill="none" id="id60" stroke="none" /><text fill="#e1ed5e" style="font-size:6.75px; font-family:Arial;" text-anchor="middle"><textPath startOffset="22.20632615414155" xlink:href="#id60">December</textPath></text><path d="M 89.3179101791058 81.91981866633112 l -32.046269462682616 -54.240544001006626 a84.0,84.0 0 0,0 1.2512130701387194,-0.7247833704398112 l 31.107859660078574 54.78413152883649" fill="#4dd2ff" stroke="none" /><path d="M 90.26544431104013 81.39251694778311 l -5.674107955333046 -10.845987324829808 a33.240545009889985,33.240545009889985 0 0,0 0.509276035417417,-0.26087096572933216 l 5.4865714323268655 10.942050815871646" fill="#ff870c" stroke="none" /><path d="M 91.56875222667455 80.76684994638697 l -12.52092021135713 -28.562407808276873 a52.186288377193705,52.186288377193705 0 0,0 0.8258262499228726,-0.3535757021036803 l 12.02741020364395 28.77370303834334" fill="#8bff24" stroke="none" /><path d="M 93.59665428221793 80.00007090966166 l -6.444917733207739 -20.12977329949088 a42.136336902990344,42.136336902990344 0 0,0 0.6926704685381418,-0.21521608632186756 l 6.097461891958869 20.237729520695268" fill="#fffc17" stroke="none" /><path d="M 94.63758080256005 79.69619591428918 l -3.117888145678133 -11.805304236795061 a33.210095602093034,33.210095602093034 0 0,0 0.5539619664445039,-0.14121723972440578 l 2.9142172905486294 11.85722447268833" fill="#ff860c" stroke="none" /><path d="M 95.33964822691252 79.52364482259891 l -2.169966081249136 -9.534258005835818 a30.778078978798245,30.778078978798245 0 0,0 0.5175953584733414,-0.11312629770012045 l 2.005527998622273 9.570197801631807" fill="#ff6409" stroke="none" /><path d="M 96.40284397218896 79.31037775812273 l -5.0460160438216235 -29.0229739733174 a50.45836547010652,50.45836547010652 0 0,0 0.8570012032931967,-0.14141254161304065 l 4.5456856343895415 29.105532777870064" fill="#9eff22" stroke="none" /><path d="M 97.47563105711357 79.15227682838746 l -2.3488496436305435 -19.39818158520003 a40.53987061013396,40.53987061013396 0 0,0 0.6934891123127582,-0.07792158207635067 l 2.0145938278080675 19.43573912074698" fill="#ffe815" stroke="none" /><path d="M 98.55514903715128 79.0497635885617 l -1.821826556896937 -26.416355768884852 a47.479103159127405,47.479103159127405 0 0,0 0.8158220146129389,-0.049212611834731856 l 1.366842493444375 26.44380165009989" fill="#c1ff1e" stroke="none" /></svg>