<?xml version="1.0" encoding="utf-8" ?>
<svg baseProfile="full" height="200mm" version="1.1" viewBox="0,0,200,200" width="200mm" xmlns="http://www.w3.org/2000/svg" xmlns:ev="http://www.w3.org/2001/xml-events" xmlns:xlink="http://www.w3.org/1999/xlink"><defs /><rect fill="#1a1a1a" height="200" width="200" x="0" y="0" /><text alignment-baseline="middle" fill="#e1ed5e" style="dominant-baseline: central; font-size:9.0px; font-family:Arial;" text-anchor="middle" x="100.0" y="100.0">2022</text><line stroke="#e1ed5e" stroke-width="0.3" x1="100.0" x2="100.0" y1="15.0" y2="10.0" /><path d="M 100.0 14.0 a86.0,86.0 0 0,1 42.46469731375804,11.215312516191453" fill="none" id="id85" stroke="none" /><text fill="#e1ed5e" style="font-size:6.75px; font-family:Arial;" text-anchor="middle"><textPath startOffset="22.20632615414155" xlink:href="#id85">January</textPath></text><path d="M 101.08401301168833 79.027996857942 l 0.6932901229864022 -13.412830363524263 a34.4307360019959,34.4307360019959 0 0,0 0.5916150588525911,0.035687835980633846 l -0.9240672306786053 13.398909258163325" fill="#ffa50f" stroke="none" /><path d="M 101.44485096284872 79.0497635885617 l 0.8899837300916126 -12.904700918765444 a33.93535375792303,33.93535375792303 0 0,0 0.5824111629435716,0.04520631542474295 l -1.1119850823975255 12.887469341152238" fill="#ff9e0e" stroke="none" /><path d="M 101.80526077348638 79.07773832637324 l 1.050011123519107 -12.169215555522833 a33.21443124325864,33.21443124325864 0 0,0 0.5691923439255964,0.05405167152268649 l -1.2593285945349475 12.149338339484968" fill="#ff950d" stroke="none" /><path d="M 102.16513564639614 79.11191278185805 l 1.0138843210526753 -9.781421391544619 a30.83382762994365,30.83382762994365 0 0,0 0.5274541687103605,0.05926562157783426 l -1.182105193272761 9.762519816496184" fill="#ff750a" stroke="none" /><path d="M 103.2404852339499 79.25152402106235 l 1.866127911661209 -11.948614899729627 a33.09346234147698,33.09346234147698 0 0,0 0.5620700707118016,0.0927463776696533 l -2.0715271885118858 11.914722259120348" fill="#ff930d" stroke="none" /><path d="M 103.59715602781102 79.31037775812273 l 2.3471440815069897 -13.499977209270144 a34.702498676889796,34.702498676889796 0 0,0 0.5876370399724828,0.10738691297353888 l -2.579176242582373 13.457574814945866" fill="#ffa90f" stroke="none" /><path d="M 103.95276090670814 79.375362276772 l 2.3117130228811273 -12.062010514240322 a33.281535520683164,33.281535520683164 0 0,0 0.5617187682401495,0.11267550053316389 l -2.518998200588402 12.020431057629951" fill="#ff960d" stroke="none" /><path d="M 104.307194497241 79.44645832069477 l 2.953514929169871 -14.093905496031857 a35.40004939463425,35.40004939463425 0 0,0 0.5953230956685517,0.13011457047643873 l -3.1956807489919505 14.040977427459548" fill="#ffb210" stroke="none" /><path d="M 104.66035177308747 79.52364482259891 l 3.6882089249639147 -16.205016186147077 a37.61942943266923,37.61942943266923 0 0,0 0.6301725802094241,0.14914148967608742 l -3.9666051921358627 16.139128784330122" fill="#ffce13" stroke="none" /><path d="M 105.71112130821622 79.79150937346287 l 2.339967077151827 -8.279845619283057 a29.60414373434773,29.60414373434773 0 0,0 0.48918702246382734,0.1428071062485866 l -2.482144317339081 8.238340184115767" fill="#ff6409" stroke="none" /><path d="M 106.0581310904928 79.89281104454417 l 2.4123991978658528 -8.006853232938722 a29.362378165551057,29.362378165551057 0 0,0 0.4826820207022692,0.14997165340787758 l -2.5498665912788403 7.964141444648323" fill="#ff6008" stroke="none" /><path d="M 106.40334571778207 80.00007090966166 l 8.204569037572154 -25.625790984945418 a47.907175933129764,47.907175933129764 0 0,0 0.7832074493189567,0.2582111821489766 l -8.644459309133529 25.480766078537204" fill="#b3ff20" stroke="none" /><path d="M 107.08798089147638 80.2323363322302 l 3.7534833013082642 -10.46808627434055 a32.12067745869095,32.12067745869095 0 0,0 0.5188524524831606,0.19109773702551874 l -3.9331180795640015 10.401925269508705" fill="#ff860c" stroke="none" /><path d="M 108.43124777332544 80.76684994638697 l 2.8258439298343396 -6.446243995170697 a28.03842706583338,28.03842706583338 0 0,0 0.44036069601794553,0.19757700809706513 l -2.936386744319065 6.396646656557101" fill="#ff4e07" stroke="none" /><path d="M 108.76106565485865 80.91482961587045 l 11.383996372232339 -24.798982107373817 a48.287082785905234,48.287082785905234 0 0,0 0.7524088381108716,0.3532660381941032 l -11.809183421642809 24.59935108653971" fill="#afff20" stroke="none" /><path d="M 109.08828744355905 81.06846463323043 l 5.656573241002621 -11.783035806449691 a34.07045345988051,34.07045345988051 0 0,0 0.5265162425578606,0.2583592335882063 l -5.858560750570914 11.683921412726653" fill="#ffa00e" stroke="none" /><path d="M 109.73455568895987 81.39251694778311 l 5.595305999205475 -10.695358358292774 a33.07054843977886,33.07054843977886 0 0,0 0.5021289611451867,0.2682199012165983 l -5.778580006878973 10.597459730574423" fill="#ff930d" stroke="none" /><line stroke="#e1ed5e" stroke-width="0.3" x1="143.23703022742887" x2="145.7803849466894" y1="26.81831364943548" y2="22.513508569990506" /><path d="M 143.74570117128098 25.957352633546492 a86.0,86.0 0 0,1 28.547481713284135,27.462654790039103" fill="none" id="id86" stroke="none" /><text fill="#e1ed5e" style="font-size:6.75px; font-family:Arial;" text-anchor="middle"><textPath startOffset="19.985693538727396" xlink:href="#id86">February</textPath></text><path d="M 111.60114157652 82.49532879139004 l 10.127217374651934 -15.280703992113592 a39.33195151226536,39.33195151226536 0 0,0 0.5611270491859153,0.3788754884275043 l -10.388749118244391 15.104116591387418" fill="#ffe415" stroke="none" /><path d="M 111.90073688211348 82.69761687909136 l 10.26251997362832 -14.920593079960623 a39.10920799115436,39.10920799115436 0 0,0 0.5513818400822402,0.38627821546967755 l -10.517832953294212 14.74173002172701" fill="#ffe115" stroke="none" /><path d="M 112.48926042617603 83.11751280151076 l 3.5808173393087803 -4.840406943897669 a27.020946121667855,27.020946121667855 0 0,0 0.3715429581770999,0.2798384532056701 l -3.6636064512442634 4.778051901186151" fill="#ff3f05" stroke="none" /><path d="M 112.77801427241765 83.33499621200491 l 8.13402085430664 -10.60833752872339 a34.367839031856136,34.367839031856136 0 0,0 0.46636739398095434,0.36400714839916154 l -8.315420803447024 10.466751991101004" fill="#ffa40f" stroke="none" /><path d="M 113.06298171725822 83.55741782278167 l 7.683391775190992 -9.671207033569788 a33.351791556581674,33.351791556581674 0 0,0 0.4464321551590766,0.36098375552993794 l -7.848727328914559 9.53751718077572" fill="#ff970d" stroke="none" /><path d="M 113.34407831869373 83.78471172551755 l 4.167537055397753 -5.064254955188063 a27.558585469387452,27.558585469387452 0 0,0 0.36369782166231984,0.30458646625277785 l -4.2540924140191905 4.991767331541466" fill="#ff4706" stroke="none" /><path d="M 114.42810811169701 84.74124197986012 l 4.683682744496489 -4.953330061578719 a27.81706408580949,27.81706408580949 0 0,0 0.3450862527552658,0.33197270173908594 l -4.7682522408641725 4.871974273077331" fill="#ff4b06" stroke="none" /><path d="M 114.68862486808459 84.99185889309783 l 9.615144567746542 -9.82429926095741 a34.74655815204352,34.74655815204352 0 0,0 0.4238487745694202,0.4220286332327221 l -9.782829142483285 9.657334777074569" fill="#ffa90f" stroke="none" /><path d="M 114.94478906791727 85.2469230424477 l 15.713917219764657 -15.512338715135996 a43.08075738743405,43.08075738743405 0 0,0 0.5164269610073063,0.5322233785294909 l -15.978608444475071 15.239551141056392" fill="#ecff1a" stroke="none" /><path d="M 115.4437574822437 85.77008943001954 l 4.910590105979342 -4.524628033965025 a27.677286427485676,27.677286427485676 0 0,0 0.3198128362914706,0.3531453216279585 l -4.987746582886848 4.439429925067518" fill="#ff4906" stroke="none" /><path d="M 116.82858285166822 87.43820079747576 l 7.7722010152120715 -5.801607263981283 a30.698750201255002,30.698750201255002 0 0,0 0.3124509841482395,0.4261827912387202 l -7.870914611873938 5.666962029071069" fill="#ff730a" stroke="none" /><path d="M 117.04232023915458 87.72973835380427 l 5.740209524591418 -4.132880487065391 a28.07323875650864,28.07323875650864 0 0,0 0.2789776499864709,0.3945941014657045 l -5.810499794381772 4.033459885267893" fill="#ff4e07" stroke="none" /><path d="M 117.2510076193507 88.02491185347247 l 6.024151458242882 -4.181769918156589 a28.333321242128235,28.333321242128235 0 0,0 0.2746652862497944,0.40303741565538714 l -6.09524121016141 4.077454479230796" fill="#ff5207" stroke="none" /><path d="M 117.45458315368197 88.32363383020206 l 18.96092958235607 -12.68404720834832 a43.812319132667646,43.812319132667646 0 0,0 0.413929120413982,0.6304424484351193 l -19.176455338127976 12.355786695935526" fill="#e3ff1b" stroke="none" /><path d="M 117.65298651832404 88.62581576622439 l 5.653937882324852 -3.6429490870075982 a27.725926822952918,27.725926822952918 0 0,0 0.2550420919380261,0.4034153409550976 l -5.715807570508834 3.5450860983382944" fill="#ff4906" stroke="none" /><line stroke="#e1ed5e" stroke-width="0.3" x1="172.23445277983987" x2="176.4835382374775" y1="55.19839476539836" y2="52.563006222186495" /><path d="M 173.08426987136738 54.67131705675599 a86.0,86.0 0 0,1 12.851231095245387,41.99856678651699" fill="none" id="id87" stroke="none" /><text fill="#e1ed5e" style="font-size:6.75px; font-family:Arial;" text-anchor="middle"><textPath startOffset="22.20632615414155" xlink:href="#id87">March</textPath></text><path d="M 117.84615892207809 88.93136811851018 l 5.10990104459297 -3.1692877924261933 a27.012942191369714,27.012942191369714 0 0,0 0.24168119426504187,0.39726033758043283 l -5.163698037144235 3.080859681638679" fill="#ff3f05" stroke="none" /><path d="M 118.03404312379186 89.2402003453031 l 8.418841421730402 -5.023002684460488 a30.803440561983372,30.803440561983372 0 0,0 0.2677557175056366,0.45768131550818614 l -8.504056813706367 4.877341956598407" fill="#ff740a" stroke="none" /><path d="M 118.21658344932153 89.55222093294921 l 20.563392598960366 -11.793747347885205 a44.70539161635444,44.70539161635444 0 0,0 0.37710564370792937,0.6708288615779096 l -20.76335588396073 11.438034976372501" fill="#d8ff1c" stroke="none" /><path d="M 118.3937258080291 89.86733742301442 l 14.96401506482639 -8.243317152342703 a38.08432101473332,38.08432101473332 0 0,0 0.3113699745235109,0.5769212738884734 l -15.103693138568364 7.98451489512177" fill="#ffd413" stroke="none" /><path d="M 118.89224826269711 90.83032412892265 l 11.587766912605067 -5.624320895040665 a33.880579472650126,33.880579472650126 0 0,0 0.25013839214893313,0.52685524710892 l -11.682863498595756 5.424023232291205" fill="#ff9e0e" stroke="none" /><path d="M 119.04729006885535 91.15688171328212 l 19.151639764313163 -8.89156490021411 a42.11504752627236,42.11504752627236 0 0,0 0.2996138343525532,0.6601593686771138 l -19.301855915629062 8.560583522694934" fill="#f8ff18" stroke="none" /><path d="M 119.196687751892 91.48605970444005 l 9.359479039208475 -4.151030988640836 a31.238696506589076,31.238696506589076 0 0,0 0.21377575716199262,0.4934239215826238 l -9.429545506213149 3.98930792247161" fill="#ff7a0b" stroke="none" /><path d="M 119.34039704204932 91.81776055985345 l 5.753948364187349 -2.4342924883941146 a27.247695710963065,27.247695710963065 0 0,0 0.17902814716366086,0.4335308587420583 l -5.794998198237207 2.334887059198753" fill="#ff4306" stroke="none" /><path d="M 119.47837535516314 92.15188598940014 l 14.739314288103046 -5.938679015158926 a36.890729817367344,36.890729817367344 0 0,0 0.23224725863940202,0.5910439408178095 l -14.839355096624148 5.684086069445332" fill="#ffc512" stroke="none" /><path d="M 119.85752413597 93.16781622104841 l 24.481582985626158 -8.423138403970102 a46.89009783787107,46.89009783787107 0 0,0 0.2560259768284176,0.7654850831155453 l -24.622946256226346 8.000480217932243" fill="#bfff1e" stroke="none" /><path d="M 119.97218684219823 93.5106431181261 l 16.269730025022685 -5.286355737521768 a38.107006519866474,38.107006519866474 0 0,0 0.19732990424022345,0.6255897217005394 l -16.358315413031118 5.005515849394809" fill="#ffd513" stroke="none" /><path d="M 120.08093135843002 93.85539295169968 l 18.26033770044566 -5.587519708910288 a40.09608099668039,40.09608099668039 0 0,0 0.19626860359001347,0.6617201609562063 l -18.353812201147374 5.272370161207552" fill="#ffee16" stroke="none" /><path d="M 120.18372546131832 94.20196356495316 l 13.35207260251157 -3.8355557095303636 a34.89205997624726,34.89205997624726 0 0,0 0.16085776228060217,0.5786909566740436 l -13.416117135358535 3.605153449437368" fill="#ffab0f" stroke="none" /><path d="M 120.28053869075195 94.5502522615342 l 13.710439416152322 -3.68424317227927 a35.19682347345594,35.19682347345594 0 0,0 0.15219050847158255,0.5864521115565886 l -13.771826256494208 3.447694635173831" fill="#ffaf10" stroke="none" /><path d="M 120.53481517161879 95.60439243477599 l 17.19078390664717 -3.679796441344486 a38.58021482163318,38.58021482163318 0 0,0 0.1334153506713178,0.6505806313707364 l -17.251578553233482 3.383340153810338" fill="#ffdb14" stroke="none" /><path d="M 120.6074358757038 95.95851677861258 l 18.419636708449644 -3.6124170493729038 a39.7705240579443,39.7705240579443 0 0,0 0.12596702940189003,0.6729209080281032 l -18.479089461761394 3.2948180638822375" fill="#ffea15" stroke="none" /><path d="M 120.73433829027371 96.67025291283417 l 6.327156946018964 -1.0160841458311896 a27.4082245599671,27.4082245599671 0 0,0 0.07079688827002158,0.46646303740425593 l -6.343709727728285 0.9070219960348516" fill="#ff4506" stroke="none" /><path d="M 120.78858239683441 97.02765380044208 l 25.818960372312226 -3.6915883572159607 a47.08153636782468,47.08153636782468 0 0,0 0.10780326852709532,0.8032595670479538 l -25.878679639897157 3.2466104481033424" fill="#bdff1f" stroke="none" /><path d="M 120.87857604477298 97.74499172005257 l 19.508380295721125 -2.1070191281664457 a40.621835575932735,40.621835575932735 0 0,0 0.06910136794458176,0.6958413449697194 l -19.541758789347934 1.7709022524922913" fill="#fff417" stroke="none" /><path d="M 120.94382443527127 98.46500227214037 l 25.119697859887218 -1.8410524428628767 a46.18707396005725,46.18707396005725 0 0,0 0.05128834609447072,0.7934080133221582 l -25.147666796986105 1.4083853652876832" fill="#c7ff1e" stroke="none" /><path d="M 120.96714384426684 98.82574320788733 l 17.582703256774508 -0.9847125043029886 a38.61025589058602,38.61025589058602 0 0,0 0.0314515315937769,0.6638921225016433 l -17.59704839660178 0.6819092751783455" fill="#ffdb14" stroke="none" /><line stroke="#e1ed5e" stroke-width="0.3" x1="184.98032266829074" x2="189.97916517819016" y1="98.17113171792111" y2="98.06355123074" /><path d="M 185.9800911702706 98.14961562048488 a86.0,86.0 0 0,1 -9.607161424134198,41.387399972396054" fill="none" id="id88" stroke="none" /><text fill="#e1ed5e" style="font-size:6.75px; font-family:Arial;" text-anchor="middle"><textPath startOffset="21.466115282336823" xlink:href="#id88">April</textPath></text><path d="M 120.99980553446 99.90962569577887 l 14.707222728734042 -0.06329368236069753 a35.707358922757614,35.707358922757614 0 0,0 -0.002645239764801085,0.6146605623312363 l -14.706133191679738 -0.18987635817422358" fill="#ffb610" stroke="none" /><path d="M 120.9904718944345 100.63252640178507 l 22.821486464908084 0.6877021531308404 a43.83184571425192,43.83184571425192 0 0,0 -0.029216778723555093,0.7539552370171149 l -22.806267553333328 -1.0804346371619613" fill="#e3ff1b" stroke="none" /><path d="M 120.9764740272857 100.99374915477107 l 8.786270829411555 0.41624484643891324 a29.79612499115124,29.79612499115124 0 0,0 -0.028680400737259536,0.5121078215672104 l -8.777804077786767 -0.5674243843415469" fill="#ff6609" stroke="none" /><path d="M 120.95626037817324 101.35467743843564 l 8.652553119108607 0.5593277752709486 a29.67061261037452,29.67061261037452 0 0,0 -0.037333318652542566,0.5093834715541763 l -8.641643241791726 -0.708184383321895" fill="#ff6509" stroke="none" /><path d="M 120.92983693683757 101.71520430193887 l 24.74734886906382 2.028050164456459 a45.83030937215052,45.83030937215052 0 0,0 -0.0712015402863309,0.7857030639310031 l -24.708772732500414 -2.4537346169360323" fill="#cbff1d" stroke="none" /><path d="M 120.89721153311464 102.0752229133903 l 16.95646299733613 1.683882104861959 a38.03986784934389,38.03986784934389 0 0,0 -0.07031524386265053,0.6510318295271744 l -16.924965451972426 -1.9755102562739248" fill="#ffd413" stroke="none" /><path d="M 120.76222939487914 103.15116336523771 l 25.1289006973113 3.813909854285399 a46.416678749040905,46.416678749040905 0 0,0 -0.1266915521081281,0.788908415913844 l -25.059527390841883 -4.245897499892449" fill="#c4ff1e" stroke="none" /><path d="M 120.70491114924044 103.5080841355445 l 25.721843463173425 4.358115344698204 a47.08843422863264,47.08843422863264 0 0,0 -0.1422823179278029,0.7979947999667841 l -25.64301470290643 -4.800228895398206" fill="#bdff1f" stroke="none" /><path d="M 120.5718875245553 104.21870165774334 l 27.918277828347588 5.7252347318739805 a49.49927279135137,49.49927279135137 0 0,0 -0.17835285991422004,0.8332051847948544 l -27.815590929708925 -6.204953736085004" fill="#a1ff22" stroke="none" /><path d="M 120.49622156327973 104.57218783832717 l 15.615485708032294 3.483419303572959 a36.99930010788802,36.99930010788802 0 0,0 -0.14401437389449534,0.6204101535311426 l -15.553210768207245 -3.751698114452666" fill="#ffc612" stroke="none" /><path d="M 120.23288151984713 105.62410040840565 l 19.87137671003858 5.523613517969885 a41.62478893584522,41.62478893584522 0 0,0 -0.19783144875520836,0.6886772261647146 l -19.77335262439727 -5.864848219639182" fill="#feff18" stroke="none" /><path d="M 120.13307415673323 105.97154293290107 l 16.393728224856858 4.862439345473974 a38.09963863649995,38.09963863649995 0 0,0 -0.1919010354729831,0.6271436872453119 l -16.307600416877744 -5.1439100052713425" fill="#ffd413" stroke="none" /><path d="M 120.02730092923936 106.31721596034902 l 6.909601622240096 2.1794971674860846 a28.245191680082925,28.245191680082925 0 0,0 -0.1502479420093663,0.4624156176166922 l -6.871061429214484 -2.2981116850805723" fill="#ff5107" stroke="none" /><path d="M 119.9155931802556 106.66101706037122 l 22.305311916101793 7.460288120233068 a44.51983925352134,44.51983925352134 0 0,0 -0.24933053814988482,0.7246712529014314 l -22.17359054700868 -7.8431320762238" fill="#dbff1b" stroke="none" /><path d="M 119.79798401119884 107.00284435728193 l 16.770416137118573 5.931948118993308 a38.788616188409804,38.788616188409804 0 0,0 -0.22806919278326315,0.6275484667188512 l -16.665822683330084 -6.21974438271829" fill="#ffdd14" stroke="none" /><path d="M 119.54520255179757 107.68017299344265 l 22.529789458351463 8.85294895703529 a45.206737043094364,45.206737043094364 0 0,0 -0.29082438059407356,0.7218022623006304 l -22.374062463499996 -9.239450587178734" fill="#d3ff1c" stroke="none" /><path d="M 119.41010516605496 108.01547362559984 l 20.121074793043796 8.309071122624102 a42.7692056296983,42.7692056296983 0 0,0 -0.2868571737203516,0.6780456224356523 l -19.975066638131135 -8.654191270725919" fill="#f0ff19" stroke="none" /><path d="M 119.26925614724726 108.34839909993367 l 4.820331966690418 2.088407292143896 a26.2532889970929,26.2532889970929 0 0,0 -0.1832215979833497,0.4131163343632175 l -4.7836692839757955 -2.171071962999801" fill="#ff3405" stroke="none" /><path d="M 119.12269723197855 108.67885076344098 l 12.915089065467756 5.86152304959889 a35.182981986519756,35.182981986519756 0 0,0 -0.25503537683882294,0.5493235126985815 l -12.812279071789101 -6.082966629576303" fill="#ffaf10" stroke="none" /><path d="M 118.97047184881838 109.00673069616215 l 15.379921058462884 7.302022227266668 a38.02531939119048,38.02531939119048 0 0,0 -0.28581775390879866,0.5888692294744244 l -15.25195004793937 -7.565680412706367" fill="#ffd413" stroke="none" /><path d="M 118.81262510543309 109.33194174019688 l 7.417107931577276 3.679232361795256 a29.279507282486563,29.279507282486563 0 0,0 -0.2278521918145989,0.449573990793242 l -7.352677069976408 -3.806360564291192" fill="#ff5f08" stroke="none" /><line stroke="#e1ed5e" stroke-width="0.3" x1="174.80103733775053" x2="179.2010983576182" y1="140.37084112569926" y2="142.7455964860345" /><path d="M 175.68104954172406 140.8457921977663 a86.0,86.0 0 0,1 -30.038265399797805,32.042727171017184" fill="none" id="id89" stroke="none" /><text fill="#e1ed5e" style="font-size:6.75px; font-family:Arial;" text-anchor="middle"><textPath startOffset="22.206326154141568" xlink:href="#id89">May</textPath></text><path d="M 117.75023020441432 111.22182372390056 l 11.127307368919961 7.03476407785549 a34.16453094164416,34.16453094164416 0 0,0 -0.3185356668275338,0.4943744286657545 l -11.004566838715377 -7.225260106442697" fill="#ffa10e" stroke="none" /><path d="M 117.55443506779139 111.5257021239791 l 25.28970666329317 16.604443531124087 a51.25354207516375,51.25354207516375 0 0,0 -0.49056203780042196,0.7333236861802959 l -25.000141520082025 -17.03730413151019" fill="#8eff24" stroke="none" /><path d="M 117.35343817320211 111.8261652097733 l 15.51685307048109 10.574553936560143 a39.77748439403207,39.77748439403207 0 0,0 -0.39046164515990744,0.5624891218584425 l -15.332530518159047 -10.840084320605605" fill="#ffea16" stroke="none" /><path d="M 116.93607887273984 112.41649034213515 l 10.841573719973873 7.948374378692562 a34.443079111181504,34.443079111181504 0 0,0 -0.3546632284820297,0.4751293527881444 l -10.703149224796752 -8.13381661099002" fill="#ffa50f" stroke="none" /><path d="M 116.71984013943494 112.70617746262583 l 20.849234058462493 15.844294305292323 a47.18648931906053,47.18648931906053 0 0,0 -0.49701570270421985,0.6424597941361602 l -20.573411538540203 -16.200832093541734" fill="#bbff1f" stroke="none" /><path d="M 116.498646956653 112.99209946851258 l 10.532471195491066 8.293947605557062 a34.40606267207396,34.40606267207396 0 0,0 -0.3704092612797158,0.46214250647401883 l -10.388144022156498 -8.474017945609331" fill="#ffa50f" stroke="none" /><path d="M 115.32070863581623 114.36230785411682 l 18.895924235852885 17.713872609582957 a46.90052577759042,46.90052577759042 0 0,0 -0.5572082818281336,0.5842306558074443 l -18.588209402645784 -18.036510381972906" fill="#bfff1e" stroke="none" /><path d="M 115.07121518719521 114.62390073753431 l 11.70245160592532 11.355122234353802 a37.30601651373321,37.30601651373321 0 0,0 -0.4511529826426454,0.45701558951772253 l -11.50525799822714 -11.55487831785219" fill="#ffca12" stroke="none" /><path d="M 114.81725581225074 114.88116024355365 l 8.724558260244697 8.762185870988187 a33.36502398194799,33.36502398194799 0 0,0 -0.41046931117709673,0.40173061332483173 l -8.572438996691806 -8.91106658723559" fill="#ff970d" stroke="none" /><path d="M 114.55890576462653 115.13401014063108 l 9.263921240759489 9.629863690738587 a34.36242910017487,34.36242910017487 0 0,0 -0.4297989889477364,0.40640177075035483 l -9.096786417420944 -9.787900098234864" fill="#ffa40f" stroke="none" /><path d="M 114.29624159901734 115.38237550388516 l 12.033125487501051 12.94732279474314 a38.67566905520758,38.67566905520758 0 0,0 -0.4915501664526367,0.44901942251252686 l -11.80847577158155 -13.152534983842251" fill="#ffdc14" stroke="none" /><path d="M 113.48314897796784 116.09983520530334 l 8.64978388120884 10.328454819902207 a34.47203548682906,34.47203548682906 0 0,0 -0.45819880163054477,0.37706641972634275 l -8.470714951033605 -10.475816358485728" fill="#ffa50f" stroke="none" /><path d="M 113.20401910651253 116.32954008644616 l 16.483603656093905 20.385434502932153 a47.21593273878557,47.21593273878557 0 0,0 -0.6363864755273703,0.5055839043603783 l -16.130259687849183 -20.66615232129766" fill="#bbff1f" stroke="none" /><path d="M 112.63410532772338 116.77436683061366 l 8.127145753836304 10.79045335023182 a34.50867801110192,34.50867801110192 0 0,0 -0.4775590705244107,0.3532867835490289 l -7.940201712893328 -10.928750082520617" fill="#ffa60f" stroke="none" /><path d="M 112.34349029814194 116.9893568818739 l 9.233368499457109 12.70864146770081 a36.7087447557509,36.7087447557509 0 0,0 -0.51439906717086,0.3670100762840869 l -9.013242104437364 -12.865695805829116" fill="#ffc312" stroke="none" /><path d="M 111.45004920935366 117.60387380957326 l 17.04749137407198 26.20965914048608 a52.266007010961985,52.266007010961985 0 0,0 -0.7584001652658493,0.48404686793455964 l -16.5938094067592 -26.49922043724445" fill="#83ff25" stroke="none" /><path d="M 111.1453310114006 117.79835938074945 l 7.122870118303126 11.37475433060547 a34.4208909839788,34.4208909839788 0 0,0 -0.5048738276156158,0.31013474077199454 l -6.9260170907552014 -11.495677538205841" fill="#ffa50f" stroke="none" /><line stroke="#e1ed5e" stroke-width="0.3" x1="143.8653032363475" x2="146.44561519142675" y1="172.8068346515853" y2="177.08958963109032" /><path d="M 144.38136562736335 173.6633856474863 a86.0,86.0 0 0,1 -40.68145358897372,12.25698825130547" fill="none" id="id90" stroke="none" /><text fill="#e1ed5e" style="font-size:6.75px; font-family:Arial;" text-anchor="middle"><textPath startOffset="21.466115282336833" xlink:href="#id90">June</textPath></text><path d="M 110.8373102113329 117.98757091392108 l 9.069679072191299 15.053688811726069 a38.57477241140924,38.57477241140924 0 0,0 -0.5717004067713585,0.33777067735493405 l -8.809210794391559 -15.207578061374752" fill="#ffdb14" stroke="none" /><path d="M 110.5260780823613 118.17145234162733 l 6.029955606076281 10.409674910312216 a33.03003309844301,33.03003309844301 0 0,0 -0.49443007776805564,0.2807503019890818 l -5.849876761387026 -10.511928378095925" fill="#ff920d" stroke="none" /><path d="M 109.2508944713604 118.85261126421891 l 3.399226810582494 6.927362738513489 a28.716417395445113,28.716417395445113 0 0,0 -0.4456341261711102,0.21393146170338237 l -3.279480016411151 -6.984848476716431" fill="#ff5708" stroke="none" /><path d="M 108.92500713936063 119.00905698771935 l 7.251284372741157 15.44425407434128 a38.0618319346771,38.0618319346771 0 0,0 -0.5954538062030051,0.2733436372628924 l -6.984362570770732 -15.566784781938248" fill="#ffd413" stroke="none" /><path d="M 107.93186726928326 119.44442032107085 l 9.863016706967155 24.17849870316136 a47.112810995767745,47.112810995767745 0 0,0 -0.7535333458048287,0.2998464694516578 l -9.44536228512046 -24.34469201701909" fill="#bcff1f" stroke="none" /><path d="M 107.59598834532513 119.57807347666477 l 2.98560165058757 7.695157737205975 a29.25404566358051,29.25404566358051 0 0,0 -0.4710316191473961,0.17810385378806165 l -2.852699810679899 -7.745409841100668" fill="#ff5f08" stroke="none" /><path d="M 106.91757812671514 119.82793768551818 l 3.950057247059331 11.322096767718538 a32.99136470434573,32.99136470434573 0 0,0 -0.537806794762096,0.18245326451987623 l -3.754580719360008 -11.388413019136538" fill="#ff920d" stroke="none" /><path d="M 106.57524785965236 119.94407469862006 l 5.555321714307379 16.850429612682344 a38.742564005278865,38.742564005278865 0 0,0 -0.6351541820697885,0.2033563115907622 l -5.26444618714665 -16.943558770932814" fill="#ffdd14" stroke="none" /><path d="M 105.53697534728816 120.25689768951611 l 4.657005285910909 17.03754734296156 a38.662551279378036,38.662551279378036 0 0,0 -0.6434729132111043,0.1699470448133514 l -4.363041929888307 -17.115185737078495" fill="#ffdc14" stroke="none" /><path d="M 104.48393922423573 120.51570834832081 l 2.6550785759980444 12.147983053078775 a33.43474706226922,33.43474706226922 0 0,0 -0.5633094759799937,0.11804697764705283 l -2.4455776385886727 -12.19188601145237" fill="#ff980e" stroke="none" /><path d="M 104.13013068566511 120.58985236759428 l 2.9008613014557363 14.461601939896607 a35.74967548654223,35.74967548654223 0 0,0 -0.6043948841083121,0.1158337180113059 l -2.6514988027757203 -14.509392856256381" fill="#ffb610" stroke="none" /><path d="M 103.7750983002368 120.6578951692458 l 2.2208678117644625 12.152916504797941 a33.35417473609313,33.35417473609313 0 0,0 -0.5656725541885969,0.09834942437703001 l -2.011346286103816 -12.189344507695978" fill="#ff970d" stroke="none" /><path d="M 103.41894727170886 120.7198165907248 l 1.4231645969183448 8.624792102108765 a29.741420724031048,29.741420724031048 0 0,0 -0.5058366118073476,0.07900127570896757 l -1.27449212150248 -8.648011685164839" fill="#ff6609" stroke="none" /><path d="M 101.98527174616119 120.90594882070398 l 1.0293741219684613 10.839847367415498 a31.888613411809743,31.888613411809743 0 0,0 -0.5468983485526935,0.04718869074136333 l -0.8426314556742263 -10.855960310435524" fill="#ff830c" stroke="none" /><path d="M 101.62511606390274 120.93702456842531 l 0.943326682394046 12.153257458980729 a33.18981263572116,33.18981263572116 0 0,0 -0.5699753523433835,0.03930883740212868 l -0.7339885692717322 -12.167694640899143" fill="#ff940d" stroke="none" /><path d="M 101.26447882468166 120.96189622390904 l 0.7422206354671442 12.304161708538667 a33.32652776825584,33.32652776825584 0 0,0 -0.5729178172709453,0.02961330705240469 l -0.5303147497827193 -12.315114822353273" fill="#ff960d" stroke="none" /><path d="M 100.90346689309514 120.98055641714683 l 1.0899867554201035 25.31197190600991 a46.33542959765289,46.33542959765289 0 0,0 -0.7971451290497116,0.0274552900236731 l -0.6541212746957394 -25.326983994459674" fill="#c5ff1e" stroke="none" /><line stroke="#e1ed5e" stroke-width="0.3" x1="102.19456741930631" x2="102.32365962044197" y1="184.97166512339345" y2="189.96999836594603" /><path d="M 102.22038585953345 185.97133177190398 a86.0,86.0 0 0,1 -42.740103519485714,-10.115201625700543" fill="none" id="id91" stroke="none" /><text fill="#e1ed5e" style="font-size:6.75px; font-family:Arial;" text-anchor="middle"><textPath startOffset="22.20632615414155" xlink:href="#id91">July</textPath></text><path d="M 100.54218724476979 120.99299961872073 l 0.32379458274695866 12.537033317773519 a33.54121395012379,33.54121395012379 0 0,0 -0.5772927034051959,0.009938617423295822 l -0.10794218944909476 -12.540749412475975" fill="#ff990e" stroke="none" /><path d="M 99.45781275523022 120.99299961872073 l -0.6308355152395495 24.425380454168685 a45.43352540625632,45.43352540625632 0 0,0 -0.7816289562358788,-0.026920881659201746 l 1.0511848231500713 -24.41090277408339" fill="#d0ff1d" stroke="none" /><path d="M 99.09653310690486 120.98055641714683 l -0.7629280952376613 17.716925840551617 a38.73334487675996,38.73334487675996 0 0,0 -0.6658666500364574,-0.03441770000698181 l 1.0677828136876075 -17.701168333782434" fill="#ffdd14" stroke="none" /><path d="M 98.73552117531835 120.96189622390904 l -0.8101750172436719 13.430675392244106 a34.45508918775335,34.45508918775335 0 0,0 -0.5917042019898622,-0.04080738609230807 l 1.0412419800124642 -13.414739661635512" fill="#ffa50f" stroke="none" /><path d="M 98.37488393609728 120.93702456842531 l -0.6905627502365936 8.896797951169852 a29.923558185833407,29.923558185833407 0 0,0 -0.5131971197152145,-0.04428080690989025 l 0.84360418769335 -8.883592891981298" fill="#ff6809" stroke="none" /><path d="M 98.01472825383883 120.90594882070398 l -1.0179000197315382 10.719019075473941 a31.76724154045704,31.76724154045704 0 0,0 -0.5439268835097651,-0.05638024545862981 l 1.2022594998468967 -10.69990946155955" fill="#ff810b" stroke="none" /><path d="M 96.93821686468263 120.77559828337769 l -1.1293760582549912 7.6633328554597995 a28.746106165973277,28.746106165973277 0 0,0 -0.48890848492322503,-0.07635745043418043 l 1.2611204067867334 -7.642757097678513" fill="#ff5808" stroke="none" /><path d="M 96.58105272829116 120.7198165907248 l -2.902988105562603 17.59295371708062 a38.830854170016046,38.830854170016046 0 0,0 -0.6585546976795263,-0.1144981755929004 l 3.2053917747141787 -17.54037696296671" fill="#ffde14" stroke="none" /><path d="M 95.86986931433489 120.58985236759428 l -2.162597862713358 10.781152973752064 a31.995912375026247,31.995912375026247 0 0,0 -0.5390679522686398,-0.11296693065742122 l 2.3478572764113848 -10.742330062368103" fill="#ff840c" stroke="none" /><path d="M 95.51606077576429 120.51570834832081 l -2.7469173861029357 12.568180149637348 a33.864863287256995,33.864863287256995 0 0,0 -0.5684134263011179,-0.12936904523089682 l 2.962850961796916 -12.519034370828765" fill="#ff9d0e" stroke="none" /><path d="M 94.46302465271185 120.25689768951611 l -2.703391030691004 9.890294265132347 a31.25310897804809,31.25310897804809 0 0,0 -0.5177134530139426,-0.14631099312164758 l 2.8732356518095603 -9.842294478672178" fill="#ff7a0b" stroke="none" /><path d="M 94.11515582081647 120.15858648285463 l -3.767291849123726 12.904891996180321 a34.44353842221433,34.44353842221433 0 0,0 -0.567703362702729,-0.17104436624063718 l 3.9888701862667006 -12.838132260833959" fill="#ffa50f" stroke="none" /><path d="M 93.76903079525671 120.05430185196036 l -4.9264081178853285 15.855587180051 a37.603287077207455,37.603287077207455 0 0,0 -0.6164766235762003,-0.1973763471789724 l 5.19860608655247 -15.768437986212321" fill="#ffce13" stroke="none" /><path d="M 93.42475214034765 119.94407469862007 l -3.7862802454351367 11.4845641801951 a33.09260652241661,33.09260652241661 0 0,0 -0.539457182315342,-0.18301316558424557 l 3.9834071606877046 -11.417688027712732" fill="#ff930d" stroke="none" /><path d="M 93.08242187328487 119.8279376855182 l -3.585508580085286 10.277186523165605 a31.884688080501064,31.884688080501064 0 0,0 -0.5166540794865248,-0.1852537712321849 l 3.7618822202015374 -10.213945210893462" fill="#ff830c" stroke="none" /><path d="M 92.06813273071674 119.44442032107085 l -5.063945443154158 12.413909655419438 a34.40703906103647,34.40703906103647 0 0,0 -0.5464633105257762,-0.228421708119262 l 5.276880213177397 -12.324902904280203" fill="#ffa50f" stroke="none" /><path d="M 91.7346041902142 119.30500536409082 l -4.770684832568239 11.142611727568722 a33.12094179026732,33.12094179026732 0 0,0 -0.5221742410772314,-0.22890584200185204 l 4.961779748303214 -11.058841332272417" fill="#ff940d" stroke="none" /><path d="M 91.40352486487194 119.15986991738527 l -6.0042771065450875 13.382365039275447 a35.66761867572931,35.66761867572931 0 0,0 -0.5579978214162271,-0.25614943174732474 l 6.233742923728735 -13.277028537194049" fill="#ffb510" stroke="none" /><path d="M 91.07499286063937 119.00905698771935 l -5.679977787155118 12.09758376201663 a34.364642926078645,34.364642926078645 0 0,0 -0.5332857999192441,-0.25600959168593185 l 5.887376255074605 -11.998019893831135" fill="#ffa40f" stroke="none" /><path d="M 90.7491055286396 118.85261126421891 l -5.341691058497954 10.885955442599142 a33.125909832366844,33.125909832366844 0 0,0 -0.5097384912753604,-0.25559346152296086 l 5.528283457456075 -10.79239414016688" fill="#ff940d" stroke="none" /><line stroke="#e1ed5e" stroke-width="0.3" x1="58.666819895761336" x2="56.23545636021788" y1="174.27360380694188" y2="178.64263932499728" /><path d="M 58.180547188652646 175.14741091055294 a86.0,86.0 0 0,1 -31.652253787137756,-30.449443065178592" fill="none" id="id92" stroke="none" /><text fill="#e1ed5e" style="font-size:6.75px; font-family:Arial;" text-anchor="middle"><textPath startOffset="22.20632615414155" xlink:href="#id92">August</textPath></text><path d="M 89.7882731507175 118.34994917583269 l -5.841580023208644 10.497019565302011 a33.01297119458311,33.01297119458311 0 0,0 -0.4941746763148508,-0.2806052783783835 l 6.021403466444703 -10.394911121128994" fill="#ff920d" stroke="none" /><path d="M 89.1626897886671 117.98757091392108 l -4.799927810078602 7.966833114660075 a30.30106106091183,30.30106106091183 0 0,0 -0.4444455748039061,-0.27301477238390753 l 4.936352584814817 -7.883029875447789" fill="#ff6d0a" stroke="none" /><path d="M 88.8546689885994 117.79835938074946 l -0.8709024550799035 1.390773846486343 a22.64095185131515,22.64095185131515 0 0,0 -0.32852904990833925,-0.20968278346551308 l 0.8947133070351663 -1.375576634197026" fill="#ff0000" stroke="none" /><path d="M 87.65650970185807 116.9893568818739 l -15.834425091508269 21.794216417007096 a47.93913300776267,47.93913300776267 0 0,0 -0.6634205979599681,-0.49078269822428755 l 16.2072306598868 -21.518423770043043" fill="#b3ff20" stroke="none" /><path d="M 87.36589467227662 116.77436683061367 l -8.065047318290235 10.7080049369539 a34.40546000613517,34.40546000613517 0 0,0 -0.46999705041554696,-0.3603736965562715 l 8.248173097199269 -10.567591898570262" fill="#ffa50f" stroke="none" /><path d="M 87.07902340077011 116.55440617244103 l -10.005580613342858 12.819189338540525 a37.26171143230175,37.26171143230175 0 0,0 -0.5022213442590938,-0.39899500986914155 l 10.224759450319308 -12.645060414666252" fill="#ffca12" stroke="none" /><path d="M 86.79598089348748 116.32954008644616 l -8.394593299961073 10.381675965124575 a34.3509697219564,34.3509697219564 0 0,0 -0.45658960775499896,-0.37574216272012284 l 8.572053036260762 -10.235638683547272" fill="#ffa40f" stroke="none" /><path d="M 86.51685102203217 116.09983520530335 l -5.461855511457162 6.52184247117112 a29.506838122757856,29.506838122757856 0 0,0 -0.38658808783918674,-0.32945875530601476 l 5.573309075873405 -6.4268593256421545" fill="#ff6209" stroke="none" /><path d="M 85.70375840098266 115.38237550388516 l -10.810455728107842 11.631762671757812 a36.879668003503035,36.879668003503035 0 0,0 -0.4612841535278005,-0.4361729590656907 l 11.009075716026459 -11.44395507594619" fill="#ffc512" stroke="none" /><path d="M 85.44109423537348 115.13401014063109 l -8.523441554822274 8.860133653531193 a33.294349283183195,33.294349283183195 0 0,0 -0.40959984394891996,-0.4008796566434708 l 8.674691351146988 -8.712103893965152" fill="#ff960d" stroke="none" /><path d="M 85.18274418774928 114.88116024355367 l -8.601956272163067 8.63905512033243 a33.19126429376164,33.19126429376164 0 0,0 -0.40139203493620496,-0.4066080122081106 l 8.749388932154805 -8.489706614143655" fill="#ff940d" stroke="none" /><path d="M 84.9287848128048 114.62390073753433 l -11.79144031229881 11.441469751299442 a37.43001201181562,37.43001201181562 0 0,0 -0.444692513274044,-0.4662583223105954 l 11.986639376951812 -11.236804312406345" fill="#ffcc13" stroke="none" /><path d="M 84.67929136418377 114.36230785411682 l -8.952379009468087 8.392354845789024 a33.27097020560328,33.27097020560328 0 0,0 -0.38808779339664773,-0.42119265146197604 l 9.095513210860464 -8.237010939525703" fill="#ff960d" stroke="none" /><path d="M 83.95833913139862 113.55231037782056 l -10.015002730180603 8.46087113708952 a34.11055376725024,34.11055376725024 0 0,0 -0.3750601576526039,-0.4517841211417352 l 10.159158887726743 -8.287225758834023" fill="#ffa10e" stroke="none" /><path d="M 83.72743513129214 113.27417163493432 l -9.59539532110768 7.827341628384806 a33.383008048765085,33.383008048765085 0 0,0 -0.3593952457882949,-0.4484008286661697 l 9.728708478950836 -7.661012966140377" fill="#ff970d" stroke="none" /><path d="M 83.28015986056508 112.70617746262583 l -14.404413075400521 10.946577673869594 a39.09184011693752,39.09184011693752 0 0,0 -0.4025319042592775,-0.5392572665789593 l 14.590706246354884 -10.697007527781327" fill="#ffe115" stroke="none" /><path d="M 83.06392112726016 112.41649034213515 l -9.992606739652283 7.32596405625827 a33.39039703992299,33.39039703992299 0 0,0 -0.33584412359206833,-0.4664581139122474 l 10.11723065561996 -7.152872336894885" fill="#ff970d" stroke="none" /><path d="M 82.44556493220864 111.52570212397912 l -21.73087010248475 14.267820908442095 a46.99618104426962,46.99618104426962 0 0,0 -0.4381725565866603,-0.680053538358791 l 21.973247522448457 -13.891645770161857" fill="#beff1f" stroke="none" /><path d="M 82.24976979558568 111.22182372390057 l -15.147347466208899 9.57626245930013 a38.92057303635869,38.92057303635869 0 0,0 -0.35313073370534487,-0.5693591820064556 l 15.309942839582199 -9.31410694592841" fill="#ffdf14" stroke="none" /><line stroke="#e1ed5e" stroke-width="0.3" x1="26.63291911575756" x2="22.317208475507996" y1="142.92168965132927" y2="145.44649492493687" /><path d="M 25.769776987707644 143.4266507060508 a86.0,86.0 0 0,1 -11.730757126820373,-40.83630448921669" fill="none" id="id93" stroke="none" /><text fill="#e1ed5e" style="font-size:6.75px; font-family:Arial;" text-anchor="middle"><textPath startOffset="21.46611528233685" xlink:href="#id93">September</textPath></text><path d="M 81.87401531095188 110.60418214915194 l -26.535845139377617 15.524173729974907 a51.74330898357354,51.74330898357354 0 0,0 -0.44313956348411754,-0.7726511812795354 l 26.79913669901411 -15.065102702837065" fill="#88ff25" stroke="none" /><path d="M 81.69416730710424 110.29060199501025 l -11.80633990063573 6.6369198808640615 a34.54394209063048,34.54394209063048 0 0,0 -0.2869180195784121,-0.5208395465072365 l 11.918834329665659 -6.432709815959002" fill="#ffa60f" stroke="none" /><path d="M 81.18737489456691 109.33194174019688 l -16.099758145068453 7.986232872819493 a38.97170353162439,38.97170353162439 0 0,0 -0.29293126126874125,-0.6035251615871889 l 16.234842662951912 -7.70791875526702" fill="#ffe014" stroke="none" /><path d="M 81.02952815118164 109.00673069616217 l -11.133312763924634 5.285833194869108 a33.324393926816334,33.324393926816334 0 0,0 -0.24156279209953185,-0.520304763747543 l 11.222650172863993 -5.093408363842737" fill="#ff960d" stroke="none" /><path d="M 80.87730276802145 108.67885076344099 l -15.852230098103304 7.194546753535115 a38.408466390581765,38.408466390581765 0 0,0 -0.26805253196851225,-0.604387695787244 l 15.973723714803096 -6.9206107212551755" fill="#ffd814" stroke="none" /><path d="M 80.73074385275274 108.34839909993369 l -12.33097362345287 5.342390402239071 a34.43852840575286,34.43852840575286 0 0,0 -0.23098252072053183,-0.5459744478497492 l 12.421107125365708 -5.129341428723164" fill="#ffa50f" stroke="none" /><path d="M 80.58989483394504 108.01547362559985 l -15.460070236881759 6.384292314415793 a37.726415039847176,37.726415039847176 0 0,0 -0.24270190692019622,-0.6023662291374026 l 15.567674758059344 -6.117226717435585" fill="#ffd013" stroke="none" /><path d="M 80.0844068197444 106.66101706037122 l -11.791775228871108 3.9439054242905143 a33.43383903080486,33.43383903080486 0 0,0 -0.17784851895315598,-0.5473614588931316 l 11.857915998840513 -3.740345065419579" fill="#ff980e" stroke="none" /><path d="M 79.97269907076064 106.31721596034903 l -16.524646424076245 5.2123728753130445 a38.3272262763558,38.3272262763558 0 0,0 -0.19304735353038097,-0.6308899209824101 l 16.611920550112757 -4.927155981778586" fill="#ffd714" stroke="none" /><path d="M 79.86692584326677 105.97154293290107 l -14.28488751377803 4.236949529719965 a35.89999169794016,35.89999169794016 0 0,0 -0.17062302415153155,-0.5939611307093512 l 14.355703174815664 -3.990430923506018" fill="#ffb811" stroke="none" /><path d="M 79.76711848015287 105.62410040840567 l -7.044494676280816 1.9581464630739298 a28.311582784527417,28.311582784527417 0 0,0 -0.12647447822979077,-0.4706585831538021 l 7.077157230852381 -1.8365969467445888" fill="#ff5207" stroke="none" /><path d="M 79.50377843672027 104.57218783832718 l -17.433448197832245 3.8889606840042705 a38.86194645799363,38.86194645799363 0 0,0 -0.140025073132543,-0.6541505249280815 l 17.49780730968923 -3.588296339660025" fill="#ffde14" stroke="none" /><path d="M 79.35854240842038 103.8639653848113 l -16.941852051698625 3.171419924776158 a38.23613225990425,38.23613225990425 0 0,0 -0.11553422014667815,-0.6479772626564189 l 16.993932714184492 -2.8793239113865257" fill="#ffd614" stroke="none" /><path d="M 79.23777060512086 103.15116336523772 l -12.140988011735258 1.842684420479751 a33.28002751522072,33.28002751522072 0 0,0 -0.08108591380999831,-0.5671146923304092 l 12.170907976561855 -1.6334242561689412" fill="#ff960d" stroke="none" /><path d="M 79.18660465613746 102.79330883721812 l -13.607275331507427 1.8261951885312195 a34.72927277076485,34.72927277076485 0 0,0 -0.07441737426852149,-0.5931796928277661 l 13.636694215022798 -1.591697741416045" fill="#ffa90f" stroke="none" /><path d="M 79.10278846688536 102.07522291339032 l -11.981713413541357 1.189858569314636 a33.04064864279364,33.04064864279364 0 0,0 -0.05133164291611644,-0.5664404021825366 l 12.000419652734548 -0.9834367785835332" fill="#ff920d" stroke="none" /><path d="M 79.04373962182676 101.35467743843564 l -13.608966406563509 0.8797256485036667 a34.63737085627612,34.63737085627612 0 0,0 -0.03334036479367636,-0.5953146101813654 l 13.622093122244717 -0.6453393219868637" fill="#ffa80f" stroke="none" /><path d="M 79.0095281055655 100.63252640178507 l -16.78139874943787 0.5056902875402682 a37.789016250350926,37.789016250350926 0 0,0 -0.013996219028117339,-0.6503493011499593 l 16.787617031150994 -0.21675117060018015" fill="#ffd113" stroke="none" /><line stroke="#e1ed5e" stroke-width="0.3" x1="15.007084014347285" x2="10.007500721073583" y1="101.09737516637583" y2="101.16192664675087" /><path d="M 14.007167355692545 101.11028546245083 a86.0,86.0 0 0,1 10.666146001902534,-42.60595125391555" fill="none" id="id94" stroke="none" /><text fill="#e1ed5e" style="font-size:6.75px; font-family:Arial;" text-anchor="middle"><textPath startOffset="22.20632615414155" xlink:href="#id94">October</textPath></text><path d="M 79.00019446554 99.90962569577889 l -14.6450983650034 -0.06302632530644921 a35.64523398373365,35.64523398373365 0 0,0 0.00792171682330708,-0.613545698003352 l 14.641843641062378 0.31510828137027325" fill="#ffb510" stroke="none" /><path d="M 79.00486145842228 99.54816195383935 l -6.435717703851171 -0.13850359249551722 a27.437207904736148,27.437207904736148 0 0,0 0.014225938235750368,-0.4720896327280043 l 6.432380071159775 0.24926337264851592" fill="#ff4506" stroke="none" /><path d="M 79.12142395522702 97.74499172005258 l -24.615039110596353 -2.658568136380202 a45.75819328933281,45.75819328933281 0 0,0 0.09131951085473737,-0.782369801117916 l 24.565629246738027 3.0818816758229794" fill="#ccff1d" stroke="none" /><path d="M 79.16333360222342 97.38593545837743 l -44.29364813611428 -5.556860814553228 a65.64085536051272,65.64085536051272 0 0,0 0.15029880719045166,-1.1199006898503994 l 44.191433329865994 6.3184798464682865" fill="#36ff6e" stroke="none" /><path d="M 79.26566170972629 96.67025291283419 l -11.154916948228044 -1.7913787117750617 a32.297840935810086,32.297840935810086 0 0,0 0.09287649957283377,-0.548162357916073 l 11.122428587134987 1.9831268580069628" fill="#ff880c" stroke="none" /><path d="M 79.32604984820605 96.31383870115002 l -14.288191773910972 -2.547581819673059 a35.51353152392573,35.51353152392573 0 0,0 0.11248365908182041,-0.6008922046273724 l 14.24222239091929 2.793152101763004" fill="#ffb310" stroke="none" /><path d="M 79.3925641242962 95.95851677861259 l -47.88397033807697 -9.390894813988654 a69.79614247812253,69.79614247812253 0 0,0 0.24136404805612446,-1.1769768170186101 l 47.715226994105855 10.213747287170666" fill="#3bff9d" stroke="none" /><path d="M 79.46518482838121 95.60439243477599 l -1.7212503523901457 -0.3684445663317932 a22.76024264635948,22.76024264635948 0 0,0 0.08530280235543282,-0.3823957367607444 l 1.7146531630326753 0.39801847264249673" fill="#ff0200" stroke="none" /><path d="M 79.71946130924805 94.55025226153421 l -21.34104247510525 -5.734724295969621 a43.098125637144676,43.098125637144676 0 0,0 0.19868898692708079,-0.714790000154656 l 21.23916671761181 6.10122559954322" fill="#ecff1a" stroke="none" /><path d="M 79.81627453868168 94.20196356495316 l -16.23550816455487 -4.663859903365987 a37.8921080555256,37.8921080555256 0 0,0 0.18548025019590553,-0.6253471964890432 l 16.152822017247257 4.94263648660157" fill="#ffd213" stroke="none" /><path d="M 80.02781315780177 93.51064311812611 l -11.747785782060486 -3.8170869877163462 a33.35235296828001,33.35235296828001 0 0,0 0.18210814525819266,-0.5444801751597578 l 11.68034034303052 4.018740265798426" fill="#ff970d" stroke="none" /><path d="M 80.52162464483688 92.15188598940014 l -13.425427971359305 -5.409295561829044 a35.47420445790995,35.47420445790995 0 0,0 0.23307956619792705,-0.5644206572536296 l 13.33032671827518 5.639590789535985" fill="#ffb310" stroke="none" /><path d="M 80.803312248108 91.48605970444005 l -13.626907733220857 -6.043682136899465 a35.90700198368512,35.90700198368512 0 0,0 0.25544870957880444,-0.5628473705472973 l 13.520856706678702 6.2773515162888325" fill="#ffb811" stroke="none" /><path d="M 80.95270993114464 91.15688171328213 l -16.5872237608331 -7.700979049253238 a39.28773005074669,39.28773005074669 0 0,0 0.29005907747264104,-0.6109383914447005 l 16.45220648951871 7.985359856338471" fill="#ffe315" stroke="none" /><path d="M 81.10775173730289 90.83032412892265 l -32.209263921019755 -15.633317225928302 a56.80275533838718,56.80275533838718 0 0,0 0.4345139943699514,-0.8759536982464816 l 31.935389913696394 16.185430512673744" fill="#53ff2b" stroke="none" /><path d="M 81.6062741919709 89.86733742301443 l -6.4641356630586175 -3.560937365775057 a28.380062655113388,28.380062655113388 0 0,0 0.2393957732854947,-0.42585836817667755 l 6.401882248480692 3.671679243886519" fill="#ff5307" stroke="none" /><line stroke="#e1ed5e" stroke-width="0.3" x1="26.266209847984243" x2="21.928928074336255" y1="57.711370442889674" y2="55.22380399835377" /><path d="M 25.398753493254645 57.213857153982495 a86.0,86.0 0 0,1 29.58750427330803,-30.492523968695096" fill="none" id="id95" stroke="none" /><text fill="#e1ed5e" style="font-size:6.75px; font-family:Arial;" text-anchor="middle"><textPath startOffset="21.46611528233685" xlink:href="#id95">November</textPath></text><path d="M 82.7489923806493 88.02491185347247 l -51.75302285805211 -35.92526443958256 a84.0,84.0 0 0,0 0.834749520784487,-1.1806939986728553 l 51.12696071746375 36.810784938587204" fill="#4dd2ff" stroke="none" /><path d="M 83.39014120810768 87.1503855733568 l -4.795807482692656 -3.7101024029831797 a27.063384306777234,27.063384306777234 0 0,0 0.28821978407275667,-0.3660098565950695 l 4.73123361802593 3.7921046535312968" fill="#ff4006" stroke="none" /><path d="M 83.6137871275137 86.86637796730984 l -5.360952312790158 -4.296826970293039 a27.87040986496787,27.87040986496787 0 0,0 0.30325860383781633,-0.3717591906042177 l 5.286195216875949 4.388470330505339" fill="#ff4b07" stroke="none" /><path d="M 83.84228863543731 86.58626213691792 l -4.650193991520026 -3.860477626276571 a27.04380605758912,27.04380605758912 0 0,0 0.30043013924515044,-0.35561452432233986 l 4.583053238787751 3.9399511002280265" fill="#ff4006" stroke="none" /><path d="M 84.5562425177563 85.77008943001954 l -6.514575274616866 -6.0025433360881815 a29.858341690760525,29.858341690760525 0 0,0 0.35152179893942426,-0.3749789459599381 l 6.410286153706986 6.113791698926169" fill="#ff6709" stroke="none" /><path d="M 84.80347519578584 85.50635884689758 l -14.528035581375205 -13.856071509031073 a41.07621815773794,41.07621815773794 0 0,0 0.49239771534426185,-0.5074591286433981 l 14.287373602327824 14.104094833224595" fill="#fffa17" stroke="none" /><path d="M 85.05521093208273 85.24692304244772 l -4.411046137869099 -4.354461132877384 a27.198278776253105,27.198278776253105 0 0,0 0.3317726342640583,-0.3303478971355325 l 4.335437703437727 4.429744880663026" fill="#ff4206" stroke="none" /><path d="M 85.31137513191541 84.99185889309783 l -18.304888203433606 -18.703067684716814 a47.17009119126835,47.17009119126835 0 0,0 0.5851713883645349,-0.5629344119759931 l 17.980233571456644 19.015385183455123" fill="#bcff1f" stroke="none" /><path d="M 85.57189188830299 84.74124197986013 l -8.051022349132172 -8.514532944243133 a32.71820089112776,32.71820089112776 0 0,0 0.41254865011365444,-0.38341900910452015 l 7.903265815223661 8.651856539422301" fill="#ff8e0d" stroke="none" /><path d="M 86.37877921826538 84.01681056812374 l -3.9955741691813857 -4.688421093707951 a27.16002478025496,27.16002478025496 0 0,0 0.3584379125643551,-0.3001814436501215 l 3.9142787196579203 4.756503694751885" fill="#ff4106" stroke="none" /><path d="M 86.65592168130627 83.78471172551755 l -5.204859576139264 -6.324775412706103 a29.191052876675883,29.191052876675883 0 0,0 0.390738369331312,-0.3159499206337467 l 5.095217808243452 6.413431430603984" fill="#ff5e08" stroke="none" /><path d="M 88.09926311788651 82.69761687909137 l -29.724652432281115 -43.21642681573504 a73.45202101863853,73.45202101863853 0 0,0 1.047899080168395,-0.7075461366504104 l 28.97634865770618 43.721684864684114" fill="#40ffc4" stroke="none" /><path d="M 88.70189139769569 82.29822771554957 l -2.8981043494982117 -4.540723147317722 a26.386759278190127,26.386759278190127 0 0,0 0.38497131780007104,-0.241069003889069 l 2.819513879325898 4.589936492529721" fill="#ff3605" stroke="none" /><path d="M 89.00827224532344 82.1063720568725 l -3.705964967296033 -6.033005890893375 a28.080348608534727,28.080348608534727 0 0,0 0.4140352915730859,-0.24945163050029032 l 3.601567609505298 6.0959041308522846" fill="#ff4e07" stroke="none" /><line stroke="#e1ed5e" stroke-width="0.3" x1="56.762969772571076" x2="54.21961505331055" y1="26.818313649435495" y2="22.513508569990535" /><path d="M 56.25429882871897 25.957352633546506 a86.0,86.0 0 0,1 42.265352541879196,-11.944610805530505" fill="none" id="id96" stroke="none" /><text fill="#e1ed5e" style="font-size:6.75px; font-family:Arial;" text-anchor="middle"><textPath startOffset="22.20632615414155" xlink:href="#id96">December</textPath></text><path d="M 89.63071344664047 81.73862282372117 l -9.812729372158806 -17.281222895290227 a40.872853908986784,40.872853908986784 0 0,0 0.6147976171774477,-0.3421342083319951 l 9.513807665909313 17.447572501182407" fill="#fff717" stroke="none" /><path d="M 90.58718382345135 81.22770947309562 l -9.51165406770122 -18.96940620121294 a42.22050740982018,42.22050740982018 0 0,0 0.6524651321850412,-0.32016180673824063 l 9.183717668505754 19.13032316808601" fill="#f6ff19" stroke="none" /><path d="M 91.23893434514133 80.91482961587045 l -9.31644558923568 -20.29501415120983 a43.33122830958916,43.33122830958916 0 0,0 0.6805435202524395,-0.3053400401698014 l 8.965719950516467 20.45237452189616" fill="#e9ff1a" stroke="none" /><path d="M 91.90106846888425 80.62456947434976 l -10.055257865465542 -24.05563615908054 a47.07262629193825,47.07262629193825 0 0,0 0.7502841581309444,-0.3060597466149002 l 9.639689837746216 24.225156791879016" fill="#bdff1f" stroke="none" /><path d="M 92.91201910852362 80.23233633223022 l -5.990218591066168 -16.70611535465824 a38.7475916397663,38.7475916397663 0 0,0 0.6297738250409158,-0.2197157216235708 l 5.701762761961967 16.806751929454023" fill="#ffdd14" stroke="none" /><path d="M 95.33964822691252 79.52364482259891 l -4.17816290570721 -18.357744610687142 a39.82720989572912,39.82720989572912 0 0,0 0.669774711968649,-0.14638681011680724 l 3.86154546958504 18.426944918899817" fill="#ffea16" stroke="none" /><path d="M 96.04723909329186 79.375362276772 l -6.970200012062088 -36.368971840227395 a58.03087631859937,58.03087631859937 0 0,0 0.9826696545508813,-0.17957659830281628 l 6.343135236408314 36.48356391988095" fill="#46ff2c" stroke="none" /><path d="M 96.75951476605007 79.25152402106235 l -1.1483299139105825 -7.352632064188409 a28.441764566452864,28.441764566452864 0 0,0 0.4843646314432794,-0.0713827558498654 l 1.0215963020386543 7.371309304199243" fill="#ff5307" stroke="none" /></svg>