<?xml version="1.0" encoding="utf-8" ?>
<svg baseProfile="full" height="200mm" version="1.1" viewBox="0,0,200,200" width="200mm" xmlns="http://www.w3.org/2000/svg" xmlns:ev="http://www.w3.org/2001/xml-events" xmlns:xlink="http://www.w3.org/1999/xlink"><defs /><rect fill="#1a1a1a" height="200" width="200" x="0" y="0" /><text alignment-baseline="middle" fill="#e1ed5e" style="dominant-baseline: central; font-size:9.0px; font-family:Arial;" text-anchor="middle" x="100.0" y="100.0">2017</text><line stroke="#e1ed5e" stroke-width="0.3" x1="100.0" x2="100.0" y1="15.0" y2="10.0" /><path d="M 100.0 14.0 a86.0,86.0 0 0,1 42.46469731375804,11.215312516191453" fill="none" id="id25" stroke="none" /><text fill="#e1ed5e" style="font-size:6.75px; font-family:Arial;" text-anchor="middle"><textPath startOffset="22.20632615414155" xlink:href="#id25">January</textPath></text><path d="M 100.36148047927253 79.00311137660856 l 0.4114289192241611 -23.89818451822703 a44.901725816827536,44.901725816827536 0 0,0 0.7726803687611637,0.019956054295963224 l -0.8227359231801927 23.887561671788706" fill="#d3ff1c" stroke="none" /><path d="M 101.80526077348638 79.07773832637324 l 0.2895828835372225 -3.3561516178454083 a24.368621665964298,24.368621665964298 0 0,0 0.41760260119165826,0.03965639887380765 l -0.347310611819125 3.350669674456422" fill="#ff2003" stroke="none" /><path d="M 104.66035177308747 79.52364482259891 l 0.8282121077660946 -3.6389453214188134 a24.732004601782563,24.732004601782563 0 0,0 0.41429206632576054,0.09804954685948793 l -0.8907278610543786 3.624149862418457" fill="#ff2503" stroke="none" /><path d="M 105.01212808612495 79.60689891045804 l 1.5336655542797883 -6.240103235301959 a27.425808775524704,27.425808775524704 0 0,0 0.4574770016519305,0.1166210738714251 l -1.640851444616744 6.212779165261665" fill="#ff4b07" stroke="none" /><path d="M 107.08798089147638 80.2323363322302 l 1.6481693564932651 -4.596578067226862 a25.883133436206148,25.883133436206148 0 0,0 0.4180960155213291,0.1539882909739262 l -1.7270476977871705 4.567526508446611" fill="#ff3505" stroke="none" /><path d="M 107.76421540070413 80.48803036053334 l 2.453091878405442 -6.164776707499432 a27.63491760440371,27.63491760440371 0 0,0 0.44046917546617903,0.17967843619500412 l -2.5588449234600086 6.121637385120849" fill="#ff4e07" stroke="none" /><path d="M 109.08828744355905 81.06846463323043 l 6.385070777602972 -13.300546884791327 a35.75376820576803,35.75376820576803 0 0,0 0.5525297664486003,0.2711239567858984 l -6.613071811062005 13.188667767870596" fill="#ffbb11" stroke="none" /><path d="M 109.73455568895987 81.39251694778311 l 2.525143557204315 -4.826780743406942 a26.447399593330246,26.447399593330246 0 0,0 0.4015659222275466,0.21450260854538086 l -2.607854525960173 4.782599408359807" fill="#ff3d05" stroke="none" /><path d="M 110.36928655335952 81.73862282372117 l 7.475910387415005 -13.165844980570554 a36.140300861379025,36.140300861379025 0 0,0 0.5383240094821652,0.31183201270260436 l -7.701431129362498 13.0352088104779" fill="#ffc011" stroke="none" /><line stroke="#e1ed5e" stroke-width="0.3" x1="143.23703022742887" x2="145.7803849466894" y1="26.81831364943548" y2="22.513508569990506" /><path d="M 143.74570117128098 25.957352633546492 a86.0,86.0 0 0,1 28.547481713284135,27.462654790039103" fill="none" id="id26" stroke="none" /><text fill="#e1ed5e" style="font-size:6.75px; font-family:Arial;" text-anchor="middle"><textPath startOffset="19.985693538727396" xlink:href="#id26">February</textPath></text><path d="M 110.68208982089419 81.91981866633111 l 1.4153833310383035 -2.395634909544569 a23.78251264033242,23.78251264033242 0 0,0 0.35066514638597374,0.21127182707844616 l -1.4564105436419148 2.370916473007508" fill="#ff1702" stroke="none" /><path d="M 110.99172775467656 82.1063720568725 l 9.462252181362809 -15.403767616543819 a39.0778945988793,39.0778945988793 0 0,0 0.5701294509862855,0.3570150099038356 l -9.726000784721357 15.23860826531704" fill="#ffe515" stroke="none" /><path d="M 111.90073688211348 82.69761687909136 l 3.6512335900124104 -5.308498378220259 a27.442954427931493,27.442954427931493 0 0,0 0.3869049639969275,0.27105165274721715 l -3.7420696935929887 5.244861882709106" fill="#ff4b07" stroke="none" /><path d="M 112.77801427241765 83.33499621200491 l 4.117865282223353 -5.370493338298777 a27.767496817823556,27.767496817823556 0 0,0 0.3768015532282775,0.2940995890218721 l -4.2096993906110605 5.2988153600536805" fill="#ff5007" stroke="none" /><path d="M 113.06298171725822 83.55741782278167 l 2.7158385001228686 -3.4184689747614767 a25.365971700567517,25.365971700567517 0 0,0 0.33953754462565827,0.2745490811671254 l -2.7742794433130182 3.371213796330222" fill="#ff2e04" stroke="none" /><path d="M 113.34407831869373 83.78471172551755 l 3.556632751288572 -4.321903991511901 a26.597185957191794,26.597185957191794 0 0,0 0.35100998219678614,0.2939607655831227 l -3.6305002704444753 4.2600420685349585" fill="#ff3f05" stroke="none" /><path d="M 113.89432698308785 84.25364557470407 l 6.240797550829829 -7.07265708166356 a30.432392711568433,30.432392711568433 0 0,0 0.38980853621789446,0.34997395263646597 l -6.361617074643713 6.964184120257797" fill="#ff740a" stroke="none" /><path d="M 114.94478906791727 85.2469230424477 l 6.008446765821979 -5.93137026750163 a29.44290150291468,29.44290150291468 0 0,0 0.3529443089787173,0.3637401350832104 l -6.1096553385038055 5.827065936868305" fill="#ff6709" stroke="none" /><path d="M 115.19652480421416 85.50635884689758 l 2.0357444560194327 -1.941585329876288 a23.813184864775984,23.813184864775984 0 0,0 0.2803522603110003,0.29906024430371664 l -2.0688640383008963 1.9062556686945165" fill="#ff1802" stroke="none" /><path d="M 116.15771136456269 86.58626213691792 l 2.2068951612851544 -1.832110533284333 a23.8682774027411,23.8682774027411 0 0,0 0.259711303717377,0.3183753497472869 l -2.23810495707894 1.7938510139289454" fill="#ff1802" stroke="none" /><path d="M 116.82858285166822 87.43820079747576 l 5.006527193756276 -3.737153024962478 a27.24752969371153,27.24752969371153 0 0,0 0.27732456248529963,0.37827039156633685 l -5.070114368755203 3.6504201897246475" fill="#ff4806" stroke="none" /><path d="M 117.2510076193507 88.02491185347247 l 8.512156058096272 -5.908861752420801 a31.36201949267644,31.36201949267644 0 0,0 0.3040257083775812,0.4461202122421119 l -8.612606232142586 5.761463516908283" fill="#ff810b" stroke="none" /><path d="M 117.65298651832404 88.62581576622439 l 25.148136966691492 -16.20346464879804 a50.9162340464224,50.9162340464224 0 0,0 0.4683624438500441,0.7408369086865898 l -25.423327006787492 15.768180092397245" fill="#8fff24" stroke="none" /><line stroke="#e1ed5e" stroke-width="0.3" x1="172.23445277983987" x2="176.4835382374775" y1="55.19839476539836" y2="52.563006222186495" /><path d="M 173.08426987136738 54.67131705675599 a86.0,86.0 0 0,1 12.851231095245387,41.99856678651699" fill="none" id="id27" stroke="none" /><text fill="#e1ed5e" style="font-size:6.75px; font-family:Arial;" text-anchor="middle"><textPath startOffset="22.20632615414155" xlink:href="#id27">March</textPath></text><path d="M 117.84615892207809 88.93136811851018 l 10.024631466462694 -6.217525907639651 a32.796222465287954,32.796222465287954 0 0,0 0.29342343224371603,0.4823109721119438 l -10.130170696992634 6.044047162320625" fill="#ff940d" stroke="none" /><path d="M 118.03404312379186 89.2402003453031 l 4.7315095522452975 -2.8229995069314002 a26.50967411551023,26.50967411551023 0 0,0 0.23043259727289406,0.3938840045632492 l -4.779401823988519 2.7411360900142556" fill="#ff3e05" stroke="none" /><path d="M 118.21658344932153 89.55222093294921 l 21.668024824773735 -12.427288400067109 a45.97880695280408,45.97880695280408 0 0,0 0.3878473482942665,0.6899371554453959 l -21.878729814360433 12.052467734686918" fill="#c6ff1e" stroke="none" /><path d="M 118.3937258080291 89.86733742301442 l 15.367936195545758 -8.465827619662342 a38.54547520576753,38.54547520576753 0 0,0 0.315140281171703,0.5839070794972314 l -15.511384575935926 8.200039556832651" fill="#ffde14" stroke="none" /><path d="M 118.56541770881063 90.18545643968196 l 30.235537677625597 -15.983911930290992 a55.200485073320465,55.200485073320465 0 0,0 0.436847614484365,0.8438505453807875 l -30.506194725270078 15.46108866264986" fill="#61ff29" stroke="none" /><path d="M 119.61058180528143 92.48833698450437 l 9.739194554579516 -3.730513875761146 a31.429220697118158,31.429220697118158 0 0,0 0.18916710871835646,0.5068738033958442 l -9.801966251799499 3.5623169353359687" fill="#ff820c" stroke="none" /><path d="M 119.97218684219823 93.5106431181261 l 13.447827534434287 -4.369464037480903 a35.13988265052889,35.13988265052889 0 0,0 0.18196521615589376,0.5768794616935712 l -13.521048234358387 4.137334409360912" fill="#ffb310" stroke="none" /><path d="M 120.08093135843002 93.85539295169968 l 11.105546432448197 -3.3982098572036925 a32.61382761181081,32.61382761181081 0 0,0 0.15964329290998502,0.5382378207603918 l -11.162395622469885 3.2065426496967704" fill="#ff920d" stroke="none" /><path d="M 120.18372546131832 94.20196356495316 l 13.254534862815696 -3.807536731089906 a34.79057759443728,34.79057759443728 0 0,0 0.1603899128942383,0.577007853508018 l -13.318111546276299 3.5788175741629367" fill="#ffae10" stroke="none" /><path d="M 120.37134235888165 94.90015583598534 l 23.161245277218057 -5.798279734218597 a44.87599905067233,44.87599905067233 0 0,0 0.18114346547731516,0.7509566100211774 l -23.257621542956194 5.398737892538014" fill="#d3ff1c" stroke="none" /><path d="M 120.53481517161879 95.60439243477599 l 12.870094460539708 -2.754925432885521 a34.161646764898926,34.161646764898926 0 0,0 0.11813537337000611,0.5760700354760542 l -12.91560912982471 2.532979741246055" fill="#ffa60f" stroke="none" /><path d="M 120.67395015179393 96.31383870115 l 31.473683149039456 -5.6117515958211435 a52.970056098470195,52.970056098470195 0 0,0 0.15232205156933204,0.8990133708191476 l -31.56561706212901 5.069152436686158" fill="#79ff26" stroke="none" /><path d="M 120.78858239683441 97.02765380044208 l 27.2456865729438 -3.895581304849692 a48.52277221745267,48.52277221745267 0 0,0 0.11110328690573304,0.8278485370327422 l -27.30870585890737 3.4260144257522858" fill="#a9ff21" stroke="none" /><path d="M 120.83666639777658 97.38593545837742 l 21.033416859153395 -2.638747876030038 a42.19829274078862,42.19829274078862 0 0,0 0.08421502631512702,0.721502916218146 l -21.07572223847211 2.276301221487039" fill="#f3ff19" stroke="none" /><path d="M 120.91429891909075 98.10471618934814 l 6.293801835171311 -0.5703533631128653 a27.31959211494064,27.31959211494064 0 0,0 0.03841071709688017,0.4687080393606424 l -6.302687036087685 0.46193140654445414" fill="#ff4906" stroke="none" /><path d="M 120.94382443527127 98.46500227214037 l 18.417266367073644 -1.3498232910716015 a39.46666519306779,39.46666519306779 0 0,0 0.04382568130137839,0.6779638920266399 l -18.43777263937944 1.0326003347919264" fill="#ffea16" stroke="none" /><path d="M 120.96714384426684 98.82574320788733 l 26.04256166640007 -1.4585036067821473 a47.08337115710404,47.08337115710404 0 0,0 0.038353647271481627,0.8095848755989176 l -26.063808921905046 1.0100076245602299" fill="#baff1f" stroke="none" /><line stroke="#e1ed5e" stroke-width="0.3" x1="184.98032266829074" x2="189.97916517819016" y1="98.17113171792111" y2="98.06355123074" /><path d="M 185.9800911702706 98.14961562048488 a86.0,86.0 0 0,1 -9.607161424134198,41.387399972396054" fill="none" id="id28" stroke="none" /><text fill="#e1ed5e" style="font-size:6.75px; font-family:Arial;" text-anchor="middle"><textPath startOffset="21.466115282336823" xlink:href="#id28">April</textPath></text><path d="M 120.99980553446 99.90962569577887 l 28.96055899031107 -0.12463402883943227 a49.960827175210866,49.960827175210866 0 0,0 -0.003701152107387955,0.8600174040448811 l -28.95841354091418 -0.37389285340913364" fill="#99ff23" stroke="none" /><path d="M 120.99824983174949 100.27111621757518 l 26.351550797736852 0.3402346784502245 a47.353747154477404,47.353747154477404 0 0,0 -0.017538784618930086,0.8149584039108573 l -26.341789950432915 -0.7937828981511966" fill="#b7ff1f" stroke="none" /><path d="M 120.9904718944345 100.63252640178507 l 6.654714506084194 0.200533015294259 a27.657735249145194,27.657735249145194 0 0,0 -0.01843568112638709,0.47574301276447567 l -6.650276692106605 -0.31505327507274083" fill="#ff4e07" stroke="none" /><path d="M 120.9764740272857 100.99374915477107 l 4.51876424168702 0.21407402120799826 a25.52383222041948,25.52383222041948 0 0,0 -0.024568085167101582,0.43867966456469637 l -4.514409805632389 -0.29182540210811797" fill="#ff3004" stroke="none" /><path d="M 120.95626037817324 101.35467743843564 l 13.838020416495747 0.8945324076218917 a34.86690294462462,34.86690294462462 0 0,0 -0.043871598310167646,0.5985931027950971 l -13.820572259521242 -1.132598646913759" fill="#ffaf10" stroke="none" /><path d="M 120.92983693683757 101.71520430193887 l 20.569000116879526 1.6856336527380316 a41.63795354727384,41.63795354727384 0 0,0 -0.06468833546077105,0.7138303914175547 l -20.536937185141678 -2.0394454327041567" fill="#faff18" stroke="none" /><path d="M 120.89721153311464 102.0752229133903 l 11.932954909715255 1.185016547009297 a32.991650307359,32.991650307359 0 0,0 -0.06098380641018051,0.564634307978837 l -11.910788801804022 -1.3902471768729254" fill="#ff970d" stroke="none" /><path d="M 120.8583938346157 102.4346265915055 l 33.22158163688176 3.8776785358609387 a54.44712061274447,54.44712061274447 0 0,0 -0.11666848825849176,0.9299626425697265 l -33.14991163937642 -4.44895893271806" fill="#69ff28" stroke="none" /><path d="M 120.64145759157962 103.86396538481128 l 30.71205735628889 5.749125321917611 a52.24552622413476,52.24552622413476 0 0,0 -0.1730821314826073,0.8825420595296908 l -30.60854529183062 -6.276931108515247" fill="#80ff25" stroke="none" /><path d="M 120.49622156327973 104.57218783832717 l 9.228015428768021 2.058536486105254 a30.454831633519827,30.454831633519827 0 0,0 -0.1185409858287718,0.5106714644445112 l -9.191213877008696 -2.2170766078983304" fill="#ff750a" stroke="none" /><path d="M 120.32669344350535 105.2749913415812 l 16.18738862794672 4.200798083197922 a37.72358380036941,37.72358380036941 0 0,0 -0.16852009350451547,0.6271259589438557 l -16.112680458100428 -4.478814975317326" fill="#ffd413" stroke="none" /><path d="M 120.23288151984713 105.62410040840565 l 10.869162536756814 3.0212830239744988 a32.281260805485985,32.281260805485985 0 0,0 -0.1534241675708413,0.5340896546739544 l -10.815545732299872 -3.207930154153035" fill="#ff8d0d" stroke="none" /><path d="M 120.02730092923936 106.31721596034902 l 8.550954838241033 2.697229575329078 a29.966263214275365,29.966263214275365 0 0,0 -0.15940303852958781,0.49059210745822857 l -8.503259548695198 -2.8440205827651015" fill="#ff6e0a" stroke="none" /><path d="M 119.9155931802556 106.66101706037122 l 5.984807302748793 2.0016930043623415 a27.310680893116718,27.310680893116718 0 0,0 -0.15295173743876386,0.44454934411832286 l -5.949464734366798 -2.1044150515699647" fill="#ff4906" stroke="none" /><path d="M 119.79798401119884 107.00284435728193 l 1.747580850889057 0.6181455997549985 a22.85368357949532,22.85368357949532 0 0,0 -0.13437502232051904,0.36974234965039726 l -1.7366815675633112 -0.6481357464115268" fill="#ff0a01" stroke="none" /><path d="M 119.67450827220406 107.3425965602758 l 59.02352481661219 22.027789680827375 a84.0,84.0 0 0,0 -0.517222881625973,1.3503057326674246 l -58.635607655392704 -23.040518980327946" fill="#4dd2ff" stroke="none" /><path d="M 119.41010516605496 108.01547362559984 l 2.6449806622242167 1.0922543982583057 a23.86163281607803,23.86163281607803 0 0,0 -0.16004226520447584,0.37829263922250556 l -2.625787415827432 -1.1376215631469748" fill="#ff1802" stroke="none" /><path d="M 118.97047184881838 109.00673069616215 l 16.570687403810894 7.867369883354135 a39.343478130287195,39.343478130287195 0 0,0 -0.295725709348383,0.6092825523194311 l -16.432808437847797 -8.15144139163884" fill="#ffe815" stroke="none" /><path d="M 118.81262510543309 109.33194174019688 l 27.812894135336638 13.796496036178775 a52.04674512826972,52.04674512826972 0 0,0 -0.40502611057889804,0.7991549410092326 l -27.57128935497147 -14.273205188890701" fill="#83ff25" stroke="none" /><path d="M 118.64920377521936 109.65438752849418 l 40.78277383714457 21.112574448562277 a66.92358263134278,66.92358263134278 0 0,0 -0.5384081631509273,1.0184653402675965 l -40.41331316576875 -21.81145480391601" fill="#38ff7e" stroke="none" /><line stroke="#e1ed5e" stroke-width="0.3" x1="174.80103733775053" x2="179.2010983576182" y1="140.37084112569926" y2="142.7455964860345" /><path d="M 175.68104954172406 140.8457921977663 a86.0,86.0 0 0,1 -30.038265399797805,32.042727171017184" fill="none" id="id29" stroke="none" /><text fill="#e1ed5e" style="font-size:6.75px; font-family:Arial;" text-anchor="middle"><textPath startOffset="22.206326154141568" xlink:href="#id29">May</textPath></text><path d="M 118.12598468904814 110.60418214915192 l 5.54599885984271 3.244556536798519 a27.425359948972403,27.425359948972403 0 0,0 -0.24189053111474193,0.40542244366566166 l -5.489327453029741 -3.339541074350285" fill="#ff4b07" stroke="none" /><path d="M 117.55443506779139 111.5257021239791 l 9.524219841644658 6.253309800866118 a32.39362308739349,32.39362308739349 0 0,0 -0.3100484592886506,0.46348037870915554 l -9.415168276945288 -6.416327093781081" fill="#ff8f0d" stroke="none" /><path d="M 117.35343817320211 111.8261652097733 l 38.19860739304705 26.031904300730574 a67.22546536586239,67.22546536586239 0 0,0 -0.6598950688629573,0.950628063996987 l -37.744851417021955 -26.68557362691458" fill="#38ff82" stroke="none" /><path d="M 116.93607887273984 112.41649034213515 l 3.641975102167615 2.670071922914071 a25.515890467930202,25.515890467930202 0 0,0 -0.26273923018723816,0.35198213506716275 l -3.5954746052852853 -2.7323669374905486" fill="#ff3004" stroke="none" /><path d="M 116.71984013943494 112.70617746262583 l 13.414085953764781 10.193982430815993 a37.84799631335355,37.84799631335355 0 0,0 -0.3986532745937849,0.5153130964146793 l -13.236625861952929 -10.423373521343924" fill="#ffd513" stroke="none" /><path d="M 116.498646956653 112.99209946851258 l 2.207185611751637 1.7380804067562394 a23.809375700235442,23.809375700235442 0 0,0 -0.25632730337998344,0.3198077230911798 l -2.1769403963167995 -1.7758159634256694" fill="#ff1702" stroke="none" /><path d="M 116.27256486870786 113.27417163493432 l 28.37321544079761 23.145148575832536 a57.61607921456472,57.61607921456472 0 0,0 -0.6335134838615936,0.7631078020367833 l -27.970605957042473 -23.63011763498309" fill="#49ff2c" stroke="none" /><path d="M 116.0416608686014 113.55231037782055 l 4.30938029888748 3.6406491712400877 a26.641372612094568,26.641372612094568 0 0,0 -0.2989637624455235,0.34776239727361824 l -4.246074026871177 -3.714288667675234" fill="#ff4006" stroke="none" /><path d="M 115.56566222782051 114.09645910891815 l 3.3221378975787856 3.0085697827688134 a25.481974157480025,25.481974157480025 0 0,0 -0.29723338577309133,0.3225881359500418 l -3.2698581038099723 -3.06530917352019" fill="#ff2f04" stroke="none" /><path d="M 115.32070863581623 114.36230785411682 l 2.5995695268768717 2.436951104592122 a24.563213775686158,24.563213775686158 0 0,0 -0.29182671019579365,0.30597913893247736 l -2.5572362653021137 -2.4813373601071067" fill="#ff2203" stroke="none" /><path d="M 115.07121518719521 114.62390073753431 l 13.291502655871632 12.897010166591219 a39.520175865477086,39.520175865477086 0 0,0 -0.47792948383294614,0.48414004385475684 l -13.06753254698315 -13.123890704426639" fill="#ffea16" stroke="none" /><path d="M 114.55890576462653 115.13401014063108 l 12.953951608300462 13.465657252730523 a39.68498829323166,39.68498829323166 0 0,0 -0.49637258748820295,0.46935126348487316 l -12.72024318642145 -13.686643152961317" fill="#ffec16" stroke="none" /><path d="M 114.29624159901734 115.38237550388516 l 2.5421783589636444 2.7353162608917594 a24.7342503740218,24.7342503740218 0 0,0 -0.31436107468694324,0.2871613882973824 l -2.4947177348098375 -2.7786704157757245" fill="#ff2503" stroke="none" /><path d="M 113.75828350139079 115.86535959552629 l 1.8337921125785266 2.1146367049753794 a23.799014452657282,23.799014452657282 0 0,0 -0.3118062142556108,0.26572802027998654 l -1.7971204217458685 -2.1458891154783126" fill="#ff1702" stroke="none" /><path d="M 113.48314897796784 116.09983520530334 l 14.491360387756682 17.303711063697467 a43.570288931774215,43.570288931774215 0 0,0 -0.5791318642284192,0.47658609716340916 l -14.19135839498357 -17.550592279718053" fill="#e2ff1b" stroke="none" /><path d="M 113.20401910651253 116.32954008644616 l 1.8719608369982452 2.315072348914065 a23.9772130182373,23.9772130182373 0 0,0 -0.32317002334914546,0.2567458116417315 l -1.8318333209317486 -2.3469520745609223" fill="#ff1a02" stroke="none" /><path d="M 112.92097659922987 116.55440617244103 l 1.79589462231152 2.3009072721654387 a23.918803139910473,23.918803139910473 0 0,0 -0.3267436890314253,0.25053312768363056 l -1.756022204786601 -2.3314797416764406" fill="#ff1902" stroke="none" /><path d="M 112.34349029814194 116.9893568818739 l 8.493078779302492 11.68972008096933 a35.44928865802244,35.44928865802244 0 0,0 -0.4967503285358329,0.3544181698710689 l -8.290601122917774 -11.834182512684619" fill="#ffb711" stroke="none" /><path d="M 111.7513745106137 117.40417183066458 l 6.297821404078461 9.327280462078866 a32.254364275957435,32.254364275957435 0 0,0 -0.4628121920192292,0.30672668449286594 l -6.136334513319268 -9.43430516766305" fill="#ff8d0d" stroke="none" /><path d="M 111.45004920935366 117.60387380957326 l 10.622493895380686 16.33154920631118 a40.482219484328866,40.482219484328866 0 0,0 -0.5874128081145397,0.3749146466137921 l -10.339799285219215 -16.51197828174878" fill="#fff617" stroke="none" /><path d="M 111.1453310114006 117.79835938074945 l 1.7043492291984441 2.7217334380242124 a24.211329818428563,24.211329818428563 0 0,0 -0.35512348482738654,0.21814584928898448 l -1.657246544438749 -2.750667754141575" fill="#ff1d03" stroke="none" /><line stroke="#e1ed5e" stroke-width="0.3" x1="143.8653032363475" x2="146.44561519142675" y1="172.8068346515853" y2="177.08958963109032" /><path d="M 144.38136562736335 173.6633856474863 a86.0,86.0 0 0,1 -40.68145358897372,12.25698825130547" fill="none" id="id30" stroke="none" /><text fill="#e1ed5e" style="font-size:6.75px; font-family:Arial;" text-anchor="middle"><textPath startOffset="21.466115282336833" xlink:href="#id30">June</textPath></text><path d="M 109.89434966115114 118.52300852407294 l 14.035197225143884 26.275004092400213 a50.788632080112954,50.788632080112954 0 0,0 -0.7746695668330882,0.40527050422226313 l -13.5808367557843 -26.512704015567195" fill="#90ff24" stroke="none" /><path d="M 108.2653958097858 119.30500536409082 l 1.1853162592601525 2.76847440458563 a24.011548632068266,24.011548632068266 0 0,0 -0.381358893831403,0.15940804855064852 l -1.1374859059312885 -2.788467496156252" fill="#ff1a02" stroke="none" /><path d="M 107.59598834532513 119.57807347666477 l 5.667036320501748 14.606348566344764 a36.66718606194002,36.66718606194002 0 0,0 -0.5903936918317004,0.22323637627070408 l -5.414772407909773 -14.701733192722099" fill="#ffc712" stroke="none" /><path d="M 106.91757812671514 119.82793768551818 l 1.1721108422248507 3.3596354554206553 a24.558229084780884,24.558229084780884 0 0,0 -0.4003345295800857,0.13581520823705207 l -1.114106579707538 -3.3793136505558303" fill="#ff2203" stroke="none" /><path d="M 105.88484417918355 120.15858648285463 l 0.8745906330437633 2.995918052626042 a24.120966797878264,24.120966797878264 0 0,0 -0.39956821638883333,0.11292196913052051 l -0.8228912485503243 -3.010528815095081" fill="#ff1c02" stroke="none" /><path d="M 105.53697534728816 120.25689768951611 l 4.221211866394119 15.443207083303447 a37.00972437735204,37.00972437735204 0 0,0 -0.6159643989903258,0.16268179618664871 l -3.954757024592296 -15.513580228793678" fill="#ffcb12" stroke="none" /><path d="M 104.48393922423573 120.51570834832081 l 2.138949495981317 9.786498397248025 a31.01751744823521,31.01751744823521 0 0,0 -0.522583929449946,0.10951254340460936 l -1.970174105101993 -9.821866921379176" fill="#ff7c0b" stroke="none" /><path d="M 104.13013068566511 120.58985236759428 l 0.9059282450205232 4.516304746807914 a25.606269048933818,25.606269048933818 0 0,0 -0.43290737058865275,0.08296772790154111 l -0.828053259860166 -4.531229673057923" fill="#ff3104" stroke="none" /><path d="M 103.7750983002368 120.6578951692458 l 3.8350917295763516 20.98618807066828 a42.33372959216753,42.33372959216753 0 0,0 -0.7179619683654562,0.1248268910883028 l -3.4732807897388454 -21.04909354027759" fill="#f1ff19" stroke="none" /><path d="M 103.41894727170886 120.7198165907248 l 0.6451676690409446 3.909904046607987 a24.962775665472023,24.962775665472023 0 0,0 -0.42456229583298283,0.06630789904450037 l -0.5777695095994446 -3.920430252999593" fill="#ff2803" stroke="none" /><path d="M 101.98527174616119 120.90594882070398 l 0.3036247593623185 3.197327364478501 a24.211711423858137,24.211711423858137 0 0,0 -0.4152374022145017,0.035828430290934216 l -0.24854303940627506 -3.202080047048099" fill="#ff1d03" stroke="none" /><path d="M 100.90346689309514 120.98055641714683 l 0.49426439408651485 11.477943557614102 a32.48858066094488,32.48858066094488 0 0,0 -0.55892680932266,0.019250569429249922 l -0.29661723308920257 -11.484750925469445" fill="#ff900d" stroke="none" /><line stroke="#e1ed5e" stroke-width="0.3" x1="102.19456741930631" x2="102.32365962044197" y1="184.97166512339345" y2="189.96999836594603" /><path d="M 102.22038585953345 185.97133177190398 a86.0,86.0 0 0,1 -42.740103519485714,-10.115201625700543" fill="none" id="id31" stroke="none" /><text fill="#e1ed5e" style="font-size:6.75px; font-family:Arial;" text-anchor="middle"><textPath startOffset="22.20632615414155" xlink:href="#id31">July</textPath></text><path d="M 100.54218724476979 120.99299961872073 l 0.09119030010394467 3.530805923193472 a24.531983315092408,24.531983315092408 0 0,0 -0.422230840807376,0.007269086836449458 l -0.030399769403900743 -3.5318524873090813" fill="#ff2203" stroke="none" /><path d="M 99.81925306533755 120.99922214144158 l -0.039902005976793074 4.635824607264506 a25.63599632866551,25.63599632866551 0 0,0 -0.4412324982353947,-0.007596217601261937 l 0.11969419410485567 -4.634450912384084" fill="#ff3204" stroke="none" /><path d="M 99.45781275523022 120.99299961872073 l -1.0259497361728191 39.72384564201219 a60.73709206083863,60.73709206083863 0 0,0 -1.04490834571641,-0.03598875616790066 l 1.7095784335638722 -39.7003000874182" fill="#30ff36" stroke="none" /><path d="M 99.09653310690486 120.98055641714683 l -0.4391674279781234 10.198466672865711 a31.20791803000737,31.20791803000737 0 0,0 -0.5364967032764983,-0.027730751475681006 l 0.6146521996681107 -10.18939611462783" fill="#ff7f0b" stroke="none" /><path d="M 98.37488393609728 120.93702456842531 l -2.1913911919371962 28.232575041093458 a49.3174943949332,49.3174943949332 0 0,0 -0.8458083733849934,-0.07297990543168453 l 2.6770438830637313 -28.19067088338311" fill="#a0ff22" stroke="none" /><path d="M 98.01472825383883 120.90594882070398 l -0.6730153786213598 7.087203597296634 a28.119087338233406,28.119087338233406 0 0,0 -0.48146224857281544,-0.04990553064493242 l 0.7949102237997686 -7.074568698195941" fill="#ff5507" stroke="none" /><path d="M 97.2962882734958 120.8252237178851 l -4.244858572953233 32.69584126368081 a53.9702420410313,53.9702420410313 0 0,0 -0.9202476476961807,-0.12753793865502192 l 4.807034811836244 -32.617928759533186" fill="#6eff28" stroke="none" /><path d="M 96.93821686468263 120.77559828337769 l -0.5440167751082874 3.6914025192371738 a24.731274153775058,24.731274153775058 0 0,0 -0.4206249607140033,-0.06569296827430225 l 0.6074775994308078 -3.6814912436157656" fill="#ff2503" stroke="none" /><path d="M 96.58105272829116 120.7198165907248 l -0.6683509166102632 4.050401281411383 a25.10517277202711,25.10517277202711 0 0,0 -0.4257730049585401,-0.07402609450093574 l 0.7379728930408532 -4.038296608389441" fill="#ff2a04" stroke="none" /><path d="M 96.22490169976321 120.6578951692458 l -0.9015783487925728 4.933569813281538 a26.015272138332513,26.015272138332513 0 0,0 -0.4398221011827958,-0.08429295247710393 l 0.9863680645470637 -4.9173196624559665" fill="#ff3705" stroke="none" /><path d="M 95.51606077576429 120.51570834832081 l -10.377029387825823 47.47881222205372 a69.59959206549823,69.59959206549823 0 0,0 -1.1682120863602152,-0.26588126748356117 l 11.192761623578901 -47.29315422099247" fill="#3bff9c" stroke="none" /><path d="M 95.16358092515715 120.4354850818985 l -6.622754881578324 27.98335017896725 a49.75636919814767,49.75636919814767 0 0,0 -0.8317528557197064,-0.20442461548946378 l 7.103461022041241 -27.865204305163754" fill="#9cff22" stroke="none" /><path d="M 94.11515582081647 120.15858648285463 l -1.1890022541338008 4.072937878805608 a25.242941117308227,25.242941117308227 0 0,0 -0.4160577923538895,-0.1253547998621139 l 1.2589350209279362 -4.051867709837769" fill="#ff2c04" stroke="none" /><path d="M 93.76903079525671 120.05430185196036 l -1.7210002859077322 5.539019386362969 a26.800222215277557,26.800222215277557 0 0,0 -0.43936878359712644,-0.14067200969892085 l 1.816090414595799 -5.508574530004341" fill="#ff4206" stroke="none" /><path d="M 93.42475214034765 119.94407469862007 l -1.1811595514101711 3.5826990597368207 a24.77238259439927,24.77238259439927 0 0,0 -0.403825540443901,-0.1369995486633551 l 1.242654824791298 -3.5618365241753427" fill="#ff2503" stroke="none" /><path d="M 93.08242187328487 119.8279376855182 l -1.8495736417932864 5.301455255362449 a26.61483307686227,26.61483307686227 0 0,0 -0.4312622425314846,-0.15463529659614433 l 1.9405554449544977 -5.268832417726347" fill="#ff4006" stroke="none" /><path d="M 92.40401165467489 119.57807347666478 l -10.698337976619198 27.574140120074013 a50.57680913863847,50.57680913863847 0 0,0 -0.808937344320105,-0.321892863869101 l 11.171396396981162 -27.385900411798847" fill="#93ff23" stroke="none" /><path d="M 92.06813273071674 119.44442032107085 l -4.171614714760271 10.226423007037093 a32.0445505498079,32.0445505498079 0 0,0 -0.5089415321874867,-0.21273760173075063 l 4.34702770644522 -10.15310036228637" fill="#ff8a0c" stroke="none" /><path d="M 91.40352486487194 119.15986991738527 l -2.998016893425024 6.681996142049136 a28.323740692816845,28.323740692816845 0 0,0 -0.4431073951035723,-0.20340887204674774 l 3.1125922842960154 -6.629400199668313" fill="#ff5708" stroke="none" /><path d="M 91.07499286063937 119.00905698771935 l -8.532064958135113 18.172143336092876 a41.07543090141135,41.07543090141135 0 0,0 -0.6374267898667313,-0.3060035954982634 l 8.843604416002087 -18.022585464095048" fill="#fffe18" stroke="none" /><line stroke="#e1ed5e" stroke-width="0.3" x1="58.666819895761336" x2="56.23545636021788" y1="174.27360380694188" y2="178.64263932499728" /><path d="M 58.180547188652646 175.14741091055294 a86.0,86.0 0 0,1 -31.652253787137756,-30.449443065178592" fill="none" id="id32" stroke="none" /><text fill="#e1ed5e" style="font-size:6.75px; font-family:Arial;" text-anchor="middle"><textPath startOffset="22.20632615414155" xlink:href="#id32">August</textPath></text><path d="M 89.4739219176387 118.17145234162733 l -2.1192462806000827 3.6585119820293586 a25.227991807050916,25.227991807050916 0 0,0 -0.37389340951366623,-0.2209028167448625 l 2.1819075611421312 -3.6214905929907464" fill="#ff2c04" stroke="none" /><path d="M 89.1626897886671 117.98757091392108 l -2.9670002576992545 4.924573210165907 a26.74930533468794,26.74930533468794 0 0,0 -0.3923496395450258,-0.24101319398343565 l 3.051329097176589 -4.872771549354094" fill="#ff4106" stroke="none" /><path d="M 88.54995079064634 117.60387380957326 l -2.9615538967295265 4.553239914085874 a26.43164755838029,26.43164755838029 0 0,0 -0.37926305539657595,-0.25135487253454125 l 3.0394916508660645 -4.501587020460014" fill="#ff3d05" stroke="none" /><path d="M 87.65650970185807 116.9893568818739 l -30.003976162890073 41.29693033284997 a72.04581315347556,72.04581315347556 0 0,0 -0.9970283867055186,-0.7375777649024239 l 30.710389520014154 -40.77434261920777" fill="#3effb6" stroke="none" /><path d="M 87.07902340077011 116.55440617244103 l -3.4824821639750003 4.46176988155521 a26.65995340072312,26.65995340072312 0 0,0 -0.3593285740275746,-0.28547235114410546 l 3.558768230719933 -4.401163616405974" fill="#ff4006" stroke="none" /><path d="M 86.79598089348748 116.32954008644616 l -3.8935074766368456 4.815138928817553 a27.192331012990284,27.192331012990284 0 0,0 -0.36143770762982147,-0.29743862682548244 l 3.9758153128113563 -4.74740518313489" fill="#ff4806" stroke="none" /><path d="M 86.51685102203217 116.09983520530335 l -20.51901398864147 24.501156542307378 a52.95835738858798,52.95835738858798 0 0,0 -0.6938415438748128,-0.5913068162609537 l 20.937721009093337 -24.144325335823474" fill="#79ff26" stroke="none" /><path d="M 86.24171649860922 115.8653595955263 l -22.603312900034958 26.06500201663981 a55.50063889530633,55.50063889530633 0 0,0 -0.7163748852925169,-0.6321175447909559 l 23.04863013823406 -25.672061330076566" fill="#5eff29" stroke="none" /><path d="M 85.97065885151581 115.62618273729859 l -4.50466346027146 5.017391312623331 a27.742863521849817,27.742863521849817 0 0,0 -0.35259917966958476,-0.322090990582305 l 4.5903621894079 -4.9391075554544495" fill="#ff4f07" stroke="none" /><path d="M 85.70375840098266 115.38237550388516 l -17.282244240571664 18.5952348816351 a46.38619164612824,46.38619164612824 0 0,0 -0.5801900154532348,-0.5486058732458815 l 17.599770090415713 -18.294994371643288" fill="#c2ff1e" stroke="none" /><path d="M 85.18274418774928 114.88116024355367 l -5.532605272288341 5.556466505301333 a28.841176003858628,28.841176003858628 0 0,0 -0.34878509669539476,-0.35331746151282756 l 5.62743099403927 -5.46040854980784" fill="#ff5f08" stroke="none" /><path d="M 84.9287848128048 114.62390073753433 l -2.101997981730727 2.0396105724404 a23.92889173620513,23.92889173620513 0 0,0 -0.28429055814025633,-0.29807751363138496 l 2.1367950912499407 -2.003125942226515" fill="#ff1902" stroke="none" /><path d="M 84.67929136418377 114.36230785411682 l -10.211937945635631 9.57312093381132 a34.99743980229561,34.99743980229561 0 0,0 -0.4082261233583597,-0.44304883126694206 l 10.37521047698972 -9.395920847743033" fill="#ffb110" stroke="none" /><path d="M 84.43433777217949 114.09645910891817 l -22.808778472119037 20.655916102428396 a51.77185801053881,51.77185801053881 0 0,0 -0.5925194242902757,-0.6657018544454207 l 23.16095674605765 -20.26024007824211" fill="#86ff25" stroke="none" /><path d="M 84.19399662182784 113.82643327865904 l -5.667934230110105 4.958072738910647 a28.530469023984015,28.530469023984015 0 0,0 -0.3201627967124146,-0.3724216633874572 l 5.7524395363932985 -4.85977397636166" fill="#ff5a08" stroke="none" /><path d="M 83.95833913139862 113.55231037782056 l -4.8175039160209305 4.069921989441353 a27.30655286039967,27.30655286039967 0 0,0 -0.300247251646899,-0.3616671564356283 l 4.886847167561366 -3.986393575891963" fill="#ff4906" stroke="none" /><path d="M 83.72743513129214 113.27417163493432 l -3.483352881865826 2.841508046948823 a25.49532148800037,25.49532148800037 0 0,0 -0.27447788165903303,-0.3424533602732864 l 3.53174867557972 -2.7811268530972773" fill="#ff3004" stroke="none" /><path d="M 83.28015986056508 112.70617746262583 l -3.5795086244067136 2.7202336524402044 a25.49583730978671,25.49583730978671 0 0,0 -0.262532741162689,-0.3517055092748221 l 3.6258026322644876 -2.658215263656074" fill="#ff3004" stroke="none" /><path d="M 83.06392112726016 112.41649034213515 l -13.029113470919995 9.552143845920204 a37.15553310452057,37.15553310452057 0 0,0 -0.3737142579396107,-0.5190564183054324 l 13.191607521235213 -9.326453822163634" fill="#ffcd13" stroke="none" /><path d="M 82.6465618267979 111.8261652097733 l -5.586045669041035 3.8068248085519336 a27.75986844099932,27.75986844099932 0 0,0 -0.26569749289750155,-0.3971817015725288 l 5.650746267349267 -3.710106192773584" fill="#ff5007" stroke="none" /><path d="M 82.24976979558568 111.22182372390057 l -5.733503100880678 3.6247620666079805 a27.783211470043412,27.783211470043412 0 0,0 -0.2520802004107668,-0.4064335471453337 l 5.7950479409594005 -3.5255321880973822" fill="#ff5007" stroke="none" /><path d="M 82.05923443525364 110.91462005526583 l -2.4665855550236953 1.5005961741004012 a23.88718429927435,23.88718429927435 0 0,0 -0.21068396942602569,-0.35311845127729957 l 2.492050400147953 -1.4579156289369906" fill="#ff1902" stroke="none" /><line stroke="#e1ed5e" stroke-width="0.3" x1="26.63291911575756" x2="22.317208475507996" y1="142.92168965132927" y2="145.44649492493687" /><path d="M 25.769776987707644 143.4266507060508 a86.0,86.0 0 0,1 -11.730757126820373,-40.83630448921669" fill="none" id="id33" stroke="none" /><text fill="#e1ed5e" style="font-size:6.75px; font-family:Arial;" text-anchor="middle"><textPath startOffset="21.46611528233685" xlink:href="#id33">September</textPath></text><path d="M 81.69416730710424 110.29060199501025 l -10.95964224289464 6.160949803343229 a33.57263140999352,33.57263140999352 0 0,0 -0.2788504245091364,-0.5061945180651061 l 11.064069076855292 -5.9713847668803" fill="#ff9e0e" stroke="none" /><path d="M 81.35079622478065 109.6543875284942 l -3.7179279363880458 1.9247104344798078 a25.186585529613616,25.186585529613616 0 0,0 -0.19600120527578205,-0.3867289726482862 l 3.7505078114500945 -1.8604272501288366" fill="#ff2b04" stroke="none" /><path d="M 81.18737489456691 109.33194174019688 l -5.08315909380913 2.521484601629537 a26.674186370681642,26.674186370681642 0 0,0 -0.20049683100305457,-0.41308285706599757 l 5.125809181426903 -2.4336127885982544" fill="#ff4006" stroke="none" /><path d="M 80.87730276802145 108.67885076344099 l -23.08710772615701 10.478101498136352 a46.35360239028028,46.35360239028028 0 0,0 -0.3235016040531919,-0.7294107152106795 l 23.264050414941483 -10.079142446432977" fill="#c2ff1e" stroke="none" /><path d="M 80.73074385275274 108.34839909993369 l -4.268357679982491 1.8492646079050343 a25.65173697389649,25.65173697389649 0 0,0 -0.17204866588030243,-0.40667222378673434 l 4.2995573270551 -1.7755178584521412" fill="#ff3204" stroke="none" /><path d="M 80.58989483394504 108.01547362559985 l -7.437367280532833 3.0712879075619433 a29.04656706159071,29.04656706159071 0 0,0 -0.1868626321342083,-0.4637777284641768 l 7.489132526924429 -2.942810811254961" fill="#ff6109" stroke="none" /><path d="M 80.32549172779594 107.34259656027581 l -4.2147488949088 1.572959298906876 a25.498700835035883,25.498700835035883 0 0,0 -0.1499271870958456,-0.4125352277231144 l 4.2412003430098695 -1.5001762741776445" fill="#ff3004" stroke="none" /><path d="M 80.0844068197444 106.66101706037122 l -4.758614520123562 1.5915776254004832 a26.01772174286361,26.01772174286361 0 0,0 -0.13839910140861336,-0.4259486359651396 l 4.785305872548424 -1.50943008945754" fill="#ff3705" stroke="none" /><path d="M 79.97269907076064 106.31721596034903 l -4.204460933672835 1.326214041957315 a25.408665946504204,25.408665946504204 0 0,0 -0.12797888587977752,-0.41824240386389505 l 4.226666592058743 -1.253644665541372" fill="#ff2e04" stroke="none" /><path d="M 79.67330655649465 105.27499134158121 l -23.181849456921622 6.015934441426432 a44.94973092639911,44.94973092639911 0 0,0 -0.18790846670568281,-0.7506009172602977 l 23.281969237922365 -5.6160056847687425" fill="#d2ff1c" stroke="none" /><path d="M 79.35854240842038 103.8639653848113 l -4.276238479116841 0.8004879203514185 a25.350516801588984,25.350516801588984 0 0,0 -0.0765990704571901,-0.4296082661384831 l 4.289383991913219 -0.7267609034797217" fill="#ff2e04" stroke="none" /><path d="M 79.23777060512086 103.15116336523772 l -8.475370349370621 1.2863395372341806 a29.572430925008526,29.572430925008526 0 0,0 -0.07205245200114933,-0.5039346814791015 l 8.496256852388369 -1.1402593837746786" fill="#ff6909" stroke="none" /><path d="M 79.10278846688536 102.07522291339032 l -4.0795806439861835 0.40512769926303716 a25.099647141339958,25.099647141339958 0 0,0 -0.038994577204246095,-0.43030191008315055 l 4.085949817467505 -0.3348444006313204" fill="#ff2a04" stroke="none" /><path d="M 79.0095281055655 100.63252640178507 l -8.555882387923864 0.257822764926247 a29.559766119123815,29.559766119123815 0 0,0 -0.010948286091446928,-0.5087238342053927 l 8.559052736700318 -0.11050911493072546" fill="#ff6809" stroke="none" /><line stroke="#e1ed5e" stroke-width="0.3" x1="15.007084014347285" x2="10.007500721073583" y1="101.09737516637583" y2="101.16192664675087" /><path d="M 14.007167355692545 101.11028546245083 a86.0,86.0 0 0,1 10.666146001902534,-42.60595125391555" fill="none" id="id34" stroke="none" /><text fill="#e1ed5e" style="font-size:6.75px; font-family:Arial;" text-anchor="middle"><textPath startOffset="22.20632615414155" xlink:href="#id34">October</textPath></text><path d="M 79.01574976396665 99.18683210126434 l -21.23724708254976 -0.8229718665569689 a42.25318673372096,42.25318673372096 0 0,0 0.034419026935721984,-0.7265312590157454 l 21.21993444738054 1.1884142321957234" fill="#f2ff19" stroke="none" /><path d="M 79.05617556472873 98.46500227214037 l -28.743110613816217 -2.1066166602085796 a49.8202054383924,49.8202054383924 0 0,0 0.07004606103748735,-0.8547393648239111 l 28.702590068959232 2.601069942240269" fill="#9bff22" stroke="none" /><path d="M 79.08570108090925 98.10471618934814 l -9.98928737105526 -0.9052435708006579 a31.030220740542056,31.030220740542056 0 0,0 0.05278517502700404,-0.5315395089531367 l 9.972225070346028 1.077058610458225" fill="#ff7c0b" stroke="none" /><path d="M 79.16333360222342 97.38593545837743 l -14.871568570699687 -1.8657130337856178 a35.988143209799546,35.988143209799546 0 0,0 0.08240256723841959,-0.6139948388200691 l 14.837250004403433 2.1214262146703464" fill="#ffbe11" stroke="none" /><path d="M 79.21141760316559 97.0276538004421 l -10.306316028773715 -1.4735944325012293 a31.41113013252916,31.41113013252916 0 0,0 0.08113660429051699,-0.5345888471492107 l 10.279423531043896 1.650782392042532" fill="#ff820b" stroke="none" /><path d="M 79.3925641242962 95.95851677861259 l -10.20854407089597 -2.0020763294458597 a31.403013105651297,31.403013105651297 0 0,0 0.10859566295824048,-0.5295510195490876 l 10.172569112022734 2.1775030051583495" fill="#ff810b" stroke="none" /><path d="M 79.46518482838121 95.60439243477599 l -19.172616335654418 -4.104020255639652 a40.60694263297833,40.60694263297833 0 0,0 0.15219020532865016,-0.6822388489879625 l 19.09913174332373 4.433437274177574" fill="#fff817" stroke="none" /><path d="M 79.62865764111835 94.90015583598534 l -4.361089778472513 -1.0917728377281066 a25.495672584285728,25.495672584285728 0 0,0 0.11024288533746593,-0.42481080810844823 l 4.34165056126474 1.1666800713854186" fill="#ff3004" stroke="none" /><path d="M 79.71946130924805 94.55025226153421 l -2.734213274385952 -0.7347325845621063 a23.831210730526017,23.831210730526017 0 0,0 0.10986554629218194,-0.3952448249182579 l 2.7211609575274096 0.7816887128993069" fill="#ff1802" stroke="none" /><path d="M 79.81627453868168 94.20196356495316 l -20.50084677228302 -5.889133637038964 a42.32994639879648,42.32994639879648 0 0,0 0.207203279303515,-0.6985864515436676 l 20.3964375958678 6.241149475329171" fill="#f1ff19" stroke="none" /><path d="M 79.91906864156998 93.8553929516997 l -3.5240548961694986 -1.0783330796312858 a24.685344643563653,24.685344643563653 0 0,0 0.12782837434664238,-0.40525087893215095 l 3.504971038054652 1.1388341249898513" fill="#ff2403" stroke="none" /><path d="M 80.14247586403 93.16781622104843 l -33.92612376164506 -11.672629017589877 a56.87801752706995,56.87801752706995 0 0,0 0.32649856107304465,-0.9230553989225837 l 33.7201721197622 12.254882042939071" fill="#50ff2b" stroke="none" /><path d="M 80.52162464483688 92.15188598940014 l -4.629231722228094 -1.8651831929043001 a25.99086111619784,25.99086111619784 0 0,0 0.1707702463422877,-0.41353369689228253 l 4.596439788999606 1.944591460249894" fill="#ff3705" stroke="none" /><path d="M 80.65960295795068 91.81776055985345 l -16.309987102455118 -6.900179941903042 a38.7095500369968,38.7095500369968 0 0,0 0.2649010456250496,-0.6114281361876036 l 16.188795346987387 7.179907222677246" fill="#ffe015" stroke="none" /><path d="M 80.803312248108 91.48605970444005 l -19.85467556566992 -8.8057650641927 a42.71979834583569,42.71979834583569 0 0,0 0.3039161377457474,-0.6696389239120959 l 19.70015711096082 9.146225996946866" fill="#edff1a" stroke="none" /><path d="M 81.10775173730289 90.83032412892265 l -3.5442895760949695 -1.7202815754967844 a24.939715382893688,24.939715382893688 0 0,0 0.1907769312406483,-0.3845946520150034 l 3.514152631900908 1.7810358160107493" fill="#ff2803" stroke="none" /><path d="M 81.26839172434947 90.50648371742162 l -2.560238617753237 -1.2975750211753887 a23.87028268911153,23.87028268911153 0 0,0 0.1889055147967506,-0.3649053271696054 l 2.5375236697963723 1.3414530706053296" fill="#ff1802" stroke="none" /><path d="M 81.6062741919709 89.86733742301443 l -15.59647180116711 -8.591722405893037 a38.806392856065074,38.806392856065074 0 0,0 0.32734552206933026,-0.5823111575664323 l 15.44626863780535 8.858917073394254" fill="#ffe215" stroke="none" /><line stroke="#e1ed5e" stroke-width="0.3" x1="26.266209847984243" x2="21.928928074336255" y1="57.711370442889674" y2="55.22380399835377" /><path d="M 25.398753493254645 57.213857153982495 a86.0,86.0 0 0,1 29.58750427330803,-30.492523968695096" fill="none" id="id35" stroke="none" /><text fill="#e1ed5e" style="font-size:6.75px; font-family:Arial;" text-anchor="middle"><textPath startOffset="21.46611528233685" xlink:href="#id35">November</textPath></text><path d="M 81.78341655067845 89.55222093294921 l -17.142951697165437 -9.832017753898764 a40.76232187786465,40.76232187786465 0 0,0 0.35432226213956225,-0.6056516012452924 l 16.97116976055555 10.12564876749795" fill="#fffa17" stroke="none" /><path d="M 81.96595687620814 89.24020034530311 l -3.473395136714955 -2.072360342941962 a25.044644751613376,25.044644751613376 0 0,0 0.2240710993505793,-0.3683139718037388 l 3.4372082390781586 2.1318420879527755" fill="#ff2904" stroke="none" /><path d="M 82.34701348167596 88.62581576622439 l -21.335326259376224 -13.746791870597013 a46.38051286573108,46.38051286573108 0 0,0 0.4381928479231578,-0.6673977700702544 l 21.095536776095145 14.112007704644935" fill="#c2ff1e" stroke="none" /><path d="M 82.54541684631803 88.32363383020206 l -3.0064419849381796 -2.01118051203573 a24.61711770071024,24.61711770071024 0 0,0 0.23864013760083794,-0.35017495528290477 l 2.9713773816686015 2.0626334905890507" fill="#ff2303" stroke="none" /><path d="M 83.17141714833178 87.43820079747576 l -2.341714935772706 -1.747987520518559 a23.92217200251963,23.92217200251963 0 0,0 0.24915974185944065,-0.32786501411037233 l 2.3112792536891567 1.7880373105099578" fill="#ff1902" stroke="none" /><path d="M 83.39014120810768 87.1503855733568 l -11.066594304968621 -8.561269040068199 a34.99159880382489,34.99159880382489 0 0,0 0.3726537279032534,-0.4732323908585575 l 10.917586496471397 8.750493824879804" fill="#ffb110" stroke="none" /><path d="M 83.84228863543731 86.58626213691792 l -4.468175881419006 -3.709370630976264 a26.807239118999988,26.807239118999988 0 0,0 0.2978021127702606,-0.35250376989829096 l 4.403663155161621 3.785733350503671" fill="#ff4206" stroke="none" /><path d="M 84.07557802195018 86.31012108654704 l -9.820968862144833 -8.44287313667506 a33.95119825318135,33.95119825318135 0 0,0 0.38479340121613653,-0.4398853758552599 l 9.674183597350853 8.610674068733262" fill="#ffa30f" stroke="none" /><path d="M 84.5562425177563 85.77008943001954 l -2.963678259061551 -2.7307393704627314 a25.029928824759725,25.029928824759725 0 0,0 0.2946769682968679,-0.31434084402165635 l 2.9162339687942276 2.781349631362438" fill="#ff2904" stroke="none" /><path d="M 85.31137513191541 84.99185889309783 l -2.5612522483678766 -2.6169662238020055 a24.661765325125305,24.661765325125305 0 0,0 0.30594300520443574,-0.2943169286083387 l 2.5158259995510135 2.660666239172658" fill="#ff2403" stroke="none" /><path d="M 85.83668400450813 84.49514656593479 l -3.143177137479504 -3.44089624558517 a25.66040014274053,25.66040014274053 0 0,0 0.3286840805851414,-0.29509581284994185 l 3.083482069298391 3.4944910672043905" fill="#ff3204" stroke="none" /><path d="M 86.37877921826538 84.01681056812374 l -2.9329954741099984 -3.44158743307338 a25.52183441875511,25.52183441875511 0 0,0 0.3368182881969306,-0.2820756299895154 l 2.8733196489539576 3.491564220456708" fill="#ff3004" stroke="none" /><path d="M 86.65592168130627 83.78471172551755 l -6.948711426443359 -8.443847242572176 a31.93540793678399,31.93540793678399 0 0,0 0.427473077927917,-0.3456535002577892 l 6.802334949950942 8.562206840094099" fill="#ff890c" stroke="none" /><path d="M 86.93701828274178 83.55741782278169 l -2.919068239659998 -3.674277469753019 a25.692683061163024,25.692683061163024 0 0,0 0.3486465830018254,-0.2721241881733869 l 2.855389101498747 3.723980047149628" fill="#ff3204" stroke="none" /><path d="M 87.51073957382395 83.11751280151077 l -0.7117302279920216 -0.9620887108470773 a22.19673497691718,22.19673497691718 0 0,0 0.3091209097930125,-0.2245894872603331 l 0.6950640018452273 0.9741974329240782" fill="#ff0000" stroke="none" /><path d="M 87.80319425747018 82.90503203632743 l -11.428731707805865 -16.018440117406204 a40.67755910279361,40.67755910279361 0 0,0 0.5734932651467815,-0.40176868177547403 l 11.151307303075422 16.21279364194562" fill="#fff917" stroke="none" /><path d="M 88.70189139769569 82.29822771554957 l -2.503914619953657 -3.9231103171628026 a25.654071656587046,25.654071656587046 0 0,0 0.3742817247261131,-0.23437518168682164 l 2.4360137428553013 3.9656298401725545" fill="#ff3204" stroke="none" /><path d="M 89.00827224532344 82.1063720568725 l -3.00888755514951 -4.898221247487234 a26.74856292553791,26.74856292553791 0 0,0 0.3943985598052739,-0.23762071932707488 l 2.924126929126587 4.949288576272927" fill="#ff4106" stroke="none" /><line stroke="#e1ed5e" stroke-width="0.3" x1="56.762969772571076" x2="54.21961505331055" y1="26.818313649435495" y2="22.513508569990535" /><path d="M 56.25429882871897 25.957352633546506 a86.0,86.0 0 0,1 42.265352541879196,-11.944610805530505" fill="none" id="id36" stroke="none" /><text fill="#e1ed5e" style="font-size:6.75px; font-family:Arial;" text-anchor="middle"><textPath startOffset="22.20632615414155" xlink:href="#id36">December</textPath></text><path d="M 89.63071344664047 81.73862282372117 l -5.90467557420722 -10.398739316276682 a32.958217802185985,32.958217802185985 0 0,0 0.49574795575368674,-0.2758832006420053 l 5.724803529381488 10.498837914478871" fill="#ff960d" stroke="none" /><path d="M 90.58718382345135 81.22770947309562 l -3.0344351825817792 -6.051674415400284 a27.76982718444869,27.76982718444869 0 0,0 0.4291479443575506,-0.21058103252718982 l 2.9298159712138028 6.103010608062304" fill="#ff5007" stroke="none" /><path d="M 91.23893434514133 80.91482961587045 l -2.857220189996145 -6.2241896476155425 a27.84866731442009,27.84866731442009 0 0,0 0.43738040272217227,-0.19623983736871567 l 2.7496576688071985 6.272449815500787" fill="#ff5107" stroke="none" /><path d="M 91.90106846888425 80.62456947434976 l -6.975014804761329 -16.68663505128025 a39.08575740358292,39.08575740358292 0 0,0 0.6229825463016468,-0.2541302227966146 l 6.686748388871303 16.80422616026044" fill="#ffe515" stroke="none" /><path d="M 92.91201910852362 80.23233633223022 l -2.733137168470482 -7.622443842812264 a29.09763477309896,29.09763477309896 0 0,0 0.47293078034536185,-0.16499626302320308 l 2.601524384061835 7.668360959007678" fill="#ff6209" stroke="none" /><path d="M 93.25333710446033 80.11325718540243 l -1.0105951846160086 -2.978872197603956 a24.145629062179278,24.145629062179278 0 0,0 0.39474329641947864,-0.13014065852219428 l 0.9591690659541207 2.995826580385384" fill="#ff1c02" stroke="none" /><path d="M 93.59665428221793 80.00007090966166 l -2.3697919577913886 -7.40170423456353 a28.771817001137407,28.771817001137407 0 0,0 0.47297390868965566,-0.14695529574888883 l 2.242032676391004 7.441399665194944" fill="#ff5e08" stroke="none" /><path d="M 94.63758080256005 79.69619591428918 l -5.165428935172935 -19.557937053575078 a41.228557978163614,41.228557978163614 0 0,0 0.6877141615278984,-0.17531365236801535 l 4.828005884960037 19.643953702111958" fill="#ffff18" stroke="none" /><path d="M 95.692805502759 79.44645832069477 l -2.129685179404808 -10.162664613064047 a31.383415189666678,31.383415189666678 0 0,0 0.5296826918503414,-0.10624936498912745 l 1.9544360780873304 10.197817934130386" fill="#ff810b" stroke="none" /><path d="M 96.04723909329186 79.375362276772 l -0.5691169496566755 -2.9695271699579697 a24.02357168188636,24.02357168188636 0 0,0 0.4068047285053886,-0.07434096390397475 l 0.5179171000483935 2.978883615212681" fill="#ff1b02" stroke="none" /><path d="M 96.40284397218896 79.31037775812273 l -0.9154278407410483 -5.265230662278247 a26.344217628296853,26.344217628296853 0 0,0 0.4474387150064096,-0.07383122177890601 l 0.824659919595753 5.28020814699678" fill="#ff3c05" stroke="none" /><path d="M 96.75951476605007 79.25152402106235 l -1.3499503467169331 -8.643585858119577 a29.74836798638957,29.74836798638957 0 0,0 0.506616151121726,-0.07466205143295142 l 1.2009652151665584 8.665542393713498" fill="#ff6b09" stroke="none" /><path d="M 98.19473922651362 79.07773832637324 l -1.2566016681639705 -14.563518637846721 a35.61763054900969,35.61763054900969 0 0,0 0.611283022930044,-0.04744732743222693 l 1.0057284558715922 14.58299122746741" fill="#ffb911" stroke="none" /><path d="M 98.55514903715128 79.0497635885617 l -0.26464817790387263 -3.8373797959139764 a24.846494814263583,24.846494814263583 0 0,0 0.42693134677599065,-0.02575366473646138 l 0.19855478228825904 3.8413667300307446" fill="#ff2603" stroke="none" /><path d="M 99.63851952072746 79.00311137660856 l -0.13781153065645624 -8.00489521878454 a29.006081406137554,29.006081406137554 0 0,0 0.49929200992899003,-0.00429756396157194 l 1.960924393547899e-15 8.006081406137554" fill="#ff6108" stroke="none" /></svg>