<?xml version="1.0" encoding="utf-8" ?>
<svg baseProfile="full" height="200mm" version="1.1" viewBox="0,0,200,200" width="200mm" xmlns="http://www.w3.org/2000/svg" xmlns:ev="http://www.w3.org/2001/xml-events" xmlns:xlink="http://www.w3.org/1999/xlink"><defs /><rect fill="#1a1a1a" height="200" width="200" x="0" y="0" /><text alignment-baseline="middle" fill="#e1ed5e" style="dominant-baseline: central; font-size:9.0px; font-family:Arial;" text-anchor="middle" x="100.0" y="100.0">2015</text><line stroke="#e1ed5e" stroke-width="0.3" x1="100.0" x2="100.0" y1="15.0" y2="10.0" /><path d="M 100.0 14.0 a86.0,86.0 0 0,1 42.46469731375804,11.215312516191453" fill="none" id="id1" stroke="none" /><text fill="#e1ed5e" style="font-size:6.75px; font-family:Arial;" text-anchor="middle"><textPath startOffset="22.20632615414155" xlink:href="#id1">January</textPath></text><line stroke="#e1ed5e" stroke-width="0.3" x1="143.23703022742887" x2="145.7803849466894" y1="26.81831364943548" y2="22.513508569990506" /><path d="M 143.74570117128098 25.957352633546492 a86.0,86.0 0 0,1 28.547481713284135,27.462654790039103" fill="none" id="id2" stroke="none" /><text fill="#e1ed5e" style="font-size:6.75px; font-family:Arial;" text-anchor="middle"><textPath startOffset="19.985693538727396" xlink:href="#id2">February</textPath></text><line stroke="#e1ed5e" stroke-width="0.3" x1="172.23445277983987" x2="176.4835382374775" y1="55.19839476539836" y2="52.563006222186495" /><path d="M 173.08426987136738 54.67131705675599 a86.0,86.0 0 0,1 12.851231095245387,41.99856678651699" fill="none" id="id3" stroke="none" /><text fill="#e1ed5e" style="font-size:6.75px; font-family:Arial;" text-anchor="middle"><textPath startOffset="22.20632615414155" xlink:href="#id3">March</textPath></text><line stroke="#e1ed5e" stroke-width="0.3" x1="184.98032266829074" x2="189.97916517819016" y1="98.17113171792111" y2="98.06355123074" /><path d="M 185.9800911702706 98.14961562048488 a86.0,86.0 0 0,1 -9.607161424134198,41.387399972396054" fill="none" id="id4" stroke="none" /><text fill="#e1ed5e" style="font-size:6.75px; font-family:Arial;" text-anchor="middle"><textPath startOffset="21.466115282336823" xlink:href="#id4">April</textPath></text><path d="M 118.64920377521936 109.65438752849418 l 36.56147114076093 18.92727514049647 a62.17017022336378,62.17017022336378 0 0,0 -0.5001663963080357,0.9461263291869607 l -36.230252236228 -19.553816484769566" fill="red" stroke="none" /><line stroke="#e1ed5e" stroke-width="0.3" x1="174.80103733775053" x2="179.2010983576182" y1="140.37084112569926" y2="142.7455964860345" /><path d="M 175.68104954172406 140.8457921977663 a86.0,86.0 0 0,1 -30.038265399797805,32.042727171017184" fill="none" id="id5" stroke="none" /><text fill="#e1ed5e" style="font-size:6.75px; font-family:Arial;" text-anchor="middle"><textPath startOffset="22.206326154141568" xlink:href="#id5">May</textPath></text><path d="M 117.55443506779139 111.5257021239791 l 35.07896521958315 23.031769599932034 a62.96422538044849,62.96422538044849 0 0,0 -0.6026482748423623,0.9008774024976479 l -34.67731383933006 -23.63218391663549" fill="red" stroke="none" /><path d="M 116.498646956653 112.99209946851258 l 19.704457923505608 15.516561933102874 a46.0804576569691,46.0804576569691 0 0,0 -0.4960936228835937,0.6189530724289037 l -19.43444638856716 -15.853442839110029" fill="red" stroke="none" /><path d="M 116.27256486870786 113.27417163493432 l 12.940544911332156 10.556111810801404 a37.69997602286738,37.69997602286738 0 0,0 -0.4145273936951229,0.4993249494210157 l -12.75692151774349 -10.777298017336191" fill="red" stroke="none" /><path d="M 115.56566222782051 114.09645910891815 l 15.43449421299349 13.977671708141697 a41.82303815468613,41.82303815468613 0 0,0 -0.4878430202153495,0.529457248277105 l -15.19160478478242 -14.241280211220138" fill="red" stroke="none" /><line stroke="#e1ed5e" stroke-width="0.3" x1="143.8653032363475" x2="146.44561519142675" y1="172.8068346515853" y2="177.08958963109032" /><path d="M 144.38136562736335 173.6633856474863 a86.0,86.0 0 0,1 -40.68145358897372,12.25698825130547" fill="none" id="id6" stroke="none" /><text fill="#e1ed5e" style="font-size:6.75px; font-family:Arial;" text-anchor="middle"><textPath startOffset="21.466115282336833" xlink:href="#id6">June</textPath></text><path d="M 110.8373102113329 117.98757091392108 l 21.66417081769546 35.95779776305472 a62.979751275907184,62.979751275907184 0 0,0 -0.9333962891287411,0.551466980057065 l -21.042006657538337 -36.32538331540554" fill="red" stroke="none" /><path d="M 110.5260780823613 118.17145234162733 l 12.570507947127682 21.700806728201307 a46.07872968679928,46.07872968679928 0 0,0 -0.6897574045595287,0.3916622558713687 l -12.195101775646956 -21.913972149867305" fill="red" stroke="none" /><path d="M 109.89434966115114 118.52300852407294 l 11.993074668497552 22.451988450201778 a46.45438322513731,46.45438322513731 0 0,0 -0.7085600745015255,0.3706851423619553 l -11.604823691469532 -22.65510301150845" fill="red" stroke="none" /><path d="M 108.59647513512805 119.15986991738527 l 17.339259110547598 38.64583376323358 a63.35741226465792,63.35741226465792 0 0,0 -0.998872824191119,0.43787649195897765 l -16.671465611698725 -38.93857480848702" fill="red" stroke="none" /><path d="M 107.93186726928326 119.44442032107085 l 16.0237824355029 39.28118691747409 a63.423734503057,63.423734503057 0 0,0 -1.0144140808711022,0.40365629789929774 l -15.345247278589929 -39.55119005977946" fill="red" stroke="none" /><path d="M 103.41894727170886 120.7198165907248 l 3.3762410351765095 20.461004354703345 a41.73768797939633,41.73768797939633 0 0,0 -0.7098669181970603,0.11086661347186115 l -3.023538253370932 -20.51608927552231" fill="red" stroke="none" /><path d="M 102.70371172650421 120.8252237178851 l 3.0514388999084763 23.50357737073353 a44.700831812025754,44.700831812025754 0 0,0 -0.7639001287680247,0.0924976672346949 l -2.6464113480890714 -23.552620566693577" fill="red" stroke="none" /><line stroke="#e1ed5e" stroke-width="0.3" x1="102.19456741930631" x2="102.32365962044197" y1="184.97166512339345" y2="189.96999836594603" /><path d="M 102.22038585953345 185.97133177190398 a86.0,86.0 0 0,1 -42.740103519485714,-10.115201625700543" fill="none" id="id7" stroke="none" /><text fill="#e1ed5e" style="font-size:6.75px; font-family:Arial;" text-anchor="middle"><textPath startOffset="22.20632615414155" xlink:href="#id7">July</textPath></text><line stroke="#e1ed5e" stroke-width="0.3" x1="58.666819895761336" x2="56.23545636021788" y1="174.27360380694188" y2="178.64263932499728" /><path d="M 58.180547188652646 175.14741091055294 a86.0,86.0 0 0,1 -31.652253787137756,-30.449443065178592" fill="none" id="id8" stroke="none" /><text fill="#e1ed5e" style="font-size:6.75px; font-family:Arial;" text-anchor="middle"><textPath startOffset="22.20632615414155" xlink:href="#id8">August</textPath></text><path d="M 89.7882731507175 118.34994917583269 l -15.251272445384485 27.405754028687785 a52.36362008895467,52.36362008895467 0 0,0 -0.7838365973063021,-0.44508287682909337 l 15.720757809611994 -27.13916798606406" fill="red" stroke="none" /><path d="M 88.8546689885994 117.79835938074946 l -11.16940208894593 17.836799305808256 a42.04535465370521,42.04535465370521 0 0,0 -0.6100945096369073,-0.3893911816729324 l 11.474778400629761 -17.641893695311516" fill="red" stroke="none" /><path d="M 86.79598089348748 116.32954008644616 l -12.867265334477517 15.913073389802612 a41.46441843534995,41.46441843534995 0 0,0 -0.5511408470394509,-0.45355139563562785 l 13.139276310061657 -15.689226875309803" fill="red" stroke="none" /><path d="M 86.24171649860922 115.8653595955263 l -13.80659860689207 15.921074141791916 a42.07374591571867,42.07374591571867 0 0,0 -0.5430671701105128,-0.4791936362853612 l 14.07860812990917 -15.681057363734267" fill="red" stroke="none" /><line stroke="#e1ed5e" stroke-width="0.3" x1="26.63291911575756" x2="22.317208475507996" y1="142.92168965132927" y2="145.44649492493687" /><path d="M 25.769776987707644 143.4266507060508 a86.0,86.0 0 0,1 -11.730757126820373,-40.83630448921669" fill="none" id="id9" stroke="none" /><text fill="#e1ed5e" style="font-size:6.75px; font-family:Arial;" text-anchor="middle"><textPath startOffset="21.46611528233685" xlink:href="#id9">September</textPath></text><path d="M 80.73074385275274 108.34839909993369 l -33.91084977840233 14.691864885943893 a57.956685816238995,57.956685816238995 0 0,0 -0.388721063360144,-0.9188217674375606 l 34.15872182295478 -14.105968592840174" fill="red" stroke="none" /><path d="M 79.97269907076064 106.31721596034903 l -23.938975219796756 7.55107624673035 a46.10165904991099,46.10165904991099 0 0,0 -0.23220577478719281,-0.7588619073407626 l 24.06540776709008 -7.137887366837539" fill="red" stroke="none" /><path d="M 79.1416061653843 102.43462659150553 l -41.412442907249805 4.833729553704759 a62.69358906288332,62.69358906288332 0 0,0 -0.11588670657428361,-1.0729669763544887 l 41.48951191532514 -4.120166255465489" fill="red" stroke="none" /><line stroke="#e1ed5e" stroke-width="0.3" x1="15.007084014347285" x2="10.007500721073583" y1="101.09737516637583" y2="101.16192664675087" /><path d="M 14.007167355692545 101.11028546245083 a86.0,86.0 0 0,1 10.666146001902534,-42.60595125391555" fill="none" id="id10" stroke="none" /><text fill="#e1ed5e" style="font-size:6.75px; font-family:Arial;" text-anchor="middle"><textPath startOffset="22.20632615414155" xlink:href="#id10">October</textPath></text><path d="M 79.21141760316559 97.0276538004421 l -24.824810595981617 -3.5494450762042726 a46.07727619729368,46.07727619729368 0 0,0 0.11902003238441436,-0.7841933053079757 l 24.760034670157903 3.9762374939043403" fill="red" stroke="none" /><path d="M 79.91906864156998 93.8553929516997 l -17.721233601134514 -5.422558094866206 a39.5323030581247,39.5323030581247 0 0,0 0.20471053198021552,-0.648988328574716 l 17.625267585386098 5.7267965898673365" fill="red" stroke="none" /><line stroke="#e1ed5e" stroke-width="0.3" x1="26.266209847984243" x2="21.928928074336255" y1="57.711370442889674" y2="55.22380399835377" /><path d="M 25.398753493254645 57.213857153982495 a86.0,86.0 0 0,1 29.58750427330803,-30.492523968695096" fill="none" id="id11" stroke="none" /><text fill="#e1ed5e" style="font-size:6.75px; font-family:Arial;" text-anchor="middle"><textPath startOffset="21.46611528233685" xlink:href="#id11">November</textPath></text><path d="M 83.6137871275137 86.86637796730984 l -32.741493435329915 -26.242451682502928 a62.96035822874076,62.96035822874076 0 0,0 0.6850731806989415,-0.8398187155722062 l 32.284921762554575 26.802154567683218" fill="red" stroke="none" /><path d="M 88.09926311788651 82.69761687909137 l -14.40364461183139 -20.941340009448112 a46.41662250369336,46.41662250369336 0 0,0 0.6622001049338242,-0.44712046684889817 l 14.041039812491027 21.186172388595676" fill="red" stroke="none" /><line stroke="#e1ed5e" stroke-width="0.3" x1="56.762969772571076" x2="54.21961505331055" y1="26.818313649435495" y2="22.513508569990535" /><path d="M 56.25429882871897 25.957352633546506 a86.0,86.0 0 0,1 42.265352541879196,-11.944610805530505" fill="none" id="id12" stroke="none" /><text fill="#e1ed5e" style="font-size:6.75px; font-family:Arial;" text-anchor="middle"><textPath startOffset="22.20632615414155" xlink:href="#id12">December</textPath></text><path d="M 92.91201910852362 80.23233633223022 l -14.132377437724275 -39.41377499350479 a62.87086996087998,62.87086996087998 0 0,0 1.0218552065640643,-0.3565052169172634 l 13.451840227096925 39.65120106359426" fill="red" stroke="none" /><path d="M 93.59665428221793 80.00007090966166 l -7.794748447842972 -24.345775334442095 a46.563154734896855,46.563154734896855 0 0,0 0.7654420051057184,-0.23782655696710206 l 7.374521070026526 24.47634202629172" fill="red" stroke="none" /><path d="M 95.33964822691252 79.52364482259891 l -13.98105531926245 -61.42906553220327 a84.0,84.0 0 0,0 1.4126291033859162,-0.30874600761652715 l 12.921583491723013 61.66062503791566" fill="red" stroke="none" /><path d="M 98.55514903715128 79.0497635885617 l -1.6619586160151782 -24.098281972900278 a45.155523188015565,45.155523188015565 0 0,0 0.775896498606592,-0.046804195677374386 l 1.2469000685689633 24.12331943795796" fill="red" stroke="none" /></svg>