<?xml version="1.0" encoding="utf-8" ?>
<svg baseProfile="full" height="200mm" version="1.1" viewBox="0,0,200,200" width="200mm" xmlns="http://www.w3.org/2000/svg" xmlns:ev="http://www.w3.org/2001/xml-events" xmlns:xlink="http://www.w3.org/1999/xlink"><defs /><rect fill="#1a1a1a" height="200" width="200" x="0" y="0" /><text alignment-baseline="middle" fill="#e1ed5e" style="dominant-baseline: central; font-size:9.0px; font-family:Arial;" text-anchor="middle" x="100.0" y="100.0">2018</text><line stroke="#e1ed5e" stroke-width="0.3" x1="100.0" x2="100.0" y1="15.0" y2="10.0" /><path d="M 100.0 14.0 a86.0,86.0 0 0,1 42.46469731375804,11.215312516191453" fill="none" id="id37" stroke="none" /><text fill="#e1ed5e" style="font-size:6.75px; font-family:Arial;" text-anchor="middle"><textPath startOffset="22.20632615414155" xlink:href="#id37">January</textPath></text><path d="M 100.72285384407766 79.0124445844662 l 0.07677859898388875 -2.2292128818343677 a23.230534695044714,23.230534695044714 0 0,0 0.39952002731490965,0.01720417278888177 l -0.11513945868812994 2.227560982521291" fill="#ff1b02" stroke="none" /><path d="M 101.08401301168833 79.027996857942 l 0.08703132178962981 -1.6837631415390768 a22.686010903813493,22.686010903813493 0 0,0 0.3898082711682993,0.023514299437085363 l -0.11600164179754101 1.6820155727216874" fill="#ff1302" stroke="none" /><path d="M 102.16513564639614 79.11191278185805 l 1.2299142942828691 -11.865564678398787 a32.92913719883153,32.92913719883153 0 0,0 0.5632972622150849,0.06329301076507644 l -1.4339782600076794 11.84263571416311" fill="#ff9f0e" stroke="none" /><path d="M 104.66035177308747 79.52364482259891 l 2.641209008964087 -11.604775003812799 a32.901545610472255,32.901545610472255 0 0,0 0.5511421146707761,0.1304375318550226 l -2.8405748105973867 11.557591559816908" fill="#ff9f0e" stroke="none" /><path d="M 107.08798089147638 80.2323363322302 l 5.869357985938121 -16.369047319425903 a38.38951043913255,38.38951043913255 0 0,0 0.6201143069472352,0.22839333260858122 l -6.150254618657932 16.265590719010998" fill="#ffe415" stroke="none" /><path d="M 108.43124777332544 80.76684994638697 l 0.5453985499407963 -1.2441494345856425 a22.35844300353651,22.35844300353651 0 0,0 0.35115306218131676,0.1575521431346813 l -0.5667337305888932 1.23457696093443" fill="#ff0f01" stroke="none" /><path d="M 109.41281617654863 81.2277094730956 l 0.7588375318082741 -1.5133747799425532 a22.692967106664227,22.692967106664227 0 0,0 0.3476773415267884,0.17809383819122965 l -0.784775360923818 1.5000884164388228" fill="#ff1402" stroke="none" /><line stroke="#e1ed5e" stroke-width="0.3" x1="143.23703022742887" x2="145.7803849466894" y1="26.81831364943548" y2="22.513508569990506" /><path d="M 143.74570117128098 25.957352633546492 a86.0,86.0 0 0,1 28.547481713284135,27.462654790039103" fill="none" id="id38" stroke="none" /><text fill="#e1ed5e" style="font-size:6.75px; font-family:Arial;" text-anchor="middle"><textPath startOffset="19.985693538727396" xlink:href="#id38">February</textPath></text><path d="M 111.90073688211348 82.69761687909136 l 0.18794140224597417 -0.27324645340475306 a21.331640761934445,21.331640761934445 0 0,0 0.3007445033903272,0.21069074393999399 l -0.1926170452199523 0.2699708667008235" fill="#ff0000" stroke="none" /><path d="M 112.77801427241765 83.33499621200491 l 1.5186217396488786 -1.9805766768009665 a23.495775623092378,23.495775623092378 0 0,0 0.31883481637428474,0.2488556314541863 l -1.5524891111825936 1.954142656123556" fill="#ff1f03" stroke="none" /><path d="M 113.6212207817346 84.01681056812373 l 1.6176216294195496 -1.8981230351087897 a23.49390673289451,23.49390673289451 0 0,0 0.3055396010841919,0.26496093122298575 l -1.6500550291505058 1.8699971104661326" fill="#ff1f03" stroke="none" /><path d="M 113.89432698308785 84.25364557470407 l 5.944980641998249 -6.737409617203622 a29.985292604235088,29.985292604235088 0 0,0 0.38408163067897433,0.3448322802983537 l -6.060073260273214 6.6340783281359705" fill="#ff780b" stroke="none" /><path d="M 114.42810811169701 84.74124197986012 l 1.9374010594071056 -2.0489404241079394 a23.81987228904704,23.81987228904704 0 0,0 0.29549885077661797,0.28426966032367385 l -1.9723831537961418 2.0152876770219637" fill="#ff2403" stroke="none" /><path d="M 114.68862486808459 84.99185889309783 l 7.08763066387382 -7.241805279413885 a31.13302778701565,31.13302778701565 0 0,0 0.37976986435377985,0.37813901186577925 l -7.211236328394922 7.1187304168979875" fill="#ff880c" stroke="none" /><path d="M 114.94478906791727 85.2469230424477 l 6.207727100106308 -6.12809422890801 a29.722924660214023,29.722924660214023 0 0,0 0.35630106305885684,0.36719956522980807 l -6.312292426868274 6.020330468128088" fill="#ff750a" stroke="none" /><path d="M 115.19652480421416 85.50635884689758 l 1.9107003418784063 -1.8223248711847695 a23.6403870421953,23.6403870421953 0 0,0 0.27831791419508145,0.2968901457079354 l -1.9417855780439508 1.7891653085987793" fill="#ff2103" stroke="none" /><path d="M 115.4437574822437 85.77008943001954 l 2.6085166680815495 -2.4034927348335415 a24.546989784881948,24.546989784881948 0 0,0 0.28364205595403885,0.3132046425610462 l -2.649502364651624 2.3582353050029465" fill="#ff2e04" stroke="none" /><path d="M 115.68641384162765 86.03803664274999 l 10.594017279781092 -9.429387912350862 a35.18261465759713,35.18261465759713 0 0,0 0.3987499309101607,0.4558401019256348 l -10.7547590742691 9.24563225422228" fill="#ffbc11" stroke="none" /><path d="M 115.9244219780498 86.31012108654704 l 0.3599530829601913 -0.30944382954944666 a21.474680635352627,21.474680635352627 0 0,0 0.23856262242769039,0.2823828984297981 l -0.3652263188749989 0.30320198149054206" fill="#ff0200" stroke="none" /><path d="M 116.15771136456269 86.58626213691792 l 2.1097767693982337 -1.7514852132088443 a23.74205369545924,23.74205369545924 0 0,0 0.25833786050549074,0.31669167076726773 l -2.1396131219801333 1.7149093728334757" fill="#ff2203" stroke="none" /><path d="M 117.04232023915458 87.72973835380427 l 4.6488172420967855 -3.3470914233156863 a26.728396175758952,26.728396175758952 0 0,0 0.26561328451252625,0.3756911542722422 l -4.7057431464131945 3.266573768711651" fill="#ff4c07" stroke="none" /><path d="M 117.45458315368197 88.32363383020206 l 0.6303033557480712 -0.42164586315052766 a21.7583320870036,21.7583320870036 0 0,0 0.2055679188124351,0.3130940435555926 l -0.6374679099184312 0.4107337556172611" fill="#ff0601" stroke="none" /><line stroke="#e1ed5e" stroke-width="0.3" x1="172.23445277983987" x2="176.4835382374775" y1="55.19839476539836" y2="52.563006222186495" /><path d="M 173.08426987136738 54.67131705675599 a86.0,86.0 0 0,1 12.851231095245387,41.99856678651699" fill="none" id="id39" stroke="none" /><text fill="#e1ed5e" style="font-size:6.75px; font-family:Arial;" text-anchor="middle"><textPath startOffset="22.20632615414155" xlink:href="#id39">March</textPath></text><path d="M 117.84615892207809 88.93136811851018 l 0.49724898998623074 -0.3084061980861992 a21.58512472265348,21.58512472265348 0 0,0 0.19311923463847813,0.31743724446190247 l -0.5024840229109329 0.2998011804172152" fill="#ff0400" stroke="none" /><path d="M 118.03404312379186 89.2402003453031 l 1.194231879196094 -0.7125244002799282 a22.390640428824973,22.390640428824973 0 0,0 0.19462832346169337,0.33268289449402844 l -1.2063198771281145 0.6918620934320044" fill="#ff0f01" stroke="none" /><path d="M 118.3937258080291 89.86733742301442 l 30.565300026843264 -16.837691013157315 a55.89620902598882,55.89620902598882 0 0,0 0.45699649400733444,0.8467450976567099 l -30.850604620069063 16.309064932168145" fill="#56ff2a" stroke="none" /><path d="M 118.73160827565052 90.50648371742162 l 2.6918823306862736 -1.3642944247544972 a24.01786841324753,24.01786841324753 0 0,0 0.18372524146623007,0.3703788757297216 l -2.7149675851059114 1.3177559605258258" fill="#ff2603" stroke="none" /><path d="M 118.89224826269711 90.83032412892265 l 0.5217237539224291 -0.25322754873788683 a21.57993091558108,21.57993091558108 0 0,0 0.15932340313913404,0.33557571954458 l -0.5260053509033192 0.24420941355276646" fill="#ff0400" stroke="none" /><path d="M 119.34039704204932 91.81776055985345 l 1.6595753355527842 -0.7021077558506825 a22.801983794377968,22.801983794377968 0 0,0 0.14981805998078743,0.3627963157053981 l -1.671415082419769 0.6734368696919814" fill="#ff1502" stroke="none" /><path d="M 119.85752413597 93.16781622104841 l 2.9893429226855597 -1.0285139318602339 a24.161330735219085,24.161330735219085 0 0,0 0.13192397943692993,0.39443590691537544 l -3.0066041958942598 0.9769049220225445" fill="#ff2803" stroke="none" /><path d="M 120.18372546131832 94.20196356495316 l 6.116371727275258 -1.7570069605334426 a27.363731339833187,27.363731339833187 0 0,0 0.12615100954112718,0.45383230104497513 l -6.145709507382748 1.6514633560695158" fill="#ff5507" stroke="none" /><path d="M 120.67395015179393 96.31383870115 l 0.4468509105171305 -0.07967343060277227 a21.45389821741664,21.45389821741664 0 0,0 0.06169337983259031,0.364117820033943 l -0.44815615186994384 0.07196982225299141" fill="#ff0200" stroke="none" /><path d="M 120.78858239683441 97.02765380044208 l 19.3449564300046 -2.7659369276710946 a40.541692515404876,40.541692515404876 0 0,0 0.09282889433845921,0.6916830861868498 l -19.389701323400896 2.4325354994195805" fill="#fffe18" stroke="none" /><path d="M 120.91429891909075 98.10471618934814 l 1.5515863190586865 -0.140606981028494 a22.55794429573205,22.55794429573205 0 0,0 0.03171594996678918,0.3870149231502218 l -1.5537767528449704 0.11387814067050345" fill="#ff1202" stroke="none" /><path d="M 120.98425023603335 99.18683210126433 l 3.4574969953154677 -0.13398265532202439 a24.46009202544421,24.46009202544421 0 0,0 0.012682331219813152,0.42086483073927206 l -3.459291020990926 0.07444767715775327" fill="#ff2d04" stroke="none" /><line stroke="#e1ed5e" stroke-width="0.3" x1="184.98032266829074" x2="189.97916517819016" y1="98.17113171792111" y2="98.06355123074" /><path d="M 185.9800911702706 98.14961562048488 a86.0,86.0 0 0,1 -9.607161424134198,41.387399972396054" fill="none" id="id40" stroke="none" /><text fill="#e1ed5e" style="font-size:6.75px; font-family:Arial;" text-anchor="middle"><textPath startOffset="21.466115282336823" xlink:href="#id40">April</textPath></text><path d="M 120.99513854157772 99.54816195383933 l 1.754752489010501 -0.03776416786009414 a22.75515880479879,22.75515880479879 0 0,0 0.005057055437011821,0.3916745166671895 l -1.7551425515652286 0.007553393132441943" fill="#ff1402" stroke="none" /><path d="M 120.9764740272857 100.99374915477107 l 23.294685598413075 1.10357317888454 a44.320811540125845,44.320811540125845 0 0,0 -0.0426612063262879,0.7617444971332754 l -23.27223804119926 -1.5043893923532388" fill="#d3ff1c" stroke="none" /><path d="M 120.81339534386255 102.79330883721812 l 0.9811904545784148 0.13168288606866546 a21.989987419434797,21.989987419434797 0 0,0 -0.05357802735468472,0.3747245985304084 l -0.9787783762071287 -0.14855295657948317" fill="#ff0901" stroke="none" /><path d="M 120.5718875245553 104.21870165774334 l 3.9788985828968126 0.8159575064574566 a25.061701685909803,25.061701685909803 0 0,0 -0.09030084520312431,0.42185548608969586 l -3.9642636989692455 -0.8843268119633215" fill="#ff3505" stroke="none" /><path d="M 120.49622156327973 104.57218783832717 l 2.0990866946900537 0.46825306934867506 a23.150680331611202,23.150680331611202 0 0,0 -0.09011064326802767,0.3881942927840201 l -2.090715485491473 -0.5043160194812601" fill="#ff1a02" stroke="none" /><path d="M 120.32669344350535 105.2749913415812 l 9.895961808365163 2.5681064655611014 a31.223758160827096,31.223758160827096 0 0,0 -0.13948384842411057,0.519071289251367 l -9.850289883599276 -2.7380686879880165" fill="#ff890c" stroke="none" /><path d="M 120.23288151984713 105.62410040840565 l 2.6283846787347773 0.730607715496133 a23.72803842592992,23.72803842592992 0 0,0 -0.11277299748368447,0.3925775986680655 l -2.6154190443649936 -0.7757427896687805" fill="#ff2203" stroke="none" /><path d="M 120.13307415673323 105.97154293290107 l 1.5972431861631122 0.473748131368546 a22.666020134247987,22.666020134247987 0 0,0 -0.11416467162097091,0.37309675238102524 l -1.5888517420360087 -0.5011718563016284" fill="#ff1302" stroke="none" /><path d="M 120.02730092923936 106.31721596034902 l 9.824243505842887 3.0988633012877496 a31.30139379997504,31.30139379997504 0 0,0 -0.16650515435472452,0.5124501724123637 l -9.769446100471916 -3.2675123736779086" fill="#ff8a0c" stroke="none" /><path d="M 119.9155931802556 106.66101706037122 l 3.943398495872919 1.318918518725969 a25.158117092662387,25.158117092662387 0 0,0 -0.14089644030004408,0.40951100767369775 l -3.9201112246296437 -1.3866022294889673" fill="#ff3605" stroke="none" /><path d="M 119.79798401119884 107.00284435728193 l 3.3681158825175848 1.191353184709015 a24.572607872238923,24.572607872238923 0 0,0 -0.14448194838349923,0.39755226942369803 l -3.3471096731288585 -1.2491532511388443" fill="#ff2e04" stroke="none" /><path d="M 119.41010516605496 108.01547362559984 l 1.2906307837572728 0.5329706830071882 a22.39634722362565,22.39634722362565 0 0,0 -0.15021445387257282,0.3550625963224225 l -1.2812653486923913 -0.5551078049957742" fill="#ff0f01" stroke="none" /><path d="M 119.12269723197855 108.67885076344098 l 0.5161508577757399 0.23425546154475274 a21.566822131930447,21.566822131930447 0 0,0 -0.1563341791704913,0.33672991379175155 l -0.5120420617654172 -0.24310544261533487" fill="#ff0300" stroke="none" /><path d="M 118.97047184881838 109.00673069616215 l 56.911415546455125 27.02019208848646 a84.0,84.0 0 0,0 -0.6313869735411428,1.3008441761388982 l -56.43787531629926 -27.995825220590632" fill="#4dd2ff" stroke="none" /><path d="M 118.64920377521936 109.65438752849418 l 1.6040116010120562 0.8303705500257281 a22.806202775585092,22.806202775585092 0 0,0 -0.18347860742140873,0.3470723795227582 l -1.5894804853657545 -0.8578579446346207" fill="#ff1502" stroke="none" /><line stroke="#e1ed5e" stroke-width="0.3" x1="174.80103733775053" x2="179.2010983576182" y1="140.37084112569926" y2="142.7455964860345" /><path d="M 175.68104954172406 140.8457921977663 a86.0,86.0 0 0,1 -30.038265399797805,32.042727171017184" fill="none" id="id41" stroke="none" /><text fill="#e1ed5e" style="font-size:6.75px; font-family:Arial;" text-anchor="middle"><textPath startOffset="22.206326154141568" xlink:href="#id41">May</textPath></text><path d="M 117.75023020441432 111.22182372390056 l 10.339660543091354 6.536808066336254 a33.23267917679847,33.23267917679847 0 0,0 -0.3098474742746624,0.48089016088424597 l -10.225608205439642 -6.713819827141953" fill="#ffa30f" stroke="none" /><path d="M 116.71984013943494 112.70617746262583 l 1.9976300168010646 1.5180911591538913 a23.509009057681105,23.509009057681105 0 0,0 -0.24762059702465436,0.3200830012467568 l -1.9712026025583418 -1.5522521545139008" fill="#ff1f03" stroke="none" /><path d="M 116.27256486870786 113.27417163493432 l 0.778914246495057 0.6353910081350282 a22.005201042882373,22.005201042882373 0 0,0 -0.24195661637849097,0.29145233119171665 l -0.7678616302230227 -0.6487045964405154" fill="#ff0a01" stroke="none" /><path d="M 116.0416608686014 113.55231037782055 l 2.0251627892464694 1.7108973260493698 a23.651123155047955,23.651123155047955 0 0,0 -0.26540782516909744,0.30872926130236666 l -1.9954124545065932 -1.7455036865132645" fill="#ff2103" stroke="none" /><path d="M 115.07121518719521 114.62390073753431 l 1.322011320849828 1.2827739561724376 a22.842070290485516,22.842070290485516 0 0,0 -0.2762360901623439,0.2798257009232971 l -1.2997346056319485 -1.3053401510763996" fill="#ff1602" stroke="none" /><path d="M 114.55890576462653 115.13401014063108 l 0.5940317638096241 0.6174971445446699 a21.856840977040427,21.856840977040427 0 0,0 -0.27338137609938706,0.2584991547071083 l -0.5833145533194294 -0.6276309359976997" fill="#ff0801" stroke="none" /><path d="M 114.29624159901734 115.38237550388516 l 3.4346087650083703 3.6955476281210498 a26.045157048138684,26.045157048138684 0 0,0 -0.33102210239783325,0.3023808420821263 l -3.370487113143673 -3.754121236789759" fill="#ff4306" stroke="none" /><path d="M 113.20401910651253 116.32954008644616 l 1.9628738031642603 2.4275053068952785 a24.121803258079098,24.121803258079098 0 0,0 -0.3251188416354989,0.2582940707515546 l -1.9207974688114104 -2.4609332916519593" fill="#ff2803" stroke="none" /><path d="M 111.7513745106137 117.40417183066458 l 1.231464489757214 1.8238393784266294 a23.200657826158494,23.200657826158494 0 0,0 -0.332902152804677,0.22062939427938294 l -1.199887638212573 -1.8447667937973307" fill="#ff1b02" stroke="none" /><path d="M 111.45004920935366 117.60387380957326 l 0.9446622494446911 1.452370616739967 a22.732560871627758,22.732560871627758 0 0,0 -0.3298583325552795,0.21053119454362182 l -0.9195221148424811 -1.4684162401073977" fill="#ff1402" stroke="none" /><line stroke="#e1ed5e" stroke-width="0.3" x1="143.8653032363475" x2="146.44561519142675" y1="172.8068346515853" y2="177.08958963109032" /><path d="M 144.38136562736335 173.6633856474863 a86.0,86.0 0 0,1 -40.68145358897372,12.25698825130547" fill="none" id="id42" stroke="none" /><text fill="#e1ed5e" style="font-size:6.75px; font-family:Arial;" text-anchor="middle"><textPath startOffset="21.466115282336833" xlink:href="#id42">June</textPath></text><path d="M 109.89434966115114 118.52300852407294 l 0.7655847579768014 1.4332354812145123 a22.624895063152877,22.624895063152877 0 0,0 -0.3450933199100592,0.18053651485939698 l -0.7408005355402466 -1.4462014150186262" fill="#ff1302" stroke="none" /><path d="M 109.57404056367764 118.69057910512821 l 1.819720191200052 3.552483818781614 a24.9914311790342,24.9914311790342 0 0,0 -0.3845658727104821,0.19282931203359513 l -1.7583004108068094 -3.5832809717245113" fill="#ff3404" stroke="none" /><path d="M 107.59598834532513 119.57807347666477 l 0.9165279055721092 2.362279911836329 a23.533848808346278,23.533848808346278 0 0,0 -0.37892833820129507,0.14327827389871672 l -0.8757293466105392 -2.377706435841677" fill="#ff2003" stroke="none" /><path d="M 105.53697534728816 120.25689768951611 l 1.2277530707052262 4.49170653314283 a25.65647991325036,25.65647991325036 0 0,0 -0.427008806356945,0.11277690678151628 l -1.1502538215367837 -4.51217478922793" fill="#ff3d05" stroke="none" /><path d="M 104.13013068566511 120.58985236759428 l 0.644648751144386 3.213753661860083 a24.277771287242462,24.277771287242462 0 0,0 -0.4104473834758226,0.07866321791614736 l -0.5892337530968591 -3.2243740781246983" fill="#ff2a04" stroke="none" /><path d="M 103.41894727170886 120.7198165907248 l 1.2544213975432674 7.602159149879533 a28.704959233033716,28.704959233033716 0 0,0 -0.4882086654580576,0.07624815302623549 l -1.1233768684766927 -7.622625610252874" fill="#ff6709" stroke="none" /><path d="M 102.70371172650421 120.8252237178851 l 0.23010543358889518 1.7723772420758608 a22.78725196846879,22.78725196846879 0 0,0 -0.3894152302619953,0.04715276124247703 l -0.19956278027551955 -1.7760755320436887" fill="#ff1502" stroke="none" /><path d="M 102.34483914955558 120.86867818915974 l 0.1960261838288174 1.7446004122491643 a22.755578782956334,22.755578782956334 0 0,0 -0.38962687503448806,0.04038641868550129 l -0.16596671218872666 -1.747716199390424" fill="#ff1402" stroke="none" /><path d="M 101.62511606390274 120.93702456842531 l 0.43338667791100405 5.583495065121708 a26.60028938134711,26.60028938134711 0 0,0 -0.45681213928431225,0.03150443967904683 l -0.33721177784776146 -5.59012784931704" fill="#ff4a06" stroke="none" /><line stroke="#e1ed5e" stroke-width="0.3" x1="102.19456741930631" x2="102.32365962044197" y1="184.97166512339345" y2="189.96999836594603" /><path d="M 102.22038585953345 185.97133177190398 a86.0,86.0 0 0,1 -42.740103519485714,-10.115201625700543" fill="none" id="id43" stroke="none" /><text fill="#e1ed5e" style="font-size:6.75px; font-family:Arial;" text-anchor="middle"><textPath startOffset="22.20632615414155" xlink:href="#id43">July</textPath></text><path d="M 100.54218724476979 120.99299961872073 l 0.10984320600588268 4.253029565052989 a25.254447791561258,25.254447791561258 0 0,0 -0.4346654972081585,0.007483160723107909 l -0.03661801890505625 -4.254290203055256" fill="#ff3805" stroke="none" /><path d="M 100.18074693466247 120.99922214144158 l 0.019134802351653046 2.22308591824982 a23.223168266367097,23.223168266367097 0 0,0 -0.39976347402821544,0.0 l 0.019134802351651516 -2.22308591824982" fill="#ff1b02" stroke="none" /><path d="M 99.09653310690486 120.98055641714683 l -0.07338493640192377 1.704165155487512 a22.705744478539646,22.705744478539646 0 0,0 -0.3903354605860646,-0.020175884741791297 l 0.10270846540147728 -1.7026494639835186" fill="#ff1402" stroke="none" /><path d="M 98.73552117531835 120.96189622390904 l -0.3728506582369702 6.180931346910656 a27.19216682015032,27.19216682015032 0 0,0 -0.4669765700217996,-0.03220543833364192 l 0.4791899890376999 -6.173597564060729" fill="#ff5307" stroke="none" /><path d="M 97.65516085044442 120.86867818915974 l -0.17541976590418204 1.5612067221608519 a22.571031038391702,22.571031038391702 0 0,0 -0.38572019395879553,-0.04670534380462179 l 0.20226738291436688 -1.5579558496308814" fill="#ff1202" stroke="none" /><path d="M 97.2962882734958 120.8252237178851 l -0.47772432747785964 3.679651161651754 a24.710532738638655,24.710532738638655 0 0,0 -0.42133977477372747,-0.05839385352686452 l 0.5409926934384182 -3.6708827426322843" fill="#ff3004" stroke="none" /><path d="M 96.58105272829116 120.7198165907248 l -0.3351601981305842 2.0311684509558803 a23.0586348958884,23.0586348958884 0 0,0 -0.3910645968867207,-0.06799159286278764 l 0.37007376648935475 -2.025098279572086" fill="#ff1902" stroke="none" /><path d="M 96.22490169976321 120.6578951692458 l -0.6596773834366337 3.6098520220523933 a24.669632934141173,24.669632934141173 0 0,0 -0.4170723156308959,-0.07993290193113647 l 0.7217173136392248 -3.5979619217727885" fill="#ff3004" stroke="none" /><path d="M 95.86986931433489 120.58985236759428 l -0.45720461840540155 2.279292427095085 a23.324695685741304,23.324695685741304 0 0,0 -0.39297507110363894,-0.08235174697481738 l 0.4963711509384273 -2.271084699393726" fill="#ff1d02" stroke="none" /><path d="M 95.51606077576429 120.51570834832081 l -0.6575046911369357 3.0083312476915554 a24.079345598451805,24.079345598451805 0 0,0 -0.40416591139332964,-0.09198684558188358 l 0.709190751923128 -2.996567668531985" fill="#ff2703" stroke="none" /><path d="M 94.81253420990036 120.34920634021253 l -1.362986119959906 5.346673484930501 a26.517666945155554,26.517666945155554 0 0,0 -0.4413418110320822,-0.11656238358687254 l 1.4548183738034774 -5.322419752040046" fill="#ff4906" stroke="none" /><path d="M 94.11515582081647 120.15858648285463 l -1.5755274574246805 5.396983427182932 a26.6222519404938,26.6222519404938 0 0,0 -0.4387917920648396,-0.13220436748517986 l 1.668194223929766 -5.369063690592027" fill="#ff4b07" stroke="none" /><path d="M 93.76903079525671 120.05430185196036 l -0.8695789488407252 2.7987297242437195 a23.930709063969378,23.930709063969378 0 0,0 -0.3923253489315914,-0.12561018750171915 l 0.917625642863257 -2.7833466900822934" fill="#ff2503" stroke="none" /><path d="M 93.42475214034765 119.94407469862007 l -1.1308139003686652 3.4299903791585744 a24.61158885788338,24.61158885788338 0 0,0 -0.40120437078849597,-0.136110305602191 l 1.1896880040943871 -3.4100170866582604" fill="#ff2f04" stroke="none" /><path d="M 93.08242187328487 119.8279376855182 l -0.5793853472989097 1.6606992146253192 a22.758865902256858,22.758865902256858 0 0,0 -0.3687808042280522,-0.13223167580362946 l 0.6078857121566885 -1.650479997781732" fill="#ff1502" stroke="none" /><path d="M 92.40401165467489 119.57807347666478 l -1.025589916258694 2.6433788237440727 a23.835363518519294,23.835363518519294 0 0,0 -0.3812283928929244,-0.15169864518945828 l 1.0709393851934763 -2.625333334148548" fill="#ff2403" stroke="none" /><path d="M 92.06813273071674 119.44442032107085 l -1.4959779733480845 3.6672858379124613 a24.960673618678513,24.960673618678513 0 0,0 -0.3964331924760972,-0.1657091066066931 l 1.558882625321644 -3.640991688285795" fill="#ff3404" stroke="none" /><path d="M 91.7346041902142 119.30500536409082 l -0.6885348520784854 1.6081708993296375 a22.749369567580686,22.749369567580686 0 0,0 -0.35865932992363236,-0.15722571021240084 l 0.7161148566598611 -1.5960806358227844" fill="#ff1402" stroke="none" /><path d="M 90.7491055286396 118.85261126421891 l -2.467686739388971 5.028955736506937 a26.601774151418656,26.601774151418656 0 0,0 -0.40934568408269945,-0.20525442387607062 l 2.553886331154431 -4.985733471721565" fill="#ff4a06" stroke="none" /><path d="M 90.42595943632237 118.69057910512821 l -1.013630863997357 1.9788246896318427 a23.223329638345287,23.223329638345287 0 0,0 -0.3542211312756221,-0.1853117543588524 l 1.0475428977994747 -1.9610835163282734" fill="#ff1b02" stroke="none" /><path d="M 90.10565033884886 118.52300852407294 l -1.047143537200236 1.9603358815632597 a23.222482026034097,23.222482026034097 0 0,0 -0.35096600223113034,-0.191374647806953 l 1.0807323513000069 -1.9420205819965408" fill="#ff1b02" stroke="none" /><line stroke="#e1ed5e" stroke-width="0.3" x1="58.666819895761336" x2="56.23545636021788" y1="174.27360380694188" y2="178.64263932499728" /><path d="M 58.180547188652646 175.14741091055294 a86.0,86.0 0 0,1 -31.652253787137756,-30.449443065178592" fill="none" id="id44" stroke="none" /><text fill="#e1ed5e" style="font-size:6.75px; font-family:Arial;" text-anchor="middle"><textPath startOffset="22.20632615414155" xlink:href="#id44">August</textPath></text><path d="M 89.7882731507175 118.34994917583269 l -1.5271419107382505 2.7441956546555986 a24.14050508781055,24.14050508781055 0 0,0 -0.3613617876903865,-0.20519065401393977 l 1.5741524653498442 -2.7175018348470257" fill="#ff2803" stroke="none" /><path d="M 89.1626897886671 117.98757091392108 l -2.537576874419611 4.211824067785451 a25.917190089020963,25.917190089020963 0 0,0 -0.380144458415556,-0.23351577486876282 l 2.609700532767476 -4.167519826088309" fill="#ff4106" stroke="none" /><path d="M 88.8546689885994 117.79835938074946 l -2.265118857237685 3.6172455910004007 a25.267930306720764,25.267930306720764 0 0,0 -0.3666475328127562,-0.23401180276870934 l 2.3270481920973647 -3.577719359407887" fill="#ff3805" stroke="none" /><path d="M 88.24862548938628 117.40417183066458 l -2.3774316150371755 3.5210543503987517 a25.248529724815427,25.248529724815427 0 0,0 -0.35810003580621835,-0.2463044699579747 l 2.4376885354662843 -3.479609091075676" fill="#ff3805" stroke="none" /><path d="M 87.95078237400918 117.19931262002967 l -1.5580953119756897 2.224058789067553 a23.715529137834697,23.715529137834697 0 0,0 -0.3323253395651523,-0.23710530599471474 l 1.5961479793897289 -2.1969092212286188" fill="#ff2203" stroke="none" /><path d="M 87.65650970185807 116.9893568818739 l -1.463389846449853 2.014183327254665 a23.48966751163347,23.48966751163347 0 0,0 -0.32506906755959286,-0.24047832487675794 l 1.4978438844280102 -1.9886950536381405" fill="#ff1f03" stroke="none" /><path d="M 87.36589467227662 116.77436683061367 l -2.4681221601904175 3.2769385266207105 a25.102432583830492,25.102432583830492 0 0,0 -0.3429127025347611,-0.2629308377558814 l 2.5241635912186653 -3.2339683470374623" fill="#ff3605" stroke="none" /><path d="M 86.51685102203217 116.09983520530335 l -3.749346327022528 4.476985168027866 a26.83960564376558,26.83960564376558 0 0,0 -0.35164295750748503,-0.299677757118926 l 3.8258547611070695 -4.411783020685989" fill="#ff4e07" stroke="none" /><path d="M 86.24171649860922 115.8653595955263 l -3.756641011582854 4.331969210696874 a26.73396101594107,26.73396101594107 0 0,0 -0.34506878906990457,-0.3044830858940426 l 3.830652153559346 -4.2666629830305425" fill="#ff4c07" stroke="none" /><path d="M 85.70375840098266 115.38237550388516 l -1.468821954984164 1.5804133347515705 a23.157578328613837,23.157578328613837 0 0,0 -0.28965076139117396,-0.2738828739843208 l 1.4958085507661547 -1.5548958240213189" fill="#ff1a02" stroke="none" /><path d="M 85.44109423537348 115.13401014063109 l -2.815618732649151 2.9268410099607665 a25.06129377726273,25.06129377726273 0 0,0 -0.3083136400419066,-0.30174978820038695 l 2.8655823250668515 -2.87794111883781" fill="#ff3505" stroke="none" /><path d="M 85.18274418774928 114.88116024355367 l -3.2466359665813265 3.260638183167241 a25.601348330764324,25.601348330764324 0 0,0 -0.30960487713411783,-0.31362810595244595 l 3.3022814687709774 -3.2042695832341304" fill="#ff3d05" stroke="none" /><path d="M 84.9287848128048 114.62390073753433 l -2.836133998545761 2.751957394140176 a24.951825597982527,24.951825597982527 0 0,0 -0.2964436675157841,-0.31082000022413486 l 2.8830842174405027 -2.7027302773335413" fill="#ff3404" stroke="none" /><path d="M 84.67929136418377 114.36230785411682 l -1.6835149980114232 1.5782011950764283 a23.307583532761072,23.307583532761072 0 0,0 -0.2718703003471153,-0.2950615159903517 l 1.7104317063542676 -1.5489884242847325" fill="#ff1c02" stroke="none" /><path d="M 84.43433777217949 114.09645910891817 l -1.2553730148405016 1.1368815609084613 a22.693653178759863,22.693653178759863 0 0,0 -0.25972470050784713,-0.29180345434321475 l 1.274756564996687 -1.1151039368243825" fill="#ff1402" stroke="none" /><path d="M 84.19399662182784 113.82643327865904 l -1.0816982014566547 0.9462245231922413 a22.437154079187387,22.437154079187387 0 0,0 -0.2517849248892888,-0.29288275060697855 l 1.0978256359167222 -0.9274646734237324" fill="#ff1001" stroke="none" /><path d="M 83.06392112726016 112.41649034213515 l -5.632859609239807 4.129665872618518 a27.98450052594137,27.98450052594137 0 0,0 -0.28147104815972657,-0.39093866774029273 l 5.70311044977514 -4.032093599427087" fill="#ff5d08" stroke="none" /><path d="M 82.85270091963577 112.12312394758628 l -2.289354732674065 1.6185715927695488 a23.803733063780804,23.803733063780804 0 0,0 -0.2336609495201188,-0.33660602504083925 l 2.3168765893563177 -1.578924305541697" fill="#ff2303" stroke="none" /><path d="M 82.6465618267979 111.8261652097733 l -1.8497174290570608 1.2605608000612987 a23.23840749150119,23.23840749150119 0 0,0 -0.2224213209996075,-0.3324896963732865 l 1.8711418554673986 -1.2285341894821913" fill="#ff1b02" stroke="none" /><path d="M 82.05923443525364 110.91462005526583 l -5.57555593620224 3.3919998798774644 a27.52629199337639,27.52629199337639 0 0,0 -0.24278074753752124,-0.40691449759539383 l 5.633117559437993 -3.2955232883959593" fill="#ff5708" stroke="none" /><line stroke="#e1ed5e" stroke-width="0.3" x1="26.63291911575756" x2="22.317208475507996" y1="142.92168965132927" y2="145.44649492493687" /><path d="M 25.769776987707644 143.4266507060508 a86.0,86.0 0 0,1 -11.730757126820373,-40.83630448921669" fill="none" id="id45" stroke="none" /><text fill="#e1ed5e" style="font-size:6.75px; font-family:Arial;" text-anchor="middle"><textPath startOffset="21.46611528233685" xlink:href="#id45">September</textPath></text><path d="M 81.87401531095188 110.60418214915194 l -2.3940050645124824 1.4005565052375508 a23.77359311602741,23.77359311602741 0 0,0 -0.2036015841049103,-0.35499652351551275 l 2.41775864476977 -1.3591401358637312" fill="#ff2303" stroke="none" /><path d="M 81.69416730710424 110.29060199501025 l -3.655663603852633 2.05502693081488 a25.19368716893705,25.19368716893705 0 0,0 -0.2092558750076789,-0.3798601956165699 l 3.6904958883118284 -1.9917962168004877" fill="#ff3705" stroke="none" /><path d="M 81.35079622478065 109.6543875284942 l -1.4987236938942121 0.7758647239523151 a22.687642965947926,22.687642965947926 0 0,0 -0.17655451394806948,-0.34835880575062445 l 1.5118568776285484 -0.7499517064990057" fill="#ff1302" stroke="none" /><path d="M 81.18737489456691 109.33194174019688 l -7.901645564827007 3.91958568511288 a29.820382904108648,29.820382904108648 0 0,0 -0.2241452537102695,-0.46180561227429273 l 7.967944075151995 -3.782991116873302" fill="#ff760a" stroke="none" /><path d="M 80.58989483394504 108.01547362559985 l -8.290317054958118 3.423516623603298 a29.969382528570044,29.969382528570044 0 0,0 -0.19279929675857763,-0.47851204319953905 l 8.348018965974083 -3.2803052125609535" fill="#ff780b" stroke="none" /><path d="M 80.32549172779594 107.34259656027581 l -5.823201129866069 2.1732394016858887 a27.215516140749173,27.215516140749173 0 0,0 -0.16002171274301177,-0.44031102687786233 l 5.859747103614305 -2.072680577801909" fill="#ff5307" stroke="none" /><path d="M 80.0844068197444 106.66101706037122 l -2.0045109382040676 0.6704335359850255 a23.11365683769933,23.11365683769933 0 0,0 -0.12295117029153664,-0.37840479268269506 l 2.015754359511854 -0.6358298433245271" fill="#ff1a02" stroke="none" /><path d="M 79.97269907076064 106.31721596034903 l -2.149571052686201 0.6780396724407376 a23.253972827686706,23.253972827686706 0 0,0 -0.11712608371615091,-0.38277481845423245 l 2.160923908908482 -0.6409378814344573" fill="#ff1c02" stroke="none" /><path d="M 79.58551787078972 104.9243191809786 l -1.425283873043192 0.3438026333434875 a22.466163145577912,22.466163145577912 0 0,0 -0.08744626005863605,-0.376716199651349 l 1.430990699032383 -0.31921777634356424" fill="#ff1001" stroke="none" /><path d="M 79.4281124754447 104.21870165774334 l -2.2261320863062672 0.45651557795297193 a23.272459139037714,23.272459139037714 0 0,0 -0.0770984067678056,-0.3931231150926453 l 2.2336604260497395 -0.41812873579237175" fill="#ff1c02" stroke="none" /><path d="M 79.29508885075956 103.50808413554451 l -2.511039647388597 0.4254516374029634 a23.54682728242932,23.54682728242932 0 0,0 -0.06426965858031163,-0.40020722532978686 l 2.5179910603301994 -0.38216518237996283" fill="#ff2003" stroke="none" /><path d="M 79.23777060512086 103.15116336523772 l -7.472234969803086 1.1340898246264055 a28.557807563987673,28.557807563987673 0 0,0 -0.0695803488046084,-0.48664479748025496 l 7.490649369624293 -1.0052995551657498" fill="#ff6509" stroke="none" /><path d="M 79.1416061653843 102.43462659150553 l -1.7016780059714038 0.19862270107502844 a22.713230577998523,22.713230577998523 0 0,0 -0.041984539833992175,-0.38872469579103364 l 1.704844847306448 -0.16930168339921273" fill="#ff1402" stroke="none" /><path d="M 79.10278846688536 102.07522291339032 l -8.444163669837186 0.8385579054074094 a29.485698524206448,29.485698524206448 0 0,0 -0.04580870563831806,-0.5054952495409712 l 8.45734697175258 -0.6930812673178719" fill="#ff720a" stroke="none" /><path d="M 79.0235259727143 100.99374915477108 l -4.42505609746146 0.209634648365922 a25.430018978681282,25.430018978681282 0 0,0 -0.01695076320262006,-0.43742387923645537 l 4.428008993515281 -0.13343352211546985" fill="#ff3a05" stroke="none" /><path d="M 79.0095281055655 100.63252640178507 l -2.5400452347065494 0.07654166522603305 a23.541198225418675,23.541198225418675 0 0,0 -0.008719141148434294,-0.4051442279604598 l 2.540986438539991 -0.032807621475444415" fill="#ff2003" stroke="none" /><line stroke="#e1ed5e" stroke-width="0.3" x1="15.007084014347285" x2="10.007500721073583" y1="101.09737516637583" y2="101.16192664675087" /><path d="M 14.007167355692545 101.11028546245083 a86.0,86.0 0 0,1 10.666146001902534,-42.60595125391555" fill="none" id="id46" stroke="none" /><text fill="#e1ed5e" style="font-size:6.75px; font-family:Arial;" text-anchor="middle"><textPath startOffset="22.20632615414155" xlink:href="#id46">October</textPath></text><path d="M 79.00175016825051 100.2711162175752 l -3.2967448902787555 0.042565500083312904 a24.29701966833327,24.29701966833327 0 0,0 -0.0017999494930964126,-0.41824487228577883 l 3.296989137061355 0.01418885040614133" fill="#ff2a04" stroke="none" /><path d="M 79.00019446554 99.90962569577889 l -1.4617456688991615 -0.006290736719357662 a22.461759205175028,22.461759205175028 0 0,0 0.004991850968292336,-0.38662435870700973 l 1.4614208108131537 0.03145135348683937" fill="#ff1001" stroke="none" /><path d="M 79.00486145842228 99.54816195383935 l -5.255033531512735 -0.11309399453045839 a26.25625034306035,26.25625034306035 0 0,0 0.013613622675443584,-0.45176986026811605 l 5.252308214381646 0.20353400222356882" fill="#ff4606" stroke="none" /><path d="M 79.01574976396665 99.18683210126434 l -2.202921777341161 -0.0853661795208434 a23.204575183950396,23.204575183950396 0 0,0 0.01890221685104224,-0.39899592259313493 l 2.20112595225662 0.12327320873698744" fill="#ff1b02" stroke="none" /><path d="M 79.03285615573316 98.82574320788736 l -6.1835180386450785 -0.34630553927427093 a27.19320780054901,27.19320780054901 0 0,0 0.030196644504904016,-0.4671287251396357 l 6.176640803135761 0.4526933286669184" fill="#ff5307" stroke="none" /><path d="M 79.05617556472873 98.46500227214037 l -1.6178151301431127 -0.11857158927881599 a22.622154436884504,22.622154436884504 0 0,0 0.03180622794590807,-0.3881165431612283 l 1.6155344183777076 0.14640204964782266" fill="#ff1302" stroke="none" /><path d="M 79.08570108090925 98.10471618934814 l -2.1201424311049717 -0.19213035261160025 a23.12883019533413,23.12883019533413 0 0,0 0.03934420448499979,-0.39619076987828183 l 2.116521100937743 0.22859665319431235" fill="#ff1a02" stroke="none" /><path d="M 79.16333360222342 97.38593545837743 l -2.3084473549998377 -0.28960632481745663 a23.326542717033156,23.326542717033156 0 0,0 0.05341111914206195,-0.39797487612181826 l 2.303120236799942 0.32929954300393427" fill="#ff1d02" stroke="none" /><path d="M 79.21141760316559 97.0276538004421 l -4.292608922644827 -0.613756126986061 a25.336264284632904,25.336264284632904 0 0,0 0.06544490570026802,-0.4312001592379208 l 4.281408123505257 0.6875553986160738" fill="#ff3905" stroke="none" /><path d="M 79.26566170972629 96.67025291283419 l -2.6023910031945947 -0.41792044391493927 a23.63573451450449,23.63573451450449 0 0,0 0.0679675242349115,-0.40114817545540454 l 2.59481161743946 0.4626544076861717" fill="#ff2103" stroke="none" /><path d="M 79.32604984820605 96.31383870115002 l -2.538772077912543 -0.4526625686668845 a23.57881117274229,23.57881117274229 0 0,0 0.07468226458195334,-0.39895564366884584 l 2.530604089420728 0.496296289798303" fill="#ff2003" stroke="none" /><path d="M 79.3925641242962 95.95851677861259 l -2.5692375829861325 -0.5038730022515124 a23.618180620244978,23.618180620244978 0 0,0 0.08167470980233431,-0.398274891178976 l 2.5601835772688037 0.548023549593891" fill="#ff2103" stroke="none" /><path d="M 79.46518482838121 95.60439243477599 l -7.128794160819685 -1.52596365160045 a28.29028608857997,28.29028608857997 0 0,0 0.10602877659473404,-0.47530621532038614 l 7.101470997222913 1.6484480364707954" fill="#ff6209" stroke="none" /><path d="M 79.62865764111835 94.90015583598534 l -2.498468863630838 -0.6254767913026008 a23.575571369422903,23.575571369422903 0 0,0 0.10194039802842671,-0.3928179377089972 l 2.487332133732104 0.6683911545604618" fill="#ff2003" stroke="none" /><path d="M 79.71946130924805 94.55025226153421 l -4.2218802801684525 -1.134495629517632 a25.371653398140097,25.371653398140097 0 0,0 0.11696722388309094,-0.42079333772117006 l 4.201726285719 1.2070002706577445" fill="#ff3905" stroke="none" /><path d="M 79.81627453868168 94.20196356495316 l -3.1145788298423414 -0.8947030898661442 a24.240539292512608,24.240539292512608 0 0,0 0.1186564042905834,-0.4000504080095575 l 3.098716528440051 0.9481828846222409" fill="#ff2a04" stroke="none" /><path d="M 79.91906864156998 93.8553929516997 l -2.442592461220744 -0.74741408082357 a23.55438558949618,23.55438558949618 0 0,0 0.12197191743175965,-0.38668431009080334 l 2.429365060020781 0.7893485573407878" fill="#ff2003" stroke="none" /><path d="M 80.14247586403 93.16781622104843 l -4.661113669377913 -1.6037037138022656 a25.929284556659802,25.929284556659802 0 0,0 0.1488426366719582,-0.4207981772366418 l 4.632817951896146 1.6836995174655185" fill="#ff4106" stroke="none" /><path d="M 80.2630227832202 92.82701384747504 l -2.1265055729867943 -0.7728333908869 a23.26258644078268,23.26258644078268 0 0,0 0.14001353265234215,-0.37516665715943126 l 2.1128874518328247 0.8093231850756726" fill="#ff1c02" stroke="none" /><path d="M 80.38941819471856 92.48833698450439 l -2.385502366231332 -0.9137459599985599 a23.554516239664366,23.554516239664366 0 0,0 0.14828852268095638,-0.3773781156206656 l 2.3694202936686843 0.9546730805149889" fill="#ff2003" stroke="none" /><path d="M 80.52162464483688 92.15188598940014 l -2.155842975289199 -0.8686197462836983 a23.32425454667464,23.32425454667464 0 0,0 0.15324958557081206,-0.3711060271078082 l 2.140571702832187 0.9056003438448178" fill="#ff1d02" stroke="none" /><path d="M 80.65960295795068 91.81776055985345 l -3.6972927630773063 -1.5641940856770526 a25.01455812183245,25.01455812183245 0 0,0 0.17118211387083557,-0.3951119203238121 l 3.6698199393637903 1.6276051505874642" fill="#ff3405" stroke="none" /><path d="M 80.95270993114464 91.15688171328213 l -7.60941785229644 -3.5328375804466297 a29.389528080927064,29.389528080927064 0 0,0 0.21698121503835688,-0.4570177759796327 l 7.547478443416331 3.6632977720667945" fill="#ff700a" stroke="none" /><path d="M 81.10775173730289 90.83032412892265 l -3.0034287200915766 -1.4577655068985778 a24.33851229588483,24.33851229588483 0 0,0 0.18617801428305442,-0.37532351605821085 l 2.977890692855109 1.5092486114557502" fill="#ff2b04" stroke="none" /><path d="M 81.43458229118936 90.18545643968196 l -3.3966246973997505 -1.7956138436282767 a24.84204221871851,24.84204221871851 0 0,0 0.20310368799175013,-0.37632028774437765 l 3.3652129101895283 1.853815114705127" fill="#ff3204" stroke="none" /><path d="M 81.6062741919709 89.86733742301443 l -2.8030515538151355 -1.5441339007187906 a24.200226166491124,24.200226166491124 0 0,0 0.20413738782804172,-0.36313763468424126 l 2.776056524694663 1.5921550453378164" fill="#ff2904" stroke="none" /><line stroke="#e1ed5e" stroke-width="0.3" x1="26.266209847984243" x2="21.928928074336255" y1="57.711370442889674" y2="55.22380399835377" /><path d="M 25.398753493254645 57.213857153982495 a86.0,86.0 0 0,1 29.58750427330803,-30.492523968695096" fill="none" id="id47" stroke="none" /><text fill="#e1ed5e" style="font-size:6.75px; font-family:Arial;" text-anchor="middle"><textPath startOffset="21.46611528233685" xlink:href="#id47">November</textPath></text><path d="M 82.15384107792192 88.93136811851018 l -2.685846843441943 -1.6658290520624008 a24.16049991253317,24.16049991253317 0 0,0 0.22224484971444003,-0.35153798003214287 l 2.6567743974815405 1.7118146798087592" fill="#ff2803" stroke="none" /><path d="M 82.34701348167596 88.62581576622439 l -4.9689332646141695 -3.201586447618459 a26.911045048869397,26.911045048869397 0 0,0 0.25424961351096526,-0.3872396044405511 l 4.913087015745284 3.286644116036677" fill="#ff4f07" stroke="none" /><path d="M 82.95767976084542 87.72973835380427 l -1.7369038308626072 -1.2505494650898032 a23.140259068968426,23.140259068968426 0 0,0 0.23552088186471493,-0.32125021817978333 l 1.7151203364842589 1.2802621269410874" fill="#ff1a02" stroke="none" /><path d="M 84.07557802195018 86.31012108654704 l -2.669733772000156 -2.295112005962685 a24.520655838515353,24.520655838515353 0 0,0 0.2779102666654338,-0.31769947644578594 l 2.629831641756879 2.340727038611414" fill="#ff2d04" stroke="none" /><path d="M 84.5562425177563 85.77008943001954 l -1.2022133670704949 -1.1077219205958961 a22.634736930925474,22.634736930925474 0 0,0 0.26647841085366325,-0.2842605890288052 l 1.1829676342463757 1.1282519265027515" fill="#ff1302" stroke="none" /><path d="M 84.80347519578584 85.50635884689758 l -1.5839410045809443 -1.5106791074834762 a23.18883998313718,23.18883998313718 0 0,0 0.27797427176312406,-0.2864769216802215 l 1.557702469114702 1.5377202247138213" fill="#ff1b02" stroke="none" /><path d="M 85.57189188830299 84.74124197986013 l -4.04925459391705 -4.282376839166387 a26.893658809176777,26.893658809176777 0 0,0 0.3391061346943347,-0.31516219507674104 l 3.974940575427859 4.3514436203177755" fill="#ff4e07" stroke="none" /><path d="M 86.10567301691215 84.25364557470407 l -0.9591660834177832 -1.0870169617141718 a22.449691501883528,22.449691501883528 0 0,0 0.29195952226815336,-0.2531844206940346 l 0.9403127625028563 1.103366375827887" fill="#ff1001" stroke="none" /><path d="M 86.65592168130627 83.78471172551755 l -1.3590596507340682 -1.651484912824435 a23.138795350551366,23.138795350551366 0 0,0 0.30972555877864416,-0.25044319523015823 l 1.3304306933909236 1.6746342053187275" fill="#ff1a02" stroke="none" /><path d="M 86.93701828274178 83.55741782278169 l -0.3474910496555268 -0.4373924930370398 a21.558625297096235,21.558625297096235 0 0,0 0.29254792215185155,-0.22833829355776877 l 0.3399105723442496 0.44330917581803037" fill="#ff0300" stroke="none" /><path d="M 87.51073957382395 83.11751280151077 l -3.5553419032773603 -4.805970259258194 a26.978110586303515,26.978110586303515 0 0,0 0.37570832366143275,-0.2729680752656345 l 3.4720882632621457 4.866457569340496" fill="#ff5007" stroke="none" /><path d="M 88.70189139769569 82.29822771554957 l -0.8632640399148331 -1.3525541304152795 a22.604564575925043,22.604564575925043 0 0,0 0.3297907454775381,-0.20651493456297415 l 0.8398541420650528 1.367213406301184" fill="#ff1202" stroke="none" /><line stroke="#e1ed5e" stroke-width="0.3" x1="56.762969772571076" x2="54.21961505331055" y1="26.818313649435495" y2="22.513508569990535" /><path d="M 56.25429882871897 25.957352633546506 a86.0,86.0 0 0,1 42.265352541879196,-11.944610805530505" fill="none" id="id48" stroke="none" /><text fill="#e1ed5e" style="font-size:6.75px; font-family:Arial;" text-anchor="middle"><textPath startOffset="22.20632615414155" xlink:href="#id48">December</textPath></text><path d="M 89.63071344664047 81.73862282372117 l -5.814344258037128 -10.23965660340891 a32.775277767709134,32.775277767709134 0 0,0 0.49299622479961214,-0.27435186534529865 l 5.637223944165471 10.338223866314394" fill="#ff9d0e" stroke="none" /><path d="M 90.91171255644093 81.06846463323043 l -0.6910544382713432 -1.4395144981653087 a22.596796238435775,22.596796238435775 0 0,0 0.3521030516209159,-0.16531710392249008 l 0.6661731753508188 1.4511965847278063" fill="#ff1202" stroke="none" /><path d="M 91.56875222667455 80.76684994638697 l -1.4436569848639356 -3.2932339509319317 a24.59576630852412,24.59576630852412 0 0,0 0.3892177444722132,-0.1666427257378006 l 1.3867554826014141 3.3175962046325185" fill="#ff2f04" stroke="none" /><path d="M 92.57280143429618 80.3572730644239 l -0.8689953770577369 -2.2982338157274778 a23.457037166406117,23.457037166406117 0 0,0 0.37890674246927053,-0.13955455097697256 l 0.829306308815897 2.3128516345107726" fill="#ff1e03" stroke="none" /><path d="M 94.28887869178378 79.79150937346287 l -3.5194770710168353 -12.453477270327882 a33.9412447228227,33.9412447228227 0 0,0 0.5635896989153555,-0.15405035443778378 l 3.3045894828777573 12.512214165591962" fill="#ffac0f" stroke="none" /><path d="M 95.692805502759 79.44645832069477 l -0.27921903148407495 -1.3324079061066962 a22.36135010037776,22.36135010037776 0 0,0 0.37741017167806185,-0.07570492994806319 l 0.25624245033887666 1.33701679213197" fill="#ff0f01" stroke="none" /><path d="M 97.47563105711357 79.15227682838746 l -0.5511000504256128 -4.551308287764733 a25.58455214779536,25.58455214779536 0 0,0 0.43765823844190727,-0.049176002539405295 l 0.4726751084739876 4.560120243774736" fill="#ff3c05" stroke="none" /><path d="M 98.19473922651362 79.07773832637324 l -0.3570416746914777 -4.137972450295074 a25.153347415864403,25.153347415864403 0 0,0 0.43169110376452907,-0.03350753804958708 l 0.2857603815646145 4.1435052505331225" fill="#ff3605" stroke="none" /></svg>