<?xml version="1.0" encoding="utf-8" ?>
<svg baseProfile="full" height="200mm" version="1.1" viewBox="0,0,200,200" width="200mm" xmlns="http://www.w3.org/2000/svg" xmlns:ev="http://www.w3.org/2001/xml-events" xmlns:xlink="http://www.w3.org/1999/xlink"><defs /><rect fill="#1a1a1a" height="200" width="200" x="0" y="0" /><text alignment-baseline="middle" fill="#e1ed5e" style="dominant-baseline: central; font-size:9.0px; font-family:Arial;" text-anchor="middle" x="100.0" y="100.0">2018</text><line stroke="#e1ed5e" stroke-width="0.3" x1="100.0" x2="100.0" y1="15.0" y2="10.0" /><path d="M 100.0 14.0 a86.0,86.0 0 0,1 42.46469731375804,11.215312516191453" fill="none" id="id37" stroke="none" /><text fill="#e1ed5e" style="font-size:6.75px; font-family:Arial;" text-anchor="middle"><textPath startOffset="22.20632615414155" xlink:href="#id37">January</textPath></text><path d="M 100.72285384407766 79.0124445844662 l 0.13861252757807052 -4.0245177191302535 a25.02690405949719,25.02690405949719 0 0,0 0.4304140875238126,0.01853453600885907 l -0.2078674474912147 4.021535456597199" fill="#ff3104" stroke="none" /><path d="M 101.08401301168833 79.027996857942 l 0.15712231860667888 -3.0397880135908557 a24.043846019524473,24.043846019524473 0 0,0 0.41313962550957445,0.024921710446116054 l -0.20942399295586522 3.0366330337644354" fill="#ff2303" stroke="none" /><path d="M 102.16513564639614 79.11191278185805 l 2.2204303190101373 -21.4215410671802 a42.536311952014145,42.536311952014145 0 0,0 0.7276409315743197,0.08175893689619701 l -2.588837954094182 21.3801461768134" fill="#eaff1a" stroke="none" /><path d="M 104.66035177308747 79.52364482259891 l 4.768316450672754 -20.950723463850238 a42.486499375944916,42.486499375944916 0 0,0 0.7117021002066165,0.16843689294627845 l -5.128242237841893 20.86554065876309" fill="#ebff1a" stroke="none" /><path d="M 107.08798089147638 80.2323363322302 l 10.596267142907049 -29.551920105585474 a52.394216972091506,52.394216972091506 0 0,0 0.8463354487733278,0.3117124883018816 l -11.103384917452953 29.365144349477266" fill="#7cff26" stroke="none" /><path d="M 108.43124777332544 80.76684994638697 l 0.9846372888436262 -2.246129782192704 a23.452470099518926,23.452470099518926 0 0,0 0.3683354288068815,0.16526137018560685 l -1.023154836117288 2.2288480814905665" fill="#ff1b02" stroke="none" /><path d="M 109.41281617654863 81.2277094730956 l 1.369970143986623 -2.7321767549413365 a24.056404426062837,24.056404426062837 0 0,0 0.3685664681147219,0.18879406016764766 l -1.4167970996901005 2.7081901694611883" fill="#ff2303" stroke="none" /><line stroke="#e1ed5e" stroke-width="0.3" x1="143.23703022742887" x2="145.7803849466894" y1="26.81831364943548" y2="22.513508569990506" /><path d="M 143.74570117128098 25.957352633546492 a86.0,86.0 0 0,1 28.547481713284135,27.462654790039103" fill="none" id="id38" stroke="none" /><text fill="#e1ed5e" style="font-size:6.75px; font-family:Arial;" text-anchor="middle"><textPath startOffset="19.985693538727396" xlink:href="#id38">February</textPath></text><path d="M 111.90073688211348 82.69761687909136 l 0.3393007054914872 -0.4933064950315675 a21.598728875858974,21.598728875858974 0 0,0 0.30451004974844087,0.21332874980406732 l -0.34774189482357903 0.4873929024635646" fill="#ff0000" stroke="none" /><path d="M 112.77801427241765 83.33499621200491 l 2.74164937304872 -3.5756414269966736 a25.505757749723486,25.505757749723486 0 0,0 0.34611002926958384,0.2701443677512254 l -2.8027919574777345 3.5279186700222245" fill="#ff3805" stroke="none" /><path d="M 113.6212207817346 84.01681056812373 l 2.920379190115876 -3.426783440080715 a25.502383741894207,25.502383741894207 0 0,0 0.33165995948577365,0.2876122486345516 l -2.978932948248414 3.376006198026492" fill="#ff3805" stroke="none" /><path d="M 113.89432698308785 84.25364557470407 l 10.732792784653398 -12.163407365187304 a37.22163122777117,37.22163122777117 0 0,0 0.4767718963821154,0.42805051603478145 l -10.940575668631503 11.976857840383223" fill="#ffd313" stroke="none" /><path d="M 114.42810811169701 84.74124197986012 l 3.497694166485154 -3.699062170984417 a26.090866864009726,26.090866864009726 0 0,0 0.3236718098453358,0.31137202462637414 l -3.560849219942908 3.638307059595741" fill="#ff4006" stroke="none" /><path d="M 114.68862486808459 84.99185889309783 l 12.795680226797876 -13.074019939051157 a39.29369918395876,39.29369918395876 0 0,0 0.47931614332974887,0.47725780748412217 l -13.018832170294946 12.851826280916915" fill="#ffed16" stroke="none" /><path d="M 114.94478906791727 85.2469230424477 l 11.207143074350483 -11.06337757587595 a36.74796428988067,36.74796428988067 0 0,0 0.44051313561547456,0.4539875084495649 l -11.395920473669067 10.868825871876272" fill="#ffcd13" stroke="none" /><path d="M 115.19652480421416 85.50635884689758 l 3.449489927364073 -3.289940944563315 a25.766832509927358,25.766832509927358 0 0,0 0.3033525240841847,0.3235953220499351 l -3.5056097734187204 3.2300762056353256" fill="#ff3b05" stroke="none" /><path d="M 115.4437574822437 85.77008943001954 l 4.709295212174728 -4.339154496173028 a27.403571123761367,27.403571123761367 0 0,0 0.31665003823864124,0.3496528810225014 l -4.783288891029405 4.257448827880977" fill="#ff5207" stroke="none" /><path d="M 115.68641384162765 86.03803664274999 l 19.12594826931338 -17.02338033439927 a46.60463581482977,46.60463581482977 0 0,0 0.5282039294724146,0.6038284006686732 l -19.416144062363642 16.691636377527647" fill="#bbff1f" stroke="none" /><path d="M 115.9244219780498 86.31012108654704 l 0.6498426293126411 -0.5586555619006174 a21.856966440249828,21.856966440249828 0 0,0 0.24280944247040712,0.2874097938443788 l -0.6593626852701655 0.547386818427132" fill="#ff0400" stroke="none" /><path d="M 116.15771136456269 86.58626213691792 l 3.8088932919074434 -3.162050306094261 a25.95037677832792,25.95037677832792 0 0,0 0.2823666773825368,0.34614815905923724 l -3.862758461366389 3.0960179774269228" fill="#ff3e05" stroke="none" /><path d="M 117.04232023915458 87.72973835380427 l 8.392759397846904 -6.042683877548019 a31.341781217668757,31.341781217668757 0 0,0 0.31145877204738864,0.44053634513593143 l -8.495530789698174 5.897321032080295" fill="#ff870c" stroke="none" /><path d="M 117.45458315368197 88.32363383020206 l 1.1379204939583905 -0.7612199181492754 a22.36905763733953,22.36905763733953 0 0,0 0.21133791900574617,0.3218821497069646 l -1.1508550483220614 0.7415197044646368" fill="#ff0b01" stroke="none" /><line stroke="#e1ed5e" stroke-width="0.3" x1="172.23445277983987" x2="176.4835382374775" y1="55.19839476539836" y2="52.563006222186495" /><path d="M 173.08426987136738 54.67131705675599 a86.0,86.0 0 0,1 12.851231095245387,41.99856678651699" fill="none" id="id39" stroke="none" /><text fill="#e1ed5e" style="font-size:6.75px; font-family:Arial;" text-anchor="middle"><textPath startOffset="22.20632615414155" xlink:href="#id39">March</textPath></text><path d="M 117.84615892207809 88.93136811851018 l 0.8977103027381007 -0.5567822701016144 a22.056357081645046,22.056357081645046 0 0,0 0.197335287761851,0.3243673272601999 l -0.9071613887861756 0.5412471696343331" fill="#ff0701" stroke="none" /><path d="M 118.03404312379186 89.2402003453031 l 2.1560109389911615 -1.2863585607308974 a23.510597840319157,23.510597840319157 0 0,0 0.20436343729376566,0.3493233597165535 l -2.1778340507552545 1.2490557886604485" fill="#ff1c02" stroke="none" /><path d="M 118.3937258080291 89.86733742301442 l 55.1811774240873 -30.397987730956764 a84.0,84.0 0 0,0 0.6867676031261407,1.272476066670165 l -55.696253126431905 29.44363068095414" fill="#4dd2ff" stroke="none" /><path d="M 118.73160827565052 90.50648371742162 l 4.8597997194175075 -2.4630339844514904 a26.448319898960914,26.448319898960914 0 0,0 0.20231703647491425,0.40785879998051977 l -4.90147676884583 2.3790155959720205" fill="#ff4506" stroke="none" /><path d="M 118.89224826269711 90.83032412892265 l 0.9418959083101046 -0.457165291467783 a22.04698042284187,22.04698042284187 0 0,0 0.1627716030996593,0.3428385080620733 l -0.9496257052515201 0.44088436776516937" fill="#ff0601" stroke="none" /><path d="M 119.34039704204932 91.81776055985345 l 2.996120468614791 -1.2675528331931631 a24.253218106335407,24.253218106335407 0 0,0 0.15935324389968064,0.3858865198890021 l -3.0174953994006692 1.215791742850858" fill="#ff2603" stroke="none" /><path d="M 119.85752413597 93.16781622104841 l 5.396821299096795 -1.8568314299968198 a26.70732013240968,26.70732013240968 0 0,0 0.1458254096421801,0.43599941382163926 l -5.427984002510746 1.7636589132528666" fill="#ff4906" stroke="none" /><path d="M 120.18372546131832 94.20196356495316 l 11.042214314207232 -3.172019013044365 a32.48878590539479,32.48878590539479 0 0,0 0.14977829923234737,0.5388322331662229 l -11.095179384005942 2.9814754764591904" fill="#ff970d" stroke="none" /><path d="M 120.67395015179393 96.31383870115 l 0.8067239436127157 -0.14383872254537666 a21.819446825182414,21.819446825182414 0 0,0 0.06274456078244027,0.37032194950389924 l -0.8090803659153789 0.12993098472563955" fill="#ff0300" stroke="none" /><path d="M 120.78858239683441 97.02765380044208 l 34.924488622321235 -4.993494459914083 a56.27966684156524,56.27966684156524 0 0,0 0.12886435968735657,0.9601891592402061 l -35.00526898106642 4.391586958609212" fill="#54ff2b" stroke="none" /><path d="M 120.91429891909075 98.10471618934814 l 2.801162098378602 -0.2538453331190781 a23.812640495075605,23.812640495075605 0 0,0 0.03348002391609092,0.40854109356716417 l -2.8051166061141872 0.20559032234414515" fill="#ff2003" stroke="none" /><path d="M 120.98425023603335 99.18683210126433 l 6.242004985202033 -0.2418860822102825 a27.246689932440546,27.246689932440546 0 0,0 0.014127156431272011,0.468811545545024 l -6.24524383608895 0.1344043892402594" fill="#ff5007" stroke="none" /><line stroke="#e1ed5e" stroke-width="0.3" x1="184.98032266829074" x2="189.97916517819016" y1="98.17113171792111" y2="98.06355123074" /><path d="M 185.9800911702706 98.14961562048488 a86.0,86.0 0 0,1 -9.607161424134198,41.387399972396054" fill="none" id="id40" stroke="none" /><text fill="#e1ed5e" style="font-size:6.75px; font-family:Arial;" text-anchor="middle"><textPath startOffset="21.466115282336823" xlink:href="#id40">April</textPath></text><path d="M 120.99513854157772 99.54816195383933 l 3.167948894544112 -0.06817768008593922 a24.168682438254923,24.168682438254923 0 0,0 0.005371193757787089,0.4160048758038097 l -3.168653095419615 0.013636546221666788" fill="#ff2503" stroke="none" /><path d="M 120.9764740272857 100.99374915477107 l 42.055146781332624 1.9923399191570488 a63.10231334680908,63.10231334680908 0 0,0 -0.06073942953226549,1.0845433167394338 l -42.014621000912825 -2.7159549522319058" fill="#33ff55" stroke="none" /><path d="M 120.81339534386255 102.79330883721812 l 1.7713958152991225 0.2377341852849255 a22.787277448330933,22.787277448330933 0 0,0 -0.055520603590088154,0.38831097219637756 l -1.767041160692433 -0.26819062946171235" fill="#ff1101" stroke="none" /><path d="M 120.5718875245553 104.21870165774334 l 7.183319269316998 1.4730919014307788 a28.33280815752068,28.33280815752068 0 0,0 -0.10208710308927348,0.47691695908649495 l -7.156898127503282 -1.5965226799334429" fill="#ff5f08" stroke="none" /><path d="M 120.49622156327973 104.57218783832717 l 3.789593926004578 0.8453624101975248 a24.88273868919681,24.88273868919681 0 0,0 -0.09685242755013737,0.4172377230224611 l -3.774480932523888 -0.9104687905685507" fill="#ff2f04" stroke="none" /><path d="M 120.32669344350535 105.2749913415812 l 17.865711242808544 4.636340503630535 a39.45749959981093,39.45749959981093 0 0,0 -0.1762659019143723,0.6559509935483891 l -17.783257264552393 -4.943182430354472" fill="#ffef16" stroke="none" /><path d="M 120.23288151984713 105.62410040840565 l 4.74516399867303 1.3190053407227413 a25.925074259659212,25.925074259659212 0 0,0 -0.12321491906612593,0.4289272975479608 l -4.721756442720805 -1.400490113775284" fill="#ff3e05" stroke="none" /><path d="M 120.13307415673323 105.97154293290107 l 2.8835888922299526 0.8552829407340659 a24.007755609769962,24.007755609769962 0 0,0 -0.12092275217758891,0.395182550659977 l -2.868439367546231 -0.9047924639461" fill="#ff2303" stroke="none" /><path d="M 120.02730092923936 106.31721596034902 l 17.736234340158788 5.59454431957731 a39.59765938801823,39.59765938801823 0 0,0 -0.21063644739337578,0.6482723264716787 l -17.637305641749165 -5.899015546026785" fill="#fff116" stroke="none" /><path d="M 119.9155931802556 106.66101706037122 l 7.119229055940532 2.3811144247174156 a28.50687206861455,28.50687206861455 0 0,0 -0.15965093030463717,0.46402033440922075 l -7.077187294692664 -2.5033074622159366" fill="#ff6109" stroke="none" /><path d="M 119.79798401119884 107.00284435728193 l 6.080640462709838 2.1508138772544276 a27.44982083249871,27.44982083249871 0 0,0 -0.1613993767889,0.44410176664897294 l -6.042716824915711 -2.2551634409095316" fill="#ff5307" stroke="none" /><path d="M 119.41010516605496 108.01547362559984 l 2.3300450577927565 0.9622005933207934 a23.520900623414445,23.520900623414445 0 0,0 -0.15775694163243495,0.3728908093718707 l -2.3131371349680125 -1.0021659283588276" fill="#ff1c02" stroke="none" /><path d="M 119.12269723197855 108.67885076344098 l 0.9318348596449083 0.42291396370099726 a22.023314431806146,22.023314431806146 0 0,0 -0.15964321323040773,0.34385727877132183 l -0.9244170295746692 -0.4388913097511497" fill="#ff0601" stroke="none" /><path d="M 118.97047184881838 109.00673069616215 l 20.851895852834698 9.899986249556605 a44.08270539600752,44.08270539600752 0 0,0 -0.3313481660177499,0.6826753640814662 l -20.678394430202232 -10.257450569603346" fill="#d8ff1c" stroke="none" /><path d="M 118.64920377521936 109.65438752849418 l 2.8958082750049137 1.4991125429315468 a24.260834859658125,24.260834859658125 0 0,0 -0.195181295138539,0.36920945441055375 l -2.869574471641482 -1.548737012428235" fill="#ff2603" stroke="none" /><line stroke="#e1ed5e" stroke-width="0.3" x1="174.80103733775053" x2="179.2010983576182" y1="140.37084112569926" y2="142.7455964860345" /><path d="M 175.68104954172406 140.8457921977663 a86.0,86.0 0 0,1 -30.038265399797805,32.042727171017184" fill="none" id="id41" stroke="none" /><text fill="#e1ed5e" style="font-size:6.75px; font-family:Arial;" text-anchor="middle"><textPath startOffset="22.206326154141568" xlink:href="#id41">May</textPath></text><path d="M 117.75023020441432 111.22182372390056 l 18.666744394201352 11.80125061356904 a43.08431258433713,43.08431258433713 0 0,0 -0.4016999461312456,0.6234472369815418 l -18.460839584693055 -12.120819450472036" fill="#e4ff1b" stroke="none" /><path d="M 116.71984013943494 112.70617746262583 l 3.6064287374236077 2.7406914875901816 a25.529648779791223,25.529648779791223 0 0,0 -0.26890401280508935,0.34759468517628844 l -3.55871790740045 -2.802364166879723" fill="#ff3805" stroke="none" /><path d="M 116.27256486870786 113.27417163493432 l 1.4062157150836267 1.1471055060076827 a22.81474341967709,22.81474341967709 0 0,0 -0.25085788176218565,0.3021744787628982 l -1.3862618334278978 -1.1711412418843514" fill="#ff1202" stroke="none" /><path d="M 116.0416608686014 113.55231037782055 l 3.656135129965231 3.088774813929978 a25.786214990964577,25.786214990964577 0 0,0 -0.28936736725900364,0.33659962166512875 l -3.602425253135449 -3.1512515347566348" fill="#ff3c05" stroke="none" /><path d="M 115.07121518719521 114.62390073753431 l 2.386698026467912 2.31586070506046 a24.325588410310115,24.325588410310115 0 0,0 -0.2941767251351745,0.2979994694317166 l -2.3464806762772015 -2.3566006684728413" fill="#ff2703" stroke="none" /><path d="M 114.55890576462653 115.13401014063108 l 1.0724374413316635 1.1148007532090916 a22.54690102622164,22.54690102622164 0 0,0 -0.28201252119645476,0.2666604411252997 l -1.053089085744401 -1.1330958310803128" fill="#ff0e01" stroke="none" /><path d="M 114.29624159901734 115.38237550388516 l 6.200683633983819 6.671770575372088 a30.10829293222147,30.10829293222147 0 0,0 -0.3826627118282641,0.3495533144097931 l -6.084921372688691 -6.777516656368465" fill="#ff770b" stroke="none" /><path d="M 113.20401910651253 116.32954008644616 l 3.5436814786171262 4.382505681935432 a26.635959055395134,26.635959055395134 0 0,0 -0.35900517309128643,0.28521542188125837 l -3.4677188128084886 -4.442855017821817" fill="#ff4806" stroke="none" /><path d="M 111.7513745106137 117.40417183066458 l 2.2232289701418684 3.292675165812565 a24.972965743778428,24.972965743778428 0 0,0 -0.35833268695717096,0.23748336563101272 l -2.1662215844447332 -3.330456552534896" fill="#ff3004" stroke="none" /><path d="M 111.45004920935366 117.60387380957326 l 1.7054494850914288 2.6220426633298213 a24.127885176044728,24.127885176044728 0 0,0 -0.35010503291728234,0.22345359665412448 l -1.660062650127216 -2.6510106888077543" fill="#ff2403" stroke="none" /><line stroke="#e1ed5e" stroke-width="0.3" x1="143.8653032363475" x2="146.44561519142675" y1="172.8068346515853" y2="177.08958963109032" /><path d="M 144.38136562736335 173.6633856474863 a86.0,86.0 0 0,1 -40.68145358897372,12.25698825130547" fill="none" id="id42" stroke="none" /><text fill="#e1ed5e" style="font-size:6.75px; font-family:Arial;" text-anchor="middle"><textPath startOffset="21.466115282336833" xlink:href="#id42">June</textPath></text><path d="M 109.89434966115114 118.52300852407294 l 1.3821512736990444 2.5874969756533837 a23.933510310601157,23.933510310601157 0 0,0 -0.36505338509340324,0.19097867759238324 l -1.3374069860791455 -2.6109050721904836" fill="#ff2203" stroke="none" /><path d="M 109.57404056367764 118.69057910512821 l 3.2852385759216363 6.4134897981772925 a28.20594503809513,28.20594503809513 0 0,0 -0.4340305199607273,0.21763191303410054 l -3.1743541482781485 -6.469089552120695" fill="#ff5d08" stroke="none" /><path d="M 107.59598834532513 119.57807347666477 l 1.6546570433493313 4.264750773783278 a25.574493315503982,25.574493315503982 0 0,0 -0.4117856085209138,0.15570208204873598 l -1.5810012140681426 -4.292601105938645" fill="#ff3905" stroke="none" /><path d="M 105.53697534728816 120.25689768951611 l 2.2165285460327318 8.109118998492129 a29.4065932295481,29.4065932295481 0 0,0 -0.4894231132419893,0.1292610925046642 l -2.076614989979245 -8.146071440300377" fill="#ff6d0a" stroke="none" /><path d="M 104.13013068566511 120.58985236759428 l 1.1638190065817762 5.801962056864086 a26.917536513564706,26.917536513564706 0 0,0 -0.45507605706019644,0.08721640942573095 l -1.0637753349498753 -5.821135664638285" fill="#ff4b07" stroke="none" /><path d="M 103.41894727170886 120.7198165907248 l 2.2646743085006635 13.724586131568756 a34.910176641812726,34.910176641812726 0 0,0 -0.5937458615022457,0.09273089256627833 l -2.028092583389901 -13.76153533148214" fill="#ffb610" stroke="none" /><path d="M 102.70371172650421 120.8252237178851 l 0.4154216953854235 3.1997678076613143 a24.226621949956733,24.226621949956733 0 0,0 -0.41401286904480794,0.050131192743151316 l -0.36028140328923525 -3.2064445291298167" fill="#ff2603" stroke="none" /><path d="M 102.34483914955558 120.86867818915974 l 0.35389659581698785 3.1496208052239245 a24.16944064737459,24.16944064737459 0 0,0 -0.4138353816700706,0.04289572938089116 l -0.2996286175413146 -3.155245903060574" fill="#ff2503" stroke="none" /><path d="M 101.62511606390274 120.93702456842531 l 0.7824162414908502 10.08018346178221 a31.110503142679708,31.110503142679708 0 0,0 -0.5342669506740201,0.03684617695665512 l -0.6087865300378997 -10.09215798325515" fill="#ff840c" stroke="none" /><line stroke="#e1ed5e" stroke-width="0.3" x1="102.19456741930631" x2="102.32365962044197" y1="184.97166512339345" y2="189.96999836594603" /><path d="M 102.22038585953345 185.97133177190398 a86.0,86.0 0 0,1 -42.740103519485714,-10.115201625700543" fill="none" id="id43" stroke="none" /><text fill="#e1ed5e" style="font-size:6.75px; font-family:Arial;" text-anchor="middle"><textPath startOffset="22.20632615414155" xlink:href="#id43">July</textPath></text><path d="M 100.54218724476979 120.99299961872073 l 0.19830583812748465 7.678222651600645 a28.680783052071494,28.680783052071494 0 0,0 -0.4936376724029445,0.00849842019966702 l -0.06610847583187222 -7.680498549079473" fill="#ff6409" stroke="none" /><path d="M 100.18074693466247 120.99922214144158 l 0.03454508617988718 4.013456382767352 a25.013605050245374,25.013605050245374 0 0,0 -0.4305840416846825,0.0 l 0.034545086179884416 -4.013456382767352" fill="#ff3104" stroke="none" /><path d="M 99.09653310690486 120.98055641714683 l -0.13248576628704992 3.0766208649127322 a24.07947210162473,24.07947210162473 0 0,0 -0.4139512730948119,-0.02139655249907076 l 0.1854251077953507 -3.07388450565146" fill="#ff2403" stroke="none" /><path d="M 98.73552117531835 120.96189622390904 l -0.6731273145296481 11.158767262236655 a32.17905126539504,32.17905126539504 0 0,0 -0.5526173432907306,-0.0381117274697954 l 0.8651074185993088 -11.145527190250574" fill="#ff920d" stroke="none" /><path d="M 97.65516085044442 120.86867818915974 l -0.3166947230208572 2.8185303286922476 a23.836266694326767,23.836266694326767 0 0,0 -0.4073420215917804,-0.04932344601731203 l 0.36516416766402693 -2.812661353949587" fill="#ff2003" stroke="none" /><path d="M 97.2962882734958 120.8252237178851 l -0.8624613810827072 6.643071830851737 a27.698824000055154,27.698824000055154 0 0,0 -0.47229318724608405,-0.06545553220698097 l 0.9766831595156222 -6.62724173315215" fill="#ff5608" stroke="none" /><path d="M 96.58105272829116 120.7198165907248 l -0.6050827030094134 3.6669774735393186 a24.7165641214603,24.7165641214603 0 0,0 -0.4191823682635769,-0.07288022783226285 l 0.6681140427450402 -3.6560186671860495" fill="#ff2d04" stroke="none" /><path d="M 96.22490169976321 120.6578951692458 l -1.1909510034616229 6.517059696081316 a27.624985386771336,27.624985386771336 0 0,0 -0.46703640282321396,-0.08950863815707373 l 1.302955020856532 -6.495593859575774" fill="#ff5507" stroke="none" /><path d="M 95.86986931433489 120.58985236759428 l -0.8254160484334762 4.114929011344705 a25.19689795222827,25.19689795222827 0 0,0 -0.42451798290432197,-0.08896187082863752 l 0.8961254927671849 -4.100111159789526" fill="#ff3304" stroke="none" /><path d="M 95.51606077576429 120.51570834832081 l -1.1870285253844468 5.431101941859072 a26.559307962592264,26.559307962592264 0 0,0 -0.4457914715658797,-0.1014606875559669 l 1.2803401463431892 -5.409864520725417" fill="#ff4606" stroke="none" /><path d="M 94.81253420990036 120.34920634021253 l -2.460672031552887 9.65263674629416 a30.96134042199015,30.96134042199015 0 0,0 -0.5152992562310722,-0.1360952170526851 l 2.6264617305954485 -9.608850179937894" fill="#ff820c" stroke="none" /><path d="M 94.11515582081647 120.15858648285463 l -2.8443843210542643 9.743463986569534 a31.15015333004565,31.15015333004565 0 0,0 -0.5134213151215387,-0.15468963058685067 l 3.0116806106160485 -9.693058986876958" fill="#ff850c" stroke="none" /><path d="M 93.76903079525671 120.05430185196036 l -1.5698975707122194 5.052697056463659 a26.290966445454426,26.290966445454426 0 0,0 -0.4310199316238224,-0.13799897094512448 l 1.6566388474269822 -5.0249252388588275" fill="#ff4306" stroke="none" /><path d="M 93.42475214034765 119.94407469862007 l -2.0415190564158205 6.19234581401259 a27.520195299071048,27.520195299071048 0 0,0 -0.44861884792146167,-0.1521958705721156 l 2.147807637274508 -6.156286956542352" fill="#ff5407" stroke="none" /><path d="M 93.08242187328487 119.8279376855182 l -1.0459954791263173 2.998149467854136 a24.175375060358498,24.175375060358498 0 0,0 -0.39173367845142565,-0.14046175987598186 l 1.0974487182074697 -2.9797001669381964" fill="#ff2503" stroke="none" /><path d="M 92.40401165467489 119.57807347666478 l -1.8515525476185128 4.7722337338090774 a26.118834012419033,26.118834012419033 0 0,0 -0.41775075538726775,-0.1662316469616172 l 1.9334243790476386 -4.739655242441393" fill="#ff4006" stroke="none" /><path d="M 92.06813273071674 119.44442032107085 l -2.700769365828235 6.620748047916028 a28.15041676277545,28.15041676277545 0 0,0 -0.44709368654412707,-0.1868851972358174 l 2.8143345118698244 -6.573277807660237" fill="#ff5c08" stroke="none" /><path d="M 91.7346041902142 119.30500536409082 l -1.2430489411798062 2.9033172796023035 a24.15823081743649,24.15823081743649 0 0,0 -0.38087098859520896,-0.1669626486335417 l 1.2928406044327585 -2.8814900776743095" fill="#ff2503" stroke="none" /><path d="M 90.7491055286396 118.85261126421891 l -4.455047379665905 9.079043834359872 a31.113183677818576,31.113183677818576 0 0,0 -0.47876684404931386,-0.24006363464297165 l 4.610668131397979 -9.001012358807598" fill="#ff840c" stroke="none" /><path d="M 90.42595943632237 118.69057910512821 l -1.8299622283977877 3.5724784704826127 a25.013896383742907,25.013896383742907 0 0,0 -0.381532313093926,-0.19959967388002126 l 1.8911854440182092 -3.5404493776578745" fill="#ff3104" stroke="none" /><path d="M 90.10565033884886 118.52300852407294 l -1.8904644568836664 3.539099632470344 a25.0123661437227,25.0123661437227 0 0,0 -0.37801687786698696,-0.20612494203708334 l 1.951104146619294 -3.5060340386734947" fill="#ff3104" stroke="none" /><line stroke="#e1ed5e" stroke-width="0.3" x1="58.666819895761336" x2="56.23545636021788" y1="174.27360380694188" y2="178.64263932499728" /><path d="M 58.180547188652646 175.14741091055294 a86.0,86.0 0 0,1 -31.652253787137756,-30.449443065178592" fill="none" id="id44" stroke="none" /><text fill="#e1ed5e" style="font-size:6.75px; font-family:Arial;" text-anchor="middle"><textPath startOffset="22.20632615414155" xlink:href="#id44">August</textPath></text><path d="M 89.7882731507175 118.34994917583269 l -2.7570312954297633 4.954243772283337 a26.669722472854147,26.669722472854147 0 0,0 -0.3992219116767091,-0.226688620501914 l 2.84190197402768 -4.90605198598679" fill="#ff4806" stroke="none" /><path d="M 89.1626897886671 117.98757091392108 l -4.581223793374661 7.6038321547440555 a29.877267309397737,29.877267309397737 0 0,0 -0.43822951335604615,-0.2691963597423583 l 4.711432506663016 -7.523847328173319" fill="#ff740a" stroke="none" /><path d="M 88.8546689885994 117.79835938074946 l -4.08934070459336 6.53040770312064 a28.70512376066871,28.70512376066871 0 0,0 -0.4165225516367147,-0.26584439953700206 l 4.201145058276998 -6.459048874759834" fill="#ff6409" stroke="none" /><path d="M 88.24862548938628 117.40417183066458 l -4.292104957183037 6.3567484912162495 a28.670098848388804,28.670098848388804 0 0,0 -0.406628169484467,-0.2796825628050216 l 4.400890011290394 -6.281925139046127" fill="#ff6409" stroke="none" /><path d="M 87.95078237400918 117.19931262002967 l -2.8129131328094723 4.015212758695512 a25.902490570141183,25.902490570141183 0 0,0 -0.36297119597354544,-0.2589703108441496 l 2.8816116566319048 -3.9661981860071425" fill="#ff3d05" stroke="none" /><path d="M 87.65650970185807 116.9893568818739 l -2.6419362704321236 3.636313317659817 a25.49473044811532,25.49473044811532 0 0,0 -0.3528167544452268,-0.2610054002812449 l 2.704137995295915 -3.5902979686388057" fill="#ff3805" stroke="none" /><path d="M 87.36589467227662 116.77436683061367 l -4.455833468219841 5.916033086096946 a28.406341834691524,28.406341834691524 0 0,0 -0.3880458762365056,-0.29753703077312155 l 4.5570080729498335 -5.838456713496457" fill="#ff6008" stroke="none" /><path d="M 86.51685102203217 116.09983520530335 l -6.76889625536412 8.082541727546964 a31.542553641951283,31.542553641951283 0 0,0 -0.41325930780099496,-0.35218854757722806 l 6.907021039742172 -7.964828789746785" fill="#ff8a0c" stroke="none" /><path d="M 86.24171649860922 115.8653595955263 l -6.782065741108492 7.820736632757193 a31.35182772246852,31.35182772246852 0 0,0 -0.4046739359300158,-0.35707769782649895 l 6.915682029945096 -7.702835793158405" fill="#ff880c" stroke="none" /><path d="M 85.70375840098266 115.38237550388516 l -2.651743147660731 2.853205057752766 a24.89519201359209,24.89519201359209 0 0,0 -0.31138451609193163,-0.29443349560645726 l 2.7004634981434794 -2.807136925400378" fill="#ff2f04" stroke="none" /><path d="M 85.44109423537348 115.13401014063109 l -5.083187690238517 5.283983239847167 a28.332071738136374,28.332071738136374 0 0,0 -0.3485520039447594,-0.3411314963322931 l 5.17338964655907 -5.195701640592304" fill="#ff5f08" stroke="none" /><path d="M 85.18274418774928 114.88116024355367 l -5.861326247280749 5.886605200769812 a29.307061223248112,29.307061223248112 0 0,0 -0.3544191880816814,-0.359024766341487 l 5.961786060417963 -5.78483994044766" fill="#ff6c0a" stroke="none" /><path d="M 84.9287848128048 114.62390073753433 l -5.120225001383798 4.968256457362229 a28.13444295589482,28.13444295589482 0 0,0 -0.33425519990943786,-0.3504652407703664 l 5.204986752672194 -4.8793841000093625" fill="#ff5c08" stroke="none" /><path d="M 84.67929136418377 114.36230785411682 l -3.039340026755651 2.8492113632104656 a25.166004463570182,25.166004463570182 0 0,0 -0.29354777094033496,-0.3185881289668526 l 3.087934205691715 -2.796471979442269" fill="#ff3304" stroke="none" /><path d="M 84.43433777217949 114.09645910891817 l -2.2663923143069975 2.0524733298075915 a24.05764302885757,24.05764302885757 0 0,0 -0.2753353143002506,-0.3093421444259608 l 2.3013864782555866 -2.0131570156407665" fill="#ff2303" stroke="none" /><path d="M 84.19399662182784 113.82643327865904 l -1.9528478477710014 1.7082699417783547 a23.594571430993422,23.594571430993422 0 0,0 -0.2647732138657576,-0.3079910649859238 l 1.9819635712075379 -1.6744017776309006" fill="#ff1d02" stroke="none" /><path d="M 83.06392112726016 112.41649034213515 l -10.169303924039994 7.455507553304913 a33.60949385093953,33.60949385093953 0 0,0 -0.3380478223498186,-0.46951885874582244 l 10.296131538765419 -7.279355089107952" fill="#ffa50f" stroke="none" /><path d="M 82.85270091963577 112.12312394758628 l -4.133095031928876 2.9220942099624554 a26.06172985399767,26.06172985399767 0 0,0 -0.25582577856612443,-0.36853611441267625 l 4.182781717657134 -2.8505168333627666" fill="#ff4006" stroke="none" /><path d="M 82.6465618267979 111.8261652097733 l -3.339394200206904 2.275758101538124 a25.041117241690955,25.041117241690955 0 0,0 -0.23967556202979517,-0.3582824456272518 l 3.3780728676474294 -2.217938741705051" fill="#ff3104" stroke="none" /><path d="M 82.05923443525364 110.91462005526583 l -10.06585052603111 6.1237595256588175 a32.7822653823659,32.7822653823659 0 0,0 -0.28913821365476094,-0.4846122772843569 l 10.169769615384102 -5.949585154488349" fill="#ff9a0e" stroke="none" /><line stroke="#e1ed5e" stroke-width="0.3" x1="26.63291911575756" x2="22.317208475507996" y1="142.92168965132927" y2="145.44649492493687" /><path d="M 25.769776987707644 143.4266507060508 a86.0,86.0 0 0,1 -11.730757126820373,-40.83630448921669" fill="none" id="id45" stroke="none" /><text fill="#e1ed5e" style="font-size:6.75px; font-family:Arial;" text-anchor="middle"><textPath startOffset="21.46611528233685" xlink:href="#id45">September</textPath></text><path d="M 81.87401531095188 110.60418214915194 l -4.322025895476553 2.5284998655370536 a26.00731658787327,26.00731658787327 0 0,0 -0.22273161779819883,-0.3883513497351005 l 4.36490950942713 -2.4537286699436462" fill="#ff3f05" stroke="none" /><path d="M 81.69416730710424 110.29060199501025 l -6.599765804680838 3.7100504683737303 a28.571088637343685,28.571088637343685 0 0,0 -0.2373081840954506,-0.43078328495485685 l 6.662650398227806 -3.5958966650210513" fill="#ff6209" stroke="none" /><path d="M 81.35079622478065 109.6543875284942 l -2.705726362568976 1.4007102482849372 a24.046792468933713,24.046792468933713 0 0,0 -0.18713137203079672,-0.3692279501746319 l 2.7294364043860395 -1.3539280864076204" fill="#ff2303" stroke="none" /><path d="M 81.18737489456691 109.33194174019688 l -14.265265038198395 7.076238509982801 a36.923910890865,36.923910890865 0 0,0 -0.27753900415101673,-0.5718125528887142 l 14.38495729896413 -6.829637001128802" fill="#ffd013" stroke="none" /><path d="M 80.58989483394504 108.01547362559985 l -14.966954550088456 6.180658395483007 a37.19290791383895,37.19290791383895 0 0,0 -0.23926974415835023,-0.5938478826321204 l 15.071126908504194 -5.922111145008082" fill="#ffd313" stroke="none" /><path d="M 80.32549172779594 107.34259656027581 l -10.5129376921242 3.923465789772317 a32.22120504767645,32.22120504767645 0 0,0 -0.189454147836383,-0.5212964475269377 l 10.578916100965808 -3.7419215452392622" fill="#ff930d" stroke="none" /><path d="M 80.0844068197444 106.66101706037122 l -3.6188512343219466 1.2103696632376468 a24.81589818756207,24.81589818756207 0 0,0 -0.1320061012163094,-0.4062730045201274 l 3.639149586554505 -1.1478977587397161" fill="#ff2e04" stroke="none" /><path d="M 79.97269907076064 106.31721596034903 l -3.880736048387805 1.2241014298130073 a25.069218178929074,25.069218178929074 0 0,0 -0.12626914845396747,-0.41265488303160247 l 3.901231969347903 -1.157119574229357" fill="#ff3204" stroke="none" /><path d="M 79.58551787078972 104.9243191809786 l -2.573141510438802 0.6206853553779671 a23.64694305626773,23.64694305626773 0 0,0 -0.09204227347103393,-0.39651570514311263 l 2.583444349840391 -0.5763009928862802" fill="#ff1d03" stroke="none" /><path d="M 79.4281124754447 104.21870165774334 l -4.018955793531811 0.824172086704833 a25.102592509483035,25.102592509483035 0 0,0 -0.08316138301758419,-0.4240381003688517 l 4.032547109525062 -0.7548702592680264" fill="#ff3204" stroke="none" /><path d="M 79.29508885075956 103.50808413554451 l -4.533314712428105 0.7680906867684371 a25.59792405168001,25.59792405168001 0 0,0 -0.06986800469691515,-0.4350681319419163 l 4.545864471486311 -0.689943325133307" fill="#ff3905" stroke="none" /><path d="M 79.23777060512086 103.15116336523772 l -13.490027032650008 2.0474332583878425 a34.64451583198102,34.64451583198102 0 0,0 -0.08441045379113184,-0.5903665172152908 l 13.523271537457738 -1.8149212691921512" fill="#ffb310" stroke="none" /><path d="M 79.1416061653843 102.43462659150553 l -3.07213068033715 0.3585842278285188 a24.092987158963997,24.092987158963997 0 0,0 -0.04453496721312824,-0.4123384857959226 l 3.07784794905133 -0.3056494201478141" fill="#ff2403" stroke="none" /><path d="M 79.10278846688536 102.07522291339032 l -15.244702105135575 1.5138936152440652 a36.31968720805362,36.31968720805362 0 0,0 -0.056425926583480564,-0.622655397952089 l 15.268502627996131 -1.25125682874341" fill="#ffc812" stroke="none" /><path d="M 79.0235259727143 100.99374915477108 l -7.98879138798294 0.37846468758876467 a28.99775114394428,28.99775114394428 0 0,0 -0.019328888958422392,-0.49879273802945606 l 7.994122409792563 -0.2408947025453118" fill="#ff6809" stroke="none" /><path d="M 79.0095281055655 100.63252640178507 l -4.585680056745886 0.13818477834222126 a25.58776161279141,25.58776161279141 0 0,0 -0.009477143135964958,-0.44036560180939116 l 4.587379262566859 -0.05922936074270126" fill="#ff3905" stroke="none" /><line stroke="#e1ed5e" stroke-width="0.3" x1="15.007084014347285" x2="10.007500721073583" y1="101.09737516637583" y2="101.16192664675087" /><path d="M 14.007167355692545 101.11028546245083 a86.0,86.0 0 0,1 10.666146001902534,-42.60595125391555" fill="none" id="id46" stroke="none" /><text fill="#e1ed5e" style="font-size:6.75px; font-family:Arial;" text-anchor="middle"><textPath startOffset="22.20632615414155" xlink:href="#id46">October</textPath></text><path d="M 79.00175016825051 100.2711162175752 l -5.951790577964545 0.07684578296890592 a26.952286649541303,26.952286649541303 0 0,0 -0.0019966545426087215,-0.46395219831175233 l 5.952231529796657 0.02561589354652182" fill="#ff4c07" stroke="none" /><path d="M 79.00019446554 99.90962569577889 l -2.638967948411345 -0.011357004797408726 a23.638992386177033,23.638992386177033 0 0,0 0.005253476629079262,-0.4068875544565506 l 2.6383814646645503 0.05678081731443132" fill="#ff1d03" stroke="none" /><path d="M 79.00486145842228 99.54816195383935 l -9.487194217536393 -0.20417466121069547 a30.48939099276326,30.48939099276326 0 0,0 0.015808466904309985,-0.5246060548817548 l 9.482274056176438 0.3674508635174447" fill="#ff7c0b" stroke="none" /><path d="M 79.01574976396665 99.18683210126434 l -3.9770529764174207 -0.1541161478545662 a24.98003796015317,24.98003796015317 0 0,0 0.020348491223259595,-0.4295244887403301 l 3.9738108769606626 0.22255174321790544" fill="#ff3004" stroke="none" /><path d="M 79.03285615573316 98.82574320788736 l -11.16343715572415 -0.625203985855047 a32.18093060320703,32.18093060320703 0 0,0 0.03573525155213244,-0.5528085247147521 l 11.151021313167606 0.8172715748228109" fill="#ff930d" stroke="none" /><path d="M 79.05617556472873 98.46500227214037 l -2.920728527362666 -0.21406365714402228 a23.928562510833594,23.928562510833594 0 0,0 0.03364300759951395,-0.4105299073274782 l 2.916611035943655 0.26430748167927887" fill="#ff2103" stroke="none" /><path d="M 79.08570108090925 98.10471618934814 l -3.8276069775985757 -0.3468632425234571 a24.84329146487424,24.84329146487424 0 0,0 0.042260656125688745,-0.4255590398931925 l 3.8210691957906584 0.41269781312107995" fill="#ff2e04" stroke="none" /><path d="M 79.16333360222342 97.38593545837743 l -4.167563968243074 -0.5228418493800207 a25.20023249700074,25.20023249700074 0 0,0 0.05770133348231378,-0.42994195616102254 l 4.157946635702927 0.5945021476057025" fill="#ff3304" stroke="none" /><path d="M 79.21141760316559 97.0276538004421 l -7.749677391180775 -1.108046893326579 a28.828490760369405,28.828490760369405 0 0,0 0.07446551070426521,-0.4906346755310666 l 7.729455987037207 1.2412806812497377" fill="#ff6609" stroke="none" /><path d="M 79.26566170972629 96.67025291283419 l -4.698236220420329 -0.7544942187569074 a25.758433051857207,25.758433051857207 0 0,0 0.07407161057893416,-0.43717483859034323 l 4.684552748321171 0.8352548456630786" fill="#ff3b05" stroke="none" /><path d="M 79.32604984820605 96.31383870115002 l -4.583381558420101 -0.8172160421430089 a25.655666286322653,25.655666286322653 0 0,0 0.08126038431642477,-0.43409622232546774 l 4.568635450193815 0.8959903419310493" fill="#ff3a05" stroke="none" /><path d="M 79.3925641242962 95.95851677861259 l -4.6383825706563195 -0.9096689877746906 a25.72674206394715,25.72674206394715 0 0,0 0.08896638678557942,-0.4338316977356513 l 4.622036887955746 0.9893763416737443" fill="#ff3b05" stroke="none" /><path d="M 79.46518482838121 95.60439243477599 l -12.869994898218435 -2.754904120938514 a34.16154494714555,34.16154494714555 0 0,0 0.12803358742964457,-0.5739494675834874 l 12.820666923786753 2.9760317580719606" fill="#ffac10" stroke="none" /><path d="M 79.62865764111835 94.90015583598534 l -4.510620001488331 -1.1292068379896825 a25.649817295420245,25.649817295420245 0 0,0 0.11090940463240907,-0.4273791788421961 l 4.490514264985614 1.2066824423807423" fill="#ff3a05" stroke="none" /><path d="M 79.71946130924805 94.55025226153421 l -7.621987174954335 -2.0481658797487543 a28.89238062729715,28.89238062729715 0 0,0 0.13319831783593108,-0.4791852185621485 l 7.5856020865520435 2.1790624017298454" fill="#ff6709" stroke="none" /><path d="M 79.81627453868168 94.20196356495316 l -5.622916407164303 -1.6152555316134347 a26.850319594207253,26.850319594207253 0 0,0 0.1314311673785948,-0.4431205584674201 l 5.594279342674001 1.711805476827394" fill="#ff4b06" stroke="none" /><path d="M 79.91906864156998 93.8553929516997 l -4.409743331784348 -1.3493467745111511 a25.611569469291357,25.611569469291357 0 0,0 0.13262465389881564,-0.42045639581412 l 4.385863194117329 1.4250533367516858" fill="#ff3905" stroke="none" /><path d="M 80.14247586403 93.16781622104843 l -8.414958798307108 -2.8952524296922486 a29.89910210127095,29.89910210127095 0 0,0 0.17163069737434108,-0.4852230935155353 l 8.363875020122958 3.039673149634395" fill="#ff740a" stroke="none" /><path d="M 80.2630227832202 92.82701384747504 l -3.8390946993237742 -1.395237619926398 a25.084768797182257,25.084768797182257 0 0,0 0.15098093687911351,-0.4045538478368546 l 3.814509173943033 1.461114604792594" fill="#ff3204" stroke="none" /><path d="M 80.38941819471856 92.48833698450439 l -4.306675517694448 -1.6496346476213868 a25.611805339055593,25.611805339055593 0 0,0 0.1612402792856043,-0.41033892346386924 l 4.277641688527152 1.7235225759810193" fill="#ff3905" stroke="none" /><path d="M 80.52162464483688 92.15188598940014 l -3.892059087050673 -1.568165870829069 a25.19610154018308,25.19610154018308 0 0,0 0.16554836131230885,-0.40088848809598365 l 3.8644890388521644 1.634928929378364" fill="#ff3304" stroke="none" /><path d="M 80.65960295795068 91.81776055985345 l -6.674921161218311 -2.8239235764625277 a28.247697349791927,28.247697349791927 0 0,0 0.19330745403416125,-0.44618025592308735 l 6.62532299734147 2.938402976972214" fill="#ff5e08" stroke="none" /><path d="M 80.95270993114464 91.15688171328213 l -13.737690656817454 -6.378021389153771 a36.146065542671884,36.146065542671884 0 0,0 0.266864347011918,-0.5620843737006631 l 13.625868115963785 6.613548178494966" fill="#ffc612" stroke="none" /><path d="M 81.10775173730289 90.83032412892265 l -5.422251145528484 -2.631782348226235 a27.02719551811787,27.02719551811787 0 0,0 0.20674515894933498,-0.4167856246812531 l 5.376145973625736 2.7247275614064494" fill="#ff4d07" stroke="none" /><path d="M 81.43458229118936 90.18545643968196 l -6.1321089570737595 -3.241718092195429 a27.936245126196983,27.936245126196983 0 0,0 0.22840128697216489,-0.42319289661565646 l 6.075399570883123 3.346791972143558" fill="#ff5908" stroke="none" /><path d="M 81.6062741919709 89.86733742301443 l -5.060499487461149 -2.7877078473720336 a26.77754014307942,26.77754014307942 0 0,0 0.22587793434912914,-0.4018116410698854 l 5.011763911819589 2.8744029983767034" fill="#ff4a06" stroke="none" /><line stroke="#e1ed5e" stroke-width="0.3" x1="26.266209847984243" x2="21.928928074336255" y1="57.711370442889674" y2="55.22380399835377" /><path d="M 25.398753493254645 57.213857153982495 a86.0,86.0 0 0,1 29.58750427330803,-30.492523968695096" fill="none" id="id47" stroke="none" /><text fill="#e1ed5e" style="font-size:6.75px; font-family:Arial;" text-anchor="middle"><textPath startOffset="21.46611528233685" xlink:href="#id47">November</textPath></text><path d="M 82.15384107792192 88.93136811851018 l -4.848903530203673 -3.007410638839658 a26.705820203601547,26.705820203601547 0 0,0 0.24565845156918312,-0.3885726753776991 l 4.796417482388527 3.0904309619315726" fill="#ff4906" stroke="none" /><path d="M 82.34701348167596 88.62581576622439 l -8.97068204278451 -5.779995931642535 a31.671527036115343,31.671527036115343 0 0,0 0.29922559653894665,-0.45574111221699987 l 8.869859810887643 5.9335551078372015" fill="#ff8c0c" stroke="none" /><path d="M 82.95767976084542 87.72973835380427 l -3.1357257535582312 -2.257684100928646 a24.863924624150208,24.863924624150208 0 0,0 0.2530642996106574,-0.3451794202695596 l 3.0963988414339405 2.3113259648697064" fill="#ff2f04" stroke="none" /><path d="M 84.07557802195018 86.31012108654704 l -4.8198137370953 -4.143488946549032 a27.35602903631399,27.35602903631399 0 0,0 0.3100455948020711,-0.35443571165912524 l 4.747776278715385 4.225840214411099" fill="#ff5207" stroke="none" /><path d="M 84.5562425177563 85.77008943001954 l -2.1704203476381787 -1.9998298653463553 a23.951278362976467,23.951278362976467 0 0,0 0.28197803294808316,-0.3007945051992345 l 2.1356749927196397 2.03689378742364" fill="#ff2203" stroke="none" /><path d="M 84.80347519578584 85.50635884689758 l -2.8595737495234106 -2.727310112699619 a24.951630357181322,24.951630357181322 0 0,0 0.2991055733225078,-0.3082545854310139 l 2.8122039124977842 2.776128893680757" fill="#ff3004" stroke="none" /><path d="M 85.57189188830299 84.74124197986013 l -7.31033675396623 -7.731204861438029 a31.640138723997566,31.640138723997566 0 0,0 0.3989552042738874,-0.37078538266370265 l 7.176173665897487 7.85589483017638" fill="#ff8b0c" stroke="none" /><path d="M 86.10567301691215 84.25364557470407 l -1.7316340353852564 -1.9624500912689733 a23.61720591341725,23.61720591341725 0 0,0 0.30714311398049254,-0.26635148180537777 l 1.6975971227579905 1.9919665664940316" fill="#ff1d02" stroke="none" /><path d="M 86.65592168130627 83.78471172551755 l -2.453583365817203 -2.9815143940263935 a24.861282094693607,24.861282094693607 0 0,0 0.33278199543560044,-0.2690865635390575 l 2.4018979718171023 3.0233070548295853" fill="#ff2f04" stroke="none" /><path d="M 86.93701828274178 83.55741782278169 l -0.6273442514054817 -0.7896481546408511 a22.008516245728945,22.008516245728945 0 0,0 0.29865288758464986,-0.23310331591342495 l 0.6136588086614061 0.8003298597774978" fill="#ff0601" stroke="none" /><path d="M 87.51073957382395 83.11751280151077 l -6.418649651589963 -8.676476178480442 a31.792604052108764,31.792604052108764 0 0,0 0.442756950492807,-0.3216817541029893 l 6.2683473847433735 8.785677167400099" fill="#ff8d0d" stroke="none" /><path d="M 88.70189139769569 82.29822771554957 l -1.5584969265323632 -2.4418386006543606 a23.896806590308795,23.896806590308795 0 0,0 0.34864399327311413,-0.2183208366029636 l 1.5162337808870068 2.4683037785802546" fill="#ff2103" stroke="none" /><line stroke="#e1ed5e" stroke-width="0.3" x1="56.762969772571076" x2="54.21961505331055" y1="26.818313649435495" y2="22.513508569990535" /><path d="M 56.25429882871897 25.957352633546506 a86.0,86.0 0 0,1 42.265352541879196,-11.944610805530505" fill="none" id="id48" stroke="none" /><text fill="#e1ed5e" style="font-size:6.75px; font-family:Arial;" text-anchor="middle"><textPath startOffset="22.20632615414155" xlink:href="#id48">December</textPath></text><path d="M 89.63071344664047 81.73862282372117 l -10.496947905817956 -18.486201911913316 a42.258541259114736,42.258541259114736 0 0,0 0.635640724509972,-0.35373337499619145 l 10.17718309223594 18.664150684469693" fill="#edff19" stroke="none" /><path d="M 90.91171255644093 81.06846463323043 l -1.2475976854297008 -2.5988328221232857 a23.882781993497744,23.882781993497744 0 0,0 0.37214126871684927,-0.17472531553218762 l 1.2026782054132432 2.6199231202954807" fill="#ff2103" stroke="none" /><path d="M 91.56875222667455 80.76684994638697 l -2.6063114758022277 -5.945452090632435 a27.49163000107862,27.49163000107862 0 0,0 0.4350435797227462,-0.18626295683932834 l 2.503584138289173 5.98943457543455" fill="#ff5307" stroke="none" /><path d="M 92.57280143429618 80.3572730644239 l -1.5688440172359415 -4.149124917351345 a25.43582113370262,25.43582113370262 0 0,0 0.41087048033521567,-0.15132706538608048 l 1.4971912111281565 4.175515250543747" fill="#ff3705" stroke="none" /><path d="M 94.28887869178378 79.79150937346287 l -6.353900944051839 -22.48293123893062 a44.363524012898935,44.363524012898935 0 0,0 0.7366502126081872,-0.2013543302288134 l 5.965952842219929 22.58897210998573" fill="#d5ff1c" stroke="none" /><path d="M 95.692805502759 79.44645832069477 l -0.504089110951738 -2.4054675401046173 a23.457718437550785,23.457718437550785 0 0,0 0.3959144462633371,-0.07941671335069218 l 0.46260825522126453 2.41378820953252" fill="#ff1b02" stroke="none" /><path d="M 97.47563105711357 79.15227682838746 l -0.9949305138262019 -8.216721246586848 a29.27673817221822,29.27673817221822 0 0,0 0.5008180554328012,-0.05627274389583436 l 0.8533457548836827 8.232629943953281" fill="#ff6c09" stroke="none" /><path d="M 98.19473922651362 79.07773832637324 l -0.6445865076292687 -7.470503864028327 a28.498261114970582,28.498261114970582 0 0,0 0.4890977567594906,-0.037963399179811674 l 0.515898561507444 7.480492525396601" fill="#ff6109" stroke="none" /></svg>