<?xml version="1.0" encoding="utf-8" ?>
<svg baseProfile="full" height="200mm" version="1.1" viewBox="0,0,200,200" width="200mm" xmlns="http://www.w3.org/2000/svg" xmlns:ev="http://www.w3.org/2001/xml-events" xmlns:xlink="http://www.w3.org/1999/xlink"><defs /><rect fill="#1a1a1a" height="200" width="200" x="0" y="0" /><text alignment-baseline="middle" fill="#e1ed5e" style="dominant-baseline: central; font-size:9.0px; font-family:Arial;" text-anchor="middle" x="100.0" y="100.0">2025</text><line stroke="#e1ed5e" stroke-width="0.3" x1="100.0" x2="100.0" y1="15.0" y2="10.0" /><path d="M 100.0 14.0 a86.0,86.0 0 0,1 42.46469731375804,11.215312516191453" fill="none" id="id121" stroke="none" /><text fill="#e1ed5e" style="font-size:6.75px; font-family:Arial;" text-anchor="middle"><textPath startOffset="22.20632615414155" xlink:href="#id121">January</textPath></text><path d="M 101.44485096284872 79.0497635885617 l 4.334552888546152 -62.8507092343149 a84.0,84.0 0 0,0 1.4416392425506352,0.11189895124614191 l -5.415782320459128 62.76678502088029" fill="#4dd2ff" stroke="none" /><path d="M 102.16513564639614 79.11191278185805 l 1.578897546536326 -15.23237110591965 a36.31398207426515,36.31398207426515 0 0,0 0.6211995947250959,0.06979901248159076 l -1.8408638447711472 15.20293613996746" fill="#ffb110" stroke="none" /><path d="M 104.66035177308747 79.52364482259891 l 1.6324566388285988 -7.1725834391714995 a28.356008963393997,28.356008963393997 0 0,0 0.4749986802666845,0.11241684102727238 l -1.7556790060578067 7.143420686003359" fill="#ff4306" stroke="none" /><path d="M 106.74666289553966 80.11325718540242 l 4.105916637813909 -12.102769837272433 a33.780281263363044,33.780281263363044 0 0,0 0.5490389477614296,0.19154890821162557 l -4.3136375896386125 12.0303000758886" fill="#ff8f0d" stroke="none" /><path d="M 107.4271985657038 80.35727306442388 l 5.626070563561565 -14.879280097697315 a36.907408532250166,36.907408532250166 0 0,0 0.592305619600154,0.2298053783849521 l -5.881359348161387 14.780232015421817" fill="#ffb911" stroke="none" /><path d="M 108.43124777332544 80.76684994638697 l 6.050370508228268 -13.801952806187279 a36.06986677283709,36.06986677283709 0 0,0 0.5664993831525049,0.25417176015986587 l -6.287052009847553 13.695760715510882" fill="#ffae10" stroke="none" /><line stroke="#e1ed5e" stroke-width="0.3" x1="143.23703022742887" x2="145.7803849466894" y1="26.81831364943548" y2="22.513508569990506" /><path d="M 143.74570117128098 25.957352633546492 a86.0,86.0 0 0,1 28.547481713284135,27.462654790039103" fill="none" id="id122" stroke="none" /><text fill="#e1ed5e" style="font-size:6.75px; font-family:Arial;" text-anchor="middle"><textPath startOffset="19.985693538727396" xlink:href="#id122">February</textPath></text><path d="M 111.90073688211348 82.69761687909136 l 10.961398042650464 -15.936686135777723 a40.34244586498076,40.34244586498076 0 0,0 0.5687686654120527,0.3984587977320191 l -11.234097847646167 15.745642495281768" fill="#ffe615" stroke="none" /><path d="M 113.06298171725822 83.55741782278167 l 17.39945159877598 -21.900965563890754 a48.97129257951582,48.97129257951582 0 0,0 0.655507805333612,0.5300417244008723 l -17.77386280267408 21.598217742225753" fill="#afff20" stroke="none" /><path d="M 113.34407831869373 83.78471172551755 l 6.688868179045085 -8.128094212493055 a31.52648436296777,31.52648436296777 0 0,0 0.416063215589179,0.3484409777184129 l -6.827788931593381 8.011752077380823" fill="#ff700a" stroke="none" /><path d="M 113.6212207817346 84.01681056812373 l 11.618506689952268 -13.633197517071633 a38.91239158359245,38.91239158359245 0 0,0 0.50605787861736,0.43884840555983085 l -11.851458367216392 13.431184118092132" fill="#ffd313" stroke="none" /><path d="M 113.89432698308785 84.25364557470407 l 8.490684163912622 -9.622439598618334 a33.832889830446405,33.832889830446405 0 0,0 0.4333655058221643,0.38907983001199825 l -8.655060657330777 9.474860759837037" fill="#ff900d" stroke="none" /><path d="M 115.19652480421416 85.50635884689758 l 10.696693510763104 -10.201940197980466 a35.78170612163465,35.78170612163465 0 0,0 0.4212574775675055,0.44936810574079916 l -10.870718310301074 10.016302675361613" fill="#ffaa0f" stroke="none" /><path d="M 115.68641384162765 86.03803664274999 l 12.629504391026456 -11.241108344330337 a37.90759882336725,37.90759882336725 0 0,0 0.4296341405803902,0.49114609245417473 l -12.821130395184696 11.022046695673215" fill="#ffc612" stroke="none" /><line stroke="#e1ed5e" stroke-width="0.3" x1="172.23445277983987" x2="176.4835382374775" y1="55.19839476539836" y2="52.563006222186495" /><path d="M 173.08426987136738 54.67131705675599 a86.0,86.0 0 0,1 12.851231095245387,41.99856678651699" fill="none" id="id123" stroke="none" /><text fill="#e1ed5e" style="font-size:6.75px; font-family:Arial;" text-anchor="middle"><textPath startOffset="22.20632615414155" xlink:href="#id123">March</textPath></text><path d="M 119.61058180528143 92.48833698450437 l 18.574269767203138 -7.114712691112646 a40.8902648062291,40.8902648062291 0 0,0 0.24611151649813512,0.6594565052673109 l -18.693985872202898 6.793933048816002" fill="#ffed16" stroke="none" /><path d="M 120.18372546131832 94.20196356495316 l 2.7283958754262163 -0.783767036728188 a23.8387382445207,23.8387382445207 0 0,0 0.10990024928929511,0.3953696700628999 l -2.741482895281875 0.7366860632463362" fill="#ff0000" stroke="none" /><path d="M 120.37134235888165 94.90015583598534 l 16.962895133481684 -4.246559712524913 a38.48636842519156,38.48636842519156 0 0,0 0.15535150854923357,0.6440322973528304 l -17.03347944229174 3.9539421835126762" fill="#ffce13" stroke="none" /><line stroke="#e1ed5e" stroke-width="0.3" x1="184.98032266829074" x2="189.97916517819016" y1="98.17113171792111" y2="98.06355123074" /><path d="M 185.9800911702706 98.14961562048488 a86.0,86.0 0 0,1 -9.607161424134198,41.387399972396054" fill="none" id="id124" stroke="none" /><text fill="#e1ed5e" style="font-size:6.75px; font-family:Arial;" text-anchor="middle"><textPath startOffset="21.466115282336823" xlink:href="#id124">April</textPath></text><line stroke="#e1ed5e" stroke-width="0.3" x1="174.80103733775053" x2="179.2010983576182" y1="140.37084112569926" y2="142.7455964860345" /><path d="M 175.68104954172406 140.8457921977663 a86.0,86.0 0 0,1 -30.038265399797805,32.042727171017184" fill="none" id="id125" stroke="none" /><text fill="#e1ed5e" style="font-size:6.75px; font-family:Arial;" text-anchor="middle"><textPath startOffset="22.206326154141568" xlink:href="#id125">May</textPath></text><line stroke="#e1ed5e" stroke-width="0.3" x1="143.8653032363475" x2="146.44561519142675" y1="172.8068346515853" y2="177.08958963109032" /><path d="M 144.38136562736335 173.6633856474863 a86.0,86.0 0 0,1 -40.68145358897372,12.25698825130547" fill="none" id="id126" stroke="none" /><text fill="#e1ed5e" style="font-size:6.75px; font-family:Arial;" text-anchor="middle"><textPath startOffset="21.466115282336833" xlink:href="#id126">June</textPath></text><line stroke="#e1ed5e" stroke-width="0.3" x1="102.19456741930631" x2="102.32365962044197" y1="184.97166512339345" y2="189.96999836594603" /><path d="M 102.22038585953345 185.97133177190398 a86.0,86.0 0 0,1 -42.740103519485714,-10.115201625700543" fill="none" id="id127" stroke="none" /><text fill="#e1ed5e" style="font-size:6.75px; font-family:Arial;" text-anchor="middle"><textPath startOffset="22.20632615414155" xlink:href="#id127">July</textPath></text><line stroke="#e1ed5e" stroke-width="0.3" x1="58.666819895761336" x2="56.23545636021788" y1="174.27360380694188" y2="178.64263932499728" /><path d="M 58.180547188652646 175.14741091055294 a86.0,86.0 0 0,1 -31.652253787137756,-30.449443065178592" fill="none" id="id128" stroke="none" /><text fill="#e1ed5e" style="font-size:6.75px; font-family:Arial;" text-anchor="middle"><textPath startOffset="22.20632615414155" xlink:href="#id128">August</textPath></text><line stroke="#e1ed5e" stroke-width="0.3" x1="26.63291911575756" x2="22.317208475507996" y1="142.92168965132927" y2="145.44649492493687" /><path d="M 25.769776987707644 143.4266507060508 a86.0,86.0 0 0,1 -11.730757126820373,-40.83630448921669" fill="none" id="id129" stroke="none" /><text fill="#e1ed5e" style="font-size:6.75px; font-family:Arial;" text-anchor="middle"><textPath startOffset="21.46611528233685" xlink:href="#id129">September</textPath></text><line stroke="#e1ed5e" stroke-width="0.3" x1="15.007084014347285" x2="10.007500721073583" y1="101.09737516637583" y2="101.16192664675087" /><path d="M 14.007167355692545 101.11028546245083 a86.0,86.0 0 0,1 10.666146001902534,-42.60595125391555" fill="none" id="id130" stroke="none" /><text fill="#e1ed5e" style="font-size:6.75px; font-family:Arial;" text-anchor="middle"><textPath startOffset="22.20632615414155" xlink:href="#id130">October</textPath></text><line stroke="#e1ed5e" stroke-width="0.3" x1="26.266209847984243" x2="21.928928074336255" y1="57.711370442889674" y2="55.22380399835377" /><path d="M 25.398753493254645 57.213857153982495 a86.0,86.0 0 0,1 29.58750427330803,-30.492523968695096" fill="none" id="id131" stroke="none" /><text fill="#e1ed5e" style="font-size:6.75px; font-family:Arial;" text-anchor="middle"><textPath startOffset="21.46611528233685" xlink:href="#id131">November</textPath></text><line stroke="#e1ed5e" stroke-width="0.3" x1="56.762969772571076" x2="54.21961505331055" y1="26.818313649435495" y2="22.513508569990535" /><path d="M 56.25429882871897 25.957352633546506 a86.0,86.0 0 0,1 42.265352541879196,-11.944610805530505" fill="none" id="id132" stroke="none" /><text fill="#e1ed5e" style="font-size:6.75px; font-family:Arial;" text-anchor="middle"><textPath startOffset="22.20632615414155" xlink:href="#id132">December</textPath></text></svg>