<?xml version="1.0" encoding="utf-8" ?>
<svg baseProfile="full" height="200mm" version="1.1" viewBox="0,0,200,200" width="200mm" xmlns="http://www.w3.org/2000/svg" xmlns:ev="http://www.w3.org/2001/xml-events" xmlns:xlink="http://www.w3.org/1999/xlink"><defs /><rect fill="#1a1a1a" height="200" width="200" x="0" y="0" /><text alignment-baseline="middle" fill="#e1ed5e" style="dominant-baseline: central; font-size:9.0px; font-family:Arial;" text-anchor="middle" x="100.0" y="100.0">2016</text><line stroke="#e1ed5e" stroke-width="0.3" x1="100.0" x2="100.0" y1="15.0" y2="10.0" /><path d="M 100.0 14.0 a86.0,86.0 0 0,1 42.35913384403234,11.155469271406648" fill="none" id="id13" stroke="none" /><text fill="#e1ed5e" style="font-size:6.75px; font-family:Arial;" text-anchor="middle"><textPath startOffset="22.145653131862478" xlink:href="#id13">January</textPath></text><path d="M 100.36049292484886 79.00309439819443 l 0.8278874454273627 -48.22029322169515 a69.22739963971264,69.22739963971264 0 0,0 1.1880301491264948,0.03059944240843803 l -1.655530908624599 48.19897606193666" fill="#3aff92" stroke="none" /><path d="M 101.08105385017728 79.02784411241856 l 0.3456885116964873 -6.7062647754835565 a27.715168485303288,27.715168485303288 0 0,0 0.47492666243032267,0.028570408664869054 l -0.46075952625927236 6.699342388993996" fill="#ff3004" stroke="none" /><path d="M 108.07796709384702 80.6158196554323 l 4.3856691348896915 -10.524009376945834 a32.40126603175138,32.40126603175138 0 0,0 0.5115773017238356,0.21836192983916886 l -4.565681511783957 10.447172797447264" fill="#ff740a" stroke="none" /><line stroke="#e1ed5e" stroke-width="0.3" x1="143.13028292997686" x2="145.6673583964461" y1="26.7553504044142" y2="22.446841604673864" /><path d="M 143.63769802327073 25.89364864446614 a86.0,86.0 0 0,1 29.32050498858742,28.57503671076993" fill="none" id="id14" stroke="none" /><text fill="#e1ed5e" style="font-size:6.75px; font-family:Arial;" text-anchor="middle"><textPath startOffset="20.669276256404974" xlink:href="#id14">February</textPath></text><path d="M 115.16444852881244 85.47280134310134 l 8.100940556097138 -7.760517802052001 a32.2183276137482,32.2183276137482 0 0,0 0.3791700817386587,0.4026654870730629 l -8.232966471572055 7.620310855034443" fill="#ff710a" stroke="none" /><path d="M 116.35404254752997 86.82634096563983 l 8.435754421543116 -6.7952466262716 a31.83223565901517,31.83223565901517 0 0,0 0.3391399859357381,0.4284922934005518 l -8.551160838120413 6.64943438895637" fill="#ff6b09" stroke="none" /><path d="M 117.62189284568427 88.57770195909679 l 9.165618705047317 -5.941043308748061 a31.9226627633894,31.9226627633894 0 0,0 0.29411764194803947,0.46240178478416255 l -9.266254038621247 5.782827849285227" fill="#ff6d0a" stroke="none" /><line stroke="#e1ed5e" stroke-width="0.3" x1="172.87174338648825" x2="177.1583165268699" y1="56.24261187166439" y2="53.66864786411523" /><path d="M 173.72905801456457 55.72781907015455 a86.0,86.0 0 0,1 12.242430191666344,42.057860355516425" fill="none" id="id15" stroke="none" /><text fill="#e1ed5e" style="font-size:6.75px; font-family:Arial;" text-anchor="middle"><textPath startOffset="22.145653131862474" xlink:href="#id15">March</textPath></text><path d="M 119.0197475246899 91.09779779509293 l 10.212062219194305 -4.779760755832746 a32.275297231190606,32.275297231190606 0 0,0 0.23056171362377792,0.5038189540323894 l -10.292608397673135 4.603752819585672" fill="#ff720a" stroke="none" /><path d="M 119.58574465831526 92.42381321644754 l 10.496321362629601 -4.060202589729565 a32.25424396471132,32.25424396471132 0 0,0 0.1953214356702164,0.5181133136977751 l -10.56447348211426 3.879420995837632" fill="#ff710a" stroke="none" /><path d="M 120.43855184770803 95.1765574152323 l 32.63636721962791 -7.702093799611491 a54.53289003638691,54.53289003638691 0 0,0 0.20719677679875378,0.9129472289462953 l -32.76377485798432 7.14071223672617" fill="#74ff27" stroke="none" /><line stroke="#e1ed5e" stroke-width="0.3" x1="184.99686870605535" x2="189.99668451229388" y1="99.2704041080226" y2="99.22748670261217" /><path d="M 185.99683186730306 99.26182062694052 a86.0,86.0 0 0,1 -10.086455211305974,41.156179273409016" fill="none" id="id16" stroke="none" /><text fill="#e1ed5e" style="font-size:6.75px; font-family:Arial;" text-anchor="middle"><textPath startOffset="21.40746469413373" xlink:href="#id16">April</textPath></text><path d="M 120.99922638620191 99.81974689727618 l 11.302988586334871 -0.0970225628920122 a32.30340498967132,32.30340498967132 0 0,0 0.0,0.5545513312316768 l -11.302988586334871 -0.09702256289201083" fill="#ff720a" stroke="none" /><path d="M 120.99303781780057 100.54070618675476 l 5.563286152496412 0.1432905169537308 a26.56513117426779,26.56513117426779 0 0,0 -0.015654848250067292,0.4557738258629207 l -5.560006617249499 -0.2387706073807622" fill="#ff1f03" stroke="none" /><path d="M 120.592083275326 104.11899336999214 l 5.3894781071719455 1.0780465625718754 a26.49624041129559,26.49624041129559 0 0,0 -0.09304254392747235,0.44524225447299715 l -5.370177852420109 -1.1704052683302817" fill="#ff1e03" stroke="none" /><path d="M 120.26092885502905 105.52220625578681 l 22.66772759394429 6.178189954636748 a44.49459310966755,44.49459310966755 0 0,0 -0.20717849565672897,0.7352033922959255 l -22.55833060621298 -6.566401270835682" fill="#eaff1a" stroke="none" /><path d="M 120.05942366710727 106.21446072829308 l 5.2603281915444215 1.6296631202764715 a26.506982346834448,26.506982346834448 0 0,0 -0.13838574016583252,0.4334913600618473 l -5.231577735601334 -1.7197235140297025" fill="#ff1e03" stroke="none" /><path d="M 119.94978838288452 106.5578916946017 l 5.046498892051573 1.658884422021952 a26.312160444970093,26.312160444970093 0 0,0 -0.14473514863433398,0.4278837491868817 l -5.017278321844874 -1.7452698456829943" fill="#ff1b02" stroke="none" /><path d="M 119.4528033332814 107.91128576633889 l 5.354471835078768 2.1776170811662388 a26.780344694292786,26.780344694292786 0 0,0 -0.1768448420715649,0.42436324286749527 l -5.316301148470718 -2.2692128334750117" fill="#ff2203" stroke="none" /><path d="M 119.16976305983485 108.57439118712176 l 5.087747497611702 2.275684742146125 a26.573501201676628,26.573501201676628 0 0,0 -0.18983038111639666,0.4148136416686097 l -5.04793265164025 -2.362687366029424" fill="#ff1f03" stroke="none" /><path d="M 118.5362547648365 109.86951160357373 l 22.50990223760179 11.985255066237247 a46.501804597893766,46.501804597893766 0 0,0 -0.3812143768002964,0.7013915162424438 l -22.300842511186154 -12.369901415954295" fill="#d1ff1c" stroke="none" /><line stroke="#e1ed5e" stroke-width="0.3" x1="174.33088141563837" x2="178.70328620479359" y1="141.23008692659167" y2="143.65538615756765" /><path d="M 175.20536237346943 141.71514677278685 a86.0,86.0 0 0,1 -30.301960400862466,31.631185727798858" fill="none" id="id17" stroke="none" /><text fill="#e1ed5e" style="font-size:6.75px; font-family:Arial;" text-anchor="middle"><textPath startOffset="22.145653131862474" xlink:href="#id17">May</textPath></text><path d="M 118.36410011445183 110.18625677009912 l 20.910571228575275 11.598741371274253 a44.91198006236684,44.91198006236684 0 0,0 -0.3797556747572108,0.6709918898100369 l -20.708382188796687 -11.955990031183413" fill="#e5ff1a" stroke="none" /><path d="M 118.18653347947321 110.5 l 10.2776217327882 5.933787674054412 a32.86757534810883,32.86757534810883 0 0,0 -0.2863020769266635,0.4862035182339877 l -10.174245945731771 -6.109342360581949" fill="#ff7a0b" stroke="none" /><path d="M 118.00360718960297 110.81064883170644 l 3.7528188797239954 2.253459910029773 a25.377411462282733,25.377411462282733 0 0,0 -0.22746865792372498,0.3715529577851034 l -3.713582257344866 -2.3175499839394336" fill="#ff0d01" stroke="none" /><path d="M 117.62189284568427 111.42229804090321 l 4.6504386272238145 3.0143581331609544 a26.541925151112103,26.541925151112103 0 0,0 -0.2511062795962511,0.38020691205109897 l -4.598007908706837 -3.0937449235511143" fill="#ff1e03" stroke="none" /><path d="M 117.01052211995028 112.31430620078461 l 4.591699370381161 3.3240362423977596 a26.668590658067714,26.668590658067714 0 0,0 -0.27163608010982254,0.36852651188867663 l -4.533961270687509 -3.4023690635553137" fill="#ff2003" stroke="none" /><path d="M 116.79662413953412 112.60449989151573 l 4.5177815662694565 3.3902275117239484 a26.648361962708663,26.648361962708663 0 0,0 -0.27771149153740754,0.3635332570811105 l -4.458918097377744 -3.467281682045936" fill="#ff2003" stroke="none" /><path d="M 116.57777611688842 112.89097897827486 l 5.232177497211131 4.068572868374044 a27.627893070017947,27.627893070017947 0 0,0 -0.2943470062099228,0.3718978267881818 l -5.161564060359646 -4.157790639076909" fill="#ff2e04" stroke="none" /><path d="M 116.35404254752997 113.17365903436017 l 5.5126950573529125 4.440636914995573 a28.078775530145354,28.078775530145354 0 0,0 -0.30559492663330057,0.3727761214526055 l -5.435653311480984 -4.534615318146672" fill="#ff3505" stroke="none" /><path d="M 116.1254893667686 113.45245675266167 l 4.224398749664984 3.5241436829184534 a26.50137560015903,26.50137560015903 0 0,0 -0.29442452390747653,0.34683134884307226 l -4.163279662250393 -3.5961418142110824" fill="#ff1e03" stroke="none" /><path d="M 115.89218393027572 113.72728997021213 l 4.971638678592574 4.294383079606004 a27.569544671047154,27.569544671047154 0 0,0 -0.3124403144480362,0.3554997239644124 l -4.897187300185952 -4.37909508138171" fill="#ff2e04" stroke="none" /><path d="M 115.41159269507618 114.26474011684316 l 6.342706617578169 5.870714554118744 a29.64263944710246,29.64263944710246 0 0,0 -0.34885740057194237,0.3704744701275319 l -6.240993383269966 -5.978730484190773" fill="#ff4c07" stroke="none" /><path d="M 115.16444852881244 114.52719865689866 l 10.367563657625332 9.931891460227124 a35.357187892224786,35.357187892224786 0 0,0 -0.423635007041649,0.4346868374318947 l -10.195541849432875 -10.108400989726755" fill="#ff9d0e" stroke="none" /><path d="M 114.91283532996324 114.78537596483092 l 4.040457457217502 4.005923840306546 a26.689703180124678,26.689703180124678 0 0,0 -0.32537046016404236,0.32258953277044283 l -3.9710950769234947 -4.07469338330565" fill="#ff2103" stroke="none" /><path d="M 114.65682725009322 115.03919595460226 l 4.527130516740399 4.645234728606468 a27.486379298148837,27.486379298148837 0 0,0 -0.34073622834524925,0.3264175989894353 l -4.446721802529837 -4.722264457901484" fill="#ff2c04" stroke="none" /><path d="M 114.39649973595853 115.28858382429668 l 4.64997897233049 4.938116528570082 a27.78286807278844,27.78286807278844 0 0,0 -0.35002475045578646,0.32397768345577066 l -4.564524450560736 -5.017211958158232" fill="#ff3104" stroke="none" /><path d="M 114.13192950727249 115.5334660781643 l 3.473339742078398 3.817808816110337 a26.161371244182213,26.161371244182213 0 0,0 -0.3347845428366171,0.29936640258843833 l -3.407290172418403 -3.8768707485821623" fill="#ff1902" stroke="none" /><path d="M 113.59037401385872 116.0094264158162 l 3.545380787553722 4.176449653005099 a26.47836258683573,26.47836258683573 0 0,0 -0.3490423977811223,0.29118358235207076 l -3.4731640556107046 -4.236695419269039" fill="#ff1d03" stroke="none" /><path d="M 113.31354834802062 116.24036423190432 l 5.7360734166332366 6.997076895801224 a30.04774133840937,30.04774133840937 0 0,0 -0.4017085825391935,0.3235879986350361 l -5.61511406373879 -7.094513188229663" fill="#ff5207" stroke="none" /><path d="M 113.03279911837588 116.46651593811092 l 7.089649252084335 8.957540229440063 a32.42368826078588,32.42368826078588 0 0,0 -0.4394028208222417,0.3416822911755785 l -6.934836486626863 -9.077923572236434" fill="#ff740a" stroke="none" /><path d="M 112.7482090630111 116.68781488649013 l 3.4613028389046345 4.530956525439983 a26.701770284572717,26.701770284572717 0 0,0 -0.36663693582608853,0.27513119180707934 l -3.3830129141677796 -4.589706744511077" fill="#ff2103" stroke="none" /><path d="M 112.45986205192187 116.90419585922612 l 4.028591792765055 5.465558480341863 a27.7898366206243,27.7898366206243 0 0,0 -0.3864361910393912,0.2797500012032473 l -3.9341745913516957 -5.533909252918187" fill="#ff3104" stroke="none" /><path d="M 112.16784306229584 117.11559508785304 l 3.604778387325337 5.0705722405383415 a27.22134471543298,27.22134471543298 0 0,0 -0.3831791963206314,0.2674888382278781 l -3.517204099830947 -5.131705894571342" fill="#ff2803" stroke="none" /><path d="M 111.8722381534696 117.32195027204791 l 7.220702942876789 10.535221386979067 a33.772213616359956,33.772213616359956 0 0,0 -0.4810187834206757,0.32365090467166535 l -7.03878787135911 -10.657621965707854" fill="#ff870c" stroke="none" /><path d="M 111.5731344415666 117.5232005979908 l 3.4433616019626765 5.2136883389080495 a27.24814254135873,27.24814254135873 0 0,0 -0.39252164824142927,0.2544277900780814 l -3.353354321464238 -5.272029970690026" fill="#ff2904" stroke="none" /><path d="M 111.27062007382361 117.71928675628689 l 9.0979682360019 14.303517199352836 a37.9518031576432,37.9518031576432 0 0,0 -0.5527153706056693,0.3449352699100002 l -8.851088736606515 -14.457588266104382" fill="#ffc011" stroke="none" /><line stroke="#e1ed5e" stroke-width="0.3" x1="143.1302829299769" x2="145.66735839644613" y1="173.24464959558577" y2="177.55315839532614" /><path d="M 143.63769802327073 174.10635135553383 a86.0,86.0 0 0,1 -40.68552437913181,11.842963189579606" fill="none" id="id18" stroke="none" /><text fill="#e1ed5e" style="font-size:6.75px; font-family:Arial;" text-anchor="middle"><textPath startOffset="21.407464694133747" xlink:href="#id18">June</textPath></text><path d="M 110.65571695917076 118.09573695890943 l 3.4264502805476553 5.818861669951583 a27.752755930662445,27.752755930662445 0 0,0 -0.41260092567546713,0.23821525550662065 l -3.3260568870117897 -5.876823822734375" fill="#ff3004" stroke="none" /><path d="M 110.34350942703117 118.27599006163325 l 3.8547822534123912 6.8110308836781295 a28.82620520556677,28.82620520556677 0 0,0 -0.4327442249742842,0.24003592682968558 l -3.7372938402820126 -6.876199725940959" fill="#ff4006" stroke="none" /><path d="M 109.71004243097381 118.62028667847754 l 8.270026432257854 15.85886612771316 a38.8856638693388,38.8856638693388 0 0,0 -0.5945299111447799,0.3035712088238565 l -7.996569299399492 -15.998495288209853" fill="#ffcc13" stroke="none" /><path d="M 109.3889696526874 118.78422872680471 l 3.5964948703084727 7.195398937019392 a29.044161933664373,29.044161933664373 0 0,0 -0.4478882933804744,0.21908460826098797 l -3.4724463276659288 -7.256077295377603" fill="#ff4306" stroke="none" /><path d="M 109.06512990194946 118.94263497670748 l 4.755414389288301 9.936987104828898 a32.0162461272153,32.0162461272153 0 0,0 -0.49779360476207024,0.23299254210125486 l -4.584132070654725 -10.017155878500686" fill="#ff6e0a" stroke="none" /><path d="M 108.73861861582097 119.09545874513695 l 2.2131913247779638 4.8362224620810075 a26.318577210383367,26.318577210383367 0 0,0 -0.4124329055165004,0.18447599270275847 l -2.1298450164058362 -4.873502205693616" fill="#ff1b02" stroke="none" /><path d="M 108.4095320186766 119.2426549942271 l 20.299242174643336 46.44863863332984 a71.69058358072513,71.69058358072513 0 0,0 -1.131908712187193,0.48314452178018624 l -19.49889838728571 -46.79025780476943" fill="#3dffad" stroke="none" /><path d="M 107.74402155503746 119.51999308798841 l 2.745214677996176 6.919734295505898 a28.444388917076147,28.444388917076147 0 0,0 -0.45541869192107814,0.17616573354285728 l -2.6260237235815684 -6.965839917186797" fill="#ff3b05" stroke="none" /><path d="M 107.06938296918513 119.77432235084164 l 2.22346912426274 6.2194388664422675 a27.604940178378786,27.604940178378786 0 0,0 -0.4475867997038306,0.15569392302749893 l -2.1163765525138873 -6.256691222038357" fill="#ff2e04" stroke="none" /><path d="M 106.72888874123015 119.89276391827305 l 1.8183231336502843 5.375549249789923 a26.674753629478975,26.674753629478975 0 0,0 -0.43502364747357736,0.14300091359213746 l -1.7257767485289726 -5.40597108478408" fill="#ff2003" stroke="none" /><path d="M 106.38641147887787 120.00534299687104 l 1.6366941596809776 5.12692114400787 a26.38182944631366,26.38182944631366 0 0,0 -0.43261095675339606,0.134023980249328 l -1.5484425700559572 -5.1542617120638425" fill="#ff1c02" stroke="none" /><path d="M 106.0420521117495 120.11202640906438 l 1.9129009112203608 6.367424996148768 a27.648555555737488,27.648555555737488 0 0,0 -0.4557271751299729,0.13265553884131873 l -1.803313723708781 -6.3993242292926045" fill="#ff2f04" stroke="none" /><path d="M 105.69591212413111 120.21278271476187 l 3.790066737780726 13.44960978605238 a34.97342510889538,34.97342510889538 0 0,0 -0.5792575107567308,0.1578792104004827 l -3.5586278260893 -13.512689490597005" fill="#ff970e" stroke="none" /><path d="M 104.9986988182912 120.39639698878246 l 6.151707646545961 25.101066473289283 a46.843897636870864,46.843897636870864 0 0,0 -0.7826674987751641,0.184707398617828 l -5.719907994030917 -25.202970015553337" fill="#cdff1d" stroke="none" /><path d="M 104.29559338865022 120.5559693870025 l 1.8076506658510019 8.650262813004256 a29.837117610612403,29.837117610612403 0 0,0 -0.5022631398560766,0.10046669467083638 l -1.6588910404639665 -8.680018904337953" fill="#ff4f07" stroke="none" /><path d="M 103.94208987418118 120.62667999033965 l 1.6817048669798194 8.799390484874372 a29.95864968423932,29.95864968423932 0 0,0 -0.5059663082243464,0.09220391598299828 l -1.5304038252044156 -8.826962574788734" fill="#ff5107" stroke="none" /><path d="M 103.58742460773223 120.69131181640829 l 1.9984106851044094 11.526301774708632 a32.69825960850548,32.69825960850548 0 0,0 -0.5538812644645924,0.09114095129110523 l -1.8002519175867446 -11.558908724495407" fill="#ff780b" stroke="none" /><path d="M 103.2317021107853 120.74984581791261 l 1.3839947775761599 8.886239282903205 a29.993369231682316,29.993369231682316 0 0,0 -0.5094229430085707,0.07486762967976718 l -1.2312467289599036 -8.908687985881855" fill="#ff5107" stroke="none" /><path d="M 102.875027216393 120.80226474461374 l 1.2291211397340305 8.893308281104526 a29.97784333561816,29.97784333561816 0 0,0 -0.5103687544936814,0.06607745320763811 l -1.0762745633495738 -8.913097330512558" fill="#ff5107" stroke="none" /><path d="M 102.51750503828377 120.84855314841334 l 3.241373092500787 26.84321904630976 a48.038212002515166,48.038212002515166 0 0,0 -0.8195412719900361,0.09183130892599409 l -2.7800959189099514 -26.894906115742724" fill="#bfff1e" stroke="none" /><path d="M 101.80034050326958 120.92268563240118 l 0.47024849563349763 5.465000329316035 a26.485194823073282,26.485194823073282 0 0,0 -0.4533142951824262,0.03508939340709256 l -0.3763652056758356 -5.472267489718181" fill="#ff1d03" stroke="none" /><path d="M 101.08105385017728 120.97215588758144 l 0.3464677994517376 6.721382749746989 a27.73030653125497,27.73030653125497 0 0,0 -0.47560676491431464,0.02042460089537715 l -0.2310352739365934 -6.726339919068197" fill="#ff3004" stroke="none" /><path d="M 100.72087961077811 120.9876233191556 l 0.8361641700241972 24.344007475117653 a45.35836346037674,45.35836346037674 0 0,0 -0.7784071565076114,0.02004900715136206 l -0.41814369944584195 -24.35477419961906" fill="#dfff1b" stroke="none" /><line stroke="#e1ed5e" stroke-width="0.3" x1="101.45913802915013" x2="101.54496967792366" y1="184.9874750549273" y2="189.98673829345242" /><path d="M 101.47630435890484 185.9873277026323 a86.0,86.0 0 0,1 -42.54439059252881,-10.42667462771756" fill="none" id="id19" stroke="none" /><text fill="#e1ed5e" style="font-size:6.75px; font-family:Arial;" text-anchor="middle"><textPath startOffset="22.145653131862474" xlink:href="#id19">July</textPath></text><path d="M 99.27912038922189 120.98762331915562 l -0.23672860026871045 6.892094903263913 a27.896159263371285,27.896159263371285 0 0,0 -0.4784513307067914,-0.02054675878992301 l 0.3550056915763406 -6.887015576048161" fill="#ff3204" stroke="none" /><path d="M 98.91894614982273 120.97215588758144 l -0.3653869254196817 7.088408739240065 a28.09781981032222,28.09781981032222 0 0,0 -0.4814837691194898,-0.028964867920555765 l 0.4870150466716179 -7.0810918934948175" fill="#ff3505" stroke="none" /><path d="M 98.55909050195518 120.95050786540614 l -0.35932005139895795 5.22443468742951 a26.2367765564853,26.2367765564853 0 0,0 -0.4490624272169062,-0.03476027193586895 l 0.44895147339110025 -5.217496648498588" fill="#ff1a02" stroke="none" /><path d="M 98.19965949673042 120.92268563240118 l -0.5883073313690323 6.837022956000219 a27.862287404139856,27.862287404139856 0 0,0 -0.4761803387827611,-0.045094773165559335 l 0.7055872335368087 -6.825916427329476" fill="#ff3204" stroke="none" /><path d="M 97.48249496171623 120.84855314841334 l -1.613227837469863 13.359840714725607 a34.45688849542968,34.45688849542968 0 0,0 -0.5866238964643838,-0.07595020801687348 l 1.8423295558250408 -13.330178910508335" fill="#ff900d" stroke="none" /><path d="M 96.76829788921471 120.74984581791261 l -1.0875104220568477 6.9825970369432655 a28.066777221507067,28.066777221507067 0 0,0 -0.4754278130708521,-0.07823146571930645 l 1.2072157381807633 -6.962899572728291" fill="#ff3505" stroke="none" /><path d="M 96.41257539226777 120.69131181640829 l -1.2291740078340263 7.089549036905226 a28.195316135391035,28.195316135391035 0 0,0 -0.47618568141764944,-0.08677689373394021 l 1.3506944228027329 -7.06740396923992" fill="#ff3705" stroke="none" /><path d="M 96.05791012581884 120.62667999033965 l -1.4231055957827181 7.446289824320413 a28.581059403838346,28.581059403838346 0 0,0 -0.48111928316691976,-0.0962373311647622 l 1.550721364480596 -7.42076309649279" fill="#ff3d05" stroke="none" /><path d="M 95.70440661134978 120.55596938700252 l -2.099931345839845 10.048931673548081 a31.26599919330206,31.26599919330206 0 0,0 -0.5244314284684165,-0.11429738895533927 l 2.2721251909273983 -10.011402826459022" fill="#ff6309" stroke="none" /><path d="M 95.00130118170881 120.39639698878247 l -3.93071436844492 16.03865598282254 a37.51329770765454,37.51329770765454 0 0,0 -0.6241403644150014,-0.15865403995238558 l 4.2054600260853 -15.968816711034892" fill="#ffba11" stroke="none" /><path d="M 94.6519064749342 120.30758222061772 l -4.386309497122323 16.65553160961071 a38.223427190988644,38.223427190988644 0 0,0 -0.6330866141449691,-0.17255057189633327 l 4.671577512201987 -16.57778054357023" fill="#ffc312" stroke="none" /><path d="M 94.30408787586889 120.21278271476187 l -1.5064716494022374 5.345936428041603 a26.554141979020244,26.554141979020244 0 0,0 -0.43768811313500583,-0.12740463079869324 l 1.59801977491885 -5.319288102940394" fill="#ff1f03" stroke="none" /><path d="M 93.61358852112213 120.00534299687104 l -4.40641809862511 13.803041933982053 a35.489323210252365,35.489323210252365 0 0,0 -0.5787755359896011,-0.1902550146226696 l 4.642716372262455 -13.725365997957361" fill="#ff9e0e" stroke="none" /><path d="M 92.25597844496254 119.51999308798841 l -8.003467248733239 20.17396571857278 a42.70355687014678,42.70355687014678 0 0,0 -0.6790791575278959,-0.2761755815408041 l 8.348600867451577 -20.033602880452683" fill="#fffe18" stroke="none" /><path d="M 91.59046798132341 119.24265499422711 l -2.604505930648394 5.9596192680615365 a27.50388445185129,27.50388445185129 0 0,0 -0.43100760678626415,-0.1927842203200605 l 2.706426940290293 -5.91403129683162" fill="#ff2d04" stroke="none" /><path d="M 91.26138138417905 119.09545874513695 l -1.588204499599499 3.470513456902248 a24.816655235554776,24.816655235554776 0 0,0 -0.3858532389699435,-0.18059879871011916 l 1.6475464524409325 -3.4427384266216023" fill="#ff0400" stroke="none" /><path d="M 90.6110303473126 118.78422872680471 l -2.399042216326827 4.799691487323631 a26.36585891812348,26.36585891812348 0 0,0 -0.4031123607023632,-0.20583204366391336 l 2.481081798742772 -4.757801491986882" fill="#ff1c02" stroke="none" /><path d="M 89.97174638481275 118.45085714620012 l -3.760297226344531 6.9185233653706275 a28.87437621577949,28.87437621577949 0 0,0 -0.4334673769234135,-0.24043704702570481 l 3.8785087914240473 -6.8529534029117745" fill="#ff4106" stroke="none" /><line stroke="#e1ed5e" stroke-width="0.3" x1="58.13341422392154" x2="55.67067388415222" y1="173.97424548756322" y2="178.32567169271397" /><path d="M 57.64086615596768 174.84453072859336 a86.0,86.0 0 0,1 -31.369924170532247,-30.572349798747897" fill="none" id="id20" stroke="none" /><text fill="#e1ed5e" style="font-size:6.75px; font-family:Arial;" text-anchor="middle"><textPath startOffset="22.145653131862474" xlink:href="#id20">August</textPath></text><path d="M 89.65649057296885 118.27599006163327 l -2.9428051104011392 5.199654655939324 a26.974655677010563,26.974655677010563 0 0,0 -0.4010328894873775,-0.23153644669943257 l 3.0316304677489168 -5.14837131196372" fill="#ff2503" stroke="none" /><path d="M 89.03521579738668 117.91015095944536 l -2.9207011611706495 4.770745847558603 a26.593792203403808,26.593792203403808 0 0,0 -0.38730169558635014,-0.24170490275543474 l 3.002166985546712 -4.71990514796162" fill="#ff1f03" stroke="none" /><path d="M 88.4268655584334 117.5232005979908 l -3.082809545202281 4.667766570822607 a26.593903775690045,26.593903775690045 0 0,0 -0.3787778730142833,-0.2548586572833894 l 3.16248370631357 -4.614158239482097" fill="#ff1f03" stroke="none" /><path d="M 88.1277618465304 117.32195027204791 l -12.937987716439158 18.87691073473208 a43.8851324015784,43.8851324015784 0 0,0 -0.6177457410664675,-0.4312345038163815 l 13.260128548679392 -18.652031415110567" fill="#f2ff19" stroke="none" /><path d="M 87.2517909369889 116.68781488649013 l -4.024837590673874 5.268641605214473 a27.63007556484075,27.63007556484075 0 0,0 -0.374440225463374,-0.2911669841017751 l 4.114687760772476 -5.198773569491904" fill="#ff2f04" stroke="none" /><path d="M 86.13680546590413 115.77377054828092 l -41.58958360228758 47.321311644842766 a84.0,84.0 0 0,0 -1.0749398927065164,-0.9612178804664708 l 42.39578852181747 -46.600398234492914" fill="#4dd2ff" stroke="none" /><path d="M 84.83555147118756 114.52719865689866 l -4.831458414928096 4.628427869490201 a27.690690170546915,27.690690170546915 0 0,0 -0.3258853588317882,-0.3460789578710095 l 4.9101996074961365 -4.544807451674702" fill="#ff2f04" stroke="none" /><path d="M 84.3458050057657 113.99807769240083 l -6.5656036759946605 5.871003292595764 a29.807714305760882,29.807714305760882 0 0,0 -0.3378050577835368,-0.3843601457385006 l 6.66541979773679 -5.757430869045963" fill="#ff4e07" stroke="none" /><path d="M 84.1078160697243 113.72728997021213 l -10.005298982873052 8.642338962294154 a34.221044984261574,34.221044984261574 0 0,0 -0.3801883732045665,-0.4478609476649118 l 10.15218191958473 -8.469311232179688" fill="#ff8d0d" stroke="none" /><path d="M 82.98947788004972 112.3143062007846 l -4.586218112693757 3.320068234534618 a26.661823880973877,26.661823880973877 0 0,0 -0.2652024978280367,-0.37304052541383426 l 4.642535709051754 -3.2408504824112794" fill="#ff2003" stroke="none" /><path d="M 82.37810715431573 111.42229804090323 l -6.36807404732558 4.127708660588508 a28.588830335362555,28.588830335362555 0 0,0 -0.26340156604770143,-0.4141110116642308 l 6.437993304999171 -4.017783974245605" fill="#ff3d05" stroke="none" /><path d="M 81.99639281039703 110.81064883170644 l -9.224837767342308 5.5392500281717085 a31.760154399839497,31.760154399839497 0 0,0 -0.2766555814318238,-0.46982165995839653 l 9.318567058903902 -5.380077199919753" fill="#ff6a09" stroke="none" /><line stroke="#e1ed5e" stroke-width="0.3" x1="26.387840678322732" x2="22.057713659400548" y1="142.50000000000003" y2="145.00000000000006" /><path d="M 25.521815274538298 143.00000000000003 a86.0,86.0 0 0,1 -11.493303480769221,-40.785679425670985" fill="none" id="id21" stroke="none" /><text fill="#e1ed5e" style="font-size:6.75px; font-family:Arial;" text-anchor="middle"><textPath startOffset="21.40746469413373" xlink:href="#id21">September</textPath></text><path d="M 81.4637452351635 109.86951160357371 l -21.641270557000585 11.522757622191083 a45.51771878746192,45.51771878746192 0 0,0 -0.3613064971684409,-0.692852848367855 l 21.835885123143974 -11.149558530718725" fill="#ddff1b" stroke="none" /><path d="M 81.29705330413844 109.54985784667822 l -15.927617220798886 8.132754841705795 a38.88381088156488,38.88381088156488 0 0,0 -0.2984426672642396,-0.5970852533456141 l 16.064879801274863 -7.858137732196427" fill="#ffcc13" stroke="none" /><path d="M 80.5471966667186 107.91128576633889 l -5.271126032208832 2.143721068718468 a26.69036990606912,26.69036990606912 0 0,0 -0.1689644352836717,-0.425900752653211 l 5.307149142458628 -2.052919298851692" fill="#ff2103" stroke="none" /><path d="M 80.05021161711548 106.5578916946017 l -6.646298109667487 2.184770200902418 a27.99617748440681,27.99617748440681 0 0,0 -0.14616042265015997,-0.45784544221033974 l 6.682823248094902 -2.0703557250006868" fill="#ff3404" stroke="none" /><path d="M 79.48165901384964 104.47187691870673 l -5.378217566070641 1.172157486500899 a26.504468853681608,26.504468853681608 0 0,0 -0.09307143841213106,-0.44538052504202436 l 5.397546715307139 -1.0796605101734655" fill="#ff1e03" stroke="none" /><path d="M 79.34024301695615 103.76489593502545 l -6.552643515505537 1.1941099285652397 a27.66055820204244,27.66055820204244 0 0,0 -0.08111812024473612,-0.4678677612700438 l 6.572176453242507 -1.0814491343746033" fill="#ff2f04" stroke="none" /><path d="M 79.2786578344484 103.40968896794605 l -8.867149062078092 1.4590860038189983 a29.986393295179823,29.986393295179823 0 0,0 -0.0792190645796017,-0.5086432225235515 l 8.890889618795962 -1.3066545993639969" fill="#ff5107" stroke="none" /><path d="M 79.22317932658666 103.0534771498775 l -5.464570301765985 0.8031036515463338 a26.523269326953905,26.523269326953905 0 0,0 -0.06233660857943393,-0.45103664673396593 l 5.477551426900631 -0.7091786966122822" fill="#ff1e03" stroke="none" /><path d="M 79.17382384314188 102.69636545807758 l -10.94509681242572 1.417061910840573 a32.036449097990115,32.036449097990115 0 0,0 -0.0659308806506518,-0.5460022714805869 l 10.967809779336033 -1.228965962436587" fill="#ff6e0a" stroke="none" /><path d="M 79.13060592940153 102.33845913500099 l -8.970011328932305 1.0051084790600495 a30.02614792122599,30.02614792122599 0 0,0 -0.05299987935387825,-0.5127257551340667 l 8.985943600767849 -0.8509782016430515" fill="#ff5207" stroke="none" /><path d="M 79.0935383218832 101.97986365728391 l -5.4818625062732345 0.5191380788150338 a26.50638909654594,26.50638909654594 0 0,0 -0.03901030773039706,-0.45335890826431163 l 5.489966436701372 -0.42495812317506015" fill="#ff1e03" stroke="none" /><line stroke="#e1ed5e" stroke-width="0.3" x1="15.003131293944662" x2="10.003315487706104" y1="100.72959589197737" y2="100.7725132973878" /><path d="M 14.003168132696942 100.73817937305945 a86.0,86.0 0 0,1 10.791469493833604,-42.45332614584628" fill="none" id="id22" stroke="none" /><text fill="#e1ed5e" style="font-size:6.75px; font-family:Arial;" text-anchor="middle"><textPath startOffset="22.145653131862435" xlink:href="#id22">October</textPath></text><path d="M 79.00077361379809 100.18025310272382 l -11.835242056028777 0.10159131878726795 a32.8356780676413,32.8356780676413 0 0,0 0.0,-0.5636888430221666 l 11.835242056028777 0.10159131878726359" fill="#ff7a0b" stroke="none" /><path d="M 79.00696218219943 99.45929381324524 l -18.55721235261005 -0.4779679632392235 a39.56336671171871,39.56336671171871 0 0,0 0.023314716500757428,-0.678782532332569 l 18.546272949112446 0.796456760135931" fill="#ffd513" stroke="none" /><path d="M 79.01933749520258 99.09900007780938 l -6.680282141359573 -0.28688005863495003 a27.686439235961846,27.686439235961846 0 0,0 0.02446744313460471,-0.47466186028133234 l 6.674373108768398 0.4015137122929944" fill="#ff2f04" stroke="none" /><path d="M 79.03789590574601 98.7389718711861 l -14.499873254397796 -0.8722763686229489 a35.52608654995758,35.52608654995758 0 0,0 0.04184641221681224,-0.6084376496073731 l 14.48276288101592 1.1210574423846469" fill="#ff9f0e" stroke="none" /><path d="M 79.0935383218832 98.0201363427161 l -23.791177377833318 -2.253049233274663 a44.89762230580874,44.89762230580874 0 0,0 0.079249878197058,-0.7666706818625161 l 23.748995107154595 2.6611244374200917" fill="#e5ff1a" stroke="none" /><path d="M 79.2786578344484 96.59031103205396 l -8.902429981103955 -1.4648914656187366 a30.02214866727994,30.02214866727994 0 0,0 0.08804378594998616,-0.5078131606338847 l 8.875971377661735 1.617497659173214" fill="#ff5207" stroke="none" /><path d="M 79.64726062577567 94.8264132398404 l -12.054612821949132 -3.0642354401427094 a33.437975282164174,33.437975282164174 0 0,0 0.14618847007115449,-0.5551014322696843 l 12.000234871073252 3.2707173767851785" fill="#ff820c" stroke="none" /><path d="M 79.83685265289637 94.1308016681162 l -10.754810658391643 -3.1305686403678243 a32.20117905891647,32.20117905891647 0 0,0 0.15904879962918447,-0.5294217261469387 l 10.699485538758829 3.3147279701054866" fill="#ff710a" stroke="none" /><path d="M 80.41425534168474 92.42381321644754 l -22.368329770035857 -8.65255048150239 a44.983511138613956,44.983511138613956 0 0,0 0.28476988454491076,-0.7178061345100478 l 22.216501210524815 9.035257633226019" fill="#e4ff1a" stroke="none" /><path d="M 80.68587082218212 91.75594674310238 l -9.585049127597959 -4.09128751031918 a31.421698530976613,31.421698530976613 0 0,0 0.2160108874928543,-0.49427518365949996 l 9.513404358088126 4.255224763754547" fill="#ff6609" stroke="none" /><path d="M 81.1358732173502 90.77261029715801 l -14.02126110098329 -6.85850141884481 a36.60880535384574,36.60880535384574 0 0,0 0.2809814487689156,-0.5621511195484031 l 13.90145973900263 7.0981843945569825" fill="#ffae10" stroke="none" /><path d="M 81.29705330413844 90.45014215332179 l -5.779946348252464 -2.951281789165961 a27.489826190872883,27.489826190872883 0 0,0 0.21820629577618442,-0.41843934372939046 l 5.7284319835013395 3.0500673759998382" fill="#ff2c04" stroke="none" /><path d="M 81.46374523516351 90.13048839642627 l -28.93749228261974 -15.407584729760266 a53.7837174037878,53.7837174037878 0 0,0 0.4409103364778986,-0.8112253583531792 l 28.66873659652649 15.902064921588066" fill="#7dff26" stroke="none" /><line stroke="#e1ed5e" stroke-width="0.3" x1="26.387840678322718" x2="22.05771365940052" y1="57.49999999999999" y2="54.99999999999999" /><path d="M 25.521815274538284 56.99999999999999 a86.0,86.0 0 0,1 29.574782752854787,-30.34633250058573" fill="none" id="id23" stroke="none" /><text fill="#e1ed5e" style="font-size:6.75px; font-family:Arial;" text-anchor="middle"><textPath startOffset="21.40746469413373" xlink:href="#id23">November</textPath></text><path d="M 81.81346652052679 89.5 l -7.764205024715602 -4.482665861062999 a29.965331722125995,29.965331722125995 0 0,0 0.2610212836504256,-0.4432712043416182 l 7.686110030935397 4.615288233698189" fill="#ff5107" stroke="none" /><path d="M 81.99639281039701 89.18935116829357 l -12.505721578529865 -7.509326489341221 a35.58708526482344,35.58708526482344 0 0,0 0.3189823570712955,-0.5210337078211617 l 12.374971257003176 7.722897313286925" fill="#ffa00e" stroke="none" /><path d="M 82.37810715431573 88.57770195909679 l -7.564461387601789 -4.903192480213769 a30.01456446993105,30.01456446993105 0 0,0 0.28396002079111915,-0.42995166359260734 l 7.479176927889942 5.0323240221454375" fill="#ff5107" stroke="none" /><path d="M 82.78059297857968 87.97951657250589 l -24.98334617125014 -17.440315931976283 a51.46854452906579,51.46854452906579 0 0,0 0.5119524691790305,-0.7201252614645074 l 24.680278603541137 17.86661842015031" fill="#97ff23" stroke="none" /><path d="M 83.2033758604659 87.39550010848427 l -8.985608046303673 -6.742967795431009 a32.234267517378115,32.234267517378115 0 0,0 0.33592408131478574,-0.43973540574892905 l 8.868531987634581 6.896224114420822" fill="#ff710a" stroke="none" /><path d="M 83.64595745247003 86.82634096563983 l -10.306071356153478 -8.301841556004607 a34.233883784404796,34.233883784404796 0 0,0 0.3725839537495622,-0.454491842271001 l 10.162040583165286 8.477535679974102" fill="#ff8d0d" stroke="none" /><path d="M 84.10781606972428 86.27271002978789 l -13.664954216377268 -11.80346198992356 a39.056929104453424,39.056929104453424 0 0,0 0.4426246191720739,-0.5036255651371657 l 13.460318533246602 12.036299832872027" fill="#ffce13" stroke="none" /><path d="M 84.34580500576568 86.00192230759919 l -18.030734841975644 -16.123194278723037 a45.188112631850416,45.188112631850416 0 0,0 0.522035239004935,-0.5738081747801362 l 17.75130190212884 16.43034002906083" fill="#e1ff1b" stroke="none" /><path d="M 84.58840730492382 85.73525988315684 l -9.904008856547238 -9.167002739353217 a34.49530772727601,34.49530772727601 0 0,0 0.40596733658420836,-0.4311232430888421 l 9.745185686226758 9.33566744238657" fill="#ff910d" stroke="none" /><path d="M 84.83555147118756 85.47280134310135 l -20.73953332036306 -19.86800377368403 a49.72047729926459,49.72047729926459 0 0,0 0.5957299210274701,-0.6112713799157932 l 20.395416598184784 20.221097845667554" fill="#abff21" stroke="none" /><path d="M 85.34317274990677 84.96080404539775 l -9.47381563681221 -9.720969440974166 a34.57388778473806,34.57388778473806 0 0,0 0.4285968695701388,-0.4105861057947692 l 9.305546281376772 9.882167677074504" fill="#ff920d" stroke="none" /><path d="M 85.60350026404147 84.71141617570332 l -2.4257161302075363 -2.5760264696839017 a24.538362773495834,24.538362773495834 0 0,0 0.3091485833602366,-0.2861433134378722 l 2.3811377755333463 2.6172875292541393" fill="#ff0000" stroke="none" /><path d="M 85.86807049272753 84.46653392183569 l -22.819817079899863 -25.082976414375942 a54.91017188638579,54.91017188638579 0 0,0 0.7026801699528965,-0.6283409409128243 l 22.385871883123574 25.471012885172165" fill="#70ff27" stroke="none" /><path d="M 86.40962598614128 83.9905735841838 l -8.75128828748836 -10.308995597859894 a34.52258987499901,34.52258987499901 0 0,0 0.45508280612390184,-0.37964626244943095 l 8.573031147202549 10.457704044221208" fill="#ff910d" stroke="none" /><path d="M 86.96720088162412 83.53348406188908 l -9.105578511761196 -11.504600993828634 a35.67199386794617,35.67199386794617 0 0,0 0.4834235576119054,-0.375913082360266 l 8.906745009514045 11.659215127809704" fill="#ffa10e" stroke="none" /><path d="M 87.25179093698888 83.31218511350988 l -4.038559160576404 -5.286603580685186 a27.65267897262366,27.65267897262366 0 0,0 0.37969368239840573,-0.2849292178501246 l 3.9472124892672458 5.355151825799311" fill="#ff2f04" stroke="none" /><path d="M 87.54013794807813 83.09580414077388 l -5.387155770655928 -7.308711436117512 a30.07957654044209,30.07957654044209 0 0,0 0.4182765499866094,-0.3027999656225655 l 5.260898210295351 7.400112173113157" fill="#ff5207" stroke="none" /><path d="M 88.12776184653039 82.6780497279521 l -16.521116378235334 -24.104802535390053 a50.223086620912284,50.223086620912284 0 0,0 0.7153291253114903,-0.48130535963412474 l 16.104890964826854 24.384857569081287" fill="#a5ff21" stroke="none" /><path d="M 88.72937992617638 82.28071324371311 l -7.254200407811926 -11.404807931741875 a34.516399946606384,34.516399946606384 0 0,0 0.5026834880339793,-0.3137116748432322 l 7.057352790988248 11.527655403426643" fill="#ff910d" stroke="none" /><path d="M 89.03521579738668 82.08984904055464 l -13.33660215634971 -21.784337337834543 a46.54255880536098,46.54255880536098 0 0,0 0.6849895406064969,-0.411316537786118 l 12.960679859185777 22.010067876156587" fill="#d1ff1c" stroke="none" /><line stroke="#e1ed5e" stroke-width="0.3" x1="56.869717070023135" x2="54.33264160355391" y1="26.7553504044142" y2="22.446841604673864" /><path d="M 56.362301976729285 25.89364864446614 a86.0,86.0 0 0,1 42.16139366436587,-11.88097634709845" fill="none" id="id24" stroke="none" /><text fill="#e1ed5e" style="font-size:6.75px; font-family:Arial;" text-anchor="middle"><textPath startOffset="22.145653131862474" xlink:href="#id24">December</textPath></text><path d="M 89.34428304082924 81.90426304109057 l -6.850934297927014 -11.634384195177221 a34.50163680282884,34.50163680282884 0 0,0 0.5129367086184763,-0.2961441467981163 l 6.650205121448138 11.750275239251511" fill="#ff910d" stroke="none" /><path d="M 89.65649057296885 81.72400993836675 l -20.47228169593873 -36.172560140579236 a62.56402801656367,62.56402801656367 0 0,0 0.9392225449802915,-0.5209709132388314 l 19.848314962802338 36.51866396925121" fill="#31ff42" stroke="none" /><path d="M 89.97174638481275 81.54914285379989 l -5.369089452839611 -9.87851986007671 a32.243321403327556,32.243321403327556 0 0,0 0.4885802612727313,-0.26014146973506946 l 5.198720375780318 9.969231797534356" fill="#ff710a" stroke="none" /><path d="M 90.28995756902619 81.37971332152246 l -12.620913324115996 -24.20226542879155 a48.295367830833996,48.295367830833996 0 0,0 0.7383965679909691,-0.37703054890004045 l 12.203589534411444 24.415353929364425" fill="#bcff1f" stroke="none" /><path d="M 91.26138138417902 80.90454125486306 l -3.0154490184519696 -6.589300307220652 a28.246503385883507,28.246503385883507 0 0,0 0.4426450324041736,-0.19798949277687608 l 2.901890583192177 6.640093550907374" fill="#ff3805" stroke="none" /><path d="M 91.5904679813234 80.7573450057729 l -2.4450845007248474 -5.594831837810695 a27.105782628710678,27.105782628710678 0 0,0 0.4279679418921471,-0.1826740658468725 l 2.3486814836622694 5.635980553316972" fill="#ff2703" stroke="none" /><path d="M 92.25597844496254 80.48000691201159 l -8.806379471729208 -22.197829021606513 a44.88086959623895,44.88086959623895 0 0,0 0.7185806305555413,-0.27796242476899297 l 8.424026578680136 22.345731334513548" fill="#e5ff1a" stroke="none" /><path d="M 92.93061703081487 80.22567764915836 l -3.258500719084038 -9.114606448749845 a30.6795597860576,30.6795597860576 0 0,0 0.4974387153977531,-0.17303500710316402 l 3.1015562316412804 9.169199888421593" fill="#ff5b08" stroke="none" /><path d="M 93.61358852112211 79.99465700312896 l -2.848665185362413 -8.923403120030923 a30.367070864516478,30.367070864516478 0 0,0 0.49796120497369895,-0.15426965419733918 l 2.695063347517098 8.970989362034903" fill="#ff5708" stroke="none" /><path d="M 93.95794788825049 79.88797359093562 l -1.995496476871705 -6.642358771450222 a27.935628034855178,27.935628034855178 0 0,0 0.4604589496236343,-0.13403288943480685 l 1.8811775148664462 6.675635355187549" fill="#ff3304" stroke="none" /><path d="M 94.6519064749342 79.69241777938228 l -0.9000269460223894 -3.417548911861305 a24.534075419191105,24.534075419191105 0 0,0 0.4081940993845112,-0.10376134383293478 l 0.8412275534125001 3.432495487529503" fill="#ff0000" stroke="none" /><path d="M 95.00130118170881 79.60360301121753 l -11.46446191135222 -46.77891685553725 a69.16327386187646,69.16327386187646 0 0,0 1.1555794733435072,-0.2727136092292917 l 10.659750284268808 46.96882660841277" fill="#3aff91" stroke="none" /><path d="M 96.41257539226777 79.30868818359171 l -1.3821169670476254 -7.9716833826394735 a29.090610809058315,29.090610809058315 0 0,0 0.49277070070045204,-0.08108523127901646 l 1.2450687632941004 7.994234612414158" fill="#ff4406" stroke="none" /><path d="M 96.76829788921471 79.25015418208739 l -1.0396331483779064 -6.675190595085701 a27.75566477586971,27.75566477586971 0 0,0 0.4714166096534204,-0.06928200749652576 l 0.9248914331168011 6.6920536758811116" fill="#ff3004" stroke="none" /><path d="M 99.27912038922189 79.0123766808444 l -0.26304583157201605 -7.658292378041463 a28.662808574998817,28.662808574998817 0 0,0 0.49189021865564225,-0.01266934717784238 l 0.1315422988456299 7.661679442569351" fill="#ff3e05" stroke="none" /><path d="M 99.63950707515114 79.00309439819443 l -0.15529340355952392 -9.045062219985358 a30.046395227083302,30.046395227083302 0 0,0 0.5157863284083739,-0.004427405292379252 l 2.2157277917338916e-15 9.046395227083302" fill="#ff5207" stroke="none" /></svg>